<?xml version="1.0" encoding="UTF-8"?>
<svg width="254px" height="40px" viewBox="0 0 254 40" version="1.1" xmlns="http://www.w3.org/2000/svg" xmlns:xlink="http://www.w3.org/1999/xlink">
    <title>Avalanche</title>
    <defs>
        <filter color-interpolation-filters="auto" id="filter-1">
            <feColorMatrix in="SourceGraphic" type="matrix" values="0 0 0 0 0.121569 0 0 0 0 0.172549 0 0 0 0 0.450980 0 0 0 1.000000 0"></feColorMatrix>
        </filter>
    </defs>
    <g id="Avalanche" stroke="none" stroke-width="1" fill="none" fill-rule="evenodd">
        <g filter="url(#filter-1)" id="ACLogo">
            <g>
                <path d="M3.66441659,27.270974 C5.70877531,24.5708775 7.4831244,20.9836066 9.14175506,17.3577628 C12.2661524,16.9720347 15.8534233,17.0491803 18.4763742,17.0877531 L19.0549662,17.0877531 C17.2420444,22.1407907 16.2777242,25.3423337 16.3548698,27.270974 L18.5535198,27.270974 C18.2835101,25.4580521 20.8293153,18.5535198 22.4108004,14.3490839 C24.3008679,9.21890068 25.4966249,5.97878496 25.4966249,4.3972999 C25.4966249,1.8514947 23.3751205,0 20.4821601,0 C14.6962392,0 11.340405,7.32883317 7.75313404,15.12054 C7.71456123,15.1591128 7.67598843,15.2362584 7.67598843,15.3134041 C5.05303761,15.6991321 2.77724204,16.4320154 1.38862102,17.7820636 C0.462873674,18.707811 0,19.7878496 0,21.0607522 L2.23722276,21.0607522 C2.23722276,20.4050145 2.46865959,19.8649952 2.93153327,19.3635487 C3.70298939,18.6306654 4.975892,18.1292189 6.51880424,17.7820636 C4.74445516,21.485053 2.89296046,25.0337512 0.771456123,27.270974 L3.66441659,27.270974 Z M10.2217936,15.0048216 C13.2304725,8.56316297 16.3548698,2.19864995 20.4821601,2.19864995 C22.1407907,2.19864995 23.2594021,3.08582449 23.2594021,4.3972999 C23.2594021,5.67020251 21.7936355,9.68177435 20.3278689,13.5776278 L19.8649952,14.8891032 C19.4406943,14.8891032 18.9778206,14.8505304 18.514947,14.8505304 C15.9691418,14.8505304 12.9990357,14.7733848 10.2217936,15.0048216 Z M28.7753134,27.270974 C30.3182257,27.270974 31.9768563,25.7666345 33.5197686,23.683703 C35.2555448,23.5679846 39.3828351,23.0279653 40.4243009,18.6692382 L38.2642237,18.1677917 C37.8784957,19.7878496 36.9141755,20.7521697 35.1012536,21.2150434 C37.0684667,17.7820636 38.6499518,13.7704918 39.1513983,11.4946962 L36.7213115,11.4946962 C35.7569913,16.2005786 31.051109,25.072324 28.7753134,25.072324 C28.466731,25.072324 28.3510125,24.9951784 28.3510125,24.9951784 C27.9652845,24.4165863 29.2767599,21.3307618 29.8939248,19.8649952 C31.2054002,16.8177435 32.3240116,14.1562199 31.2825458,12.5747348 C30.9353905,12.0732883 30.2796528,11.4946962 28.9296046,11.4946962 C26.7309547,11.4946962 24.9180328,13.8862102 24.3394407,16.1620058 L23.7222758,18.2449373 L25.8823529,18.8621022 L26.460945,16.7020251 C26.8466731,15.1591128 28.0810029,13.6933462 28.9296046,13.6933462 C29.2767599,13.6933462 29.4310511,13.7704918 29.4310511,13.7704918 C29.855352,14.3876567 28.5438766,17.3963356 27.8881389,19.0163934 C26.5766635,22.0250723 25.4580521,24.6094503 26.4995178,26.2295082 C26.8466731,26.6923819 27.463838,27.270974 28.7753134,27.270974 Z M43.4715526,27.4252652 C45.5930569,27.4252652 47.4059788,26.075217 48.756027,24.4937319 C49.2960463,26.8466731 51.0703954,27.270974 52.1890068,27.270974 C55.9305689,27.270974 59.5564127,20.8293153 60.0578592,18.6692382 L57.8977821,18.1677917 C57.4734812,20.0578592 54.2719383,25.072324 52.1890068,25.072324 L52.0705111,25.0716611 C51.5060109,25.0623808 50.8003857,24.9231758 50.8003857,22.8351013 C50.8003857,21.5621986 52.7675988,15.2748312 54.0019286,11.7261331 L51.6489875,11.7261331 C51.3789778,12.536162 51.0318226,13.6547734 50.6460945,14.8891032 C49.6046287,12.9990357 47.753134,11.6489875 45.2073288,11.6489875 C40.8486017,11.6489875 37.7242044,17.4734812 37.7242044,21.4079074 C37.7242044,24.9566056 40.0771456,27.4252652 43.4715526,27.4252652 Z M43.4715526,25.2266152 C41.3114754,25.2266152 39.9228544,23.7222758 39.9228544,21.4079074 C39.9228544,18.4763742 42.3529412,13.8476374 45.2073288,13.8476374 C48.5245902,13.8476374 49.4117647,16.9720347 49.4503375,18.8621022 C49.3731919,19.0935391 49.2960463,19.3635487 49.2574735,19.5949855 L49.2189007,19.5564127 C48.8331726,20.8678881 46.2102218,25.2266152 43.4715526,25.2266152 Z M60.3278689,27.2324012 C64.1080039,27.2324012 67.3095468,20.4050145 67.6952748,18.6692382 L65.5351977,18.1677917 C65.1108968,20.0578592 62.2179364,25.0337512 60.3278689,25.0337512 C59.4021215,25.0337512 58.9778206,24.3394407 58.9778206,23.0279653 C58.9778206,21.6007715 62.8351013,8.756027 65.5351977,0.0771456123 L63.2594021,0.0771456123 C63.2208293,0.231436837 63.1436837,0.385728062 63.1051109,0.540019286 C62.5265188,2.00578592 58.707811,8.91031823 40.9257473,6.67309547 L40.6557377,8.87174542 C43.0858245,9.18032787 45.3616201,9.33461909 47.4831244,9.33461909 C53.1533269,9.33461909 57.6663452,8.25458052 60.9836066,6.09450338 C61.1764706,5.97878496 61.3307618,5.82449373 61.5236258,5.70877531 C59.4021215,12.6518804 56.7791707,21.6007715 56.7791707,23.0279653 C56.7791707,26.1137898 58.6692382,27.2324012 60.3278689,27.2324012 Z M70.7039537,27.4252652 C72.8254581,27.4252652 74.6383799,26.075217 75.9884282,24.4937319 C76.5284474,26.8466731 78.3027965,27.270974 79.4214079,27.270974 C83.1629701,27.270974 86.7888139,20.8293153 87.2902604,18.6692382 L85.1301832,18.1677917 C84.7058824,20.0578592 81.5043394,25.072324 79.4214079,25.072324 L79.3029122,25.0716611 C78.7384121,25.0623808 78.0327869,24.9231758 78.0327869,22.8351013 C78.0327869,21.5621986 80,15.2748312 81.2343298,11.7261331 L78.8813886,11.7261331 C78.611379,12.536162 78.2642237,13.6547734 77.8784957,14.8891032 C76.8370299,12.9990357 74.9855352,11.6489875 72.43973,11.6489875 C68.0810029,11.6489875 64.9566056,17.4734812 64.9566056,21.4079074 C64.9566056,24.9566056 67.3095468,27.4252652 70.7039537,27.4252652 Z M70.7039537,25.2266152 C68.5438766,25.2266152 67.1552555,23.7222758 67.1552555,21.4079074 C67.1552555,18.4763742 69.5853423,13.8476374 72.43973,13.8476374 C75.7569913,13.8476374 76.6441659,16.9720347 76.6827387,18.8621022 C76.6055931,19.0935391 76.5284474,19.3635487 76.4898746,19.5949855 L76.4513018,19.5564127 C76.0655738,20.8678881 73.442623,25.2266152 70.7039537,25.2266152 Z M96.5863067,27.270974 C100.327869,27.270974 104.069431,20.4435873 104.493732,18.6692382 L102.333655,18.1677917 C101.947927,19.8649952 98.5535198,25.072324 96.5863067,25.072324 C95.6991321,25.072324 95.2362584,24.3780135 95.2362584,23.0279653 C95.2362584,21.4464802 95.9305689,19.8264224 96.4320154,18.7463838 C96.509161,18.5920926 96.5477338,18.4378014 96.6248795,18.2835101 C97.5891996,15.9691418 97.6663452,14.1947927 96.8563163,12.9604629 C96.2005786,11.9961427 95.0819672,11.4561234 93.6933462,11.4561234 C91.9189971,11.4561234 90.1060752,12.729026 88.563163,14.3490839 L89.4117647,11.4561234 L87.0973963,11.4561234 C84.2815815,21.099325 84.2430087,21.3307618 84.2044359,21.5236258 L82.5458052,27.2324012 L84.8216008,27.2324012 L86.4802314,21.5621986 C87.5216972,18.9392478 91.147541,13.6933462 93.6933462,13.6933462 C94.0405014,13.6933462 94.734812,13.731919 95.0048216,14.1562199 C95.1976856,14.4262295 95.5062681,15.2748312 94.5805207,17.4349084 C94.5419479,17.5506268 94.4648023,17.704918 94.3876567,17.8592093 C93.8862102,19.0549662 92.9990357,20.9836066 92.9990357,23.0279653 C92.9990357,26.1523626 94.927676,27.270974 96.5863067,27.270974 Z M107.270974,27.2324012 C112.516876,27.2324012 115.87271,20.4821601 116.297011,18.6692382 L114.175506,18.1677917 C113.751205,19.9421408 110.703954,24.9951784 107.270974,24.9951784 C105.265188,24.9951784 104.030858,23.7608486 104.030858,21.7164899 C104.030858,17.8592093 106.538091,13.6162006 108.813886,13.6162006 C109.122469,13.6162006 109.739634,13.9633558 109.739634,14.5805207 C109.739634,15.5834137 109.27676,16.8563163 109.122469,17.0877531 L110.048216,17.704918 L110.935391,18.3606557 C111.282546,17.8592093 111.938284,16.0462874 111.938284,14.5805207 C111.938284,12.6904532 110.318226,11.4175506 108.813886,11.4175506 C104.956606,11.4175506 101.832208,17.0491803 101.832208,21.7164899 C101.832208,24.9566056 104.069431,27.2324012 107.270974,27.2324012 Z M125.515911,27.2324012 C129.180328,27.2324012 132.844744,20.7521697 133.346191,18.6692382 L131.186114,18.1677917 C130.761813,19.9421408 127.483124,25.0337512 125.515911,25.0337512 L125.406599,25.0330144 C124.926473,25.0238038 124.165863,24.8994607 124.165863,23.2208293 C124.165863,21.6393443 124.898746,20.0192864 125.36162,18.9778206 C125.438766,18.7849566 125.515911,18.6306654 125.554484,18.4763742 C126.557377,16.0848602 126.634523,14.2333655 125.785921,12.9604629 C125.168756,12.0347155 124.088717,11.4946962 122.777242,11.4946962 C120.925747,11.4946962 119.03568,12.9218901 117.415622,14.734812 L121.23433,1.38862102 C121.388621,1.04146577 121.465767,0.81002893 121.465767,0.771456123 L121.427194,0.771456123 L121.658631,0 L119.344262,0 L119.189971,0.540019286 C118.495661,2.16007715 114.561234,8.83317261 97.0491803,6.63452266 L96.7791707,8.83317261 C99.2092575,9.14175506 101.485053,9.29604629 103.606557,9.29604629 C109.27676,9.29604629 113.789778,8.21600771 117.10704,6.01735776 L117.762777,5.55448409 L113.134041,21.7936355 L111.552555,27.1938284 L113.866924,27.1938284 L115.216972,22.4108004 C115.911283,19.9807136 120.115718,13.6933462 122.777242,13.6933462 C123.16297,13.6933462 123.702989,13.8090646 123.972999,14.1947927 C124.165863,14.4648023 124.474446,15.3905497 123.548698,17.6277724 L123.355834,18.0906461 C122.815815,19.2478303 121.967213,21.1764706 121.967213,23.2208293 C121.967213,25.7280617 123.278689,27.2324012 125.515911,27.2324012 Z M136.046287,27.270974 C141.253616,27.270974 144.493732,20.5593057 144.956606,18.6692382 L142.796528,18.1677917 C142.4108,19.7878496 139.556413,25.072324 136.046287,25.072324 C134.040501,25.072324 132.806172,23.7994214 132.806172,21.7936355 C132.806172,21.3307618 132.844744,20.9064609 132.92189,20.4821601 C133.731919,21.1378978 134.773385,21.6007715 135.776278,21.6007715 C138.630665,21.6007715 141.253616,18.5535198 141.253616,15.1976856 C141.253616,12.8061716 139.093539,11.4946962 137.5892,11.4946962 C134.541948,11.4946962 130.607522,16.4705882 130.607522,21.7936355 C130.607522,24.9951784 132.844744,27.270974 136.046287,27.270974 Z M135.776278,19.4021215 C134.773385,19.4021215 133.809065,18.3992285 133.616201,17.8977821 C134.696239,15.3519769 136.624879,13.6933462 137.5892,13.6933462 C138.0135,13.6933462 139.054966,14.1562199 139.054966,15.1976856 C139.054966,17.31919 137.434908,19.4021215 135.776278,19.4021215 Z M162.815815,28.5438766 C169.951784,28.5438766 174.657666,23.1051109 175.969142,18.1677917 L173.693346,18.1677917 C172.22758,22.3722276 167.637416,26.3452266 162.815815,26.3452266 C159.575699,26.3452266 157.569913,23.6065574 157.569913,19.1706847 C157.569913,12.0732883 162.815815,2.19864995 167.984571,2.19864995 C169.643202,2.19864995 170.684667,2.81581485 171.224687,4.05014465 C171.610415,4.93731919 171.610415,6.01735776 171.494696,6.94310511 L173.731919,6.94310511 C173.847637,5.70877531 173.731919,4.3587271 173.269045,3.20154291 C172.381871,1.15718419 170.530376,0 167.984571,0 C161.041466,0 155.371263,11.6104147 155.371263,19.1706847 C155.371263,24.87946 158.302797,28.5438766 162.815815,28.5438766 Z M178.862102,27.4252652 C180.983607,27.4252652 182.796528,26.075217 184.146577,24.4937319 C184.686596,26.8466731 186.460945,27.270974 187.579556,27.270974 C191.321119,27.270974 194.946962,20.8293153 195.448409,18.6692382 L193.288332,18.1677917 C192.864031,20.0578592 189.662488,25.072324 187.579556,25.072324 L187.461061,25.0716611 C186.89656,25.0623808 186.190935,24.9231758 186.190935,22.8351013 C186.190935,21.5621986 188.158149,15.2748312 189.392478,11.7261331 L187.039537,11.7261331 C186.769527,12.536162 186.422372,13.6547734 186.036644,14.8891032 C184.995178,12.9990357 183.143684,11.6489875 180.597878,11.6489875 C176.239151,11.6489875 173.114754,17.4734812 173.114754,21.4079074 C173.114754,24.9566056 175.467695,27.4252652 178.862102,27.4252652 Z M178.862102,25.2266152 C176.702025,25.2266152 175.313404,23.7222758 175.313404,21.4079074 C175.313404,18.4763742 177.743491,13.8476374 180.597878,13.8476374 C183.91514,13.8476374 184.802314,16.9720347 184.840887,18.8621022 C184.763742,19.0935391 184.686596,19.3635487 184.648023,19.5949855 L184.60945,19.5564127 C184.223722,20.8678881 181.600771,25.2266152 178.862102,25.2266152 Z M189.27676,40 L193.558341,25.1108968 C194.329797,26.2295082 195.564127,27.1166827 197.415622,27.1166827 C199.768563,27.1166827 201.581485,26.0366442 202.931533,24.4937319 C205.168756,23.683703 207.714561,21.7936355 208.486017,18.6692382 L206.32594,18.1677917 C206.094503,19.0549662 205.670203,19.8264224 205.130183,20.4435873 C205.554484,19.0549662 205.785921,17.5891996 205.785921,16.316297 C205.785921,13.3847637 204.165863,11.6104147 201.427194,11.6104147 C200.115718,11.6104147 198.418515,12.4204436 196.875603,13.6547734 L197.492768,11.4946962 L195.178399,11.4946962 L193.172613,18.5535198 C193.095468,18.7463838 193.018322,18.9392478 192.979749,19.1321119 L187.000964,40 L189.27676,40 Z M197.415622,24.9180328 C195.024108,24.9180328 194.676953,22.2179364 194.63838,21.4079074 L195.255545,19.2092575 C196.412729,16.2005786 199.961427,13.8090646 201.427194,13.8090646 C202.430087,13.8090646 203.587271,14.1176471 203.587271,16.316297 C203.587271,19.1321119 202.082932,24.9180328 197.415622,24.9180328 Z M211.417551,8.33172613 L212.381871,5.47733848 L210.067502,5.47733848 L209.103182,8.33172613 L211.417551,8.33172613 Z M209.527483,27.270974 C213.230473,27.270974 216.933462,20.7521697 217.434908,18.6692382 L215.274831,18.1677917 C214.85053,19.9807136 211.610415,25.072324 209.527483,25.072324 C208.331726,25.072324 207.56027,24.1465767 207.56027,22.7579556 C207.56027,21.4464802 209.604629,15.0048216 210.838959,11.4946962 L208.486017,11.4946962 C207.56027,14.1947927 205.323047,20.9836066 205.323047,22.7579556 C205.323047,25.3809065 207.097396,27.270974 209.527483,27.270974 Z M218.437801,27.2324012 C222.140791,27.2324012 225.805207,20.7521697 226.306654,18.6692382 L224.185149,18.1677917 C223.722276,19.9807136 220.48216,25.0337512 218.437801,25.0337512 C217.242044,25.0337512 216.470588,24.1465767 216.470588,22.7193828 C216.470588,21.4464802 220.327869,8.94889103 220.713597,7.63741562 L224.300868,7.63741562 L225.033751,5.43876567 L221.369335,5.43876567 C221.832208,3.93442623 222.295082,2.43008679 222.719383,1.04146577 C222.796528,0.848601736 222.835101,0.732883317 222.835101,0.694310511 C222.912247,0.462873674 222.989392,0.231436837 223.066538,0 L220.75217,0 C220.75217,0.0385728062 220.713597,0.0771456123 220.713597,0.154291225 L220.708156,0.169221061 C220.566326,0.578715526 217.735005,8.97666345 198.418515,6.55737705 L198.148505,8.756027 C200.578592,9.06460945 202.854388,9.21890068 204.975892,9.21890068 C210.646095,9.21890068 215.159113,8.1388621 218.476374,5.94021215 C218.669238,5.82449373 218.900675,5.67020251 219.054966,5.55448409 C217.897782,9.48891032 216.432015,14.3105111 216.007715,15.8534233 C215.12054,18.6306654 214.271938,21.6393443 214.271938,22.7193828 C214.271938,25.3423337 216.007715,27.2324012 218.437801,27.2324012 Z M229.353905,27.4252652 C231.47541,27.4252652 233.288332,26.075217 234.63838,24.4937319 C235.178399,26.8466731 236.952748,27.270974 238.07136,27.270974 C241.812922,27.270974 245.438766,20.8293153 245.940212,18.6692382 L243.780135,18.1677917 C243.355834,20.0578592 240.154291,25.072324 238.07136,25.072324 L237.952864,25.0716611 C237.388364,25.0623808 236.682739,24.9231758 236.682739,22.8351013 C236.682739,21.5621986 238.649952,15.2748312 239.884282,11.7261331 L237.53134,11.7261331 C237.261331,12.536162 236.914176,13.6547734 236.528447,14.8891032 C235.486982,12.9990357 233.635487,11.6489875 231.089682,11.6489875 C226.730955,11.6489875 223.606557,17.4734812 223.606557,21.4079074 C223.606557,24.9566056 225.959499,27.4252652 229.353905,27.4252652 Z M229.353905,25.2266152 C227.193828,25.2266152 225.805207,23.7222758 225.805207,21.4079074 C225.805207,18.4763742 228.235294,13.8476374 231.089682,13.8476374 C234.406943,13.8476374 235.294118,16.9720347 235.33269,18.8621022 C235.255545,19.0935391 235.178399,19.3635487 235.139826,19.5949855 L235.101254,19.5564127 C234.715526,20.8678881 232.092575,25.2266152 229.353905,25.2266152 Z M246.210222,27.2324012 C249.990357,27.2324012 253.1919,20.4050145 253.577628,18.6692382 L251.417551,18.1677917 C250.99325,20.0578592 248.100289,25.0337512 246.210222,25.0337512 C245.284474,25.0337512 244.860174,24.3394407 244.860174,23.0279653 C244.860174,21.6007715 248.717454,8.756027 251.417551,0.0771456123 L249.141755,0.0771456123 C249.103182,0.231436837 249.026037,0.385728062 248.987464,0.540019286 C248.408872,2.00578592 244.590164,8.91031823 226.8081,6.67309547 L226.538091,8.87174542 C228.968177,9.18032787 231.243973,9.33461909 233.365477,9.33461909 C239.03568,9.33461909 243.548698,8.25458052 246.865959,6.09450338 C247.058824,5.97878496 247.213115,5.82449373 247.405979,5.70877531 C245.284474,12.6518804 242.661524,21.6007715 242.661524,23.0279653 C242.661524,26.1137898 244.551591,27.2324012 246.210222,27.2324012 Z" id="AvalancheCapital" fill="#FFFFFF" fill-rule="nonzero"></path>
                <circle id="Oval" fill="#FFFFFF" fill-rule="nonzero" cx="149.913211" cy="16.9141755" r="2.41080039"></circle>
            </g>
        </g>
    </g>
</svg>