<?xml version="1.0" encoding="UTF-8"?>
<svg width="213px" height="40px" viewBox="0 0 213 40" version="1.1" xmlns="http://www.w3.org/2000/svg" xmlns:xlink="http://www.w3.org/1999/xlink">
    <title>avaxnodes</title>
    <defs>
        <filter color-interpolation-filters="auto" id="filter-1">
            <feColorMatrix in="SourceGraphic" type="matrix" values="0 0 0 0 0.121569 0 0 0 0 0.172549 0 0 0 0 0.450980 0 0 0 1.000000 0"></feColorMatrix>
        </filter>
    </defs>
    <g id="avaxnodes" stroke="none" stroke-width="1" fill="none" fill-rule="evenodd">
        <g filter="url(#filter-1)" id="1818C440-898C-4121-B584-BB259E8C9315">
            <g>
                <path d="M61.1928104,29.7326202 L62.5297089,25.7219251 L69.5617945,25.7219251 L70.9120618,29.7326202 L75.1767677,29.7326202 L67.8906713,10.2673797 L64.1740939,10.2673797 L56.9281046,29.7326202 L61.1928104,29.7326202 Z M68.4789067,22.473262 L63.6125965,22.473262 L66.0323827,15.1871658 L68.4789067,22.473262 Z M85.1379395,29.7326202 L91.9160144,10.2673797 L87.4507738,10.2673797 L83.0390091,24.9064171 L78.6539823,10.2673797 L74.2021106,10.2673797 L80.9534475,29.7326202 L85.1379395,29.7326202 Z M95.2461701,29.7326202 L96.5830686,25.7219251 L103.615154,25.7219251 L104.965422,29.7326202 L109.230127,29.7326202 L101.944031,10.2673797 L98.2274536,10.2673797 L90.9814643,29.7326202 L95.2461701,29.7326202 Z M102.532266,22.473262 L97.6659562,22.473262 L100.085742,15.1871658 L102.532266,22.473262 Z M114.151192,29.7326202 L117.894508,22.9144385 L121.637823,29.7326202 L126.303599,29.7326202 L120.488091,19.9197861 L126.15654,10.2673797 L121.54424,10.2673797 L117.894508,16.9786096 L114.244775,10.2673797 L109.632476,10.2673797 L115.300925,19.9197861 L109.485417,29.7326202 L114.151192,29.7326202 Z M132.213968,29.7326202 L132.213968,16.9251337 L140.021455,29.7326202 L144.03215,29.7326202 L144.03215,10.2673797 L140.034824,10.2673797 L140.034824,23.1016043 L132.213968,10.2673797 L128.203273,10.2673797 L128.203273,29.7326202 L132.213968,29.7326202 Z M155.143055,30 C156.774071,30 158.220149,29.6078431 159.48129,28.8235294 C160.742431,28.0392157 161.711682,26.9251337 162.389044,25.4812835 C163.066406,24.0374331 163.405087,22.3573975 163.405087,20.4411765 L163.405087,20.4411765 L163.405087,19.5721925 C163.405087,17.6648841 163.059721,15.9826203 162.36899,14.5254011 C161.67826,13.0681818 160.702324,11.9496435 159.441183,11.1697861 C158.180042,10.3899287 156.73842,10 155.116317,10 C153.494213,10 152.052591,10.3899287 150.79145,11.1697861 C149.53031,11.9496435 148.554374,13.0681818 147.863643,14.5254011 C147.172912,15.9826203 146.827547,17.6693405 146.827547,19.5855615 L146.827547,19.5855615 L146.827547,20.5481283 C146.836459,22.4197861 147.188509,24.0753119 147.883696,25.5147058 C148.578883,26.9540998 149.559276,28.0614973 150.824873,28.8368985 C152.09047,29.6122995 153.529864,30 155.143055,30 Z M155.143055,26.7112299 C153.770506,26.7112299 152.718812,26.1631017 151.987974,25.0668449 C151.257137,23.9705882 150.891718,22.4286988 150.891718,20.4411765 L150.891718,20.4411765 L150.891718,19.4919786 C150.90063,17.4688057 151.270506,15.9336007 152.001343,14.8863636 C152.732181,13.8391266 153.770506,13.315508 155.116317,13.315508 C156.47104,13.315508 157.513821,13.845811 158.244659,14.9064171 C158.975497,15.9670232 159.340916,17.5178253 159.340916,19.5588235 L159.340916,19.5588235 L159.340916,20.5080214 C159.332003,22.5311943 158.966584,24.0708556 158.244659,25.1270053 C157.522734,26.1831551 156.488866,26.7112299 155.143055,26.7112299 Z M172.229895,29.7326202 C173.932212,29.7237077 175.460733,29.3315508 176.815457,28.5561498 C178.170181,27.7807486 179.219645,26.6889483 179.963852,25.2807486 C180.708059,23.872549 181.080163,22.2638146 181.080163,20.4545455 L181.080163,20.4545455 L181.080163,19.5588235 C181.080163,17.7495544 180.701374,16.1341355 179.943798,14.7125668 C179.186222,13.2909982 178.132301,12.1947415 176.782034,11.4237968 C175.431766,10.6528521 173.901018,10.2673797 172.189788,10.2673797 L172.189788,10.2673797 L166.200483,10.2673797 L166.200483,29.7326202 L172.229895,29.7326202 Z M172.149681,26.5106952 L170.211178,26.5106952 L170.211178,13.5160428 L172.189788,13.5160428 C173.767328,13.5160428 174.96608,14.0262923 175.786045,15.0467914 C176.606009,16.0672906 177.015992,17.5668449 177.015992,19.5454545 L177.015992,19.5454545 L177.015992,20.5748663 C176.998166,22.4821747 176.574814,23.9483066 175.745938,24.973262 C174.917061,25.9982174 173.718308,26.5106952 172.149681,26.5106952 L172.149681,26.5106952 Z M196.923687,29.7326202 L196.923687,26.5106952 L187.886254,26.5106952 L187.886254,21.2967914 L195.586789,21.2967914 L195.586789,18.1550802 L187.886254,18.1550802 L187.886254,13.5160428 L196.896949,13.5160428 L196.896949,10.2673797 L183.875558,10.2673797 L183.875558,29.7326202 L196.923687,29.7326202 Z M206.216409,30 C208.373272,30 210.088959,29.5209448 211.363468,28.5628343 C212.637978,27.6047238 213.275233,26.2834224 213.275233,24.5989305 C213.275233,23.083779 212.753843,21.8181818 211.711062,20.802139 C210.668281,19.7860963 209.006071,18.9349376 206.724431,18.2486631 C205.485572,17.8743315 204.547514,17.473262 203.91026,17.0454545 C203.273005,16.6176471 202.954377,16.087344 202.954377,15.4545455 C202.954377,14.7771836 203.226213,14.2312834 203.769886,13.8168449 C204.313558,13.4024064 205.075589,13.1951872 206.055982,13.1951872 C207.072024,13.1951872 207.860794,13.4425134 208.422292,13.9371658 C208.983789,14.4318182 209.264538,15.1247772 209.264538,16.0160428 L209.264538,16.0160428 L213.275233,16.0160428 C213.275233,14.8484848 212.974432,13.8057041 212.372827,12.8877005 C211.771223,11.969697 210.926748,11.2589127 209.839404,10.7553476 C208.752061,10.2517825 207.5132,10 206.122827,10 C204.741365,10 203.495821,10.2317291 202.386196,10.6951872 C201.27657,11.1586453 200.425412,11.8025847 199.83272,12.6270053 C199.240029,13.451426 198.943682,14.3894831 198.943682,15.4411765 C198.943682,17.4643494 200.048852,19.0730838 202.25919,20.2673797 C203.070242,20.7040998 204.170955,21.1475045 205.561329,21.5975936 C206.951704,22.0476827 207.91427,22.4754902 208.44903,22.881016 C208.983789,23.2865419 209.25117,23.8680927 209.25117,24.6256685 C209.25117,25.3208556 208.983789,25.8622995 208.44903,26.25 C207.91427,26.6377006 207.170065,26.8315508 206.216409,26.8315508 C203.649564,26.8315508 202.366142,25.7575758 202.366142,23.6096257 L202.366142,23.6096257 L198.342079,23.6096257 C198.342079,24.8663102 198.665162,25.9714795 199.31133,26.9251337 C199.957496,27.8787878 200.895555,28.6296792 202.1255,29.1778076 C203.355447,29.7259358 204.719083,30 206.216409,30 Z" id="AVAXNODES" fill="#FFFFFF" fill-rule="nonzero"></path>
                <path d="M24.3374926,0 C28.5378757,0 31.942959,3.40508332 31.942959,7.60546643 C31.942959,9.44808078 31.2876912,11.1376491 30.1974691,12.453858 L38.7679993,24.6919465 C39.4940393,24.4617048 40.2672734,24.3374926 41.0695187,24.3374926 C45.2699019,24.3374926 48.6749851,27.7425759 48.6749851,31.942959 C48.6749851,36.1433422 45.2699019,39.5484254 41.0695187,39.5484254 C36.8691355,39.5484254 33.4640523,36.1433422 33.4640523,31.942959 C33.4640523,29.6433405 34.4846663,27.5820993 36.0976364,26.1874928 L27.8205026,14.3683032 C26.7769576,14.9068395 25.5927375,15.2109329 24.3374926,15.2109329 C23.0822476,15.2109329 21.8980275,14.9068395 20.8544825,14.3683032 L12.5773487,26.1874928 C14.1903189,27.5820993 15.2109329,29.6433405 15.2109329,31.942959 C15.2109329,36.1433422 11.8058495,39.5484254 7.60546643,39.5484254 C3.40508332,39.5484254 0,36.1433422 0,31.942959 C0,27.7425759 3.40508332,24.3374926 7.60546643,24.3374926 C8.40771178,24.3374926 9.18094583,24.4617048 9.9069858,24.6919465 L18.477516,12.453858 C17.3872939,11.1376491 16.7320261,9.44808078 16.7320261,7.60546643 C16.7320261,3.40508332 20.1371095,0 24.3374926,0 Z" id="Combined-Shape" fill="#E84142" fill-rule="nonzero"></path>
            </g>
        </g>
    </g>
</svg>