<?xml version="1.0" encoding="UTF-8"?>
<svg width="190px" height="40px" viewBox="0 0 190 40" version="1.1" xmlns="http://www.w3.org/2000/svg" xmlns:xlink="http://www.w3.org/1999/xlink">
    <title>bitcoinkopen</title>
    <defs>
        <filter color-interpolation-filters="auto" id="filter-1">
            <feColorMatrix in="SourceGraphic" type="matrix" values="0 0 0 0 0.121569 0 0 0 0 0.172549 0 0 0 0 0.450980 0 0 0 1.000000 0"></feColorMatrix>
        </filter>
    </defs>
    <g id="bitcoinkopen" stroke="none" stroke-width="1" fill="none" fill-rule="evenodd">
        <g filter="url(#filter-1)">
            <g transform="translate(0.481494, 0.000000)">
                <g id="BitcoinKopen-Copy" transform="translate(45.518506, 5.000000)" fill="#FFFFFF" fill-rule="nonzero" font-family="HKGrotesk-Bold, HK Grotesk" font-size="24" font-weight="bold">
                    <text id="BitcoinKopen">
                        <tspan x="0" y="24">Bitcoin</tspan>
                        <tspan x="74.856" y="24" font-family="HKGrotesk-Regular, HK Grotesk" font-weight="normal">Kopen</tspan>
                    </text>
                </g>
                <g id="Group-30" fill="#FFFFFF" fill-rule="nonzero">
                    <path d="M32.1095492,32.980322 L30.6162093,32.1687875 L8.85717639,32.1687875 L7.3638364,32.980322 L7.12719711,34.4062768 L16.5602053,34.4062768 L19.0211923,33.0691037 C19.4690392,32.8258356 20.0043465,32.8258356 20.4521934,33.0691037 L22.9131804,34.4062768 L32.3461886,34.4062768 L32.1095492,32.980322 Z" id="Fill-1"></path>
                    <path d="M7.14997288,36.8916742 C6.93948397,38.2794018 8.22880415,39.3375012 9.33159601,38.6823568 L13.7060644,36.0843937 L7.27250528,36.0843937 L7.14997288,36.8916742 Z" id="Fill-3"></path>
                    <polygon id="Fill-5" points="12.0613476 30.4906705 27.4120381 30.4906705 22.7609286 28.2531812 16.7124571 28.2531812"></polygon>
                    <path d="M32.749059,36.0843937 L26.3155602,36.0843937 L30.6899875,38.6823568 C31.7930724,39.3375012 33.0823804,38.2794018 32.8715902,36.8916742 L32.749059,36.0843937 Z" id="Fill-7"></path>
                    <g id="Group-15">
                        <path d="M39.5408455,16.1925857 C40.4468694,15.3013191 39.9469092,13.7484394 38.6951616,13.5647788 L27.5180962,11.9251964 C27.0209067,11.8521672 26.591138,11.5373649 26.368865,11.0824088 L21.3704947,0.858636514 C20.8108102,-0.286212171 19.1930203,-0.286212171 18.633028,0.858636514 L13.6346576,11.0824088 C13.4123846,11.5373649 12.9826159,11.8521672 12.4857343,11.9251964 L1.30836099,13.5647788 C0.0566133922,13.7484394 -0.443346789,15.3013191 0.46267711,16.1925857 L8.55039502,24.1505892 C8.9099723,24.5045476 9.07406022,25.0145087 8.98939948,25.5142146 L8.14679415,30.4727395 L16.0497977,26.0157852 C15.4928767,26.0157852 24.361472,26.0157852 23.9537249,26.0157852 L31.8567285,30.4727395 L31.0141231,25.5142146 C30.9294624,25.0145087 31.0935503,24.5045476 31.4531276,24.1505892 L39.5408455,16.1925857 Z" id="Fill-13"></path>
                    </g>
                    <path d="M37.3336856,21.264673 L33.1671969,25.5128495 C32.9593996,25.7250999 32.8617039,26.0251017 32.9041938,26.3222523 L33.704368,31.9155264 C33.8448638,32.8982142 35.181589,33.0290492 35.502279,32.0913458 L38.8685935,22.2502119 C39.1945559,21.2976193 38.0330627,20.5515748 37.3336856,21.264673" id="Fill-20"></path>
                    <path d="M24.7798405,4.422284 L27.4464532,9.55254806 C27.5795706,9.8087262 27.82631,9.98692388 28.111431,10.0329201 L33.4769457,10.8995394 C34.4197337,11.0518451 34.9342309,9.8373597 34.1687297,9.26590884 L26.1366023,3.26933009 C25.3589165,2.68874089 24.3320543,3.56114775 24.7798405,4.422284" id="Fill-22"></path>
                    <path d="M15.241892,4.422284 L12.5750097,9.55254806 C12.4421986,9.8087262 12.1954625,9.98692388 11.9103452,10.0329201 L6.54459627,10.8995394 C5.60212528,11.0518451 5.08733017,9.8373597 5.85282135,9.26590884 L13.8851479,3.26933009 C14.6628236,2.68874089 15.6893677,3.56114775 15.241892,4.422284" id="Fill-24"></path>
                    <path d="M2.68771966,21.264673 L6.85441433,25.5128495 C7.0622218,25.7250999 7.15992233,26.0251017 7.11743032,26.3222523 L6.31752667,31.9155264 C6.17702404,32.8982142 4.8399226,33.0290492 4.51921675,32.0913458 L1.15304605,22.2502119 C0.827067485,21.2976193 1.98830798,20.5515748 2.68771966,21.264673" id="Fill-26"></path>
                    <path d="M14.2321851,38.2117639 L19.5287739,35.6188529 C19.7931694,35.4892388 20.102819,35.4942602 20.363185,35.6317202 L25.2664352,38.2224343 C26.1281227,38.6774962 25.8085544,39.9971755 24.8368312,39.9974893 L14.6369923,40 C13.6494611,40 13.3432211,38.6470541 14.2321851,38.2117639" id="Fill-28"></path>
                </g>
            </g>
        </g>
    </g>
</svg>