<?xml version="1.0" encoding="UTF-8"?>
<svg width="210px" height="40px" viewBox="0 0 210 40" version="1.1" xmlns="http://www.w3.org/2000/svg" xmlns:xlink="http://www.w3.org/1999/xlink">
    <title>collectix-color</title>
    <defs>
        <polygon id="path-1" points="2.81131042e-14 1.40565521e-14 17.4293977 1.40565521e-14 17.4293977 21.3600252 2.81131042e-14 21.3600252"></polygon>
        <polygon id="path-3" points="0 0 36.0879974 0 36.0879974 40 0 40"></polygon>
    </defs>
    <g id="collectix-color" stroke="none" stroke-width="1" fill="none" fill-rule="evenodd">
        <g id="Group-31" transform="translate(-0.082920, 0.000000)">
            <g id="Group" transform="translate(45.082920, 9.000000)">
                <path d="M5.3628802,20.4765978 C3.71744262,19.5015512 2.41202257,18.1758537 1.44711463,16.5 C0.482206686,14.8241463 0,12.9912663 0,11.0001236 C0,9.03000022 0.482206686,7.2065171 1.44711463,5.5306634 C2.41202257,3.8548097 3.71744262,2.52441382 5.3628802,1.53898118 C7.0080705,0.553795832 8.80608322,0.0609558708 10.7561765,0.0609558708 C12.3200099,0.0609558708 13.7878965,0.376244858 15.1593418,1.0055864 C16.5302925,1.63566981 17.7135535,2.49869613 18.7088775,3.59565452 C18.7902345,3.67701144 18.8310366,3.77864577 18.8310366,3.90031023 C18.8310366,4.04274667 18.7800958,4.1545197 18.6787087,4.23562934 L16.4847919,6.12464312 C16.3829103,6.22677203 16.2713846,6.27697098 16.1494728,6.27697098 C16.0278084,6.27697098 15.9256795,6.22677203 15.8448171,6.12464312 C15.1944563,5.41394465 14.4278713,4.86002518 13.5443203,4.46412112 C12.660522,4.06821707 11.7309759,3.86989412 10.7561765,3.86989412 C9.496257,3.86989412 8.33376796,4.18988153 7.26722568,4.82985635 C6.20068341,5.46983117 5.35224693,6.33805049 4.72290538,7.43500888 C4.09306926,8.53196727 3.77827485,9.720174 3.77827485,11.0001236 C3.77827485,12.279826 4.09306926,13.46828 4.72290538,14.5652384 C5.35224693,15.6621968 6.20068341,16.5306634 7.26722568,17.1706382 C8.33376796,17.8103658 9.496257,18.1303532 10.7561765,18.1303532 C11.6901738,18.1303532 12.5739721,17.9528022 13.4073241,17.5972057 C14.2399344,17.2418564 14.9812962,16.7391251 15.6314098,16.0887642 C15.814401,15.9262977 16.0072837,15.845188 16.2105523,15.845188 C16.393049,15.845188 16.5352382,15.8961289 16.6371198,15.9972686 L17.2160151,16.4846683 L18.434638,17.581874 C18.6376593,17.7243104 18.7395409,17.9169458 18.7395409,18.1607693 C18.7395409,18.3032057 18.6886001,18.4251175 18.5872131,18.5265045 C17.5913945,19.6034328 16.4185194,20.441236 15.0678461,21.0404087 C13.7166783,21.6395814 12.2797024,21.9390441 10.7561765,21.9390441 C8.80608322,21.9390441 7.0080705,21.4516444 5.3628802,20.4765978" id="Fill-1" fill="#000030"></path>
                <path d="M23.3367466,15.5859092 C22.6663557,14.0927995 22.3310366,12.5440505 22.3310366,10.9391678 C22.3310366,9.67999011 22.5392509,8.44578828 22.9556797,7.23705685 C23.3721084,6.02882 23.9967516,4.92642133 24.8298563,3.93109727 C25.8249331,2.71197986 26.9931097,1.77278961 28.3338916,1.11253737 C29.6746735,0.452532428 31.086179,0.0816042083 32.5693973,0 L32.6302295,0 C32.7926961,0 32.9296922,0.060832228 33.0417126,0.182991255 C33.1532383,0.304902997 33.2192635,0.457230852 33.2395409,0.639974822 L33.2395409,3.29112245 C33.2395409,3.67713509 33.0263809,3.89029517 32.6000607,3.93109727 C31.6858463,4.01220691 30.8121867,4.27136209 29.9795765,4.70806825 C29.1462244,5.14502169 28.4454174,5.72861543 27.876908,6.46008588 C26.7799496,7.80086775 26.2314704,9.31425488 26.2314704,11 C26.2314704,12.0163433 26.4448778,12.9958411 26.8714453,13.9407189 C27.2980127,14.8851022 27.9073241,15.6927366 28.6996268,16.3628802 C30.0404087,17.4600859 31.5434098,18.0085651 33.2093721,18.0085651 C34.2249736,18.0085651 35.2000202,17.7951577 36.1342648,17.3685902 C37.0685093,16.9420228 37.860812,16.3225727 38.5114201,15.5097453 C39.059652,14.8598791 39.471135,14.1439876 39.7451274,13.3615763 C40.0193669,12.5799069 40.1566104,11.7824113 40.1566104,10.9698312 C40.1566104,9.81179327 39.9024009,8.73511229 39.3947238,7.73978823 C39.2930895,7.53676685 39.242396,7.33349819 39.242396,7.13022953 C39.242396,6.8666232 39.364555,6.63269114 39.6081312,6.42942248 C39.7705978,6.32803543 40.0853922,6.11462806 40.5527617,5.78944765 C41.0196367,5.4650091 41.3146483,5.26174044 41.4363127,5.18013623 C41.5987793,5.07874919 41.7511072,5.02780838 41.8935436,5.02780838 C42.2179822,5.02780838 42.4620529,5.18013623 42.6247668,5.48503923 C43.5998134,7.19106175 44.0874604,9.02987658 44.0874604,11 C44.0874604,12.2799496 43.8743003,13.5242902 43.4474856,14.7327743 C43.0209181,15.9415057 42.391082,17.0436571 41.5582245,18.0387339 C40.5629004,19.3186835 39.3185599,20.2989232 37.8254502,20.9794528 C36.3325877,21.6602298 34.7734528,22 33.1482926,22 C31.8685902,22 30.6294427,21.7813996 29.4310973,21.345188 C28.2322573,20.9084819 27.165715,20.2737001 26.2314704,19.4405953 C24.9717982,18.3641616 24.0068903,17.079019 23.3367466,15.5859092" id="Fill-3" fill="#000030"></path>
                <path d="M47.785536,21.4822089 C47.6532383,21.3600499 47.5874604,21.2077221 47.5874604,21.0249781 L47.5874604,0.944655262 C47.5874604,0.782435987 47.6532383,0.635301126 47.785536,0.502756109 C47.9173392,0.370952948 48.0644741,0.304927725 48.2274352,0.304927725 L51.5183104,0.304927725 C51.7013016,0.304927725 51.8533822,0.370952948 51.9752939,0.502756109 C52.0972057,0.635301126 52.1580379,0.782435987 52.1580379,0.944655262 L52.1580379,17.1552076 C52.1580379,17.3179215 52.2191174,17.4650563 52.3410292,17.5971068 C52.4629409,17.7296518 52.6046355,17.7951824 52.7673493,17.7951824 L60.1416496,17.7951824 C60.3241463,17.7951824 60.4767214,17.8560147 60.5983859,17.9779264 C60.7205449,18.0998381 60.7813772,18.2420273 60.7813772,18.4044939 L60.7813772,21.0249781 C60.7813772,21.2077221 60.7205449,21.3600499 60.5983859,21.4822089 C60.4767214,21.6041207 60.3241463,21.6649529 60.1416496,21.6649529 L48.2274352,21.6649529 C48.0644741,21.6649529 47.9173392,21.6041207 47.785536,21.4822089" id="Fill-5" fill="#000030"></path>
                <path d="M64.4794528,21.4822089 C64.3471551,21.3600499 64.2813772,21.2077221 64.2813772,21.0249781 L64.2813772,0.944655262 C64.2813772,0.782435987 64.3471551,0.635301126 64.4794528,0.502756109 C64.611256,0.370952948 64.7583908,0.304927725 64.921352,0.304927725 L68.2122271,0.304927725 C68.3952184,0.304927725 68.547299,0.370952948 68.6692107,0.502756109 C68.7911225,0.635301126 68.8519547,0.782435987 68.8519547,0.944655262 L68.8519547,17.1552076 C68.8519547,17.3179215 68.9130342,17.4650563 69.0349459,17.5971068 C69.1568577,17.7296518 69.2985523,17.7951824 69.4612661,17.7951824 L76.8355664,17.7951824 C77.0180631,17.7951824 77.1706382,17.8560147 77.2923027,17.9779264 C77.4144617,18.0998381 77.4752939,18.2420273 77.4752939,18.4044939 L77.4752939,21.0249781 C77.4752939,21.2077221 77.4144617,21.3600499 77.2923027,21.4822089 C77.1706382,21.6041207 77.0180631,21.6649529 76.8355664,21.6649529 L64.921352,21.6649529 C64.7583908,21.6649529 64.611256,21.6041207 64.4794528,21.4822089" id="Fill-7" fill="#000030"></path>
                <path d="M81.1427062,21.4972192 C81.0309332,21.3859407 80.9752939,21.258836 80.9752939,21.1163995 L80.9752939,7.03868444 C80.9752939,6.87671245 81.0309332,6.74466201 81.1427062,6.64278039 C81.254232,6.54114606 81.3813367,6.49045253 81.5237731,6.49045253 L84.113594,6.49045253 C84.2760605,6.49045253 84.4078637,6.54114606 84.5099926,6.64278039 C84.6111323,6.74466201 84.6623204,6.87671245 84.6623204,7.03868444 L84.6623204,9.23260122 C84.6623204,9.61910842 84.9259268,9.81174381 85.4543758,9.81174381 L93.1330845,9.81174381 C93.2750264,9.81174381 93.3969382,9.85749163 93.4988198,9.94873997 C93.6002068,10.0402356 93.6511476,10.1574489 93.6511476,10.2991435 L93.6511476,12.919875 C93.6511476,13.0620642 93.6002068,13.1787829 93.4988198,13.2702785 C93.3969382,13.3617742 93.2750264,13.4072747 93.1330845,13.4072747 L85.3631275,13.4072747 C84.8952634,13.4072747 84.6623204,13.6206821 84.6623204,14.0472495 L84.6623204,17.3685408 C84.6623204,17.5109772 84.7231527,17.6427804 84.8450644,17.7644448 C84.9669761,17.8866039 85.0987793,17.9474361 85.2409685,17.9474361 L95.7231527,17.9474361 C95.8853719,17.9474361 96.0174224,17.9983769 96.119304,18.1000112 C96.2206911,18.2016456 96.2716319,18.3334487 96.2716319,18.4959153 L96.2716319,21.1163995 C96.2716319,21.258836 96.2206911,21.3859407 96.119304,21.4972192 C96.0174224,21.6092395 95.8853719,21.6648787 95.7231527,21.6648787 L81.5237731,21.6648787 C81.3813367,21.6648787 81.254232,21.6092395 81.1427062,21.4972192 M81.1427062,3.91571612 C81.0309332,3.80419036 80.9752939,3.66719421 80.9752939,3.50448036 L80.9752939,0.883748848 C80.9752939,0.721529573 81.0309332,0.589726412 81.1427062,0.487597509 C81.254232,0.386457748 81.3813367,0.335516939 81.5237731,0.335516939 L95.6620732,0.335516939 C95.8245397,0.335516939 95.9615359,0.391650743 96.0735562,0.502929209 C96.1848347,0.614702246 96.2409685,0.742054268 96.2409685,0.883748848 L96.2409685,3.50448036 C96.2409685,3.64642223 96.1848347,3.77871996 96.0735562,3.90038442 C95.9615359,4.02229616 95.8245397,4.08312839 95.6620732,4.08312839 L81.5237731,4.08312839 C81.3813367,4.08312839 81.254232,4.02748915 81.1427062,3.91571612" id="Fill-9" fill="#000030"></path>
                <path d="M105.134512,20.4765978 C103.489074,19.5015512 102.183654,18.1758537 101.218746,16.5 C100.253839,14.8241463 99.7716319,12.9912663 99.7716319,11.0001236 C99.7716319,9.03000022 100.253839,7.2065171 101.218746,5.5306634 C102.183654,3.8548097 103.489074,2.52441382 105.134512,1.53898118 C106.779702,0.553795832 108.577715,0.0609558708 110.527808,0.0609558708 C112.091642,0.0609558708 113.559528,0.376244858 114.930974,1.0055864 C116.301924,1.63566981 117.485185,2.49869613 118.480509,3.59565452 C118.561866,3.67701144 118.602668,3.77864577 118.602668,3.90031023 C118.602668,4.04274667 118.551728,4.1545197 118.450341,4.23562934 L116.256424,6.12464312 C116.154542,6.22677203 116.043016,6.27697098 115.921105,6.27697098 C115.79944,6.27697098 115.697311,6.22677203 115.616449,6.12464312 C114.966088,5.41394465 114.199503,4.86002518 113.315952,4.46412112 C112.432154,4.06821707 111.502855,3.86989412 110.527808,3.86989412 C109.267889,3.86989412 108.1054,4.18988153 107.038858,4.82985635 C105.972315,5.46983117 105.123879,6.33805049 104.494537,7.43500888 C103.864701,8.53196727 103.549907,9.720174 103.549907,11.0001236 C103.549907,12.279826 103.864701,13.46828 104.494537,14.5652384 C105.123879,15.6621968 105.972315,16.5306634 107.038858,17.1706382 C108.1054,17.8103658 109.267889,18.1303532 110.527808,18.1303532 C111.461806,18.1303532 112.345604,17.9528022 113.178956,17.5972057 C114.011566,17.2418564 114.752928,16.7391251 115.403042,16.0887642 C115.586033,15.9262977 115.778916,15.845188 115.982184,15.845188 C116.164681,15.845188 116.30687,15.8961289 116.408752,15.9972686 L116.987647,16.4846683 L118.20627,17.581874 C118.409291,17.7243104 118.511173,17.9169458 118.511173,18.1607693 C118.511173,18.3032057 118.460232,18.4251175 118.358845,18.5265045 C117.363026,19.6034328 116.190151,20.441236 114.839478,21.0404087 C113.48831,21.6395814 112.051334,21.9390441 110.527808,21.9390441 C108.577715,21.9390441 106.779702,21.4516444 105.134512,20.4765978" id="Fill-11" fill="#000030"></path>
                <path d="M124.966729,21.2077221 L124.966729,4.75359351 C124.966729,4.55081941 124.895511,4.38315986 124.753321,4.25086213 C124.61138,4.11905897 124.43828,4.05278646 124.235506,4.05278646 L122.498572,4.05278646 C122.396691,4.05278646 122.305195,4.01223164 122.224333,3.931122 C122.143223,3.84976508 122.102668,3.74813075 122.102668,3.62621901 L122.102668,0.792327406 C122.102668,0.67066295 122.143223,0.569028618 122.224333,0.487671695 C122.305195,0.406562057 122.396691,0.365759953 122.498572,0.365759953 L135.814648,0.365759953 C135.915788,0.365759953 136.007284,0.406562057 136.088888,0.487671695 C136.16975,0.569028618 136.210552,0.67066295 136.210552,0.792327406 L136.210552,3.62621901 C136.210552,3.74813075 136.16975,3.84976508 136.088888,3.931122 C136.007284,4.01223164 135.915788,4.05278646 135.814648,4.05278646 L130.116202,4.05278646 C129.912933,4.05278646 129.740328,4.12425196 129.598386,4.26619383 C129.456197,4.40863026 129.385226,4.57084954 129.385226,4.75359351 L129.385226,21.2077221 C129.385226,21.3298811 129.344424,21.4263224 129.263314,21.4972933 C129.181957,21.5687589 129.090462,21.6041207 128.988827,21.6041207 L125.363127,21.6041207 C125.098779,21.6041207 124.966729,21.4723175 124.966729,21.2077221" id="Fill-13" fill="#000030"></path>
                <path d="M139.878212,21.4972192 C139.766439,21.3859407 139.710552,21.258836 139.710552,21.1163995 L139.710552,0.883748848 C139.710552,0.721529573 139.771632,0.584286132 139.893544,0.472513095 C140.015208,0.360987343 140.147011,0.30485354 140.289448,0.30485354 L143.336747,0.30485354 C143.478441,0.30485354 143.605546,0.360987343 143.717566,0.472513095 C143.828845,0.584286132 143.884979,0.721529573 143.884979,0.883748848 L143.884979,21.1163995 C143.884979,21.258836 143.834285,21.3859407 143.732651,21.4972192 C143.630769,21.6092395 143.498966,21.6648787 143.336747,21.6648787 L140.289448,21.6648787 C140.126734,21.6648787 139.989738,21.6092395 139.878212,21.4972192" id="Fill-15" fill="#000030"></path>
                <g id="Group-19" transform="translate(147.384979, 0.304878)">
                    <mask id="mask-2" fill="white">
                        <use xlink:href="#path-1"></use>
                    </mask>
                    <g id="Clip-18"></g>
                    <path d="M4.66207315,0.335071825 L6.73432547,3.65636311 C6.85598993,3.87966189 6.91682216,4.06240586 6.91682216,4.2048423 C6.91682216,4.40786368 6.84609851,4.61113234 6.70366207,4.81440101 C6.60202774,4.97686757 6.38392195,5.32727109 6.04835555,5.86561158 C5.71328373,6.4034575 5.4496774,6.78452443 5.25630016,7.00831778 C5.06341749,7.23161657 4.89600522,7.34338961 4.75356878,7.34338961 C4.63140975,7.34338961 4.53026999,7.27192411 4.44866578,7.13022953 L0.487399681,0.761639278 C0.406537329,0.660004946 0.365735225,0.527954499 0.365735225,0.365735225 C0.365735225,0.121664456 0.487399681,1.40565521e-14 0.731470449,1.40565521e-14 L3.80893825,1.40565521e-14 C4.2355057,1.40565521e-14 4.52037857,0.111525751 4.66207315,0.335071825 M17.0636873,0.365735225 C17.0636873,0.527954499 17.0233797,0.660004946 16.9417755,0.761639278 L10.9391678,10.3906886 L17.3075107,20.5677225 C17.3888677,20.7094171 17.4294225,20.8619922 17.4294225,21.0249534 C17.4294225,21.2482521 17.3277881,21.3600252 17.1245195,21.3600252 L13.9862195,21.3293618 L13.8032282,21.3293618 C13.4580177,21.3293618 13.2347189,21.2482521 13.1330845,21.0857856 L8.71483488,13.9555561 L4.2661691,21.0857856 C4.20508958,21.1874199 4.10889553,21.2531979 3.9765978,21.2838613 C3.84479464,21.3145246 3.63633298,21.3293618 3.35195468,21.3293618 L0.304902997,21.3600252 C0.102128903,21.3600252 2.81131042e-14,21.2482521 2.81131042e-14,21.0249534 C2.81131042e-14,20.8619922 0.0408021042,20.7094171 0.121911742,20.5677225 L12.7369332,0.335071825 C12.8996471,0.111525751 13.1939168,1.40565521e-14 13.6204842,1.40565521e-14 L16.697952,1.40565521e-14 C16.9417755,1.40565521e-14 17.0636873,0.121664456 17.0636873,0.365735225" id="Fill-17" fill="#000030" mask="url(#mask-2)"></path>
                </g>
            </g>
            <g id="Group-2">
                <g id="Group-22">
                    <mask id="mask-4" fill="white">
                        <use xlink:href="#path-3"></use>
                    </mask>
                    <g id="Clip-21"></g>
                    <path d="M18.0439216,36.6183797 C18.3900998,36.6183797 18.7361237,36.5293669 19.0448918,36.3510326 L31.703922,29.0423377 C32.3213811,28.6859007 32.7048922,28.0216982 32.7048922,27.3086699 L32.7048922,12.6913571 C32.7048922,11.9783288 32.3213811,11.3141263 31.703922,10.9576893 L19.0448918,3.64899436 C18.4275098,3.29255731 17.6604104,3.29232591 17.0430284,3.64899436 L4.38399824,10.9576893 C3.76653913,11.3141263 3.38302799,11.9783288 3.38302799,12.6913571 L3.38302799,27.3086699 C3.38302799,28.0216982 3.76653913,28.6859007 4.38399824,29.0423377 L17.0430284,36.3510326 C17.3517194,36.5292897 17.6978205,36.6183797 18.0439216,36.6183797 M18.0439987,-6.94207619e-05 C18.9750082,-6.94207619e-05 19.9060949,0.23966361 20.7364444,0.719052538 L33.3954746,8.02774748 C35.0562506,8.98660247 36.0879974,10.77357 36.0879974,12.6913571 L36.0879974,27.3086699 C36.0879974,29.226457 35.0562506,31.0134245 33.3954746,31.9722795 L20.7364444,39.2809745 C19.0757455,40.2396752 17.0122519,40.2396752 15.351553,39.2809745 L2.69244568,31.9722795 C1.03166966,31.0134245 0,29.226457 0,27.3086699 L0,12.6913571 C0,10.77357 1.03166966,8.98660247 2.69244568,8.02774748 L15.351553,0.719052538 C16.1819025,0.23966361 17.1129891,-6.94207619e-05 18.0439987,-6.94207619e-05" id="Fill-20" fill="#D14DFF" mask="url(#mask-4)"></path>
                </g>
                <path d="M17.3298519,23.8382874 L10.3682608,27.8579038 C9.4162707,28.4076391 9.41634784,29.7817074 10.3683379,30.3312884 L17.3300062,34.3505963 C17.7718307,34.605679 18.3161666,34.605679 18.7579912,34.3505963 L25.7195824,30.3313655 C26.6715724,29.7817074 26.6715724,28.4076391 25.7196595,27.8579809 L18.7579912,23.8382874 C18.3160895,23.5831276 17.7716765,23.5831276 17.3298519,23.8382874" id="Fill-23" fill="#D14DFF" opacity="0.5"></path>
                <path d="M15.651497,17.8167845 L15.651497,8.91658006 C15.651497,7.84564911 14.4922474,7.17635583 13.5648631,7.7118213 L6.3200353,11.8946536 C5.88962658,12.1431799 5.62443927,12.6023597 5.62443927,13.0993352 L5.62443927,22.0000796 C5.62443927,23.0709335 6.78376599,23.7402267 7.71115024,23.2047613 L14.9559781,19.0214662 C15.3863868,18.7729398 15.651497,18.3137601 15.651497,17.8167845" id="Fill-25" fill="#D14DFF" opacity="0.5"></path>
                <path d="M20.4361841,17.8161135 L20.4361841,8.9166032 C20.4361841,7.84659786 21.5953566,7.17676464 22.5218924,7.71176731 L29.7684943,11.8939825 C30.1990573,12.1441287 30.4643989,12.6029999 30.4643989,13.0988956 L30.4643989,22.0004885 C30.4643989,22.7617257 29.8772535,23.3228768 29.2008639,23.3880552 C29.0007778,23.4076473 28.7898158,23.3815759 28.5853331,23.3032847 L28.5831734,23.301125 C28.5135983,23.2771363 28.4440233,23.2445085 28.3765309,23.2054015 L21.671488,19.3319544 L21.1321658,19.0210265 C21.0690701,18.9840021 21.0081341,18.9426582 20.9515947,18.8969947 C20.627554,18.6360498 20.4361841,18.2401972 20.4361841,17.8161135" id="Fill-27" fill="#D14DFF" opacity="0.5"></path>
                <path d="M18.6450436,23.1963382 C18.2731026,22.9815195 17.8147713,22.9815195 17.4427532,23.1963382 L15.9765096,24.042963 L15.9765096,19.2503078 L15.9765096,19.2503078 L16.9763999,18.6733442 C17.6379798,18.2917614 18.4498942,18.2917614 19.111474,18.6733442 L20.1113644,19.2503078 L20.1113644,24.042963 L18.6450436,23.1963382 Z M28.1762057,13.455834 L21.9137588,9.84163485 C21.113106,9.37929258 20.1113644,9.9581846 20.1113644,10.8828691 L20.1113644,15.3932903 L20.1113644,15.3932903 L20.1113644,18.0173951 L19.111474,17.4403543 C18.7825739,17.2505271 18.4123298,17.1565777 18.043937,17.1565777 C17.6755441,17.1565777 17.3053001,17.2505271 16.9763999,17.4403543 L15.9765096,18.0173951 L15.9765096,18.0173951 L15.9765096,15.3932903 L15.9765096,10.882792 C15.9765096,9.95733612 14.9746908,9.37898404 14.1732667,9.84171199 L7.91228532,13.4564511 C7.54034431,13.6711926 7.3112558,14.068048 7.3112558,14.4975311 L7.3112558,22.1894286 C7.3112558,22.847846 7.8187987,23.3283148 8.40015901,23.3853169 L8.4021645,23.3889423 L8.4175142,23.3867825 C8.58605239,23.4008209 8.75991283,23.379609 8.92960802,23.3159733 L8.93223058,23.3156648 L8.9340818,23.3156648 L8.93577876,23.3139678 C8.99602055,23.2909818 9.05587667,23.2642934 9.11449865,23.2305087 L14.9087411,19.8848136 L14.9087411,24.6594965 L11.5821753,26.5802918 C10.7808283,27.0430198 10.7808283,28.1997239 11.5822525,28.6624519 L17.4429074,32.0460969 C17.8148485,32.2608385 18.2731026,32.2608385 18.6450436,32.0460969 L24.5056215,28.6624519 C25.3070456,28.1998011 25.3071228,27.0430198 24.5056986,26.5802918 L21.1791329,24.6594965 L21.1791329,19.8838109 L26.9733753,23.2310486 C27.0316116,23.2649105 27.0917763,23.2930645 27.1518638,23.3137364 L27.1537922,23.3156648 C27.3304294,23.3833115 27.5127746,23.4058346 27.6856323,23.3889423 C28.2702323,23.3325572 28.7776209,22.8476146 28.7776209,22.1898143 L28.7776209,14.4970683 C28.7776209,14.0685879 28.5483781,13.6720411 28.1762057,13.455834 L28.1762057,13.455834 Z" id="Fill-29" fill="#D14DFF"></path>
            </g>
        </g>
    </g>
</svg>