<?xml version="1.0" encoding="UTF-8"?>
<svg width="173px" height="40px" viewBox="0 0 173 40" version="1.1" xmlns="http://www.w3.org/2000/svg" xmlns:xlink="http://www.w3.org/1999/xlink">
    <title>Darkmoon</title>
    <g id="Darkmoon" stroke="none" stroke-width="1" fill="none" fill-rule="evenodd">
        <g id="Group-38" transform="translate(0.177856, 0.004481)" fill="#1F2C73">
            <path d="M22.8219838,19.9955194 C22.8219838,31.037021 13.867966,39.9910388 2.8264644,39.9910388 C1.86729395,39.9910388 0.921885376,39.9233496 0,39.7911716 C10.4518214,39.235256 18.7550307,30.5863998 18.7550307,19.9955194 C18.7550307,9.40463903 10.4518214,0.755782786 0,0.199867182 C0.921885376,0.0676892057 1.86729395,0 2.8264644,0 C13.867966,0 22.8219838,8.95385772 22.8219838,19.9955194" id="Fill-4"></path>
            <path d="M45.1872175,14.4238176 C45.1872175,12.5235592 44.83853,11.109927 44.1414752,10.1824408 C43.4442604,9.25495467 42.4178808,8.7912116 41.0626565,8.7912116 L39.9242617,8.7912116 L39.9242617,20.5622525 L41.0431339,20.5622525 C41.7240265,20.5622525 42.323788,20.4212733 42.8428986,20.1389949 C43.3616892,19.8570366 43.7945481,19.4501012 44.1414752,18.9181889 C44.4884024,18.3864366 44.7495579,17.742829 44.9246217,16.9872063 C45.0996856,16.2317435 45.1872175,15.3772273 45.1872175,14.4238176 M48.5531152,14.4238176 C48.5531152,15.5134058 48.4039749,16.5105014 48.1056944,17.4152645 C47.8072538,18.3198675 47.3615932,19.0966131 46.7680725,19.7450213 C46.1747118,20.3937495 45.4384516,20.8979781 44.5597721,21.2578671 C43.6809326,21.617916 42.6611139,21.7977805 41.500316,21.7977805 L34.9240617,21.7977805 L34.9240617,20.7374763 L35.7608155,20.7374763 C35.9097957,20.7374763 36.0461343,20.7227543 36.169351,20.6936303 C36.2924078,20.6645064 36.3994623,20.6046582 36.4903547,20.5136059 C36.581087,20.4228735 36.6524567,20.2932559 36.7043038,20.1245929 C36.7561508,19.95593 36.7822344,19.7290191 36.7822344,19.4435403 L36.7822344,9.8419145 C36.7822344,9.57611835 36.7561508,9.36360945 36.7043038,9.20470784 C36.6524567,9.04596625 36.5794868,8.92418969 36.485554,8.83985822 C36.3914612,8.75568677 36.2826464,8.69887905 36.1595897,8.66975509 C36.0362129,8.6404711 35.9032348,8.62590912 35.7608155,8.62590912 L34.9240617,8.62590912 L34.9240617,7.57520623 L41.500316,7.57520623 C42.602866,7.57520623 43.5902003,7.71954586 44.4626389,8.00822512 C45.3347575,8.29674436 46.0740581,8.72800301 46.6805406,9.30200107 C47.286863,9.87599914 47.7507661,10.5909764 48.0716097,11.4469328 C48.3926134,12.3032092 48.5531152,13.2953442 48.5531152,14.4238176" id="Fill-6"></path>
            <path d="M58.9797172,12.6338942 C58.9083475,12.4069833 58.8353776,12.1685509 58.7608075,11.918917 C58.6862373,11.669283 58.6115072,11.4146884 58.536937,11.1551331 C58.4625269,10.8958978 58.3911572,10.6381028 58.3229879,10.3817479 C58.2549787,10.1257131 58.1949705,9.88071978 58.1429634,9.64724803 C58.0847155,9.84839538 58.0165463,10.0690654 57.9387757,10.308938 C57.8610051,10.5488106 57.7782738,10.7952442 57.6905819,11.0482386 L57.4281462,11.8070618 C57.3404543,12.0598961 57.2577231,12.3031292 57.1799525,12.536601 L56.0028324,15.9024987 L60.0302601,15.9024987 L58.9797172,12.6338942 Z M55.5845355,17.1185041 L55.0105374,18.830737 C54.9586904,18.992839 54.9050831,19.1824648 54.8500356,19.3997744 C54.7949881,19.6170839 54.7674644,19.8068697 54.7674644,19.9688118 C54.7674644,20.0985894 54.7932279,20.2120448 54.845235,20.3093381 C54.897082,20.4066313 54.9650913,20.4861621 55.0494227,20.5477705 C55.1337542,20.6093789 55.2294472,20.6562653 55.3365018,20.6887497 C55.4433963,20.7213941 55.5554115,20.7373963 55.6720674,20.7373963 L56.5088212,20.7373963 L56.5088212,21.7977005 L51.323636,21.7977005 L51.323636,20.7373963 L51.5668691,20.7373963 C51.7420929,20.7373963 51.9024347,20.7178736 52.0485346,20.6789883 C52.1943144,20.6401031 52.3304929,20.5671331 52.4569101,20.4602386 C52.5834874,20.353184 52.7033437,20.205644 52.8169591,20.0174584 C52.9302545,19.8294328 53.0454702,19.5861997 53.1622861,19.2879192 L57.4815935,7.57528624 L60.2152453,7.57528624 L64.3786915,19.3072818 C64.4761448,19.5861997 64.5780786,19.8180713 64.6851332,20.0028964 C64.7921877,20.1877215 64.9090036,20.3336614 65.0354208,20.4407159 C65.161838,20.5477705 65.2964163,20.6239409 65.4391557,20.669227 C65.5817351,20.7148332 65.7308754,20.7373963 65.8865766,20.7373963 L66.2464655,20.7373963 L66.2464655,21.7977005 L59.6703712,21.7977005 L59.6703712,20.7373963 L60.448717,20.7373963 C60.5458502,20.7373963 60.6463439,20.7226743 60.750038,20.6937103 C60.8538921,20.6644264 60.9462247,20.6191402 61.0275157,20.5573718 C61.1084868,20.4957634 61.1748958,20.4163926 61.2269029,20.3190994 C61.2785899,20.2218062 61.3046734,20.1049903 61.3046734,19.9688118 C61.3046734,19.8068697 61.2851508,19.6511686 61.2462655,19.5018683 C61.2073802,19.352728 61.1684949,19.2231103 61.1296096,19.1126953 L60.4291944,17.1185041 L55.5845355,17.1185041 Z" id="Fill-8"></path>
            <path d="M73.7936039,14.4627349 L74.9123161,14.4627349 C75.3728587,14.4627349 75.757231,14.4011266 76.0651129,14.2779098 C76.3731547,14.1548531 76.6195883,13.9714681 76.8044134,13.728235 C76.9893986,13.485162 77.1222166,13.1803205 77.2035077,12.8138707 C77.2843187,12.4475809 77.3249642,12.0209629 77.3249642,11.5346567 C77.3249642,11.0288279 77.279518,10.6007697 77.1887857,10.2504821 C77.0977333,9.90019443 76.9553139,9.61327541 76.7607275,9.38956498 C76.566141,9.16585456 76.3133066,9.00375251 76.0019043,8.90309882 C75.6905019,8.80260515 75.3144508,8.75235832 74.8734308,8.75235832 L73.7936039,8.75235832 L73.7936039,14.4627349 Z M68.7934039,20.7373483 L69.6299977,20.7373483 C69.7661762,20.7373483 69.8959538,20.7243865 70.0191706,20.698463 C70.1423874,20.6726995 70.2508821,20.6190922 70.3449749,20.5379612 C70.4390677,20.4568301 70.5136379,20.3369738 70.5688454,20.1779122 C70.6237328,20.0191706 70.6514166,19.8100222 70.6514166,19.5504669 L70.6514166,9.8419465 C70.6514166,9.57599033 70.6237328,9.36364146 70.5688454,9.20473984 C70.5136379,9.04583823 70.4390677,8.92422169 70.3449749,8.83989023 C70.2508821,8.75571878 70.1423874,8.69875103 70.0191706,8.66962707 C69.8959538,8.64050311 69.7661762,8.62594113 69.6299977,8.62594113 L68.7934039,8.62594113 L68.7934039,7.57523823 L75.2139571,7.57523823 C77.0946929,7.57523823 78.4744005,7.88984102 79.35324,8.51888657 C80.2319195,9.14809214 80.6713393,10.0624565 80.6713393,11.2622997 C80.6713393,11.7874911 80.5935687,12.2544346 80.4378675,12.6629702 C80.2823264,13.0716657 80.0763784,13.4283543 79.8201835,13.7330357 C79.5639887,14.0380372 79.2737092,14.2958322 78.9496652,14.5064209 C78.625141,14.7173296 78.294376,14.8907931 77.9573702,15.0269717 L80.330973,19.1128073 C80.4994759,19.3982862 80.6633382,19.6429594 80.8222398,19.8471472 C80.9809814,20.051495 81.139883,20.2201579 81.2987846,20.353136 C81.4578463,20.4861141 81.6213885,20.5835674 81.7902115,20.6448557 C81.9587144,20.7066241 82.1371387,20.7373483 82.3251642,20.7373483 L82.4030948,20.7373483 L82.4030948,21.7976525 L81.7513262,21.7976525 C81.154445,21.7976525 80.6340542,21.7750894 80.1899938,21.7296432 C79.7456134,21.6843571 79.3564405,21.595225 79.0226351,21.4622469 C78.6885096,21.3292688 78.3998304,21.1458838 78.1567573,20.9124121 C77.9135242,20.6789403 77.6880536,20.3774593 77.4806654,20.0078091 L75.1168239,15.6203324 L73.7936039,15.6203324 L73.7936039,19.5504669 C73.7936039,19.8100222 73.8212877,20.0191706 73.8764952,20.1779122 C73.9313827,20.3369738 74.0059528,20.4568301 74.1000456,20.5379612 C74.1939784,20.6190922 74.3027932,20.6726995 74.4260099,20.698463 C74.5492267,20.7243865 74.6788443,20.7373483 74.8151829,20.7373483 L75.6711393,20.7373483 L75.6711393,21.7976525 L68.7934039,21.7976525 L68.7934039,20.7373483 Z" id="Fill-10"></path>
            <path d="M92.9657313,11.1940824 C93.1798405,10.9671715 93.3598649,10.7612235 93.5056448,10.5763984 C93.6515846,10.3915733 93.7684005,10.2198699 93.8557724,10.0608083 C93.9434643,9.90190666 94.0066729,9.75116616 94.0455582,9.60842675 C94.0844435,9.46584736 94.1039661,9.32630838 94.1039661,9.19012986 C94.1039661,8.96977989 94.0196347,8.81727915 93.8509717,8.73294768 C93.6824688,8.64861621 93.3937896,8.60653049 92.985254,8.60653049 L92.985254,7.57519023 L98.3842283,7.57519023 L98.3842283,8.60653049 C98.1118712,8.60653049 97.8542362,8.64861621 97.6108431,8.73294768 C97.36777,8.81727915 97.1294976,8.93713545 96.8960259,9.09283663 C96.6625541,9.2485378 96.4321228,9.43336294 96.2052119,9.64731203 C95.978141,9.86126113 95.7480297,10.0980933 95.514558,10.3574886 L92.8879608,13.2466815 L96.5943848,19.132122 C96.7889713,19.4435243 96.9753967,19.7013194 97.1538209,19.9055071 C97.3319251,20.1098549 97.5119496,20.2737172 97.6935743,20.396934 C97.875199,20.5201507 98.0600242,20.6076826 98.2482098,20.6595297 C98.4362353,20.7116968 98.6404231,20.7374603 98.8610931,20.7374603 L98.9388637,20.7374603 L98.9388637,21.7977645 L97.8687982,21.7977645 C97.3629694,21.7977645 96.9185889,21.7816023 96.5361369,21.7491179 C96.1532048,21.7167935 95.8176392,21.6681469 95.52928,21.603178 C95.2404407,21.5385292 94.992407,21.455798 94.7848587,21.3551443 C94.5773105,21.2546506 94.3958458,21.1362345 94.2401447,21.000056 C94.0844435,20.8638775 93.9434643,20.7099366 93.8168871,20.5380732 C93.6904699,20.3662098 93.5656529,20.176424 93.4424362,19.9688758 L90.757431,15.3869726 L89.8721906,16.0776266 L89.8721906,19.4435243 C89.8721906,19.7290031 89.8998744,19.955914 89.9550819,20.1245769 C90.0099694,20.2932399 90.0829393,20.4228575 90.1738316,20.5135898 C90.264564,20.6046422 90.374819,20.6644904 90.5045966,20.6936143 C90.6342143,20.7227383 90.7703928,20.7374603 90.9131322,20.7374603 L91.749726,20.7374603 L91.749726,21.7977645 L84.8719906,21.7977645 L84.8719906,20.7374603 L85.7085844,20.7374603 C85.8511638,20.7374603 85.9841418,20.7244985 86.1075186,20.698575 C86.2305754,20.6726515 86.3393902,20.6190442 86.433483,20.5380732 C86.5274157,20.4569421 86.6003857,20.3370858 86.6522327,20.1780242 C86.7040798,20.0191226 86.7300033,19.8099742 86.7300033,19.5505789 L86.7300033,9.8418985 C86.7300033,9.57610235 86.7040798,9.36375347 86.6522327,9.20469184 C86.6003857,9.04595025 86.5274157,8.92417369 86.433483,8.84000224 C86.3393902,8.75567077 86.2305754,8.69886305 86.1075186,8.66973908 C85.9841418,8.6404551 85.8511638,8.62589312 85.7085844,8.62589312 L84.8719906,8.62589312 L84.8719906,7.57519023 L91.749726,7.57519023 L91.749726,8.62589312 L90.9131322,8.62589312 C90.7703928,8.62589312 90.6342143,8.6404551 90.5045966,8.66973908 C90.374819,8.69886305 90.264564,8.75887121 90.1738316,8.84960355 C90.0829393,8.94049591 90.0099694,9.07027356 89.9550819,9.23877647 C89.8998744,9.40743941 89.8721906,9.63435027 89.8721906,9.91966907 L89.8721906,14.5697415 L92.9657313,11.1940824 Z" id="Fill-12"></path>
            <path d="M112.964707,21.7977165 L112.964707,20.7374123 L113.159294,20.7374123 C113.366842,20.7374123 113.549907,20.7244505 113.708808,20.698527 C113.86771,20.6727635 113.999088,20.6207564 114.102782,20.5428258 C114.206636,20.4650552 114.284407,20.3532 114.336254,20.2072602 C114.388261,20.0611603 114.414184,19.8683341 114.414184,19.6283014 L114.414184,9.54036949 L110.396358,21.7977165 L109.044334,21.7977165 L104.832081,9.54036949 L104.832081,19.4434763 C104.832081,19.7289551 104.866166,19.955866 104.934015,20.1245289 C105.002184,20.2933519 105.099638,20.4228095 105.226055,20.5137019 C105.352472,20.6045942 105.506573,20.6644424 105.688038,20.6937263 C105.869502,20.7226903 106.077211,20.7374123 106.310682,20.7374123 L106.427338,20.7374123 L106.427338,21.7977165 L101.485546,21.7977165 L101.485546,20.7374123 L102.32214,20.7374123 C102.464719,20.7374123 102.597697,20.7244505 102.720914,20.698527 C102.844131,20.6727635 102.952946,20.6191562 103.046878,20.5380252 C103.140811,20.4568941 103.213781,20.3370378 103.265788,20.1779762 C103.317635,20.0190746 103.343559,19.8100862 103.343559,19.5505309 L103.343559,9.84185049 C103.343559,9.57605434 103.317635,9.36370546 103.265788,9.20480385 C103.213781,9.04590224 103.140811,8.9242857 103.046878,8.83995423 C102.952946,8.75578279 102.844131,8.69881504 102.720914,8.66969108 C102.597697,8.6404071 102.464719,8.62584511 102.32214,8.62584511 L101.485546,8.62584511 L101.485546,7.57530224 L107.225207,7.57530224 L110.532696,17.1962907 L113.704008,7.57530224 L119.336454,7.57530224 L119.336454,8.62584511 L118.50002,8.62584511 C118.357121,8.62584511 118.224142,8.6404071 118.101086,8.66969108 C117.977869,8.69881504 117.870814,8.75898322 117.780082,8.84955554 C117.68903,8.94060792 117.61782,9.07022555 117.566133,9.23872847 C117.514126,9.40755143 117.488362,9.63446229 117.488362,9.91962107 L117.488362,19.4434763 C117.488362,19.7289551 117.514126,19.955866 117.566133,20.1245289 C117.61782,20.2933519 117.68903,20.4228095 117.780082,20.5137019 C117.870814,20.6045942 117.977869,20.6644424 118.101086,20.6937263 C118.224142,20.7226903 118.357121,20.7374123 118.50002,20.7374123 L119.336454,20.7374123 L119.336454,21.7977165 L112.964707,21.7977165 Z" id="Fill-14"></path>
            <path d="M126.338862,14.6670507 C126.338862,15.6204604 126.40047,16.4700159 126.523687,17.2157173 C126.646744,17.9615788 126.844691,18.5922245 127.117048,19.1078147 C127.389405,19.6235648 127.741293,20.0175384 128.172551,20.2898954 C128.60381,20.5622525 129.127561,20.698431 129.743645,20.698431 C130.36629,20.698431 130.893081,20.5622525 131.3245,20.2898954 C131.755759,20.0175384 132.104126,19.6235648 132.370242,19.1078147 C132.636199,18.5922245 132.829025,17.9615788 132.949201,17.2157173 C133.069057,16.4700159 133.129066,15.6204604 133.129066,14.6670507 C133.129066,13.7136411 133.069057,12.8640855 132.949201,12.1182241 C132.829025,11.3725227 132.636199,10.7417169 132.370242,10.2261268 C132.104126,9.71053663 131.757359,9.31832329 131.329461,9.04900666 C130.901403,8.78001008 130.379252,8.64543178 129.763008,8.64543178 C129.140523,8.64543178 128.611811,8.78001008 128.177352,9.04900666 C127.742733,9.31832329 127.389405,9.71053663 127.117048,10.2261268 C126.844691,10.7417169 126.646744,11.3725227 126.523687,12.1182241 C126.40047,12.8640855 126.338862,13.7136411 126.338862,14.6670507 M136.475601,14.6670507 C136.475601,15.7631998 136.327901,16.7618956 136.03282,17.6632982 C135.73758,18.5647008 135.303281,19.3364858 134.729443,19.9784931 C134.155445,20.6206604 133.451509,21.1168879 132.618276,21.4670155 C131.784883,21.8173032 130.826672,21.9922069 129.743645,21.9922069 C128.608771,21.9922069 127.618076,21.8173032 126.771721,21.4670155 C125.925366,21.1168879 125.22319,20.6206604 124.665675,19.9784931 C124.107839,19.3364858 123.689382,18.5631006 123.410624,17.6583375 C123.131706,16.7537345 122.992327,15.750238 122.992327,14.6475281 C122.992327,13.5451381 123.131706,12.5448421 123.410624,11.6464799 C123.689382,10.7482778 124.109439,9.98145348 124.670475,9.34584704 C125.231351,8.71024059 125.935127,8.21897378 126.781482,7.8720466 C127.627837,7.52511942 128.621573,7.3514958 129.763008,7.3514958 C130.839634,7.3514958 131.794644,7.52511942 132.628037,7.8720466 C133.461271,8.21897378 134.163286,8.71200083 134.734244,9.35064769 C135.304721,9.98945457 135.73758,10.7580391 136.03282,11.6562412 C136.327901,12.5544434 136.475601,13.5579399 136.475601,14.6670507" id="Fill-16"></path>
            <path d="M144.012834,14.6670507 C144.012834,15.6204604 144.074442,16.4700159 144.197659,17.2157173 C144.320716,17.9615788 144.518663,18.5922245 144.79102,19.1078147 C145.063377,19.6235648 145.415264,20.0175384 145.846523,20.2898954 C146.277782,20.5622525 146.801533,20.698431 147.417617,20.698431 C148.040261,20.698431 148.567053,20.5622525 148.998472,20.2898954 C149.42973,20.0175384 149.778098,19.6235648 150.044214,19.1078147 C150.31017,18.5922245 150.502996,17.9615788 150.623173,17.2157173 C150.743029,16.4700159 150.803037,15.6204604 150.803037,14.6670507 C150.803037,13.7136411 150.743029,12.8640855 150.623173,12.1182241 C150.502996,11.3725227 150.31017,10.7417169 150.044214,10.2261268 C149.778098,9.71053663 149.431331,9.31832329 149.003432,9.04900666 C148.575374,8.78001008 148.053223,8.64543178 147.436979,8.64543178 C146.814495,8.64543178 146.285783,8.78001008 145.851324,9.04900666 C145.416705,9.31832329 145.063377,9.71053663 144.79102,10.2261268 C144.518663,10.7417169 144.320716,11.3725227 144.197659,12.1182241 C144.074442,12.8640855 144.012834,13.7136411 144.012834,14.6670507 M154.149572,14.6670507 C154.149572,15.7631998 154.001872,16.7618956 153.706792,17.6632982 C153.411552,18.5647008 152.977253,19.3364858 152.403415,19.9784931 C151.829417,20.6206604 151.125481,21.1168879 150.292248,21.4670155 C149.458854,21.8173032 148.500644,21.9922069 147.417617,21.9922069 C146.282742,21.9922069 145.292048,21.8173032 144.445693,21.4670155 C143.599338,21.1168879 142.897162,20.6206604 142.339646,19.9784931 C141.78181,19.3364858 141.363353,18.5631006 141.084596,17.6583375 C140.805678,16.7537345 140.666299,15.750238 140.666299,14.6475281 C140.666299,13.5451381 140.805678,12.5448421 141.084596,11.6464799 C141.363353,10.7482778 141.783411,9.98145348 142.344447,9.34584704 C142.905323,8.71024059 143.609099,8.21897378 144.455454,7.8720466 C145.301809,7.52511942 146.295544,7.3514958 147.436979,7.3514958 C148.513606,7.3514958 149.468616,7.52511942 150.302009,7.8720466 C151.135242,8.21897378 151.837258,8.71200083 152.408216,9.35064769 C152.978693,9.98945457 153.411552,10.7580391 153.706792,11.6562412 C154.001872,12.5544434 154.149572,13.5579399 154.149572,14.6670507" id="Fill-18"></path>
            <path d="M168.914812,21.7977165 L161.142235,10.8243841 L161.142235,19.4434763 C161.142235,19.7289551 161.169759,19.955866 161.224807,20.1245289 C161.279854,20.2933519 161.352824,20.4228095 161.443716,20.5137019 C161.534449,20.6045942 161.643263,20.6644424 161.769681,20.6937263 C161.896098,20.7226903 162.027476,20.7374123 162.163654,20.7374123 L163.000248,20.7374123 L163.000248,21.7977165 L157.7957,21.7977165 L157.7957,20.7374123 L158.632294,20.7374123 C158.774873,20.7374123 158.907851,20.7226903 159.031068,20.6937263 C159.154285,20.6644424 159.2631,20.6045942 159.357033,20.5137019 C159.450965,20.4228095 159.523935,20.2933519 159.575942,20.1245289 C159.627789,19.955866 159.653713,19.7289551 159.653713,19.4434763 L159.653713,9.84185049 C159.653713,9.57605434 159.626029,9.36370546 159.570982,9.20480385 C159.515934,9.04590224 159.441364,8.9242857 159.347271,8.83995423 C159.253178,8.75578279 159.144524,8.69881504 159.021467,8.66969108 C158.89809,8.6404071 158.768473,8.62584511 158.632294,8.62584511 L157.7957,8.62584511 L157.7957,7.57530224 L162.222062,7.57530224 L169.255339,17.5172944 L169.255339,9.84185049 C169.255339,9.57605434 169.227655,9.36370546 169.172607,9.20480385 C169.11756,9.04590224 169.04283,8.9242857 168.948897,8.83995423 C168.854804,8.75578279 168.746149,8.69881504 168.623093,8.66969108 C168.499716,8.6404071 168.370098,8.62584511 168.23392,8.62584511 L167.397326,8.62584511 L167.397326,7.57530224 L172.601874,7.57530224 L172.601874,8.62584511 L171.76512,8.62584511 C171.629102,8.62584511 171.499164,8.6404071 171.376107,8.66969108 C171.25273,8.69881504 171.144236,8.75898322 171.050303,8.84955554 C170.95621,8.94060792 170.88324,9.07022555 170.831393,9.23872847 C170.779226,9.40755143 170.753462,9.63446229 170.753462,9.91962107 L170.753462,21.7977165 L168.914812,21.7977165 Z" id="Fill-20"></path>
            <path d="M111.308066,35.3450309 C111.536257,35.3450309 111.739165,35.3184673 111.917109,35.2651801 C112.094893,35.2120528 112.253795,35.1427634 112.393654,35.0576318 C112.533513,34.9725003 112.656089,34.8766472 112.760903,34.7702328 C112.865878,34.6638183 112.95789,34.559004 113.036941,34.4554699 C113.085428,34.4919549 113.124313,34.5482826 113.153277,34.6242929 C113.182081,34.7004633 113.196643,34.7779138 113.196643,34.8569645 C113.196643,34.9878623 113.161598,35.125321 113.091668,35.2696607 C113.021739,35.4143203 112.904763,35.5472984 112.740421,35.668915 C112.576238,35.7905315 112.358609,35.8908652 112.088172,35.9699159 C111.817415,36.0489667 111.48297,36.088492 111.084676,36.088492 C110.543322,36.088492 110.070298,36.0065609 109.665763,35.8422185 C109.261388,35.6780362 108.925342,35.4453646 108.657785,35.1443636 C108.390229,34.8432027 108.189402,34.4813935 108.055624,34.058616 C107.921845,33.6359985 107.854956,33.1677748 107.854956,32.6537849 C107.854956,32.1487562 107.923446,31.6866134 108.060104,31.2670363 C108.197083,30.8472992 108.39999,30.4869302 108.669147,30.1857693 C108.938304,29.8847683 109.274349,29.6506565 109.677284,29.4832737 C110.080219,29.316051 110.546202,29.2325196 111.075394,29.2325196 C111.434163,29.2325196 111.746686,29.2606835 112.012802,29.3168511 C112.278918,29.3731788 112.500068,29.4498292 112.676572,29.5472824 C112.852916,29.6445757 112.985094,29.7593113 113.073426,29.8916493 C113.161598,30.0238272 113.205604,30.1660866 113.205604,30.3181073 C113.205604,30.433803 113.180641,30.5410176 113.130554,30.639751 C113.080307,30.7386445 113.005577,30.8244161 112.906843,30.897386 C112.80811,30.970356 112.685693,31.0274837 112.539593,31.0684493 C112.393654,31.1095749 112.226431,31.1300577 112.038085,31.1300577 C112.038085,30.9748366 112.021123,30.8207356 111.987678,30.6671147 C111.954234,30.5136539 111.897266,30.3744349 111.816775,30.2496179 C111.736124,30.124961 111.63051,30.0238272 111.499612,29.9463767 C111.368874,29.8687662 111.206132,29.8300409 111.011546,29.8300409 C110.716625,29.8300409 110.467152,29.8924494 110.263444,30.0169463 C110.059576,30.1417633 109.896354,30.3241881 109.772977,30.5643808 C109.64992,30.8047334 109.560948,31.1004537 109.506221,31.4517014 C109.451333,31.8029492 109.42413,32.2036437 109.42413,32.6537849 C109.42413,33.1037661 109.457574,33.4975797 109.524463,33.8350656 C109.591192,34.1727115 109.699207,34.4532296 109.848347,34.67678 C109.997328,34.9003304 110.191274,35.0675532 110.430026,35.1786083 C110.668619,35.2895034 110.961459,35.3450309 111.308066,35.3450309" id="Fill-22"></path>
            <path d="M120.943136,31.7003112 C120.909692,31.5938968 120.875447,31.4822016 120.840402,31.3649056 C120.805678,31.2479297 120.770633,31.1285535 120.735588,31.0069369 C120.700543,30.8853204 120.667099,30.764344 120.635254,30.6441676 C120.60341,30.5241513 120.575086,30.4094157 120.550923,30.2998008 C120.523559,30.3942136 120.491555,30.4974277 120.45507,30.610083 C120.418585,30.7225783 120.3797,30.838114 120.338734,30.9568501 C120.297768,31.0754263 120.256643,31.1940024 120.215517,31.3125785 C120.174552,31.4311546 120.135826,31.5450901 120.099342,31.654705 L119.547266,33.2329997 L121.435843,33.2329997 L120.943136,31.7003112 Z M119.35124,33.8033173 L119.081923,34.6059864 C119.05776,34.6821568 119.032636,34.7709689 119.006713,34.8729027 C118.980789,34.9748366 118.967988,35.0638087 118.967988,35.139659 C118.967988,35.2006273 118.979989,35.2537545 119.004473,35.2993607 C119.028796,35.3449669 119.06064,35.382412 119.100166,35.4110559 C119.139691,35.4400198 119.184657,35.4621028 119.234744,35.4774649 C119.284991,35.492507 119.337478,35.500028 119.392205,35.500028 L119.784579,35.500028 L119.784579,35.9973756 L117.353048,35.9973756 L117.353048,35.500028 L117.467144,35.500028 C117.549235,35.500028 117.624605,35.4909068 117.692934,35.4726643 C117.761424,35.4545818 117.825272,35.4203372 117.88464,35.3702504 C117.943848,35.3198435 118.000016,35.2507141 118.053303,35.1625421 C118.10643,35.0743701 118.160518,34.9602746 118.215245,34.8204156 L120.240641,29.3283086 L121.522415,29.3283086 L123.474841,34.8295368 C123.520447,34.9602746 123.568293,35.0690894 123.61854,35.1558212 C123.668787,35.242393 123.723514,35.3107223 123.782722,35.3609691 C123.842091,35.4110559 123.905139,35.4469008 123.972188,35.4681837 C124.039077,35.4896266 124.108847,35.500028 124.181977,35.500028 L124.3508,35.500028 L124.3508,35.9973756 L121.26702,35.9973756 L121.26702,35.500028 L121.63203,35.500028 C121.677636,35.500028 121.724683,35.4933071 121.773329,35.4795452 C121.821976,35.4659434 121.865342,35.4446605 121.903427,35.4156965 C121.941352,35.3868926 121.972556,35.3496075 121.99688,35.3040013 C122.021203,35.2582351 122.033365,35.2036677 122.033365,35.139659 C122.033365,35.0638087 122.024243,34.9906787 122.006161,34.9207492 C121.987758,34.8508197 121.969516,34.7901715 121.951273,34.7383244 L121.622909,33.8033173 L119.35124,33.8033173 Z" id="Fill-24"></path>
            <path d="M130.69243,32.904539 L130.920461,32.904539 C131.151533,32.904539 131.347719,32.8755751 131.509021,32.8178072 C131.670003,32.7601994 131.801541,32.668827 131.903475,32.54417 C132.005249,32.4195131 132.079819,32.2583711 132.127025,32.0607443 C132.174072,31.8629574 132.197595,31.6243649 132.197595,31.3444869 C132.197595,31.0950129 132.177112,30.8785035 132.135986,30.6943184 C132.095181,30.5104534 132.029572,30.3584327 131.93996,30.2382564 C131.850188,30.1182401 131.733212,30.0283078 131.588712,29.9690998 C131.444212,29.9097317 131.267228,29.8802877 131.05728,29.8802877 L130.69243,29.8802877 L130.69243,32.904539 Z M133.766928,31.3078419 C133.766928,31.5877199 133.718122,31.8568765 133.620988,32.1153117 C133.523535,32.3739069 133.365434,32.6019379 133.146524,32.7997248 C132.927614,32.9973516 132.643095,33.154653 132.293448,33.271789 C131.94364,33.3887649 131.516382,33.4474929 131.011674,33.4474929 L130.69243,33.4474929 L130.69243,34.9435363 C130.69243,35.0653129 130.706032,35.1632462 130.733396,35.2378163 C130.760759,35.3123865 130.797244,35.3685541 130.842851,35.4066393 C130.888617,35.4447245 130.941744,35.4696879 131.002552,35.4818495 C131.063361,35.4941712 131.125769,35.500092 131.189458,35.500092 L131.759775,35.500092 L131.759775,35.9972796 L128.347791,35.9972796 L128.347791,35.500092 L128.740005,35.500092 C128.809774,35.500092 128.873783,35.4933711 128.931551,35.4796092 C128.989159,35.4660074 129.039565,35.4378435 129.082131,35.3951177 C129.124697,35.352712 129.157981,35.2919037 129.182305,35.2126929 C129.206788,35.1338022 129.21895,35.0273877 129.21895,34.8934495 L129.21895,30.3910772 C129.21895,30.2664202 129.206788,30.1668867 129.182305,30.0923166 C129.157981,30.0177464 129.123897,29.9607787 129.079891,29.9210933 C129.035565,29.8817279 128.984678,29.8550043 128.92707,29.8414024 C128.869142,29.8276406 128.806894,29.8207596 128.740005,29.8207596 L128.347791,29.8207596 L128.347791,29.3282126 L131.216821,29.3282126 C131.64888,29.3282126 132.024291,29.3739789 132.343695,29.4650312 C132.662938,29.5562436 132.928254,29.6877815 133.139643,29.8596449 C133.351032,30.0315083 133.508493,30.2390565 133.611867,30.4822896 C133.715241,30.7256827 133.766928,31.0009201 133.766928,31.3078419 L133.766928,31.3078419 Z" id="Fill-26"></path>
            <path d="M138.04655,35.9972956 L138.04655,35.500108 L138.438764,35.500108 C138.508853,35.500108 138.572702,35.4933871 138.63047,35.4796252 C138.688238,35.4660234 138.738324,35.4378595 138.78105,35.3951337 C138.823456,35.352728 138.856901,35.2919197 138.881384,35.2127089 C138.905707,35.1338182 138.917869,35.0272437 138.917869,34.8934655 L138.917869,30.4322188 C138.917869,30.2984406 138.905707,30.1920261 138.881384,30.1128153 C138.856901,30.0337646 138.823456,29.9731163 138.78105,29.9303905 C138.738324,29.8878247 138.688238,29.8596609 138.63047,29.8460591 C138.572702,29.8322972 138.508853,29.8254163 138.438764,29.8254163 L138.04655,29.8254163 L138.04655,29.3282286 L141.271629,29.3282286 L141.271629,29.8254163 L140.879256,29.8254163 C140.812366,29.8254163 140.749478,29.8322972 140.69011,29.8460591 C140.630742,29.8596609 140.579695,29.8878247 140.537129,29.9303905 C140.494563,29.9731163 140.461119,30.0337646 140.436955,30.1128153 C140.412472,30.1920261 140.40031,30.2984406 140.40031,30.4322188 L140.40031,34.8934655 C140.40031,35.0272437 140.412472,35.1338182 140.436955,35.2127089 C140.461119,35.2919197 140.494563,35.352728 140.537129,35.3951337 C140.579695,35.4378595 140.630742,35.4660234 140.69011,35.4796252 C140.749478,35.4933871 140.812366,35.500108 140.879256,35.500108 L141.271629,35.500108 L141.271629,35.9972956 L138.04655,35.9972956 Z" id="Fill-28"></path>
            <path d="M149.059296,34.8934015 C149.059296,35.0273397 149.071458,35.1337542 149.095941,35.2126449 C149.120104,35.2918557 149.154349,35.352664 149.198515,35.3952298 C149.242681,35.4377955 149.293568,35.4659594 149.351336,35.4795612 C149.409104,35.4933231 149.471352,35.500044 149.538241,35.500044 L149.930615,35.500044 L149.930615,35.9972316 L146.705536,35.9972316 L146.705536,35.500044 L147.097749,35.500044 C147.167839,35.500044 147.231688,35.4933231 147.289295,35.4795612 C147.347223,35.4659594 147.39731,35.4377955 147.440036,35.3952298 C147.482442,35.352664 147.515886,35.2918557 147.540369,35.2126449 C147.564533,35.1337542 147.576694,35.0273397 147.576694,34.8934015 L147.576694,29.8983222 L146.828753,29.8983222 C146.688894,29.8983222 146.571598,29.9136843 146.477345,29.9439284 C146.383092,29.9744925 146.306442,30.0176984 146.247074,30.0740261 C146.187866,30.1303537 146.1437,30.1994831 146.114896,30.2815743 C146.085932,30.3636655 146.065289,30.4564781 146.053287,30.5598521 L145.989279,31.1391309 L145.359913,31.1391309 L145.41,29.3283247 L151.230631,29.3283247 L151.276238,31.1391309 L150.651353,31.1391309 L150.582863,30.5598521 C150.570702,30.4564781 150.550219,30.3636655 150.521415,30.2815743 C150.492451,30.1994831 150.448445,30.1303537 150.389077,30.0740261 C150.329709,30.0176984 150.252898,29.9744925 150.158646,29.9439284 C150.064393,29.9136843 149.947257,29.8983222 149.807558,29.8983222 L149.059296,29.8983222 L149.059296,34.8934015 Z" id="Fill-30"></path>
            <path d="M158.169751,31.7003112 C158.136307,31.5938968 158.102062,31.4822016 158.067177,31.3649056 C158.032292,31.2479297 157.997248,31.1285535 157.962203,31.0069369 C157.927158,30.8853204 157.893714,30.764344 157.861869,30.6441676 C157.830025,30.5241513 157.801861,30.4094157 157.777538,30.2998008 C157.750174,30.3942136 157.71833,30.4974277 157.681685,30.610083 C157.64536,30.7225783 157.606314,30.838114 157.565509,30.9568501 C157.524383,31.0754263 157.483258,31.1940024 157.442292,31.3125785 C157.401167,31.4311546 157.362441,31.5450901 157.325956,31.654705 L156.773881,33.2329997 L158.662458,33.2329997 L158.169751,31.7003112 Z M156.577855,33.8033173 L156.308698,34.6059864 C156.284375,34.6821568 156.259251,34.7709689 156.233328,34.8729027 C156.207564,34.9748366 156.194602,35.0638087 156.194602,35.139659 C156.194602,35.2006273 156.206764,35.2537545 156.231247,35.2993607 C156.255411,35.3449669 156.287255,35.382412 156.32694,35.4110559 C156.366306,35.4400198 156.411432,35.4621028 156.461519,35.4774649 C156.511766,35.492507 156.564093,35.500028 156.61898,35.500028 L157.011194,35.500028 L157.011194,35.9973756 L154.579823,35.9973756 L154.579823,35.500028 L154.693758,35.500028 C154.77601,35.500028 154.85122,35.4909068 154.919549,35.4726643 C154.988038,35.4545818 155.052047,35.4203372 155.111255,35.3702504 C155.170623,35.3198435 155.226791,35.2507141 155.279918,35.1625421 C155.333205,35.0743701 155.387133,34.9602746 155.44202,34.8204156 L157.467256,29.3283086 L158.74919,29.3283086 L160.701455,34.8295368 C160.747062,34.9602746 160.795068,35.0690894 160.845315,35.1558212 C160.895402,35.242393 160.950129,35.3107223 161.009497,35.3609691 C161.068705,35.4110559 161.131914,35.4469008 161.198803,35.4681837 C161.265692,35.4896266 161.335622,35.500028 161.408592,35.500028 L161.577415,35.500028 L161.577415,35.9973756 L158.493635,35.9973756 L158.493635,35.500028 L158.858645,35.500028 C158.904251,35.500028 158.951457,35.4933071 158.999944,35.4795452 C159.048591,35.4659434 159.092117,35.4446605 159.130042,35.4156965 C159.167967,35.3868926 159.199331,35.3496075 159.223654,35.3040013 C159.247818,35.2582351 159.259979,35.2036677 159.259979,35.139659 C159.259979,35.0638087 159.251018,34.9906787 159.232776,34.9207492 C159.214373,34.8508197 159.196131,34.7901715 159.178048,34.7383244 L158.849524,33.8033173 L156.577855,33.8033173 Z" id="Fill-32"></path>
            <path d="M165.574358,35.9972956 L165.574358,35.500108 L165.966571,35.500108 C166.036661,35.500108 166.10035,35.4933871 166.158118,35.4796252 C166.216045,35.4660234 166.266132,35.4378595 166.308858,35.3951337 C166.351264,35.352728 166.384708,35.2919197 166.409192,35.2127089 C166.433355,35.1338182 166.445517,35.0272437 166.445517,34.8934655 L166.445517,30.4275782 C166.445517,30.2936399 166.433355,30.1873855 166.409192,30.1081747 C166.384708,30.029124 166.351264,29.9683157 166.308858,29.9259099 C166.266132,29.8831841 166.216045,29.8550203 166.158118,29.8414184 C166.10035,29.8276566 166.036661,29.8207756 165.966571,29.8207756 L165.574358,29.8207756 L165.574358,29.3282286 L168.799437,29.3282286 L168.799437,29.8207756 L168.407063,29.8207756 C168.343375,29.8207756 168.281606,29.8276566 168.222398,29.8414184 C168.16303,29.8550203 168.111983,29.8817439 168.069577,29.9211093 C168.026852,29.9607947 167.992607,30.0177624 167.966843,30.0923326 C167.94108,30.1667427 167.928118,30.2664362 167.928118,30.3910932 L167.928118,35.4271381 L169.666115,35.4271381 C169.885024,35.4271381 170.055448,35.3580087 170.177064,35.2195899 C170.298521,35.081171 170.386853,34.8798637 170.44158,34.6151877 L170.592001,33.9126921 L171.116712,33.9126921 L171.048383,35.9972956 L165.574358,35.9972956 Z" id="Fill-34"></path>
            <polygon id="Fill-36" points="101.671139 33.5486906 35.1449717 32.9540498 101.671139 32.3592489"></polygon>
        </g>
    </g>
</svg>