<?xml version="1.0" encoding="UTF-8"?>
<svg width="109px" height="21px" viewBox="0 0 109 21" version="1.1" xmlns="http://www.w3.org/2000/svg" xmlns:xlink="http://www.w3.org/1999/xlink">
    <title>Combined Shape Copy 3</title>
    <defs>
        <linearGradient x1="51.0489378%" y1="46.9395598%" x2="54.8031232%" y2="52.0514761%" id="linearGradient-1">
            <stop stop-color="#FF9DFF" offset="0%"></stop>
            <stop stop-color="#CCB1FD" offset="100%"></stop>
        </linearGradient>
    </defs>
    <g id="Final" stroke="none" stroke-width="1" fill="none" fill-rule="evenodd">
        <path d="M4.30820611,7.1692112 L4.30820611,20.5124046 L0.390744275,21 L0.390744275,7.61339059 L4.30820611,7.1692112 Z M15.6932252,6.34208015 C19.764313,6.34208015 22.7856234,8.66428117 22.7856234,13.7840331 L22.7856234,13.7840331 L22.7856234,18.2002226 L18.8102735,18.6956107 L18.8102735,14.2927799 C18.8102735,11.2714695 17.3152036,9.80868321 14.7714695,9.80868321 C11.9405216,9.80868321 10.0324427,11.5263995 10.0324427,14.9295483 L10.0324427,14.9295483 L10.0324427,19.7888041 L6.05709288,20.2841921 L6.05709288,6.96215013 L9.84208015,6.53244275 L9.84208015,8.72773537 C11.1456743,7.1692112 13.2129453,6.34208015 15.6932252,6.34208015 Z M26.5683842,6.44672392 L31.1159351,17.2951654 L27.3131361,17.7682888 L22.4583333,6.44672392 L26.5683842,6.44672392 Z M41.019243,6.44672392 L36.6642812,16.6038486 L32.6221374,17.1070293 L37.2253499,6.44672392 L41.019243,6.44672392 Z M46.6855916,6.44672392 L46.6855916,15.3837468 L42.7681298,15.8724555 L42.7681298,6.44672392 L46.6855916,6.44672392 Z M55.7428435,6.44672392 C57.9537214,6.44672392 60.4763041,6.97550891 61.971374,7.87945293 L61.971374,7.87945293 L60.4763041,10.8373092 C58.8877226,9.90330789 57.3002545,9.59160305 55.711673,9.59160305 C53.346056,9.59160305 52.2250318,10.3697519 52.2250318,11.4596056 C52.2250318,13.3409669 55.4400445,13.2352099 58.2732188,13.9153944 L58.2732188,13.9153944 L49.8950382,14.9584924 C49.0077926,14.2571565 48.4255725,13.2251908 48.4255725,11.6466285 C48.4255725,8.50174936 51.2598601,6.44672392 55.7428435,6.44672392 Z M67.6666667,6.44672392 L67.6666667,12.6997455 L63.7503181,13.187341 L63.7503181,6.44672392 L67.6666667,6.44672392 Z M73.3352417,1.13686838e-13 L73.3352417,8.55852417 C74.6878181,7.05343511 76.5636132,6.33206107 78.6954517,6.33206107 C81.9672392,6.33206107 84.6612595,7.83492366 86.0884224,10.3897901 L86.0884224,10.3897901 L81.6466285,10.9464059 C80.7727417,10.1237277 79.5927163,9.66173664 78.2568384,9.66173664 C76.4701018,9.66173664 74.9505407,10.4777354 74.0733142,11.8881997 L74.0733142,11.8881997 L69.4166667,12.4681934 L69.4166667,1.13686838e-13 L73.3352417,1.13686838e-13 Z M92.8457379,1.13686838e-13 L92.8457379,9.50477099 L88.9405216,9.99125318 L88.9405216,1.13686838e-13 L92.8457379,1.13686838e-13 Z M103.326813,6.17286896 C105.22042,6.17286896 106.918098,6.68272901 108.28626,7.61005089 L108.28626,7.61005089 L96.6474237,9.05725191 C98.2215331,7.25493003 100.573791,6.17286896 103.326813,6.17286896 Z M2.35003181,1.13686838e-13 C3.64791853,1.13686838e-13 4.70006361,1.05214508 4.70006361,2.35003181 C4.70006361,3.64791853 3.64791853,4.70006361 2.35003181,4.70006361 C1.05214508,4.70006361 0,3.64791853 0,2.35003181 C0,1.05214508 1.05214508,1.13686838e-13 2.35003181,1.13686838e-13 Z M44.7274173,1.13686838e-13 C46.025304,1.13686838e-13 47.0774491,1.05214508 47.0774491,2.35003181 C47.0774491,3.64791853 46.025304,4.70006361 44.7274173,4.70006361 C43.4295306,4.70006361 42.3773855,3.64791853 42.3773855,2.35003181 C42.3773855,1.05214508 43.4295306,1.13686838e-13 44.7274173,1.13686838e-13 Z M65.7084924,1.13686838e-13 C67.0063791,1.13686838e-13 68.0585242,1.05214508 68.0585242,2.35003181 C68.0585242,3.64791853 67.0063791,4.70006361 65.7084924,4.70006361 C64.4106056,4.70006361 63.3584606,3.64791853 63.3584606,2.35003181 C63.3584606,1.05214508 64.4106056,1.13686838e-13 65.7084924,1.13686838e-13 Z" id="Combined-Shape-Copy-3" fill="url(#linearGradient-1)" fill-rule="nonzero"></path>
    </g>
</svg>