<?xml version="1.0" encoding="UTF-8"?>
<svg width="147px" height="40px" viewBox="0 0 147 40" version="1.1" xmlns="http://www.w3.org/2000/svg" xmlns:xlink="http://www.w3.org/1999/xlink">
    <title>letzbake</title>
    <g id="letzbake" stroke="none" stroke-width="1" fill="none" fill-rule="evenodd">
        <path d="M20.3880769,34.9357692 C21.7865385,34.9357692 22.9203846,36.0692308 22.9203846,37.4676923 C22.9203846,38.8665385 21.7865385,40 20.3880769,40 C18.9896154,40 17.8557692,38.8665385 17.8557692,37.4676923 C17.8557692,36.0692308 18.9896154,34.9357692 20.3880769,34.9357692 Z M74.7726923,9.80923077 C74.8342308,9.80923077 74.895,9.82461538 74.9492308,9.85307692 L75.1757692,9.97576923 C75.3357692,10.0630769 75.4957692,10.1503846 75.6611538,10.2265385 C75.9788462,10.3723077 76.1388462,10.6307692 76.1365385,10.9938462 C76.1311538,12.0080769 76.1323077,13.0223077 76.1326923,14.0365385 L76.1334615,14.9503846 L76.1334615,14.9723077 L76.1334615,14.9723077 C76.1442308,14.9719231 76.155,14.9719231 76.1657692,14.9719231 L77.9107692,14.9646154 C80.6515385,14.9534615 83.3919231,14.9423077 86.1323077,14.9226923 C86.4019231,14.9257692 86.7934615,14.9634615 87.12,15.35 C87.2165385,15.4642308 87.3292308,15.5723077 87.4480769,15.6865385 C87.5057692,15.7419231 87.5630769,15.7965385 87.6192308,15.8526923 C88.0646154,16.2988462 88.0665385,16.5411538 87.6276923,16.9807692 L83.6084615,20.9976923 L82.27,22.3353846 L82.27,22.3353846 C83.0496154,22.3326923 83.7461538,22.5834615 84.3646154,22.8407692 C86.3426923,23.6630769 87.6007692,25.2511538 88.1034615,27.5596154 C88.4407692,29.1096154 88.3673077,30.6492308 87.885,32.1376923 C87.1865385,34.2915385 85.6930769,35.6980769 83.4453846,36.3188462 C83.0834615,36.4188462 82.7173077,36.4865385 82.3630769,36.5515385 L82.1353846,36.5938462 C82.1123077,36.5980769 82.0892308,36.6003846 82.0653846,36.6003846 L80.0142308,36.6003846 C79.9923077,36.6003846 79.97,36.5984615 79.9476923,36.5946154 L79.7542308,36.5603846 C79.2142308,36.4661538 78.6561538,36.3684615 78.1242308,36.1196154 C76.4342308,35.3284615 75.4876923,34.0026923 75.3111538,32.1807692 C75.215,31.1884615 75.695,30.3396154 76.5642308,29.9653846 C77.4388462,29.5880769 78.5361538,29.8 79.1719231,30.47 C79.6038462,30.925 79.8053846,31.6892308 79.6857692,32.4165385 C79.5919231,32.9880769 79.3142308,33.4569231 78.8942308,33.765 C79.1796154,33.9538462 79.5173077,34.0457692 79.8461538,34.1146154 C80.8111538,34.3180769 81.5373077,34.3065385 82.2030769,34.0776923 C83.1007692,33.7688462 83.7192308,33.2096154 84.0411538,32.4153846 C84.845,30.4319231 84.8557692,28.4469231 84.0723077,26.5157692 C83.5788462,25.2980769 82.4238462,24.5611538 81.0496154,24.5930769 C80.6107692,24.6030769 80.2023077,24.7761538 79.8253846,24.9611538 C79.5730769,25.085 79.3226923,25.2138462 79.0730769,25.3419231 C78.8680769,25.4473077 78.6626923,25.5526923 78.4561538,25.6553846 C78.2619231,25.7530769 78.0415385,25.8626923 77.8165385,25.7315385 C77.5938462,25.6019231 77.5819231,25.3684615 77.5707692,25.1426923 C77.5538462,24.8165385 77.6465385,24.5311538 77.8634615,24.2434615 C79.6057692,21.9346154 81.3415385,19.6207692 83.0773077,17.3069231 L80.9788462,17.3057692 C79.3619231,17.3057692 77.745,17.3057692 76.1276923,17.2996154 C76.1342308,19.1111538 76.1342308,20.9230769 76.1338462,22.735 L76.1342308,25.1361538 C76.1346154,25.6030769 76.2280769,26.0023077 76.4188462,26.3557692 C76.6630769,26.8084615 77.1615385,27.0538462 77.6857692,26.9830769 C78.415,26.8846154 78.9369231,26.4176923 79.3523077,25.9734615 C79.4688462,25.8488462 79.5742308,25.7042308 79.6857692,25.5519231 L79.7111538,25.5169231 C79.9207692,25.2307692 80.2119231,25.0753846 80.5092308,25.0961538 C80.8057692,25.1146154 81.0738462,25.3023077 81.2446154,25.6115385 C81.5657692,26.1915385 81.3026923,26.7538462 81.2157692,26.9380769 C80.4203846,28.6353846 78.8238462,29.5376923 76.9461538,29.3538462 L76.7438462,29.3346154 C76.3057692,29.2926923 75.8519231,29.2496154 75.4015385,29.1407692 C73.7496154,28.7411538 72.7476923,27.6388462 72.5046154,25.9530769 C72.4623077,25.6603846 72.4426923,25.3453846 72.4426923,24.9623077 C72.4434615,22.41 72.4434615,19.8573077 72.4430769,17.305 L71.5776923,17.3042308 C70.7176923,17.3023077 69.8573077,17.3011538 68.9969231,17.3088462 C68.8342308,17.3103846 68.6069231,17.2919231 68.4376923,17.1142308 C68.2515385,16.9176923 68.2676923,16.6542308 68.2730769,16.5680769 C68.2915385,16.2711538 68.2915385,15.9807692 68.2730769,15.7053846 C68.2673077,15.6203846 68.25,15.3607692 68.4346154,15.165 C68.6223077,14.9661538 68.8984615,14.9676923 69.0011538,14.9688462 L69.7905769,14.9719712 L69.7905769,14.9719712 L70.58,14.9719231 C71.2030769,14.9703846 71.8257692,14.9711538 72.4484615,14.9776923 C72.4334615,14.0261538 72.4392308,13.0869231 72.4465385,12.2061538 C72.4473077,12.0723077 72.42,12.0492308 72.3884615,12.0230769 C72.3296154,11.9746154 72.2765385,11.9184615 72.2246154,11.8615385 C72.1892308,11.8226923 72.1526923,11.7826923 72.1276923,11.765 C71.5842308,11.3865385 71.3715385,10.8338462 71.4953846,10.1215385 C71.5269231,9.94115385 71.6838462,9.80923077 71.8673077,9.80923077 L74.7726923,9.80923077 Z M12.3646154,4.94615385 C14.95,6.74807692 17.6323077,7.66038462 20.3534615,7.66038462 C24.0223077,7.66038462 26.8111538,5.995 28.1973077,4.95269231 L31.887,8.439 L31.8903846,8.435 L31.945,8.493 L32.0034615,8.54807692 L31.999,8.551 L35.4853846,12.2415385 C34.4790186,13.5798939 32.8921641,16.2255136 32.7839225,19.7089723 L32.7780769,20.0853846 C32.7780769,22.8061538 33.69,25.4888462 35.4923077,28.0738462 L35.4923077,28.0738462 L31.6530769,31.7 C31.6470324,31.692294 31.6409635,31.6845435 31.6348706,31.6767487 L28.1973077,34.9234615 C26.8111538,33.8811538 24.0223077,32.2157692 20.3534615,32.2157692 C17.6323077,32.2157692 14.95,33.1280769 12.3646154,34.93 L12.3646154,34.93 L9.041,31.411 L5.50846154,28.0738462 C7.31076923,25.4888462 8.22269231,22.8061538 8.22269231,20.0853846 C8.22269231,16.4161538 6.55730769,13.6276923 5.515,12.2415385 L8.76187613,8.80410211 C8.75402625,8.79796663 8.74622136,8.79185556 8.73846154,8.78576923 L12.3646154,4.94615385 Z M142.654615,25.1834615 C144.127308,25.33 145.087308,26.5307692 144.936923,28.0376923 C144.788077,29.5280769 143.611538,30.5030769 142.139615,30.3565385 C140.667308,30.2096154 139.706538,29.0219231 139.855,27.5311538 C140.003077,26.0488462 141.206538,25.0392308 142.654615,25.1834615 Z M31.4553854,8.98242439 L31.3897462,9.03359192 C29.3375385,10.5903808 25.4142308,12.9334615 20.3880769,12.9334615 C15.8919612,12.9334615 12.2990022,11.1908023 10.1170574,9.77011932 C11.6265577,11.9518602 13.4957692,15.5614688 13.4957692,20.0503846 C13.4957692,24.1711031 12.0319637,27.5329788 10.6936628,29.7454887 C12.9052771,28.4064979 16.2673585,26.9426923 20.3880769,26.9426923 C24.8779966,26.9426923 28.4878395,28.8124823 30.6699432,30.3214365 C29.2481844,28.140297 27.505,24.5471777 27.505,20.0503846 C27.505,14.969912 29.8993286,11.0157703 31.4553854,8.98242439 Z M108.792308,15.0807692 C110.672692,15.0807692 111.936538,15.6673077 112.655,16.8730769 C113.056538,17.5834615 113.266154,18.68 113.266154,20.0534615 L113.266154,24.6376923 C113.266154,24.9776923 113.278846,25.4023077 113.377692,25.6596154 C113.469615,25.8680769 113.574615,26.0296154 114.016923,26.0296154 C114.297692,26.0296154 114.544231,25.9846154 114.663077,25.9396154 C114.805,25.8873077 114.962692,25.9065385 115.087308,25.9926923 C115.210769,26.0788462 115.284615,26.2203846 115.284615,26.3711538 L115.284615,27.3446154 C115.284615,27.5384615 115.163846,27.7111538 114.981538,27.7776923 C114.667308,27.8919231 114.095,27.9715385 113.589615,27.9715385 C112.531538,27.9715385 111.788462,27.4953846 111.423462,26.6084615 C110.548846,27.5607692 109.218077,28.09 107.628462,28.09 C104.469615,28.09 103.344231,26.2207692 103.344231,24.4711538 C103.344231,21.7515385 105.35,20.5907692 110.050769,20.5907692 L111.110385,20.5907692 L111.110385,19.935 C111.110385,18.9515385 110.957308,18.2061538 110.68,17.8365385 C110.287692,17.3038462 109.631923,17.0465385 108.673462,17.0465385 C107.146538,17.0465385 106.599615,17.5838462 106.321154,17.9876923 C106.157308,18.2115385 105.975,18.7715385 105.975,19.65 L105.975,19.8161538 C105.975,20.0703846 105.768846,20.2765385 105.514615,20.2765385 L104.279615,20.2765385 C104.025385,20.2765385 103.819231,20.0703846 103.819231,19.8161538 L103.819231,19.6023077 C103.819231,18.3219231 104.119231,17.3469231 104.736538,16.6203846 C105.598846,15.5857692 106.926538,15.0807692 108.792308,15.0807692 Z M134.393462,15.0807692 C137.566923,15.0807692 139.461538,17.2326923 139.461538,20.8376923 C139.461538,21.2011538 139.458462,21.6503846 139.435769,21.9 C139.414231,22.1376923 139.215385,22.3188462 138.977308,22.3188462 L130.811154,22.3188462 C130.816923,22.4061538 130.826154,22.5057692 130.838077,22.6184615 C130.934231,23.6769231 131.479231,26.1246154 134.465,26.1246154 C136.504615,26.1246154 137.188846,24.6303846 137.414615,23.7403846 C137.474231,23.5069231 137.701923,23.3573077 137.941154,23.4003846 L139.152308,23.6138462 C139.277308,23.6361538 139.388077,23.7092308 139.458077,23.8157692 C139.527692,23.9226923 139.549615,24.0530769 139.519231,24.1765385 C138.910385,26.6634615 137.042308,28.09 134.393462,28.09 C130.784231,28.09 128.541923,25.6569231 128.541923,21.7396154 C128.541923,17.5703846 130.729615,15.0807692 134.393462,15.0807692 Z M63.5192308,15.0807692 C66.6923077,15.0807692 68.5869231,17.2326923 68.5869231,20.8376923 C68.5869231,21.2011538 68.5842308,21.6503846 68.5611538,21.9 C68.5396154,22.1376923 68.3407692,22.3188462 68.1026923,22.3188462 L59.9361538,22.3188462 C59.9426923,22.4061538 59.9515385,22.5057692 59.9630769,22.6180769 C60.0596154,23.6769231 60.6046154,26.1246154 63.5903846,26.1246154 C65.6303846,26.1246154 66.3142308,24.6303846 66.5403846,23.7403846 C66.5992308,23.5065385 66.8284615,23.3573077 67.0665385,23.4003846 L68.2776923,23.6138462 C68.4030769,23.6361538 68.5138462,23.7092308 68.5834615,23.8157692 C68.6530769,23.9226923 68.6753846,24.0530769 68.645,24.1765385 C68.0357692,26.6634615 66.1673077,28.09 63.5192308,28.09 C59.9096154,28.09 57.6676923,25.6569231 57.6676923,21.7396154 C57.6676923,17.5703846 59.855,15.0807692 63.5192308,15.0807692 Z M119.265,10.2834615 C119.519231,10.2834615 119.725385,10.4892308 119.725385,10.7438462 L119.725385,20.2346154 L121.381923,20.2346154 L123.956923,17.2603846 L123.183462,17.2603846 C122.929615,17.2603846 122.723462,17.0542308 122.723462,16.8 L122.723462,15.85 C122.723462,15.5957692 122.929615,15.3896154 123.183462,15.3896154 L127.981154,15.3896154 C128.235,15.3896154 128.441154,15.5957692 128.441154,15.85 L128.441154,16.8 C128.441154,17.0542308 128.235,17.2603846 127.981154,17.2603846 L126.549615,17.2603846 L123.111538,21.1473077 L125.88,24.8607692 C126.377692,25.5388462 126.757308,25.9819231 127.482308,25.9819231 C127.692692,25.9819231 127.991923,25.9553846 128.157308,25.9061538 C128.296538,25.8638462 128.447308,25.8907692 128.564615,25.9776923 C128.681154,26.0646154 128.75,26.2015385 128.75,26.3473077 L128.75,27.3446154 C128.75,27.5561538 128.606154,27.74 128.401538,27.7915385 C127.978846,27.8969231 127.190385,27.9 127.102308,27.9 C125.918077,27.9 125.04,27.4 124.255385,26.2788462 L121.261154,22.1053846 L119.725385,22.1053846 L119.725385,25.9107692 L121.022308,25.9107692 C121.276538,25.9107692 121.483077,26.1169231 121.483077,26.3711538 L121.483077,27.3207692 C121.483077,27.575 121.276538,27.7811538 121.022308,27.7811538 L116.153846,27.7811538 C115.899615,27.7811538 115.693462,27.575 115.693462,27.3207692 L115.693462,26.3711538 C115.693462,26.1169231 115.899615,25.9107692 116.153846,25.9107692 L117.569615,25.9107692 L117.569615,12.1780769 L116.177692,12.1780769 C115.923462,12.1780769 115.716923,11.9719231 115.716923,11.7176923 L115.716923,10.7438462 C115.716923,10.4892308 115.923462,10.2834615 116.177692,10.2834615 L119.265,10.2834615 Z M51.1457692,11.2811538 C51.4,11.2811538 51.6061538,11.4869231 51.6061538,11.7411538 L51.6061538,12.7388462 C51.6061538,12.9930769 51.4,13.1992308 51.1457692,13.1992308 L49.7061538,13.1992308 L49.7061538,25.8630769 L55.3403846,25.8630769 L55.3403846,24.2811538 C55.3403846,24.0269231 55.5465385,23.8207692 55.8007692,23.8207692 L56.8219231,23.8207692 C57.0761538,23.8207692 57.2823077,24.0269231 57.2823077,24.2811538 L57.2823077,27.3207692 C57.2823077,27.575 57.0761538,27.7811538 56.8219231,27.7811538 L45.9207692,27.7811538 C45.6665385,27.7811538 45.4603846,27.575 45.4603846,27.3207692 L45.4603846,26.3234615 C45.4603846,26.0692308 45.6665385,25.8630769 45.9207692,25.8630769 L47.4553846,25.8630769 L47.4553846,13.1992308 L45.9207692,13.1992308 C45.6665385,13.1992308 45.4603846,12.9930769 45.4603846,12.7388462 L45.4603846,11.7411538 C45.4603846,11.4869231 45.6665385,11.2811538 45.9207692,11.2811538 L51.1457692,11.2811538 Z M94.8276923,11.2811538 C95.5546154,11.2811538 96.5434615,11.3292308 97.1442308,11.3773077 C99.79,11.6061538 101.368077,13.1361538 101.368077,15.47 C101.368077,17.1515385 100.775769,18.3726923 99.6026923,19.1165385 C101.236923,19.7407692 102.175385,21.1203846 102.175385,22.9984615 C102.175385,25.1123077 101.239231,26.5588462 99.3923077,27.2973077 C98.5907692,27.6311538 97.3276923,27.7811538 95.3026923,27.7811538 L89.7692308,27.7811538 C89.5146154,27.7811538 89.3088462,27.575 89.3088462,27.3207692 L89.3088462,26.3234615 C89.3088462,26.0692308 89.5146154,25.8630769 89.7692308,25.8630769 L91.3038462,25.8630769 L91.3038462,13.1992308 L89.7692308,13.1992308 C89.5146154,13.1992308 89.3088462,12.9930769 89.3088462,12.7388462 L89.3088462,11.7411538 C89.3088462,11.4869231 89.5146154,11.2811538 89.7692308,11.2811538 L94.8276923,11.2811538 Z M111.110385,22.4853846 L110.074615,22.4853846 C105.919231,22.4853846 105.571538,23.4861538 105.571538,24.4234615 C105.571538,25.8826923 107.053462,26.1003846 107.937308,26.1003846 C109.085769,26.1003846 109.958846,25.6723077 110.606154,24.7923077 C110.905385,24.3996154 111.110385,23.5084615 111.110385,22.6188462 L111.110385,22.4853846 Z M95.92,20.2765385 L93.5542308,20.2765385 L93.5542308,25.8630769 L95.5165385,25.8630769 C97.2988462,25.8630769 98.0453846,25.6038462 98.4526923,25.4092308 C99.3911538,24.9526923 99.83,24.1638462 99.83,22.9273077 C99.83,21.8153846 99.2761538,20.9469231 98.3492308,20.6042308 C97.8784615,20.4346154 97.255,20.2765385 95.92,20.2765385 Z M142.299615,7.60846154 L146.563462,8.03346154 L146.443077,9.24076923 C146.383846,9.83692308 146.114231,12.3319231 144.896538,22.6080769 L144.755769,23.7907692 L140.927308,23.4092308 L141.026923,22.2196154 C141.915769,11.5911538 142.133462,9.27346154 142.178846,8.81576923 L142.299615,7.60846154 Z M2.53230769,17.5973077 C3.93076923,17.5973077 5.06423077,18.7307692 5.06423077,20.1292308 C5.06423077,21.5280769 3.93076923,22.6615385 2.53230769,22.6615385 C1.13346154,22.6615385 0,21.5280769 0,20.1292308 C0,18.7307692 1.13346154,17.5973077 2.53230769,17.5973077 Z M38.2442308,17.5973077 C39.6426923,17.5973077 40.7765385,18.7307692 40.7765385,20.1292308 C40.7765385,21.5280769 39.6426923,22.6615385 38.2442308,22.6615385 C36.8457692,22.6615385 35.7119231,21.5280769 35.7119231,20.1292308 C35.7119231,18.7307692 36.8457692,17.5973077 38.2442308,17.5973077 Z M63.5192308,17.0465385 C61.4723077,17.0465385 60.3161538,18.1373077 59.9961538,20.3769231 L66.3553846,20.3769231 C66.3142308,19.365 65.9526923,17.0465385 63.5192308,17.0465385 Z M134.393462,17.0465385 C132.346923,17.0465385 131.190769,18.1373077 130.870769,20.3769231 L137.229615,20.3769231 C137.188462,19.365 136.827308,17.0465385 134.393462,17.0465385 Z M95.1126923,13.1992308 L93.5542308,13.1992308 L93.5542308,18.3580769 L95.8011538,18.3580769 C96.9261538,18.3580769 97.5984615,18.1061538 97.8992308,17.9557692 C98.6919231,17.5596154 99.0934615,16.7792308 99.0934615,15.6365385 C99.0934615,14.5092308 98.5319231,13.7392308 97.5119231,13.4692308 C97.1669231,13.3657692 96.4173077,13.1992308 95.1126923,13.1992308 Z M20.9057692,0 C22.3042308,0 23.4380769,1.13384615 23.4380769,2.53192308 C23.4380769,3.93076923 22.3042308,5.06423077 20.9057692,5.06423077 C19.5073077,5.06423077 18.3734615,3.93076923 18.3734615,2.53192308 C18.3734615,1.13384615 19.5073077,0 20.9057692,0 Z" id="Combined-Shape" fill="#1F2C73"></path>
    </g>
</svg>