<?xml version="1.0" encoding="UTF-8"?>
<svg width="144px" height="20px" viewBox="0 0 144 20" version="1.1" xmlns="http://www.w3.org/2000/svg" xmlns:xlink="http://www.w3.org/1999/xlink">
    <title>logo-blog-light</title>
    <g id="logo-blog-light" stroke="none" stroke-width="1" fill="none" fill-rule="evenodd">
        <g transform="translate(-0.190000, 0.690000)" fill="#FFFFFF" fill-rule="nonzero">
            <path d="M8.559,18.31 L8.559,15.313 L3.726,15.313 L8.37,3.055 L8.37,0.301 L0,0.301 L0,3.298 L4.536,3.298 L0,15.448 L0,18.31 L8.559,18.31 Z M18.18,18.31 L18.18,15.313 L13.698,15.313 L13.698,10.642 L17.991,10.642 L17.991,7.645 L13.698,7.645 L13.698,3.298 L18.18,3.298 L18.18,0.301 L10.296,0.301 L10.296,18.31 L18.18,18.31 Z M23.454,18.31 L23.454,11.695 L24.561,11.695 L26.505,18.31 L30.15,18.31 L27.666,10.858 C28.692,10.318 29.988,8.941 29.988,5.89 C29.988,2.596 27.936,0.301 25.074,0.301 L20.052,0.301 L20.052,18.31 L23.454,18.31 Z M24.561,8.698 L23.454,8.698 L23.454,3.298 L24.561,3.298 C25.83,3.298 26.532,4.351 26.532,5.998 C26.532,7.618 25.83,8.698 24.561,8.698 Z M37.071,18.634 C41.013,18.634 42.687,14.611 42.687,9.319 C42.687,4.027 41.013,0.004 37.071,0.004 C33.102,0.004 31.455,4.027 31.455,9.319 C31.455,14.611 33.102,18.634 37.071,18.634 Z M37.071,15.61 C35.478,15.61 34.938,12.856 34.938,9.319 C34.938,5.728 35.478,3.028 37.071,3.028 C38.664,3.028 39.204,5.728 39.204,9.319 C39.204,12.856 38.664,15.61 37.071,15.61 Z M47.907,18.31 L47.907,1.624 L50.823,1.624 L50.823,0.301 L43.56,0.301 L43.56,1.624 L46.449,1.624 L46.449,18.31 L47.907,18.31 Z M56.178,18.634 C59.391,18.634 60.498,14.395 60.498,9.319 C60.498,4.27 59.391,0.004 56.178,0.004 C52.992,0.004 51.885,4.27 51.885,9.319 C51.885,14.395 52.992,18.634 56.178,18.634 Z M56.178,17.311 C54.126,17.311 53.424,13.558 53.424,9.319 C53.424,5.026 54.126,1.327 56.178,1.327 C58.257,1.327 58.959,5.026 58.959,9.319 C58.959,13.558 58.257,17.311 56.178,17.311 Z M66.069,18.31 L66.069,6.511 L69.012,18.31 L70.308,18.31 L73.305,6.511 L73.305,18.31 L76.572,18.31 L76.572,0.301 L72.333,0.301 L69.66,10.669 L67.068,0.301 L62.748,0.301 L62.748,18.31 L66.069,18.31 Z M83.979,18.634 C87.921,18.634 89.595,14.611 89.595,9.319 C89.595,4.027 87.921,0.004 83.979,0.004 C80.01,0.004 78.363,4.027 78.363,9.319 C78.363,14.611 80.01,18.634 83.979,18.634 Z M83.979,15.61 C82.386,15.61 81.846,12.856 81.846,9.319 C81.846,5.728 82.386,3.028 83.979,3.028 C85.572,3.028 86.112,5.728 86.112,9.319 C86.112,12.856 85.572,15.61 83.979,15.61 Z M96.435,18.634 C100.377,18.634 102.051,14.611 102.051,9.319 C102.051,4.027 100.377,0.004 96.435,0.004 C92.466,0.004 90.819,4.027 90.819,9.319 C90.819,14.611 92.466,18.634 96.435,18.634 Z M96.435,15.61 C94.842,15.61 94.302,12.856 94.302,9.319 C94.302,5.728 94.842,3.028 96.435,3.028 C98.028,3.028 98.568,5.728 98.568,9.319 C98.568,12.856 98.028,15.61 96.435,15.61 Z M107.217,18.31 L107.217,7.429 L110.889,18.31 L114.102,18.31 L114.102,0.301 L110.727,0.301 L110.727,10.642 L107.244,0.301 L103.842,0.301 L103.842,18.31 L107.217,18.31 Z" id="ZEROTOMOON"></path>
            <path d="M7.172,17.71 C8.82933333,17.71 10.2703333,17.38 11.495,16.72 C12.7196667,16.06 13.6583333,15.1396667 14.311,13.959 C14.9636667,12.7783333 15.29,11.4253333 15.29,9.9 C15.29,8.37466667 14.9636667,7.02533333 14.311,5.852 C13.6583333,4.67866667 12.7233333,3.76933333 11.506,3.124 C10.2886667,2.47866667 8.844,2.156 7.172,2.156 L7.172,2.156 L1.298,2.156 L1.298,17.71 L7.172,17.71 Z M6.842,14.344 L5.06,14.344 L5.06,5.456 L6.842,5.456 C8.30866667,5.456 9.449,5.84466667 10.263,6.622 C11.077,7.39933333 11.484,8.492 11.484,9.9 C11.484,11.308 11.077,12.4006667 10.263,13.178 C9.449,13.9553333 8.30866667,14.344 6.842,14.344 L6.842,14.344 Z M22.6013333,17.864 C23.628,17.864 24.5593333,17.6696667 25.3953333,17.281 C26.2313333,16.8923333 26.9206667,16.357 27.4633333,15.675 C28.006,14.993 28.358,14.2193333 28.5193333,13.354 L28.5193333,13.354 L24.5373333,13.354 C24.42,13.794 24.178,14.1533333 23.8113333,14.432 C23.4446667,14.7106667 22.9826667,14.85 22.4253333,14.85 C21.7653333,14.85 21.2226667,14.6483333 20.7973333,14.245 C20.372,13.8416667 20.1373333,13.178 20.0933333,12.254 L20.0933333,12.254 L28.6073333,12.254 C28.6806667,11.8873333 28.7173333,11.55 28.7173333,11.242 C28.7173333,10.0686667 28.4643333,9.031 27.9583333,8.129 C27.4523333,7.227 26.7373333,6.52666667 25.8133333,6.028 C24.8893333,5.52933333 23.8186667,5.28 22.6013333,5.28 C21.3986667,5.28 20.328,5.533 19.3893333,6.039 C18.4506667,6.545 17.721,7.271 17.2003333,8.217 C16.6796667,9.163 16.4193333,10.2813333 16.4193333,11.572 C16.4193333,12.848 16.6833333,13.9626667 17.2113333,14.916 C17.7393333,15.8693333 18.469,16.599 19.4003333,17.105 C20.3316667,17.611 21.3986667,17.864 22.6013333,17.864 Z M24.9113333,10.67 L20.1153333,10.67 C20.174,9.878 20.4306667,9.27666667 20.8853333,8.866 C21.34,8.45533333 21.912,8.25 22.6013333,8.25 C23.2613333,8.25 23.815,8.45166667 24.2623333,8.855 C24.7096667,9.25833333 24.926,9.86333333 24.9113333,10.67 L24.9113333,10.67 Z M34.0706667,17.71 L34.0706667,11.418 L38.9986667,11.418 L38.9986667,8.558 L34.0706667,8.558 L34.0706667,5.148 L40.4506667,5.148 L40.4506667,2.156 L30.3086667,2.156 L30.3086667,17.71 L34.0706667,17.71 Z M43.912,3.938 C44.5866667,3.938 45.1293333,3.751 45.54,3.377 C45.9506667,3.003 46.156,2.53733333 46.156,1.98 C46.156,1.408 45.9506667,0.935 45.54,0.561 C45.1293333,0.187 44.5866667,0 43.912,0 C43.2373333,0 42.6946667,0.187 42.284,0.561 C41.8733333,0.935 41.668,1.408 41.668,1.98 C41.668,2.53733333 41.8733333,3.003 42.284,3.377 C42.6946667,3.751 43.2373333,3.938 43.912,3.938 Z M45.782,17.71 L45.782,5.434 L42.02,5.434 L42.02,17.71 L45.782,17.71 Z M53.4453333,17.864 C54.6626667,17.864 55.7003333,17.5486667 56.5583333,16.918 C57.4163333,16.2873333 58.0066667,15.4513333 58.3293333,14.41 L58.3293333,14.41 L58.3293333,17.71 L59.8473333,17.71 L59.8473333,5.698 L58.3293333,5.698 L58.3293333,8.998 C58.0066667,7.95666667 57.4163333,7.12066667 56.5583333,6.49 C55.7003333,5.85933333 54.6626667,5.544 53.4453333,5.544 C52.3453333,5.544 51.37,5.78966667 50.5193333,6.281 C49.6686667,6.77233333 49.005,7.48366667 48.5283333,8.415 C48.0516667,9.34633333 47.8133333,10.4426667 47.8133333,11.704 C47.8133333,12.9506667 48.0516667,14.0396667 48.5283333,14.971 C49.005,15.9023333 49.6723333,16.6173333 50.5303333,17.116 C51.3883333,17.6146667 52.36,17.864 53.4453333,17.864 Z M53.8413333,16.5 C52.492,16.5 51.4103333,16.071 50.5963333,15.213 C49.7823333,14.355 49.3753333,13.1853333 49.3753333,11.704 C49.3753333,10.2226667 49.7823333,9.053 50.5963333,8.195 C51.4103333,7.337 52.492,6.908 53.8413333,6.908 C54.692,6.908 55.4583333,7.106 56.1403333,7.502 C56.8223333,7.898 57.3576667,8.459 57.7463333,9.185 C58.135,9.911 58.3293333,10.7506667 58.3293333,11.704 C58.3293333,12.6573333 58.135,13.497 57.7463333,14.223 C57.3576667,14.949 56.8223333,15.51 56.1403333,15.906 C55.4583333,16.302 54.692,16.5 53.8413333,16.5 Z M64.3866667,17.71 L64.3866667,11.33 C64.3866667,9.834 64.7423333,8.701 65.4536667,7.931 C66.165,7.161 67.122,6.776 68.3246667,6.776 C69.4686667,6.776 70.3706667,7.12433333 71.0306667,7.821 C71.6906667,8.51766667 72.0206667,9.51866667 72.0206667,10.824 L72.0206667,10.824 L72.0206667,17.71 L73.5386667,17.71 L73.5386667,10.714 C73.5386667,8.998 73.1023333,7.69633333 72.2296667,6.809 C71.357,5.92166667 70.224,5.478 68.8306667,5.478 C67.7893333,5.478 66.8653333,5.74933333 66.0586667,6.292 C65.252,6.83466667 64.6946667,7.61933333 64.3866667,8.646 L64.3866667,8.646 L64.3866667,5.698 L62.8246667,5.698 L62.8246667,17.71 L64.3866667,17.71 Z M81.884,17.71 L81.884,16.346 L80.652,16.346 C79.8746667,16.346 79.332,16.1883333 79.024,15.873 C78.716,15.5576667 78.562,14.9746667 78.562,14.124 L78.562,14.124 L78.562,7.04 L81.862,7.04 L81.862,5.698 L78.562,5.698 L78.562,2.662 L77,2.662 L77,5.698 L75.174,5.698 L75.174,7.04 L77,7.04 L77,14.102 C77,15.4073333 77.286,16.335 77.858,16.885 C78.43,17.435 79.2953333,17.71 80.454,17.71 L80.454,17.71 L81.884,17.71 Z" id="DeFiant"></path>
            <path d="M87.545,17.513 L87.545,2.897 C91.661,2.267 96.869,2.33 96.869,6.614 C96.869,8.147 96.029,9.239 95.231,9.638 C96.575,9.932 98.024,11.171 98.024,13.313 C98.024,16.673 95.21,18.332 87.545,17.513 Z M89.771,4.619 L89.771,9.008 L92.984,9.008 C93.908,8.882 94.685,7.979 94.685,6.866 C94.685,4.43 91.913,4.325 89.771,4.619 Z M89.771,10.73 L89.771,15.623 C93.068,15.959 95.756,15.56 95.756,13.145 C95.756,11.549 94.496,10.835 93.299,10.73 L89.771,10.73 Z M109.343,15.686 L109.343,17.534 L100.649,17.534 L100.649,2.792 L102.854,2.792 L102.854,15.686 L109.343,15.686 Z M110.792,10.184 C110.792,5.9 114.047,2.498 118.52,2.498 C122.993,2.498 126.269,5.9 126.269,10.184 C126.269,14.447 122.993,17.828 118.52,17.828 C114.047,17.828 110.792,14.447 110.792,10.184 Z M113.165,10.184 C113.165,13.586 115.622,15.854 118.52,15.854 C121.397,15.854 123.896,13.586 123.896,10.184 C123.896,6.782 121.397,4.451 118.52,4.451 C115.622,4.451 113.165,6.782 113.165,10.184 Z M137.147,11.843 L137.147,10.016 L142.103,10.016 L142.103,15.581 C140.192,17.429 138.113,17.828 136.013,17.828 C131.33,17.828 128.054,14.384 128.054,10.142 C128.054,5.669 131.666,2.498 135.782,2.498 C138.659,2.498 140.318,3.632 141.431,4.661 C140.99,5.186 140.507,5.711 140.066,6.236 C139.184,5.417 137.861,4.451 135.845,4.451 C132.842,4.451 130.469,6.929 130.469,10.1 C130.469,13.46 132.779,15.875 136.097,15.875 C137.483,15.875 139.184,15.371 139.94,14.678 L139.94,11.843 L137.147,11.843 Z" id="BLOG"></path>
        </g>
    </g>
</svg>