<?xml version="1.0" encoding="UTF-8"?>
<svg width="144px" height="20px" viewBox="0 0 144 20" version="1.1" xmlns="http://www.w3.org/2000/svg" xmlns:xlink="http://www.w3.org/1999/xlink">
    <title>logo-docs</title>
    <g id="logo-docs" stroke="none" stroke-width="1" fill="none" fill-rule="evenodd">
        <g transform="translate(87.355000, 3.188000)" fill="#576ADA" fill-rule="nonzero" id="DOCS">
            <path d="M0,15.036 L0,0.357 C9.702,-1.113 11.991,4.242 11.991,7.686 C11.991,11.004 9.555,16.359 0,15.036 Z M2.226,2.226 L2.226,13.125 C5.943,13.524 9.618,11.76 9.618,7.665 C9.618,4.242 7.035,1.638 2.226,2.226 Z M13.755,7.686 C13.755,3.402 17.01,8.8817842e-16 21.483,8.8817842e-16 C25.956,8.8817842e-16 29.232,3.402 29.232,7.686 C29.232,11.949 25.956,15.33 21.483,15.33 C17.01,15.33 13.755,11.949 13.755,7.686 Z M16.128,7.686 C16.128,11.088 18.585,13.356 21.483,13.356 C24.36,13.356 26.859,11.088 26.859,7.686 C26.859,4.284 24.36,1.953 21.483,1.953 C18.585,1.953 16.128,4.284 16.128,7.686 Z M43.155,11.613 L44.499,13.062 C43.491,14.049 41.853,15.33 38.682,15.33 C34.335,15.33 31.017,11.991 31.017,7.644 C31.017,3.024 34.692,8.8817842e-16 38.787,8.8817842e-16 C41.706,8.8817842e-16 43.407,1.281 44.394,2.163 L43.071,3.738 C42.231,2.961 40.74,1.953 38.829,1.953 C35.784,1.953 33.411,4.452 33.411,7.644 C33.411,10.731 35.616,13.356 38.85,13.356 C40.593,13.356 42.273,12.474 43.155,11.613 Z M55.713,1.134 L54.999,2.982 C54.117,2.499 52.752,1.974 51.639,1.974 C49.959,1.974 48.888,2.835 48.888,3.99 C48.888,5.271 50.232,5.985 51.975,6.636 C55.167,7.875 56.322,9.366 56.28,11.298 C56.217,13.881 53.907,15.351 51.177,15.33 C49.035,15.309 47.355,14.511 46.431,13.755 L47.313,12.054 C48.132,12.663 49.518,13.398 51.051,13.398 C52.668,13.398 54.075,12.579 54.075,11.34 C54.075,9.891 52.542,9.282 50.526,8.4 C48.132,7.35 46.662,6.153 46.662,3.99 C46.662,2.058 48.237,8.8817842e-16 51.45,8.8817842e-16 C53.004,8.8817842e-16 54.852,0.672 55.713,1.134 Z"></path>
        </g>
        <path d="M6.982,18.4 C8.63933333,18.4 10.0803333,18.07 11.305,17.41 C12.5296667,16.75 13.4683333,15.8296667 14.121,14.649 C14.7736667,13.4683333 15.1,12.1153333 15.1,10.59 C15.1,9.06466667 14.7736667,7.71533333 14.121,6.542 C13.4683333,5.36866667 12.5333333,4.45933333 11.316,3.814 C10.0986667,3.16866667 8.654,2.846 6.982,2.846 L6.982,2.846 L1.108,2.846 L1.108,18.4 L6.982,18.4 Z M6.652,15.034 L4.87,15.034 L4.87,6.146 L6.652,6.146 C8.11866667,6.146 9.259,6.53466667 10.073,7.312 C10.887,8.08933333 11.294,9.182 11.294,10.59 C11.294,11.998 10.887,13.0906667 10.073,13.868 C9.259,14.6453333 8.11866667,15.034 6.652,15.034 L6.652,15.034 Z M22.4113333,18.554 C23.438,18.554 24.3693333,18.3596667 25.2053333,17.971 C26.0413333,17.5823333 26.7306667,17.047 27.2733333,16.365 C27.816,15.683 28.168,14.9093333 28.3293333,14.044 L28.3293333,14.044 L24.3473333,14.044 C24.23,14.484 23.988,14.8433333 23.6213333,15.122 C23.2546667,15.4006667 22.7926667,15.54 22.2353333,15.54 C21.5753333,15.54 21.0326667,15.3383333 20.6073333,14.935 C20.182,14.5316667 19.9473333,13.868 19.9033333,12.944 L19.9033333,12.944 L28.4173333,12.944 C28.4906667,12.5773333 28.5273333,12.24 28.5273333,11.932 C28.5273333,10.7586667 28.2743333,9.721 27.7683333,8.819 C27.2623333,7.917 26.5473333,7.21666667 25.6233333,6.718 C24.6993333,6.21933333 23.6286667,5.97 22.4113333,5.97 C21.2086667,5.97 20.138,6.223 19.1993333,6.729 C18.2606667,7.235 17.531,7.961 17.0103333,8.907 C16.4896667,9.853 16.2293333,10.9713333 16.2293333,12.262 C16.2293333,13.538 16.4933333,14.6526667 17.0213333,15.606 C17.5493333,16.5593333 18.279,17.289 19.2103333,17.795 C20.1416667,18.301 21.2086667,18.554 22.4113333,18.554 Z M24.7213333,11.36 L19.9253333,11.36 C19.984,10.568 20.2406667,9.96666667 20.6953333,9.556 C21.15,9.14533333 21.722,8.94 22.4113333,8.94 C23.0713333,8.94 23.625,9.14166667 24.0723333,9.545 C24.5196667,9.94833333 24.736,10.5533333 24.7213333,11.36 L24.7213333,11.36 Z M33.8806667,18.4 L33.8806667,12.108 L38.8086667,12.108 L38.8086667,9.248 L33.8806667,9.248 L33.8806667,5.838 L40.2606667,5.838 L40.2606667,2.846 L30.1186667,2.846 L30.1186667,18.4 L33.8806667,18.4 Z M43.722,4.628 C44.3966667,4.628 44.9393333,4.441 45.35,4.067 C45.7606667,3.693 45.966,3.22733333 45.966,2.67 C45.966,2.098 45.7606667,1.625 45.35,1.251 C44.9393333,0.877 44.3966667,0.69 43.722,0.69 C43.0473333,0.69 42.5046667,0.877 42.094,1.251 C41.6833333,1.625 41.478,2.098 41.478,2.67 C41.478,3.22733333 41.6833333,3.693 42.094,4.067 C42.5046667,4.441 43.0473333,4.628 43.722,4.628 Z M45.592,18.4 L45.592,6.124 L41.83,6.124 L41.83,18.4 L45.592,18.4 Z M53.2553333,18.554 C54.4726667,18.554 55.5103333,18.2386667 56.3683333,17.608 C57.2263333,16.9773333 57.8166667,16.1413333 58.1393333,15.1 L58.1393333,15.1 L58.1393333,18.4 L59.6573333,18.4 L59.6573333,6.388 L58.1393333,6.388 L58.1393333,9.688 C57.8166667,8.64666667 57.2263333,7.81066667 56.3683333,7.18 C55.5103333,6.54933333 54.4726667,6.234 53.2553333,6.234 C52.1553333,6.234 51.18,6.47966667 50.3293333,6.971 C49.4786667,7.46233333 48.815,8.17366667 48.3383333,9.105 C47.8616667,10.0363333 47.6233333,11.1326667 47.6233333,12.394 C47.6233333,13.6406667 47.8616667,14.7296667 48.3383333,15.661 C48.815,16.5923333 49.4823333,17.3073333 50.3403333,17.806 C51.1983333,18.3046667 52.17,18.554 53.2553333,18.554 Z M53.6513333,17.19 C52.302,17.19 51.2203333,16.761 50.4063333,15.903 C49.5923333,15.045 49.1853333,13.8753333 49.1853333,12.394 C49.1853333,10.9126667 49.5923333,9.743 50.4063333,8.885 C51.2203333,8.027 52.302,7.598 53.6513333,7.598 C54.502,7.598 55.2683333,7.796 55.9503333,8.192 C56.6323333,8.588 57.1676667,9.149 57.5563333,9.875 C57.945,10.601 58.1393333,11.4406667 58.1393333,12.394 C58.1393333,13.3473333 57.945,14.187 57.5563333,14.913 C57.1676667,15.639 56.6323333,16.2 55.9503333,16.596 C55.2683333,16.992 54.502,17.19 53.6513333,17.19 Z M64.1966667,18.4 L64.1966667,12.02 C64.1966667,10.524 64.5523333,9.391 65.2636667,8.621 C65.975,7.851 66.932,7.466 68.1346667,7.466 C69.2786667,7.466 70.1806667,7.81433333 70.8406667,8.511 C71.5006667,9.20766667 71.8306667,10.2086667 71.8306667,11.514 L71.8306667,11.514 L71.8306667,18.4 L73.3486667,18.4 L73.3486667,11.404 C73.3486667,9.688 72.9123333,8.38633333 72.0396667,7.499 C71.167,6.61166667 70.034,6.168 68.6406667,6.168 C67.5993333,6.168 66.6753333,6.43933333 65.8686667,6.982 C65.062,7.52466667 64.5046667,8.30933333 64.1966667,9.336 L64.1966667,9.336 L64.1966667,6.388 L62.6346667,6.388 L62.6346667,18.4 L64.1966667,18.4 Z M81.694,18.4 L81.694,17.036 L80.462,17.036 C79.6846667,17.036 79.142,16.8783333 78.834,16.563 C78.526,16.2476667 78.372,15.6646667 78.372,14.814 L78.372,14.814 L78.372,7.73 L81.672,7.73 L81.672,6.388 L78.372,6.388 L78.372,3.352 L76.81,3.352 L76.81,6.388 L74.984,6.388 L74.984,7.73 L76.81,7.73 L76.81,14.792 C76.81,16.0973333 77.096,17.025 77.668,17.575 C78.24,18.125 79.1053333,18.4 80.264,18.4 L80.264,18.4 L81.694,18.4 Z" id="DeFiant" fill="#000000" fill-rule="nonzero"></path>
    </g>
</svg>