<?xml version="1.0" encoding="UTF-8"?>
<svg width="180px" height="20px" viewBox="0 0 180 20" version="1.1" xmlns="http://www.w3.org/2000/svg" xmlns:xlink="http://www.w3.org/1999/xlink">
    <title>logo-support</title>
    <g id="logo-support" stroke="none" stroke-width="1" fill="none" fill-rule="evenodd">
        <g transform="translate(1.108000, 0.690000)" fill-rule="nonzero">
            <path d="M95.899,3.632 L95.185,5.48 C94.303,4.997 92.938,4.472 91.825,4.472 C90.145,4.472 89.074,5.333 89.074,6.488 C89.074,7.769 90.418,8.483 92.161,9.134 C95.353,10.373 96.508,11.864 96.466,13.796 C96.403,16.379 94.093,17.849 91.363,17.828 C89.221,17.807 87.541,17.009 86.617,16.253 L87.499,14.552 C88.318,15.161 89.704,15.896 91.237,15.896 C92.854,15.896 94.261,15.077 94.261,13.838 C94.261,12.389 92.728,11.78 90.712,10.898 C88.318,9.848 86.848,8.651 86.848,6.488 C86.848,4.556 88.423,2.498 91.636,2.498 C93.19,2.498 95.038,3.17 95.899,3.632 Z M99.259,12.137 L99.259,2.792 L101.485,2.792 L101.485,12.095 C101.485,14.195 102.997,15.896 105.013,15.896 C107.029,15.896 108.541,14.195 108.541,12.095 L108.541,2.792 L110.746,2.792 L110.746,12.137 C110.746,15.035 108.793,17.828 104.992,17.828 C101.212,17.828 99.259,15.035 99.259,12.137 Z M123.787,7.58 C123.787,10.94 121.162,12.956 116.374,12.662 L116.374,17.534 L114.169,17.534 L114.169,2.897 C120.805,1.721 123.787,4.031 123.787,7.58 Z M116.374,4.703 L116.374,10.709 C119.944,10.961 121.519,9.68 121.519,7.559 C121.519,5.627 120.112,4.22 116.374,4.703 Z M136.03,7.58 C136.03,10.94 133.405,12.956 128.617,12.662 L128.617,17.534 L126.412,17.534 L126.412,2.897 C133.048,1.721 136.03,4.031 136.03,7.58 Z M128.617,4.703 L128.617,10.709 C132.187,10.961 133.762,9.68 133.762,7.559 C133.762,5.627 132.355,4.22 128.617,4.703 Z M137.752,10.184 C137.752,5.9 141.007,2.498 145.48,2.498 C149.953,2.498 153.229,5.9 153.229,10.184 C153.229,14.447 149.953,17.828 145.48,17.828 C141.007,17.828 137.752,14.447 137.752,10.184 Z M140.125,10.184 C140.125,13.586 142.582,15.854 145.48,15.854 C148.357,15.854 150.856,13.586 150.856,10.184 C150.856,6.782 148.357,4.451 145.48,4.451 C142.582,4.451 140.125,6.782 140.125,10.184 Z M165.535,7.307 C165.535,9.281 164.296,10.856 162.658,11.528 L166.753,17.534 L164.023,17.534 L160.474,12.158 C159.76,12.221 158.962,12.263 158.122,12.179 L158.122,17.534 L155.917,17.534 L155.917,2.897 C162.511,1.784 165.535,3.821 165.535,7.307 Z M158.122,4.703 L158.122,10.226 C161.566,10.646 163.267,9.302 163.267,7.286 C163.267,5.396 161.608,4.157 158.122,4.703 Z M178.66,2.792 L178.66,4.661 L174.292,4.661 L174.292,17.534 L172.087,17.534 L172.087,4.661 L167.74,4.661 L167.74,2.792 L178.66,2.792 Z" id="SUPPORT" fill="#576ADA"></path>
            <path d="M5.874,17.71 C7.53133333,17.71 8.97233333,17.38 10.197,16.72 C11.4216667,16.06 12.3603333,15.1396667 13.013,13.959 C13.6656667,12.7783333 13.992,11.4253333 13.992,9.9 C13.992,8.37466667 13.6656667,7.02533333 13.013,5.852 C12.3603333,4.67866667 11.4253333,3.76933333 10.208,3.124 C8.99066667,2.47866667 7.546,2.156 5.874,2.156 L5.874,2.156 L0,2.156 L0,17.71 L5.874,17.71 Z M5.544,14.344 L3.762,14.344 L3.762,5.456 L5.544,5.456 C7.01066667,5.456 8.151,5.84466667 8.965,6.622 C9.779,7.39933333 10.186,8.492 10.186,9.9 C10.186,11.308 9.779,12.4006667 8.965,13.178 C8.151,13.9553333 7.01066667,14.344 5.544,14.344 L5.544,14.344 Z M21.3033333,17.864 C22.33,17.864 23.2613333,17.6696667 24.0973333,17.281 C24.9333333,16.8923333 25.6226667,16.357 26.1653333,15.675 C26.708,14.993 27.06,14.2193333 27.2213333,13.354 L27.2213333,13.354 L23.2393333,13.354 C23.122,13.794 22.88,14.1533333 22.5133333,14.432 C22.1466667,14.7106667 21.6846667,14.85 21.1273333,14.85 C20.4673333,14.85 19.9246667,14.6483333 19.4993333,14.245 C19.074,13.8416667 18.8393333,13.178 18.7953333,12.254 L18.7953333,12.254 L27.3093333,12.254 C27.3826667,11.8873333 27.4193333,11.55 27.4193333,11.242 C27.4193333,10.0686667 27.1663333,9.031 26.6603333,8.129 C26.1543333,7.227 25.4393333,6.52666667 24.5153333,6.028 C23.5913333,5.52933333 22.5206667,5.28 21.3033333,5.28 C20.1006667,5.28 19.03,5.533 18.0913333,6.039 C17.1526667,6.545 16.423,7.271 15.9023333,8.217 C15.3816667,9.163 15.1213333,10.2813333 15.1213333,11.572 C15.1213333,12.848 15.3853333,13.9626667 15.9133333,14.916 C16.4413333,15.8693333 17.171,16.599 18.1023333,17.105 C19.0336667,17.611 20.1006667,17.864 21.3033333,17.864 Z M23.6133333,10.67 L18.8173333,10.67 C18.876,9.878 19.1326667,9.27666667 19.5873333,8.866 C20.042,8.45533333 20.614,8.25 21.3033333,8.25 C21.9633333,8.25 22.517,8.45166667 22.9643333,8.855 C23.4116667,9.25833333 23.628,9.86333333 23.6133333,10.67 L23.6133333,10.67 Z M32.7726667,17.71 L32.7726667,11.418 L37.7006667,11.418 L37.7006667,8.558 L32.7726667,8.558 L32.7726667,5.148 L39.1526667,5.148 L39.1526667,2.156 L29.0106667,2.156 L29.0106667,17.71 L32.7726667,17.71 Z M42.614,3.938 C43.2886667,3.938 43.8313333,3.751 44.242,3.377 C44.6526667,3.003 44.858,2.53733333 44.858,1.98 C44.858,1.408 44.6526667,0.935 44.242,0.561 C43.8313333,0.187 43.2886667,0 42.614,0 C41.9393333,0 41.3966667,0.187 40.986,0.561 C40.5753333,0.935 40.37,1.408 40.37,1.98 C40.37,2.53733333 40.5753333,3.003 40.986,3.377 C41.3966667,3.751 41.9393333,3.938 42.614,3.938 Z M44.484,17.71 L44.484,5.434 L40.722,5.434 L40.722,17.71 L44.484,17.71 Z M52.1473333,17.864 C53.3646667,17.864 54.4023333,17.5486667 55.2603333,16.918 C56.1183333,16.2873333 56.7086667,15.4513333 57.0313333,14.41 L57.0313333,14.41 L57.0313333,17.71 L58.5493333,17.71 L58.5493333,5.698 L57.0313333,5.698 L57.0313333,8.998 C56.7086667,7.95666667 56.1183333,7.12066667 55.2603333,6.49 C54.4023333,5.85933333 53.3646667,5.544 52.1473333,5.544 C51.0473333,5.544 50.072,5.78966667 49.2213333,6.281 C48.3706667,6.77233333 47.707,7.48366667 47.2303333,8.415 C46.7536667,9.34633333 46.5153333,10.4426667 46.5153333,11.704 C46.5153333,12.9506667 46.7536667,14.0396667 47.2303333,14.971 C47.707,15.9023333 48.3743333,16.6173333 49.2323333,17.116 C50.0903333,17.6146667 51.062,17.864 52.1473333,17.864 Z M52.5433333,16.5 C51.194,16.5 50.1123333,16.071 49.2983333,15.213 C48.4843333,14.355 48.0773333,13.1853333 48.0773333,11.704 C48.0773333,10.2226667 48.4843333,9.053 49.2983333,8.195 C50.1123333,7.337 51.194,6.908 52.5433333,6.908 C53.394,6.908 54.1603333,7.106 54.8423333,7.502 C55.5243333,7.898 56.0596667,8.459 56.4483333,9.185 C56.837,9.911 57.0313333,10.7506667 57.0313333,11.704 C57.0313333,12.6573333 56.837,13.497 56.4483333,14.223 C56.0596667,14.949 55.5243333,15.51 54.8423333,15.906 C54.1603333,16.302 53.394,16.5 52.5433333,16.5 Z M63.0886667,17.71 L63.0886667,11.33 C63.0886667,9.834 63.4443333,8.701 64.1556667,7.931 C64.867,7.161 65.824,6.776 67.0266667,6.776 C68.1706667,6.776 69.0726667,7.12433333 69.7326667,7.821 C70.3926667,8.51766667 70.7226667,9.51866667 70.7226667,10.824 L70.7226667,10.824 L70.7226667,17.71 L72.2406667,17.71 L72.2406667,10.714 C72.2406667,8.998 71.8043333,7.69633333 70.9316667,6.809 C70.059,5.92166667 68.926,5.478 67.5326667,5.478 C66.4913333,5.478 65.5673333,5.74933333 64.7606667,6.292 C63.954,6.83466667 63.3966667,7.61933333 63.0886667,8.646 L63.0886667,8.646 L63.0886667,5.698 L61.5266667,5.698 L61.5266667,17.71 L63.0886667,17.71 Z M80.586,17.71 L80.586,16.346 L79.354,16.346 C78.5766667,16.346 78.034,16.1883333 77.726,15.873 C77.418,15.5576667 77.264,14.9746667 77.264,14.124 L77.264,14.124 L77.264,7.04 L80.564,7.04 L80.564,5.698 L77.264,5.698 L77.264,2.662 L75.702,2.662 L75.702,5.698 L73.876,5.698 L73.876,7.04 L75.702,7.04 L75.702,14.102 C75.702,15.4073333 75.988,16.335 76.56,16.885 C77.132,17.435 77.9973333,17.71 79.156,17.71 L79.156,17.71 L80.586,17.71 Z" id="DeFiant" fill="#000000"></path>
        </g>
    </g>
</svg>