<?xml version="1.0" encoding="UTF-8"?>
<svg width="144px" height="20px" viewBox="0 0 144 20" version="1.1" xmlns="http://www.w3.org/2000/svg" xmlns:xlink="http://www.w3.org/1999/xlink">
    <title>logo-blog</title>
    <g id="logo-blog" stroke="none" stroke-width="1" fill="none" fill-rule="evenodd">
        <g transform="translate(1.108000, 0.690000)" fill-rule="nonzero">
            <path d="M5.874,17.71 C7.53133333,17.71 8.97233333,17.38 10.197,16.72 C11.4216667,16.06 12.3603333,15.1396667 13.013,13.959 C13.6656667,12.7783333 13.992,11.4253333 13.992,9.9 C13.992,8.37466667 13.6656667,7.02533333 13.013,5.852 C12.3603333,4.67866667 11.4253333,3.76933333 10.208,3.124 C8.99066667,2.47866667 7.546,2.156 5.874,2.156 L5.874,2.156 L0,2.156 L0,17.71 L5.874,17.71 Z M5.544,14.344 L3.762,14.344 L3.762,5.456 L5.544,5.456 C7.01066667,5.456 8.151,5.84466667 8.965,6.622 C9.779,7.39933333 10.186,8.492 10.186,9.9 C10.186,11.308 9.779,12.4006667 8.965,13.178 C8.151,13.9553333 7.01066667,14.344 5.544,14.344 L5.544,14.344 Z M21.3033333,17.864 C22.33,17.864 23.2613333,17.6696667 24.0973333,17.281 C24.9333333,16.8923333 25.6226667,16.357 26.1653333,15.675 C26.708,14.993 27.06,14.2193333 27.2213333,13.354 L27.2213333,13.354 L23.2393333,13.354 C23.122,13.794 22.88,14.1533333 22.5133333,14.432 C22.1466667,14.7106667 21.6846667,14.85 21.1273333,14.85 C20.4673333,14.85 19.9246667,14.6483333 19.4993333,14.245 C19.074,13.8416667 18.8393333,13.178 18.7953333,12.254 L18.7953333,12.254 L27.3093333,12.254 C27.3826667,11.8873333 27.4193333,11.55 27.4193333,11.242 C27.4193333,10.0686667 27.1663333,9.031 26.6603333,8.129 C26.1543333,7.227 25.4393333,6.52666667 24.5153333,6.028 C23.5913333,5.52933333 22.5206667,5.28 21.3033333,5.28 C20.1006667,5.28 19.03,5.533 18.0913333,6.039 C17.1526667,6.545 16.423,7.271 15.9023333,8.217 C15.3816667,9.163 15.1213333,10.2813333 15.1213333,11.572 C15.1213333,12.848 15.3853333,13.9626667 15.9133333,14.916 C16.4413333,15.8693333 17.171,16.599 18.1023333,17.105 C19.0336667,17.611 20.1006667,17.864 21.3033333,17.864 Z M23.6133333,10.67 L18.8173333,10.67 C18.876,9.878 19.1326667,9.27666667 19.5873333,8.866 C20.042,8.45533333 20.614,8.25 21.3033333,8.25 C21.9633333,8.25 22.517,8.45166667 22.9643333,8.855 C23.4116667,9.25833333 23.628,9.86333333 23.6133333,10.67 L23.6133333,10.67 Z M32.7726667,17.71 L32.7726667,11.418 L37.7006667,11.418 L37.7006667,8.558 L32.7726667,8.558 L32.7726667,5.148 L39.1526667,5.148 L39.1526667,2.156 L29.0106667,2.156 L29.0106667,17.71 L32.7726667,17.71 Z M42.614,3.938 C43.2886667,3.938 43.8313333,3.751 44.242,3.377 C44.6526667,3.003 44.858,2.53733333 44.858,1.98 C44.858,1.408 44.6526667,0.935 44.242,0.561 C43.8313333,0.187 43.2886667,0 42.614,0 C41.9393333,0 41.3966667,0.187 40.986,0.561 C40.5753333,0.935 40.37,1.408 40.37,1.98 C40.37,2.53733333 40.5753333,3.003 40.986,3.377 C41.3966667,3.751 41.9393333,3.938 42.614,3.938 Z M44.484,17.71 L44.484,5.434 L40.722,5.434 L40.722,17.71 L44.484,17.71 Z M52.1473333,17.864 C53.3646667,17.864 54.4023333,17.5486667 55.2603333,16.918 C56.1183333,16.2873333 56.7086667,15.4513333 57.0313333,14.41 L57.0313333,14.41 L57.0313333,17.71 L58.5493333,17.71 L58.5493333,5.698 L57.0313333,5.698 L57.0313333,8.998 C56.7086667,7.95666667 56.1183333,7.12066667 55.2603333,6.49 C54.4023333,5.85933333 53.3646667,5.544 52.1473333,5.544 C51.0473333,5.544 50.072,5.78966667 49.2213333,6.281 C48.3706667,6.77233333 47.707,7.48366667 47.2303333,8.415 C46.7536667,9.34633333 46.5153333,10.4426667 46.5153333,11.704 C46.5153333,12.9506667 46.7536667,14.0396667 47.2303333,14.971 C47.707,15.9023333 48.3743333,16.6173333 49.2323333,17.116 C50.0903333,17.6146667 51.062,17.864 52.1473333,17.864 Z M52.5433333,16.5 C51.194,16.5 50.1123333,16.071 49.2983333,15.213 C48.4843333,14.355 48.0773333,13.1853333 48.0773333,11.704 C48.0773333,10.2226667 48.4843333,9.053 49.2983333,8.195 C50.1123333,7.337 51.194,6.908 52.5433333,6.908 C53.394,6.908 54.1603333,7.106 54.8423333,7.502 C55.5243333,7.898 56.0596667,8.459 56.4483333,9.185 C56.837,9.911 57.0313333,10.7506667 57.0313333,11.704 C57.0313333,12.6573333 56.837,13.497 56.4483333,14.223 C56.0596667,14.949 55.5243333,15.51 54.8423333,15.906 C54.1603333,16.302 53.394,16.5 52.5433333,16.5 Z M63.0886667,17.71 L63.0886667,11.33 C63.0886667,9.834 63.4443333,8.701 64.1556667,7.931 C64.867,7.161 65.824,6.776 67.0266667,6.776 C68.1706667,6.776 69.0726667,7.12433333 69.7326667,7.821 C70.3926667,8.51766667 70.7226667,9.51866667 70.7226667,10.824 L70.7226667,10.824 L70.7226667,17.71 L72.2406667,17.71 L72.2406667,10.714 C72.2406667,8.998 71.8043333,7.69633333 70.9316667,6.809 C70.059,5.92166667 68.926,5.478 67.5326667,5.478 C66.4913333,5.478 65.5673333,5.74933333 64.7606667,6.292 C63.954,6.83466667 63.3966667,7.61933333 63.0886667,8.646 L63.0886667,8.646 L63.0886667,5.698 L61.5266667,5.698 L61.5266667,17.71 L63.0886667,17.71 Z M80.586,17.71 L80.586,16.346 L79.354,16.346 C78.5766667,16.346 78.034,16.1883333 77.726,15.873 C77.418,15.5576667 77.264,14.9746667 77.264,14.124 L77.264,14.124 L77.264,7.04 L80.564,7.04 L80.564,5.698 L77.264,5.698 L77.264,2.662 L75.702,2.662 L75.702,5.698 L73.876,5.698 L73.876,7.04 L75.702,7.04 L75.702,14.102 C75.702,15.4073333 75.988,16.335 76.56,16.885 C77.132,17.435 77.9973333,17.71 79.156,17.71 L79.156,17.71 L80.586,17.71 Z" id="DeFiant" fill="#000000"></path>
            <path d="M86.247,17.513 L86.247,2.897 C90.363,2.267 95.571,2.33 95.571,6.614 C95.571,8.147 94.731,9.239 93.933,9.638 C95.277,9.932 96.726,11.171 96.726,13.313 C96.726,16.673 93.912,18.332 86.247,17.513 Z M88.473,4.619 L88.473,9.008 L91.686,9.008 C92.61,8.882 93.387,7.979 93.387,6.866 C93.387,4.43 90.615,4.325 88.473,4.619 Z M88.473,10.73 L88.473,15.623 C91.77,15.959 94.458,15.56 94.458,13.145 C94.458,11.549 93.198,10.835 92.001,10.73 L88.473,10.73 Z M108.045,15.686 L108.045,17.534 L99.351,17.534 L99.351,2.792 L101.556,2.792 L101.556,15.686 L108.045,15.686 Z M109.494,10.184 C109.494,5.9 112.749,2.498 117.222,2.498 C121.695,2.498 124.971,5.9 124.971,10.184 C124.971,14.447 121.695,17.828 117.222,17.828 C112.749,17.828 109.494,14.447 109.494,10.184 Z M111.867,10.184 C111.867,13.586 114.324,15.854 117.222,15.854 C120.099,15.854 122.598,13.586 122.598,10.184 C122.598,6.782 120.099,4.451 117.222,4.451 C114.324,4.451 111.867,6.782 111.867,10.184 Z M135.849,11.843 L135.849,10.016 L140.805,10.016 L140.805,15.581 C138.894,17.429 136.815,17.828 134.715,17.828 C130.032,17.828 126.756,14.384 126.756,10.142 C126.756,5.669 130.368,2.498 134.484,2.498 C137.361,2.498 139.02,3.632 140.133,4.661 C139.692,5.186 139.209,5.711 138.768,6.236 C137.886,5.417 136.563,4.451 134.547,4.451 C131.544,4.451 129.171,6.929 129.171,10.1 C129.171,13.46 131.481,15.875 134.799,15.875 C136.185,15.875 137.886,15.371 138.642,14.678 L138.642,11.843 L135.849,11.843 Z" id="BLOG" fill="#576ADA"></path>
        </g>
    </g>
</svg>