<?xml version="1.0" encoding="UTF-8"?>
<svg width="170px" height="40px" viewBox="0 0 170 40" version="1.1" xmlns="http://www.w3.org/2000/svg" xmlns:xlink="http://www.w3.org/1999/xlink">
    <title>pangolin</title>
    <defs>
        <radialGradient cx="22.1782648%" cy="26.7399087%" fx="22.1782648%" fy="26.7399087%" r="109.29911%" gradientTransform="translate(0.221783,0.267399),scale(0.934918,1.000000),translate(-0.221783,-0.267399)" id="radialGradient-1">
            <stop stop-color="#FFE5B8" offset="0%"></stop>
            <stop stop-color="#FFDEA3" offset="50%"></stop>
            <stop stop-color="#FF583B" offset="100%"></stop>
        </radialGradient>
        <radialGradient cx="-117.217423%" cy="12.1824492%" fx="-117.217423%" fy="12.1824492%" r="377.55718%" gradientTransform="translate(-1.172174,0.121824),scale(0.653299,1.000000),translate(1.172174,-0.121824)" id="radialGradient-2">
            <stop stop-color="#FFDEA3" stop-opacity="0" offset="0%"></stop>
            <stop stop-color="#FFBEB3" stop-opacity="0" offset="50%"></stop>
            <stop stop-color="#FFAFA1" offset="100%"></stop>
        </radialGradient>
        <radialGradient cx="109.640089%" cy="68.1040779%" fx="109.640089%" fy="68.1040779%" r="135.152468%" gradientTransform="translate(1.096401,0.681041),scale(1.000000,0.727760),translate(-1.096401,-0.681041)" id="radialGradient-3">
            <stop stop-color="#FFE5B8" offset="0%"></stop>
            <stop stop-color="#FFDEA3" offset="50%"></stop>
            <stop stop-color="#FF583B" offset="100%"></stop>
        </radialGradient>
        <radialGradient cx="95.924709%" cy="92.7015956%" fx="95.924709%" fy="92.7015956%" r="143.322047%" gradientTransform="translate(0.959247,0.927016),scale(1.000000,0.727760),rotate(-123.154534),translate(-0.959247,-0.927016)" id="radialGradient-4">
            <stop stop-color="#FFA300" stop-opacity="0.5" offset="0%"></stop>
            <stop stop-color="#FFBEB3" stop-opacity="0" offset="50%"></stop>
            <stop stop-color="#F53803" offset="100%"></stop>
        </radialGradient>
        <radialGradient cx="137.860031%" cy="84.2635245%" fx="137.860031%" fy="84.2635245%" r="132.91774%" gradientTransform="translate(1.378600,0.842635),scale(1.000000,0.982264),rotate(63.826976),translate(-1.378600,-0.842635)" id="radialGradient-5">
            <stop stop-color="#FFDEA3" stop-opacity="0" offset="0%"></stop>
            <stop stop-color="#FFBEB3" stop-opacity="0" offset="50%"></stop>
            <stop stop-color="#FFAFA1" offset="100%"></stop>
        </radialGradient>
        <radialGradient cx="4.0420183%" cy="158.223692%" fx="4.0420183%" fy="158.223692%" r="388.608735%" gradientTransform="translate(0.040420,1.582237),scale(1.000000,0.393011),rotate(-89.692004),translate(-0.040420,-1.582237)" id="radialGradient-6">
            <stop stop-color="#FFE5B8" offset="0%"></stop>
            <stop stop-color="#FFDEA3" offset="50%"></stop>
            <stop stop-color="#FF583B" offset="100%"></stop>
        </radialGradient>
        <radialGradient cx="71.3556338%" cy="-31.8597276%" fx="71.3556338%" fy="-31.8597276%" r="242.660563%" gradientTransform="translate(0.713556,-0.318597),scale(1.000000,0.552529),translate(-0.713556,0.318597)" id="radialGradient-7">
            <stop stop-color="#FFDEA3" stop-opacity="0" offset="0%"></stop>
            <stop stop-color="#FFBEB3" stop-opacity="0" offset="50%"></stop>
            <stop stop-color="#FFAFA1" offset="100%"></stop>
        </radialGradient>
        <radialGradient cx="129.700537%" cy="123.419706%" fx="129.700537%" fy="123.419706%" r="211.4678%" gradientTransform="translate(1.297005,1.234197),scale(1.000000,0.825392),rotate(-125.808753),translate(-1.297005,-1.234197)" id="radialGradient-8">
            <stop stop-color="#FFDEA3" offset="0%"></stop>
            <stop stop-color="#FFDEA3" offset="37.97%"></stop>
            <stop stop-color="#FF583B" offset="100%"></stop>
        </radialGradient>
        <radialGradient cx="129.736679%" cy="123.453221%" fx="129.736679%" fy="123.453221%" r="199.647214%" gradientTransform="translate(1.297367,1.234532),scale(1.000000,0.940066),rotate(-125.808753),translate(-1.297367,-1.234532)" id="radialGradient-9">
            <stop stop-color="#FFDEA3" offset="0%"></stop>
            <stop stop-color="#FFDEA3" offset="37.97%"></stop>
            <stop stop-color="#FF583B" offset="100%"></stop>
        </radialGradient>
        <radialGradient cx="129.515357%" cy="123.442134%" fx="129.515357%" fy="123.442134%" r="226.338111%" gradientTransform="translate(1.295154,1.234421),scale(1.000000,0.722116),rotate(-125.808753),translate(-1.295154,-1.234421)" id="radialGradient-10">
            <stop stop-color="#FFDEA3" offset="0%"></stop>
            <stop stop-color="#FFDEA3" offset="37.97%"></stop>
            <stop stop-color="#FF583B" offset="100%"></stop>
        </radialGradient>
        <radialGradient cx="-117.036795%" cy="12.1655405%" fx="-117.036795%" fy="12.1655405%" r="305.492651%" gradientTransform="translate(-1.170368,0.121655),scale(1.000000,0.504181),translate(1.170368,-0.121655)" id="radialGradient-11">
            <stop stop-color="#FFDEA3" stop-opacity="0" offset="0%"></stop>
            <stop stop-color="#FFBEB3" stop-opacity="0" offset="50%"></stop>
            <stop stop-color="#FFAFA1" offset="100%"></stop>
        </radialGradient>
        <radialGradient cx="-2.629026%" cy="94.1325091%" fx="-2.629026%" fy="94.1325091%" r="210.427816%" gradientTransform="translate(-0.026290,0.941325),scale(1.000000,0.557192),rotate(-104.365598),translate(0.026290,-0.941325)" id="radialGradient-12">
            <stop stop-color="#FFE5B8" offset="0%"></stop>
            <stop stop-color="#FFDEA3" offset="50%"></stop>
            <stop stop-color="#FF583B" offset="100%"></stop>
        </radialGradient>
        <radialGradient cx="-2.42056452%" cy="-108.34523%" fx="-2.42056452%" fy="-108.34523%" r="261.959677%" gradientTransform="translate(-0.024206,-1.083452),scale(1.000000,0.876325),translate(0.024206,1.083452)" id="radialGradient-13">
            <stop stop-color="#FFDEA3" stop-opacity="0" offset="0%"></stop>
            <stop stop-color="#FFBEB3" stop-opacity="0" offset="50%"></stop>
            <stop stop-color="#FFAFA1" offset="100%"></stop>
        </radialGradient>
        <radialGradient cx="129.639036%" cy="123.40838%" fx="129.639036%" fy="123.40838%" r="236.203776%" gradientTransform="translate(1.296390,1.234084),scale(1.000000,0.668960),rotate(-125.808753),translate(-1.296390,-1.234084)" id="radialGradient-14">
            <stop stop-color="#FFDEA3" offset="0%"></stop>
            <stop stop-color="#FFDEA3" offset="37.97%"></stop>
            <stop stop-color="#FF583B" offset="100%"></stop>
        </radialGradient>
        <radialGradient cx="112.076283%" cy="-10.6714286%" fx="112.076283%" fy="-10.6714286%" r="334.779654%" gradientTransform="translate(1.120763,-0.106714),scale(1.000000,0.403146),translate(-1.120763,0.106714)" id="radialGradient-15">
            <stop stop-color="#FFDEA3" stop-opacity="0" offset="0%"></stop>
            <stop stop-color="#FFBEB3" stop-opacity="0" offset="50%"></stop>
            <stop stop-color="#FFAFA1" offset="100%"></stop>
        </radialGradient>
        <radialGradient cx="129.726144%" cy="123.506723%" fx="129.726144%" fy="123.506723%" r="393.125907%" gradientTransform="translate(1.297261,1.235067),scale(0.408869,1.000000),rotate(-178.113875),translate(-1.297261,-1.235067)" id="radialGradient-16">
            <stop stop-color="#FFDEA3" offset="0%"></stop>
            <stop stop-color="#FFDEA3" offset="37.97%"></stop>
            <stop stop-color="#FF583B" offset="100%"></stop>
        </radialGradient>
        <radialGradient cx="40.9756628%" cy="-239.647543%" fx="40.9756628%" fy="-239.647543%" r="392.83005%" gradientTransform="translate(0.409757,-2.396475),scale(0.211035,1.000000),translate(-0.409757,2.396475)" id="radialGradient-17">
            <stop stop-color="#FFDEA3" stop-opacity="0" offset="0%"></stop>
            <stop stop-color="#FFBEB3" stop-opacity="0" offset="50%"></stop>
            <stop stop-color="#FFAFA1" offset="100%"></stop>
        </radialGradient>
        <radialGradient cx="5.12620018%" cy="136.349526%" fx="5.12620018%" fy="136.349526%" r="195.573617%" gradientTransform="translate(0.051262,1.363495),scale(1.000000,0.691711),rotate(-71.487137),translate(-0.051262,-1.363495)" id="radialGradient-18">
            <stop stop-color="#FFDEA3" offset="0%"></stop>
            <stop stop-color="#FFDEA3" offset="37.97%"></stop>
            <stop stop-color="#FF583B" offset="100%"></stop>
        </radialGradient>
        <radialGradient cx="-117.083928%" cy="12.1684631%" fx="-117.083928%" fy="12.1684631%" r="276.34482%" gradientTransform="translate(-1.170839,0.121685),scale(1.000000,0.688664),translate(1.170839,-0.121685)" id="radialGradient-19">
            <stop stop-color="#FFDEA3" stop-opacity="0" offset="0%"></stop>
            <stop stop-color="#FFBEB3" stop-opacity="0" offset="50%"></stop>
            <stop stop-color="#FFAFA1" offset="100%"></stop>
        </radialGradient>
        <radialGradient cx="249.19281%" cy="-25.4720578%" fx="249.19281%" fy="-25.4720578%" r="259.22411%" gradientTransform="translate(2.491928,-0.254721),scale(1.000000,0.947694),translate(-2.491928,0.254721)" id="radialGradient-20">
            <stop stop-color="#FFBEB3" stop-opacity="0" offset="0%"></stop>
            <stop stop-color="#FF9380" stop-opacity="0" offset="50%"></stop>
            <stop stop-color="#FF2600" offset="100%"></stop>
        </radialGradient>
        <radialGradient cx="111.977914%" cy="-10.5812323%" fx="111.977914%" fy="-10.5812323%" r="249.043845%" gradientTransform="translate(1.119779,-0.105812),scale(1.000000,0.542084),translate(-1.119779,0.105812)" id="radialGradient-21">
            <stop stop-color="#FFDEA3" stop-opacity="0" offset="0%"></stop>
            <stop stop-color="#FFBEB3" stop-opacity="0" offset="50%"></stop>
            <stop stop-color="#FFAFA1" offset="100%"></stop>
        </radialGradient>
        <radialGradient cx="138.054249%" cy="84.2120298%" fx="138.054249%" fy="84.2120298%" r="176.769426%" gradientTransform="translate(1.380542,0.842120),scale(1.000000,0.400990),rotate(63.826976),translate(-1.380542,-0.842120)" id="radialGradient-22">
            <stop stop-color="#FFDEA3" stop-opacity="0" offset="0%"></stop>
            <stop stop-color="#FFBEB3" stop-opacity="0" offset="50%"></stop>
            <stop stop-color="#FFAFA1" offset="100%"></stop>
        </radialGradient>
    </defs>
    <g id="pangolin" stroke="none" stroke-width="1" fill="none" fill-rule="evenodd">
        <g id="Group" transform="translate(-0.236399, 1.000000)" fill-rule="nonzero">
            <g id="Path">
                <path d="M39.383803,15.3866141 C39.372095,15.3514899 39.3252627,15.3514899 39.3135547,15.3866141 C38.2364128,24.0505811 28.6358007,28.5464775 21.3650933,24.2496182 C21.3885094,24.2613263 21.4002175,24.2847424 21.4236336,24.2964505 C21.0723917,24.0388731 20.6977337,23.7930037 20.3230757,23.5588425 C19.843045,22.8563587 19.2927661,22.188999 18.6956548,21.5684717 C18.0517113,20.889404 17.7121775,19.976175 17.7941339,19.0629461 C17.805842,18.8990332 17.8409662,18.7351203 17.8877984,18.5712074 C18.2390403,17.3067366 19.2459338,16.2413028 20.6860256,15.8666447 C18.7541951,15.9720173 17.442892,14.0987271 17.8526743,12.412766 C17.9697549,11.8976112 18.2624565,11.4058725 18.730779,10.9843823 C18.8946919,10.8321774 18.9649403,10.6097242 18.9415242,10.3989791 C18.7541951,9.02913565 19.2576419,7.74124866 20.1708708,6.8631439 C20.9553111,6.10211977 22.0324529,5.65721336 23.2266754,5.71575368 C23.5896254,5.72746174 23.7886625,5.31767952 23.5779173,5.03668599 C22.8637254,4.11174897 22.5007755,2.96435875 22.5358997,1.80526046 C16.7169921,-0.220234524 10.2658491,1.1847331 5.81678496,5.42305209 C5.74653658,5.48159241 5.75824465,5.59867304 5.82849303,5.64550529 C6.17973493,5.89137463 6.5426849,6.11382783 6.90563487,6.32457298 L6.90563487,6.32457298 C4.08399157,7.70612447 2.04678851,10.3521468 1.4730934,13.513324 C1.40284502,13.9231062 1.35601277,14.3211804 1.33259664,14.7309626 L1.33259664,14.7309626 C-0.212867743,18.0911768 -0.43532095,22.00167 0.852566036,25.6311697 C0.887690227,25.7248342 0.993062798,25.7599584 1.07501924,25.7014181 C1.49650953,25.3970084 1.90629175,25.0691827 2.29265785,24.7296488 C2.28094978,27.352255 3.04197391,29.9748613 4.55231411,32.2462256 C7.24516871,36.3089236 11.9166861,38.591996 16.7755324,38.2407541 C16.8457808,38.2407541 16.9043211,38.1705057 16.9043211,38.1002573 C16.9160292,37.3509413 16.7872405,36.6484575 16.5413711,35.9576817 L16.5413711,35.9576817 C19.9484176,38.030009 24.1516124,38.7910331 28.307975,37.7841396 C28.3782233,37.7724316 28.4133475,37.7138912 28.4133475,37.6436429 C28.3899314,36.7655381 28.307975,35.8874333 28.1557701,35.0327447 C28.1674782,35.1147011 28.1908943,35.1966576 28.2026024,35.2903221 C36.8197371,32.8901691 41.8190803,23.9217924 39.383803,15.3866141 Z" fill="url(#radialGradient-1)"></path>
                <path d="M39.3135547,15.3983222 C38.2364128,24.0622892 28.6358007,28.5581856 21.3650933,24.2613263 C21.3885094,24.2730343 21.4002175,24.2964505 21.4236336,24.3081585 C21.0723917,24.0505811 20.6977337,23.8047118 20.3230757,23.5705505 C19.843045,22.8680667 19.2927661,22.2007071 18.6956548,21.5801797 C18.6371145,21.5216394 18.5785742,21.451391 18.5200339,21.3811427 L17.7707178,27.0244293 C32.6165423,35.2434898 39.9574982,20.7840314 39.372095,15.3983222 C39.372095,15.3514899 39.3135547,15.3514899 39.3135547,15.3983222 Z" fill="url(#radialGradient-2)"></path>
                <path d="M36.9485258,23.1256441 C38.1778725,21.2055217 38.8920644,19.2502751 39.184766,17.7867672 C39.3369708,17.0608672 39.383803,16.4520479 39.3955111,16.0422657 C39.3955111,15.8315205 39.3955111,15.6676077 39.383803,15.5622351 C39.372095,15.4568625 39.372095,15.3983222 39.372095,15.3983222 C39.372095,15.3983222 39.372095,15.4568625 39.383803,15.5622351 C39.3955111,15.6676077 39.4072192,15.8315205 39.4072192,16.0422657 C39.4072192,16.463756 39.383803,17.0725753 39.2433063,17.8101833 C38.9857289,19.2853993 38.2949531,21.2757701 37.0538984,23.2076006 C36.433371,24.1676618 35.7425953,25.0223504 35.0401115,25.7248342 C34.3376277,26.427318 33.6468519,26.9893051 33.0146165,27.4107954 C32.3940891,27.8322856 31.8555182,28.1015711 31.4808602,28.2889001 C31.0944941,28.452813 30.8837489,28.5464775 30.8837489,28.5464775 C30.8837489,28.5464775 31.0944941,28.4411049 31.4691521,28.265484 C31.8321021,28.0664469 32.370673,27.7737453 32.9794923,27.352255 C34.208839,26.4858583 35.7308872,25.0457665 36.9485258,23.1256441 Z" fill="#FFF6E6" opacity="0.15"></path>
                <path d="M35.3796453,25.7833745 C35.0635276,24.940394 34.8410744,24.1676618 34.6771615,23.4534699 C33.8810132,24.0505811 33.0146165,24.5540279 32.1130956,24.940394 C32.9912004,25.5492133 34.033218,25.9589955 35.1689002,26.0760761 C35.3093969,26.0877842 35.4264776,25.9355794 35.3796453,25.7833745 Z" fill="#FF9380" opacity="0.35"></path>
                <path d="M35.5435582,25.3853004 C35.321105,24.5657359 35.1806082,23.8281279 35.0869437,23.1373522 C34.396168,23.7110473 33.6468519,24.1910779 32.8507036,24.6008601 C33.5648955,25.1043068 34.396168,25.4672568 35.3093969,25.6545858 C35.4498937,25.678002 35.5786824,25.5375052 35.5435582,25.3853004 Z" fill="#FF583B" opacity="0.35"></path>
                <path d="M18.9415242,10.387271 C18.9766484,10.6097242 18.9064,10.8321774 18.730779,10.9726742 C16.5882034,12.8459644 18.3444129,16.3700915 21.130932,15.7963964 C24.5028543,15.0939125 29.7714829,17.8804317 31.6447731,22.0719184 C32.4760456,23.9217924 34.1620067,25.3618842 36.2928743,25.7833745 C36.4450791,25.8184987 36.5738678,25.6662939 36.5387436,25.5257971 C35.2859808,20.889404 36.4099549,18.5126671 36.4099549,15.6558996 C36.4099549,7.74124866 30.6144635,1.1847331 23.0276383,0.00221868256 C22.9573899,-0.00948938095 22.8988496,0.0256348096 22.8754335,0.0958831906 C22.2197819,1.77013627 22.5124835,3.64342643 23.5779173,5.02497793 C23.8003705,5.30597145 23.5896254,5.71575368 23.2266754,5.70404561 C20.6391934,5.57525691 18.5902823,7.83491317 18.9415242,10.387271 Z" fill="url(#radialGradient-3)"></path>
                <path d="M18.9415242,10.387271 C18.9766484,10.6097242 18.9064,10.8321774 18.730779,10.9726742 C16.5882034,12.8459644 18.3444129,16.3700915 21.130932,15.7963964 C24.5028543,15.0939125 29.7714829,17.8804317 31.6447731,22.0719184 C32.4760456,23.9217924 34.1620067,25.3618842 36.2928743,25.7833745 C36.4450791,25.8184987 36.5738678,25.6662939 36.5387436,25.5257971 C35.2859808,20.889404 36.4099549,18.5126671 36.4099549,15.6558996 C36.4099549,7.74124866 30.6144635,1.1847331 23.0276383,0.00221868256 C22.9573899,-0.00948938095 22.8988496,0.0256348096 22.8754335,0.0958831906 C22.2197819,1.77013627 22.5124835,3.64342643 23.5779173,5.02497793 C23.8003705,5.30597145 23.5896254,5.71575368 23.2266754,5.70404561 C20.6391934,5.57525691 18.5902823,7.83491317 18.9415242,10.387271 Z" fill="url(#radialGradient-4)"></path>
                <path d="M29.2563281,14.7426706 C28.9987507,13.2323304 28.1908943,11.862487 26.9732557,10.9258419 C34.7005776,13.4079514 32.0545553,21.2874781 33.9746777,23.9452086 C33.2604858,23.3715134 32.6750827,22.6339054 32.3004246,21.7792168 C30.9305812,18.7117042 27.9918573,16.4988802 25.2053381,15.5271109 C22.6412722,14.7895029 20.7211498,12.7054676 20.3581998,10.0828614 C22.6295642,12.6937595 25.8141574,14.3563045 29.2563281,14.7426706 Z" fill="url(#radialGradient-5)" opacity="0.91"></path>
                <path d="M1.32088858,14.7075465 C1.15697569,17.5877301 2.24582559,20.3976653 4.31815284,22.4114522 C3.73274966,23.2427248 3.04197391,24.0037489 2.26924172,24.6945246 C1.88287563,25.0340585 1.48480147,25.3618842 1.05160312,25.6662939 C0.969646671,25.7248342 0.8642741,25.68971 0.829149909,25.5960455 C-0.447029013,21.9782539 -0.224575807,18.0677607 1.32088858,14.7075465 L1.32088858,14.7075465 Z" fill="url(#radialGradient-6)"></path>
                <path d="M2.3394901,19.6834734 C1.41455308,21.63872 1.06331118,23.8632521 1.00477086,25.7014181 C1.02818699,25.7014181 1.03989505,25.68971 1.06331118,25.678002 C1.48480147,25.3735923 1.89458369,25.0457665 2.28094978,24.7062327 C3.05368198,24.0154569 3.73274966,23.2544328 4.3298609,22.4231603 C3.49858839,21.6153039 2.83122877,20.6903669 2.3394901,19.6834734 Z" fill="url(#radialGradient-7)"></path>
                <path d="M16.5296631,35.9342656 C16.7638243,36.6250413 16.892613,37.3275252 16.892613,38.0768412 C16.892613,38.1470896 16.8340727,38.217338 16.7638243,38.217338 C11.904978,38.5685799 7.23346065,36.2737994 4.54060604,32.2228095 C3.03026585,29.9514451 2.28094978,27.340547 2.28094978,24.7062327 C3.05368198,24.0154569 3.73274966,23.2544328 4.3298609,22.4231603 C4.59914636,22.6807377 4.88013988,22.926607 5.18454954,23.1607683 C5.24308985,23.2076006 5.3250463,23.1958925 5.38358661,23.1490602 C6.13290268,22.3294958 6.8002623,21.4630991 7.39737354,20.5498701 L7.39737354,20.5498701 C8.1466896,27.4342115 14.8905342,31.1573757 16.5296631,35.9342656 Z" fill="url(#radialGradient-8)"></path>
                <path d="M2.4682788,26.6380632 C2.78439652,26.2165729 3.0770981,25.7950826 3.3346755,25.3501762 C3.84983029,24.4954875 4.25961252,23.5822586 4.57573023,22.6456135 C4.49377379,22.5636571 4.40010928,22.4934087 4.31815284,22.4114522 C3.73274966,23.2427248 3.04197391,24.0037489 2.26924172,24.6945246 C2.26924172,25.3618842 2.31607398,26.0175358 2.40973848,26.6731874 C2.43315461,26.6731874 2.45657074,26.6614793 2.4682788,26.6380632 Z" fill="#FF9380" opacity="0.35"></path>
                <path d="M28.4133475,37.6202267 C28.4133475,37.6904751 28.3665153,37.7490154 28.307975,37.7607235 C24.1399044,38.767617 19.9484176,37.9948848 16.5413711,35.9342656 L16.5413711,35.9342656 C14.9022422,31.1573757 8.15839767,27.4342115 7.38566547,20.5498701 L7.38566547,20.5498701 C8.35743475,19.0746541 9.13016694,17.4823575 9.70386205,15.8315205 C9.99656364,18.0326365 11.1790781,19.9995912 12.9352876,21.2991862 C13.9070569,26.614647 17.6068049,31.1573757 22.8520174,33.0892062 C22.9456819,33.1243304 23.0393464,33.054082 23.0510545,32.9604175 C23.1798432,29.5299549 22.1846578,26.2634051 20.3347837,23.5705505 C25.2404623,26.5678148 28.2845588,31.8715676 28.4133475,37.6202267 Z" fill="url(#radialGradient-9)"></path>
                <path d="M30.2983458,34.529298 C29.1860797,30.7241773 26.7742186,27.4576276 23.5310851,25.2565117 C22.7934771,24.9989343 22.0675771,24.6711085 21.3768014,24.2496182 C21.3885094,24.2613263 21.4119256,24.2730343 21.4236336,24.2847424 C25.0414252,26.8956406 27.4649944,30.8295499 28.1908943,35.1966576 C28.1791863,35.1381173 28.1674782,35.0678689 28.1557701,35.0093286 C28.1674782,35.091285 28.1908943,35.1732415 28.2026024,35.266906 C28.9167943,35.0678689 29.6192781,34.8219996 30.2983458,34.529298 Z" fill="#FF9380" opacity="0.35"></path>
                <path d="M18.3795371,36.7069978 C18.3327049,35.9693898 18.1453758,35.266906 17.8526743,34.5995464 C15.8740115,30.0216935 9.00137824,26.8605164 7.57299449,20.2337524 C7.50274611,20.339125 7.44420579,20.4444976 7.37395741,20.5498701 L7.37395741,20.5498701 C8.13498154,27.4342115 14.8905342,31.1573757 16.5296631,35.9342656 L16.5296631,35.9342656 C17.0916501,36.2737994 17.6770533,36.5782091 18.2741645,36.8474945 C18.3444129,36.8240784 18.3795371,36.7655381 18.3795371,36.7069978 Z" fill="#FF9380" opacity="0.35"></path>
                <path d="M15.8623035,22.5870732 C17.1736066,21.3577265 17.6770533,20.1752121 17.805842,19.0629461 L17.805842,19.0629461 C17.7121775,19.976175 18.0517113,20.901112 18.7073629,21.5684717 C19.3044741,22.188999 19.843045,22.8563587 20.3347837,23.5588425 C22.1729497,26.2516971 23.1798432,29.5182468 23.0510545,32.9487094 C23.0510545,33.0423739 22.9456819,33.1126223 22.8520174,33.0774981 C17.6068049,31.1456676 13.9070569,26.5912309 12.9352876,21.2874781 C13.754852,21.8962974 14.7032052,22.3529119 15.7335148,22.6221974 C15.7686389,22.6339054 15.8154712,22.6221974 15.8623035,22.5870732 Z" fill="url(#radialGradient-10)"></path>
                <path d="M20.3230757,23.5588425 C19.843045,22.8563587 19.2927661,22.188999 18.6956548,21.5684717 C18.0517113,20.889404 17.7121775,19.976175 17.7941339,19.0629461 L17.7941339,19.0629461 C17.6770533,20.1166718 17.2087308,21.2289378 16.0496325,22.3997442 C17.7590097,27.4810437 20.9670191,30.5836806 23.0276383,32.9252933 C23.156427,29.5065387 22.1612416,26.239989 20.3230757,23.5588425 Z" fill="url(#radialGradient-11)"></path>
                <path d="M20.7211498,30.2090225 C21.3533852,30.9583386 21.9387884,31.6256982 22.3602787,32.1174369 C22.781769,32.6091756 23.0276383,32.9135852 23.0276383,32.9135852 C23.0276383,32.9135852 22.7466448,32.6208836 22.3017384,32.1642691 C21.856832,31.6959466 21.2363046,31.0520031 20.6040692,30.302687 C19.9718337,29.553371 19.4332628,28.827471 19.0703129,28.3006082 C18.8946919,28.0313227 18.7424871,27.8088695 18.6488226,27.6566647 C18.5551581,27.5044599 18.4966177,27.4225034 18.4966177,27.4225034 C18.4966177,27.4225034 18.5551581,27.5044599 18.6605306,27.6449566 C18.7659032,27.7971615 18.918108,27.9961985 19.1171451,28.2537759 C19.5269273,28.7572227 20.0889144,29.4597065 20.7211498,30.2090225 Z" fill="#FFF6E6" opacity="0.15"></path>
                <path d="M20.3230757,23.5588425 C22.1612416,26.2516971 23.1681351,29.5182468 23.0393464,32.9487094 C23.0393464,33.0423739 22.9339738,33.1126223 22.8403093,33.0774981 C17.5950969,31.1456676 13.8953488,26.5912309 12.9235795,21.2874781 C13.9773052,27.0244293 17.9697549,31.9301079 23.6364576,34.0258512 C23.7301221,34.0609754 23.8354947,33.9907271 23.8472028,33.8853545 C23.9876995,30.3378112 22.9925141,26.9424728 21.1543482,24.1091215 C20.8850627,23.9217924 20.6040692,23.7344634 20.3230757,23.5588425 Z" fill="#FF9380" opacity="0.35"></path>
                <path d="M17.7941339,19.0629461 C18.1102517,16.1710544 15.7569309,13.7826094 17.8526743,12.4010579 C17.442892,14.0870191 18.7541951,15.9720173 20.6860256,15.8549367 C19.2459338,16.2295947 18.2507484,17.2950285 17.8877984,18.5594993 C17.8526743,18.7234122 17.8175501,18.8990332 17.7941339,19.0629461 L17.7941339,19.0629461 Z" fill="url(#radialGradient-12)"></path>
                <path d="M20.6860256,15.8549367 C20.0772063,15.8900609 19.5269273,15.726148 19.0820209,15.4334464 C18.1805,16.1710544 17.8292581,17.0023269 17.7824259,17.7867672 C17.8175501,18.0560526 17.8292581,18.3253381 17.8292581,18.6063316 C17.8409662,18.6531639 17.8409662,18.6999961 17.8526743,18.7468284 C17.8643823,18.688288 17.8760904,18.6180397 17.8995065,18.5594993 C18.2507484,17.3067366 19.2459338,16.2295947 20.6860256,15.8549367 Z" fill="url(#radialGradient-13)"></path>
                <path d="M18.9415242,10.387271 C18.9766484,10.6097242 18.9064,10.8321774 18.730779,10.9726742 C18.2624565,11.3824564 17.9697549,11.8859031 17.8526743,12.4010579 C15.7686389,13.7826094 18.1102517,16.1710544 17.7941339,19.0629461 C17.6770533,20.1752121 17.1618985,21.3577265 15.8505954,22.5870732 C15.8154712,22.6221974 15.7686389,22.6339054 15.7218067,22.6221974 C14.679789,22.3529119 13.743144,21.8962974 12.9235795,21.2874781 C11.16737,19.9878831 9.98485557,18.0209284 9.69215399,15.8198125 L9.69215399,15.8198125 C9.61019754,15.2461174 9.59848948,14.6607142 9.64532173,14.063603 C9.84435881,11.6283257 11.1088297,9.50916625 12.9704118,8.15103089 C15.4291051,8.3383599 17.9112146,7.89345349 20.1708708,6.85143584 C19.2576419,7.7295406 18.7541951,9.01742759 18.9415242,10.387271 Z" fill="url(#radialGradient-14)"></path>
                <path d="M19.7025483,7.37829869 C12.3030521,10.1765259 12.3615925,17.2833204 15.8037631,22.6221974 C15.8154712,22.6104893 15.8388873,22.6104893 15.8505954,22.5987813 C17.1618985,21.3694346 17.6653452,20.1869202 17.7941339,19.0746541 C18.1102517,16.1827625 15.7569309,13.7943175 17.8526743,12.412766 C17.9697549,11.8976112 18.2624565,11.4058725 18.730779,10.9843823 C18.8946919,10.8321774 18.9649403,10.6097242 18.9415242,10.3989791 C18.7893193,9.26329692 19.093729,8.2095712 19.7025483,7.37829869 Z" fill="url(#radialGradient-15)"></path>
                <path d="M13.6377714,15.5856512 C13.6377714,16.5574205 13.7665601,17.4238172 13.8836407,18.0560526 C13.942181,18.3721703 14.0007214,18.6180397 14.0475536,18.7936606 C14.0943859,18.9692816 14.117802,19.0629461 14.117802,19.0629461 C14.117802,19.0629461 14.0826778,18.9692816 14.0241375,18.8053687 C13.9655972,18.6414558 13.8953488,18.3838784 13.8133923,18.0794687 C13.6494795,17.4589414 13.4855666,16.5808366 13.4855666,15.5973593 C13.4855666,15.1056206 13.5323988,14.6372981 13.6026472,14.2158078 C13.6846036,13.7943175 13.7665601,13.4196595 13.8719327,13.1152498 C13.9187649,12.963045 13.9655972,12.8225482 14.0124294,12.7054676 C14.0592617,12.588387 14.0943859,12.4830144 14.1412181,12.4010579 C14.2114665,12.2371451 14.2582988,12.1434805 14.2582988,12.1434805 C14.2582988,12.1434805 14.2231746,12.2371451 14.1646342,12.4010579 C14.1295101,12.4830144 14.0943859,12.588387 14.0592617,12.7054676 C14.0241375,12.8225482 13.9773052,12.963045 13.942181,13.1152498 C13.8602246,13.4196595 13.7899762,13.7943175 13.7314359,14.2040997 C13.6728956,14.6490061 13.6377714,15.1056206 13.6377714,15.5856512 Z" fill="#FFF6E6" opacity="0.15"></path>
                <path d="M15.8623035,22.5870732 C15.8271793,22.6221974 15.780347,22.6339054 15.7335148,22.6221974 C14.6914971,22.3529119 13.754852,21.8962974 12.9352876,21.2874781 C11.1790781,19.9878831 9.99656364,18.0209284 9.70386205,15.8198125 C9.32920402,16.9320785 8.84917341,18.0092204 8.28718637,19.03953 C9.25895564,20.7606153 10.8161281,22.0719184 12.6660021,22.72757 C13.6260633,23.0671038 14.668081,23.2310167 15.7335148,23.1841844 C15.780347,23.1841844 15.8271793,23.1607683 15.8505954,23.1139361 C16.0496325,22.7626941 16.2135454,22.4231603 16.3423341,22.0953345 C16.1901292,22.2592474 16.0262163,22.4231603 15.8623035,22.5870732 Z" fill="#FF9380" opacity="0.35"></path>
                <path d="M23.5779173,5.02497793 C23.7886625,5.30597145 23.5896254,5.71575368 23.2266754,5.70404561 C22.0324529,5.64550529 20.943603,6.10211977 20.1708708,6.85143584 C17.9229226,7.89345349 15.4408132,8.3383599 12.9704118,8.15103089 C10.8863765,7.99882606 8.80234116,7.37829869 6.90563487,6.30115685 C6.5426849,6.09041171 6.17973493,5.8679585 5.82849303,5.62208917 C5.75824465,5.57525691 5.74653658,5.45817628 5.81678496,5.39963596 C10.2658491,1.17302503 16.7169921,-0.231942588 22.5358997,1.78184434 C22.5007755,2.95265069 22.8637254,4.10004091 23.5779173,5.02497793 Z" fill="url(#radialGradient-16)"></path>
                <path d="M6.42560427,6.02016333 C6.57780909,6.11382783 6.74172198,6.20749234 6.90563487,6.30115685 C8.81404922,7.39000676 10.8863765,7.99882606 12.9704118,8.15103089 C15.4291051,8.3383599 17.9112146,7.89345349 20.1708708,6.85143584 C20.9553111,6.09041171 22.0324529,5.64550529 23.2266754,5.70404561 C23.4257125,5.71575368 23.5896254,5.58696498 23.6481657,5.41134402 C17.2672711,4.02979253 10.7692958,4.3927425 6.42560427,6.02016333 Z" fill="url(#radialGradient-17)"></path>
                <path d="M9.62190561,16.0071415 C9.05991856,17.5994381 8.31060249,19.1214864 7.37395741,20.5498701 C6.77684617,21.4630991 6.10948655,22.3294958 5.36017049,23.1490602 C5.31333823,23.2076006 5.21967373,23.2076006 5.16113341,23.1607683 C4.85672376,22.926607 4.57573023,22.6807377 4.30644477,22.4231603 C2.24582559,20.4093734 1.14526762,17.5994381 1.30918051,14.7192545 C1.33259664,14.3094723 1.37942889,13.9113981 1.44967728,13.5016159 C1.62529823,12.5181386 1.95312401,11.5814935 2.38632236,10.7268049 C1.66042242,12.0732322 1.22722407,13.6069885 1.19209988,15.1992851 C1.18039181,15.6090673 1.19209988,16.0188496 1.23893213,16.4286318 C1.50821759,19.2971073 3.01855779,21.9197136 5.36017049,23.5939667 C5.66458014,23.8164199 5.98069785,24.0154569 6.30852363,24.202786 C6.37877201,24.2379101 6.46072846,24.214494 6.49585265,24.1559537 C7.10467195,23.2310167 7.64324287,22.2709555 8.08814929,21.2874781 C8.82575729,19.6834734 9.35262014,17.9975123 9.66873786,16.2647189 L9.66873786,16.2647189 C9.66873786,16.1710544 9.64532173,16.0890979 9.62190561,16.0071415 Z" fill="#FF9380" opacity="0.35"></path>
                <path d="M12.9704118,8.16273895 C11.1088297,9.52087432 9.84435881,11.6400338 9.64532173,14.075311 C9.59848948,14.6724223 9.61019754,15.2578254 9.69215399,15.8315205 L9.69215399,15.8315205 C9.13016694,17.4823575 8.34572668,19.0746541 7.37395741,20.5498701 C6.77684617,21.4630991 6.10948655,22.3294958 5.36017049,23.1490602 C5.31333823,23.2076006 5.21967373,23.2076006 5.16113341,23.1607683 C4.85672376,22.926607 4.57573023,22.6807377 4.30644477,22.4231603 C2.24582559,20.4093734 1.14526762,17.5994381 1.30918051,14.7192545 C1.33259664,14.3094723 1.37942889,13.9113981 1.44967728,13.5016159 C2.02337239,10.3521468 4.06057544,7.69441641 6.88221874,6.31286491 L6.88221874,6.31286491 C8.80234116,7.39000676 10.8746684,7.99882606 12.9704118,8.16273895 Z" fill="url(#radialGradient-18)"></path>
                <path d="M16.8691969,38.1470896 C16.880905,38.1236735 16.892613,38.1002573 16.892613,38.0768412 C16.9043211,37.3275252 16.7755324,36.6250413 16.5296631,35.9342656 C14.8905342,31.1573757 8.1466896,27.4342115 7.37395741,20.5498701 L7.37395741,20.5498701 C6.77684617,21.4630991 6.10948655,22.3294958 5.36017049,23.1490602 C5.31333823,23.2076006 5.21967373,23.2076006 5.16113341,23.1607683 C5.03234471,23.0553957 4.90355601,22.9500232 4.77476731,22.8446506 C7.03442357,31.8598595 12.7011263,35.8523092 16.8691969,38.1470896 Z" fill="url(#radialGradient-19)"></path>
                <path d="M8.72038472,31.2276241 C9.21212338,31.8949837 9.71557011,32.503803 10.2073088,33.0306658 C10.4414701,33.2999513 10.6873394,33.5458206 10.9097926,33.7682738 C11.1439539,33.9907271 11.3429909,34.2014722 11.5537361,34.3888012 C11.9518102,34.7634592 12.279636,35.0561608 12.5137973,35.2434898 C12.7479586,35.4425269 12.8767473,35.5478995 12.8767473,35.5478995 C12.8767473,35.5478995 12.7362505,35.4425269 12.5020892,35.2551979 C12.2562199,35.0678689 11.9166861,34.7985834 11.5069038,34.4356335 C11.2961587,34.2600125 11.0854135,34.0492674 10.8512523,33.8268142 C10.6287991,33.604361 10.3712217,33.3584916 10.1253523,33.1009142 C9.63361367,32.5740514 9.10675081,31.9652321 8.61501214,31.2978724 C7.61982675,29.9514451 6.90563487,28.6167259 6.44902039,27.6215405 C6.34364782,27.3756712 6.23827525,27.1415099 6.15631881,26.9424728 C6.07436236,26.7434357 6.00411398,26.5678148 5.95728173,26.427318 C5.85190916,26.1463245 5.79336884,25.9824116 5.79336884,25.9824116 C5.79336884,25.9824116 5.86361722,26.1346164 5.98069785,26.41561 C6.03923817,26.5561067 6.10948655,26.7317277 6.20315106,26.9190567 C6.29681557,27.1180938 6.40218814,27.340547 6.51926878,27.5864163 C6.98759132,28.5816017 7.73690738,29.8929048 8.72038472,31.2276241 Z" fill="#FFF6E6" opacity="0.15"></path>
                <path d="M28.2143105,37.7841396 C28.2494347,37.7724316 28.2728508,37.7724316 28.307975,37.7607235 C28.3782233,37.7490154 28.4133475,37.6904751 28.4133475,37.6202267 C28.2845588,31.8598595 25.2404623,26.5678148 20.3230757,23.5588425 C22.1612416,26.2516971 23.1681351,29.5182468 23.0393464,32.9487094 C23.0393464,33.0423739 22.9339738,33.1126223 22.8403093,33.0774981 C17.5950969,31.1456676 13.8953488,26.5912309 12.9235795,21.2874781 C12.7011263,21.1235653 12.4903812,20.9596524 12.2913441,20.7723233 C15.1949438,31.1924999 25.2404623,36.4377123 28.2143105,37.7841396 Z" fill="url(#radialGradient-20)"></path>
                <path d="M24.4677301,35.6883963 C25.4746236,36.3206317 26.4112687,36.8474945 27.0903364,37.2104445 C27.4298702,37.3977735 27.7108637,37.5382703 27.9099008,37.6319348 C28.0972298,37.7255993 28.2143105,37.7841396 28.2143105,37.7841396 C28.2143105,37.7841396 28.0972298,37.7373074 27.8981927,37.6553509 C27.6991557,37.5733945 27.4064541,37.4446058 27.0552122,37.2689848 C26.3527284,36.929451 25.3926672,36.4377123 24.3857737,35.8054769 C23.3788802,35.1849495 22.5007755,34.541006 21.8919562,34.0609754 C21.7397513,33.9438948 21.5992546,33.8268142 21.4821739,33.7331497 C21.3650933,33.6394851 21.2597207,33.5458206 21.1777643,33.4755723 C21.0138514,33.3350755 20.9201869,33.2531191 20.9201869,33.2531191 C20.9201869,33.2531191 21.0138514,33.3233674 21.1894724,33.4521561 C21.2714288,33.5224045 21.3885094,33.5926529 21.5055901,33.6863174 C21.6343788,33.7799819 21.7748755,33.8853545 21.9270804,33.9907271 C22.5710238,34.4590496 23.4608367,35.0678689 24.4677301,35.6883963 Z" fill="#FFF6E6" opacity="0.15"></path>
                <path d="M5.21967373,23.1841844 C5.26650598,23.1958925 5.3250463,23.1841844 5.36017049,23.1373522 C6.10948655,22.3177877 6.77684617,21.451391 7.37395741,20.5381621 C8.34572668,19.0629461 9.11845887,17.4706494 9.69215399,15.8198125 L9.69215399,15.8198125 C9.61019754,15.2461174 9.59848948,14.6607142 9.64532173,14.063603 C9.84435881,11.6283257 11.1088297,9.50916625 12.9704118,8.15103089 C12.9469956,8.15103089 12.9235795,8.15103089 12.9001634,8.13932282 C4.10740769,11.0663387 4.34156896,20.4093734 5.21967373,23.1841844 Z" fill="url(#radialGradient-21)"></path>
                <path d="M4.9386802,18.7117042 C4.83330763,19.9527589 4.88013988,21.076733 4.97380439,21.8845894 C5.02063665,22.2943716 5.07917696,22.6104893 5.12600922,22.8329425 C5.18454954,23.0553957 5.20796566,23.1724764 5.20796566,23.1724764 C5.20796566,23.1724764 5.17284147,23.0553957 5.10259309,22.8329425 C5.04405277,22.6104893 4.96209633,22.2943716 4.89184795,21.8845894 C4.75135119,21.076733 4.66939474,19.9410508 4.77476731,18.688288 C4.82159957,18.0677607 4.92697214,17.4706494 5.03234471,16.9437866 C5.10259309,16.6862092 5.14942534,16.4286318 5.21967373,16.1944705 C5.28992211,15.9603092 5.34846242,15.7495641 5.41871081,15.550527 C5.48895919,15.363198 5.5474995,15.1875771 5.60603982,15.0353722 C5.66458014,14.8831674 5.72312046,14.7543787 5.76995271,14.6490061 C5.86361722,14.438261 5.91044947,14.3211804 5.91044947,14.3211804 C5.91044947,14.3211804 5.86361722,14.438261 5.79336884,14.6490061 C5.75824465,14.7543787 5.69970433,14.8831674 5.65287208,15.0353722 C5.60603982,15.1875771 5.5474995,15.363198 5.48895919,15.5622351 C5.43041887,15.7612722 5.38358661,15.9720173 5.31333823,16.2061786 C5.25479792,16.4403399 5.20796566,16.6862092 5.14942534,16.9554946 C5.09088503,17.5057736 4.98551246,18.0911768 4.9386802,18.7117042 Z" fill="#FFF6E6" opacity="0.15"></path>
                <path d="M20.1591628,6.85143584 C17.9112146,7.89345349 15.4291051,8.3383599 12.9587037,8.15103089 C10.8746684,7.99882606 8.7906331,7.37829869 6.89392681,6.30115685 C6.87051068,6.28944879 6.83538649,6.26603266 6.81197036,6.2543246 C6.43731233,6.62898263 6.07436236,7.02705679 5.73482852,7.43683901 C5.6762882,7.50708739 5.69970433,7.61245996 5.78166077,7.65929222 C6.15631881,7.8583293 6.5426849,8.03395025 6.929051,8.19786314 C8.95454599,9.05255178 11.0854135,9.40379368 13.1811569,9.31012917 C15.6515583,9.19304854 18.0634194,8.45544054 20.1708708,7.14413742 C20.6860256,6.51190199 21.3885094,6.02016333 22.2197819,5.78600206 C21.4236336,5.93820688 20.7211498,6.31286491 20.1591628,6.85143584 Z" fill="#FF9380" opacity="0.35"></path>
                <path d="M20.1357466,16.0422657 C20.3113676,15.9720173 20.4986966,15.9017689 20.6977337,15.8549367 C18.7659032,15.9603092 17.4546001,14.0870191 17.8643823,12.4010579 C17.981463,11.8859031 18.2741645,11.3941645 18.7424871,10.9726742 C18.9064,10.8204694 18.9766484,10.5980162 18.9532322,10.387271 C18.7659032,9.01742759 19.2693499,7.7295406 20.1825789,6.85143584 C20.9670191,6.09041171 22.044161,5.64550529 23.2383835,5.70404561 C23.6013334,5.71575368 23.8003705,5.30597145 23.5896254,5.02497793 C22.8754335,4.10004091 22.5124835,2.95265069 22.5476077,1.7935524 C21.856832,1.55939113 21.1543482,1.36035405 20.4518644,1.21985729 C20.381616,2.61311685 20.8850627,3.95954415 21.8451239,4.96643761 C22.0909932,5.22401501 21.9270804,5.65721336 21.5758384,5.68062949 C19.0000645,5.83283431 17.1970227,8.30323571 17.8175501,10.7970532 C17.8760904,11.0077984 17.8292581,11.2419597 17.6770533,11.4058725 C15.8388873,13.3962433 17.630221,16.463756 20.1357466,16.0422657 Z" fill="#FF9380" opacity="0.35"></path>
                <path d="M30.4739667,12.225437 C30.0993087,12.4010579 29.9471039,12.8459644 30.1344329,13.2206224 C30.3100538,13.5952804 30.7549602,13.7474852 31.1296183,13.5601562 C31.5042763,13.3845353 31.6564811,12.9396289 31.4691521,12.5649708 C31.2935312,12.2020209 30.8486247,12.049816 30.4739667,12.225437 Z" fill="#FF9380" opacity="0.35"></path>
                <path d="M31.4691521,12.5766789 C31.3989037,12.4361821 31.2935312,12.3191015 31.1647425,12.2488531 C31.1764505,12.2605612 31.1881586,12.2722692 31.1881586,12.2839773 C31.3637795,12.6586353 31.2115747,13.1035418 30.8486247,13.2791627 C30.6261715,13.3845353 30.3685941,13.3728272 30.157849,13.2557466 C30.345178,13.5952804 30.7783764,13.7357772 31.1296183,13.5601562 C31.5042763,13.3845353 31.6564811,12.9396289 31.4691521,12.5766789 Z" fill="#FF3714" opacity="0.25"></path>
                <path d="M34.8293663,10.8673016 C35.2274405,11.9093193 35.4733098,12.9513369 35.6138066,13.8996901 C35.6372227,14.1338513 35.6723469,14.3680126 35.695763,14.6021739 C35.7308872,14.8246271 35.7308872,15.0470803 35.7425953,15.2578254 C35.7543034,15.4685706 35.7660114,15.6793157 35.7660114,15.8783528 C35.7660114,16.0773899 35.7543034,16.2647189 35.7543034,16.4520479 C35.7543034,16.8149979 35.7074711,17.1428237 35.684055,17.4238172 C35.6723469,17.5643139 35.6606389,17.6931026 35.6372227,17.8218913 C35.6138066,17.938972 35.6020985,18.0560526 35.5786824,18.1497171 C35.508434,18.5477913 35.4733098,18.7585364 35.4733098,18.7585364 C35.4733098,18.7585364 35.4498937,18.5360832 35.4147695,18.1380091 C35.4030615,18.0443446 35.4030615,17.9272639 35.3913534,17.8101833 C35.3796453,17.6931026 35.3562292,17.5643139 35.3445211,17.4238172 C35.3093969,17.1428237 35.2859808,16.8267059 35.2157324,16.4871721 C35.1923163,16.3115512 35.1571921,16.1359302 35.133776,15.9486012 C35.1103599,15.7612722 35.0518195,15.5622351 35.0166954,15.363198 C34.9698631,15.1641609 34.946447,14.9534158 34.8879067,14.7426706 C34.8410744,14.5319255 34.7825341,14.3094723 34.7357018,14.0870191 C34.5015406,13.1972063 34.208839,12.2488531 33.8341809,11.2653758 C33.4595229,10.2818984 33.0380326,9.38037755 32.6165423,8.56081311 C32.5111698,8.36177603 32.4057972,8.16273895 32.3004246,7.97540993 C32.2067601,7.77637285 32.0896795,7.6007519 31.9843069,7.42513095 C31.8789343,7.24951 31.7852698,7.07388904 31.6798973,6.90997615 C31.5745247,6.74606326 31.4808602,6.59385844 31.3871957,6.44165361 C31.1998667,6.13724396 31.0125376,5.89137463 30.8603328,5.65721336 C30.7783764,5.54013272 30.708128,5.43476015 30.6378796,5.32938758 C30.5676312,5.23572307 30.4973828,5.14205856 30.4388425,5.07181018 C30.2046813,4.75569247 30.0758926,4.56836345 30.0758926,4.56836345 C30.0758926,4.56836345 30.2515135,4.69715215 30.5676312,4.95472955 C30.6495877,5.01326986 30.7315441,5.08351825 30.8252086,5.16547469 C30.9188731,5.24743114 31.0125376,5.34109564 31.1179102,5.43476015 C31.3286554,5.63379723 31.5745247,5.84454237 31.820394,6.11382783 C31.9491827,6.24261653 32.0779714,6.3831133 32.2067601,6.53531812 C32.3472569,6.67581488 32.4643375,6.83972777 32.6048343,7.00364066 C32.733623,7.16755355 32.8858278,7.33146644 33.0146165,7.53050352 C33.1434052,7.71783254 33.283902,7.90516155 33.4126907,8.10419863 C33.9161374,8.88863889 34.4312922,9.82528397 34.8293663,10.8673016 Z" fill="url(#radialGradient-22)" opacity="0.6"></path>
                <path d="M10.2892652,2.46091202 C10.7810039,2.28529107 11.2610345,2.19162656 11.7059409,2.15650237 C12.1508473,2.12137818 12.5606295,2.12137818 12.8884553,2.16821043 C13.0523682,2.1799185 13.204573,2.21504269 13.3333617,2.23845881 C13.4621504,2.26187494 13.5792311,2.28529107 13.6728956,2.30870719 C13.8602246,2.35553945 13.9538891,2.39066364 13.9538891,2.39066364 C13.9538891,2.39066364 13.8485165,2.42578783 13.6728956,2.48432815 C13.5792311,2.50774427 13.4738585,2.54286846 13.3567779,2.57799265 C13.2279892,2.61311685 13.0874924,2.6599491 12.9352876,2.70678135 C12.6308779,2.80044586 12.267928,2.9175265 11.8815619,3.0463152 C11.4951958,3.17510389 11.0737055,3.32730872 10.6287991,3.47951355 C10.1838927,3.63171837 9.77411043,3.7839232 9.38774434,3.92441996 C9.00137824,4.06491672 8.65013633,4.19370542 8.35743475,4.32249412 C8.20522992,4.38103444 8.07644122,4.43957475 7.94765252,4.48640701 C7.83057189,4.53323926 7.72519932,4.58007152 7.63153481,4.61519571 C7.45591386,4.68544409 7.36224935,4.72056828 7.36224935,4.72056828 C7.36224935,4.72056828 7.42078967,4.63861183 7.52616224,4.48640701 C7.58470255,4.40445056 7.65495094,4.32249412 7.73690738,4.21712155 C7.83057189,4.11174897 7.9242364,3.99466834 8.04131703,3.88929577 C8.2754783,3.6551345 8.59159602,3.38584904 8.95454599,3.1399797 C9.36432821,2.87069424 9.79752656,2.63653297 10.2892652,2.46091202 Z" fill="#FFDEA3" opacity="0.17"></path>
                <path d="M2.52681912,11.8039467 C2.77268845,11.2536677 3.08880617,10.761929 3.41663194,10.3404388 C3.58054483,10.1414017 3.74445772,9.95407267 3.90837061,9.79015978 C4.0722835,9.62624689 4.23619639,9.48575013 4.38840122,9.35696143 C4.54060604,9.22817273 4.6811028,9.12280016 4.8098915,9.04084371 C4.9386802,8.9471792 5.05576084,8.87693082 5.14942534,8.81839051 C5.33675436,8.70130987 5.44212693,8.65447762 5.44212693,8.65447762 C5.44212693,8.65447762 5.38358661,8.75985019 5.26650598,8.9471792 C5.20796566,9.04084371 5.13771728,9.14621628 5.05576084,9.27500498 C4.97380439,9.40379368 4.88013988,9.54429044 4.79818344,9.70820333 C4.70451893,9.87211622 4.59914636,10.0477372 4.49377379,10.2350662 C4.38840122,10.4223952 4.28302864,10.6331403 4.16594801,10.8438855 C3.9434948,11.2770838 3.7210416,11.7454064 3.49858839,12.2371451 C3.27613518,12.7405918 3.08880617,13.2206224 2.91318521,13.6655288 C2.83122877,13.887982 2.74927232,14.1104352 2.67902394,14.3094723 C2.60877556,14.5085094 2.55023525,14.7075465 2.49169493,14.8831674 C2.43315461,15.0587884 2.38632236,15.2227012 2.35119817,15.3749061 C2.30436591,15.5154028 2.26924172,15.6441915 2.24582559,15.7495641 C2.18728528,15.9603092 2.15216109,16.0773899 2.15216109,16.0773899 C2.15216109,16.0773899 2.1170369,15.9603092 2.0819127,15.7495641 C2.05849658,15.6441915 2.03508045,15.5154028 2.01166432,15.3514899 C1.99995626,15.1992851 1.96483207,15.0236642 1.96483207,14.8246271 C1.95312401,14.62559 1.95312401,14.4148449 1.96483207,14.1806836 C1.97654013,13.9465223 1.99995626,13.700653 2.03508045,13.4430756 C2.12874496,12.9279208 2.28094978,12.3659337 2.52681912,11.8039467 Z" fill="#FFDEA3" opacity="0.17"></path>
                <path d="M22.2900303,37.8778041 C21.8099997,37.7607235 21.3650933,37.5851026 20.9787272,37.3977735 C20.5923611,37.1987365 20.2645353,36.9879913 20.0069579,36.7889542 C19.8781692,36.6952897 19.7610886,36.5899172 19.6674241,36.5079607 C19.5737596,36.4260043 19.4918031,36.3440478 19.4215548,36.2855075 C19.2927661,36.1567188 19.2225177,36.0747624 19.2225177,36.0747624 C19.2225177,36.0747624 19.3278903,36.0981785 19.5035112,36.1333027 C19.5854677,36.1567188 19.6908402,36.1801349 19.8196289,36.2035511 C19.9484176,36.2269672 20.0772063,36.2620914 20.2294111,36.2972156 C20.5338208,36.3674639 20.8850627,36.4494204 21.2714288,36.5430849 C21.6577949,36.6250413 22.0792852,36.7304139 22.5241916,36.8357865 C22.969098,36.9411591 23.3788802,37.0465316 23.7652463,37.1401961 C24.1516124,37.2338606 24.5028543,37.3275252 24.807264,37.3977735 C24.9594688,37.4328977 25.0999656,37.4680219 25.2170462,37.5031461 C25.3341268,37.5382703 25.4512075,37.5616864 25.5331639,37.5851026 C25.7087849,37.6319348 25.8024494,37.6553509 25.8024494,37.6553509 C25.8024494,37.6553509 25.7087849,37.6904751 25.5331639,37.7490154 C25.4512075,37.7841396 25.3458349,37.8075558 25.2170462,37.8426799 C25.0882575,37.8778041 24.9477607,37.9129283 24.7838479,37.9363445 C24.4677301,37.9948848 24.081364,38.041717 23.6481657,38.041717 C23.2500915,38.030009 22.7700609,37.9948848 22.2900303,37.8778041 Z" fill="#FFDEA3" opacity="0.17"></path>
                <path d="M4.38840122,31.0871273 C4.09569963,30.5719725 3.89666255,30.0568177 3.74445772,29.565079 C3.67420934,29.3192097 3.61566902,29.0850484 3.56883677,28.8625952 C3.52200452,28.640142 3.48688033,28.4293969 3.4634642,28.2420679 C3.44004807,28.0547389 3.42834001,27.8791179 3.41663194,27.7269131 C3.40492388,27.5747082 3.40492388,27.4459196 3.40492388,27.340547 C3.40492388,27.1298018 3.41663194,27.0127212 3.41663194,27.0127212 C3.41663194,27.0127212 3.47517226,27.1180938 3.56883677,27.3054228 C3.61566902,27.3990873 3.67420934,27.5161679 3.74445772,27.6449566 C3.8147061,27.7737453 3.88495449,27.9259502 3.96691093,28.089863 C4.13082382,28.4176888 4.34156896,28.8040549 4.56402217,29.2138371 C4.79818344,29.6236194 5.04405277,30.0802338 5.31333823,30.5602644 C5.58262369,31.028587 5.84020109,31.4852015 6.07436236,31.8949837 C6.3202317,32.3047659 6.53097684,32.6794239 6.73001392,32.9955417 C6.82367843,33.1594545 6.91734293,33.2999513 6.98759132,33.4170319 C7.06954776,33.5458206 7.12808808,33.6511932 7.1866284,33.7448577 C7.30370903,33.9204787 7.36224935,34.0258512 7.36224935,34.0258512 C7.36224935,34.0258512 7.25687678,33.9673109 7.06954776,33.8619384 C6.97588325,33.803398 6.85880262,33.7448577 6.74172198,33.6511932 C6.61293328,33.5692368 6.47243652,33.4638642 6.3202317,33.3467836 C6.16802687,33.2297029 6.00411398,33.0892062 5.84020109,32.9370013 C5.6762882,32.7847965 5.50066725,32.6091756 5.33675436,32.4218465 C5.02063665,32.0588966 4.6811028,31.6022821 4.38840122,31.0871273 Z" fill="#FFDEA3" opacity="0.17"></path>
                <path d="M18.2156242,30.5485564 C17.8526743,30.2324387 17.5365565,29.8929048 17.2906872,29.553371 C17.0448179,29.2138371 16.8457808,28.8977194 16.705284,28.6050178 C16.5647873,28.3240243 16.4711228,28.078155 16.4125824,27.9142421 C16.3540421,27.7503292 16.330626,27.6566647 16.330626,27.6566647 C16.330626,27.6566647 16.4125824,27.715205 16.5530792,27.8205776 C16.693576,27.9259502 16.880905,28.089863 17.1267743,28.2771921 C17.3609356,28.4645211 17.6419291,28.6869743 17.9463388,28.9328436 C18.2507484,29.178713 18.5785742,29.4479984 18.9064,29.7289919 C19.2459338,30.0099855 19.5620515,30.290979 19.843045,30.5485564 C20.1357466,30.8061338 20.393324,31.0520031 20.6157772,31.2510402 C20.8382304,31.4500773 21.0255595,31.6256982 21.1543482,31.7427789 C21.2831369,31.8598595 21.3533852,31.9301079 21.3533852,31.9301079 C21.3533852,31.9301079 21.2597207,31.9183998 21.0840998,31.8949837 C20.9084788,31.8715676 20.6626095,31.8130272 20.3581998,31.7193627 C20.0537902,31.6256982 19.7025483,31.4852015 19.3278903,31.2978724 C18.9649403,31.1105434 18.5785742,30.8646741 18.2156242,30.5485564 Z" fill="#FFDEA3" opacity="0.17"></path>
                <path d="M9.93802332,14.2158078 C9.99656364,13.6772369 10.1253523,13.1620821 10.2892652,12.7171757 C10.3712217,12.4947224 10.4648862,12.2956854 10.5585507,12.1083564 C10.6522152,11.9210273 10.7575878,11.7571144 10.8512523,11.6049096 C10.9449168,11.4527048 11.0385813,11.3239161 11.1322458,11.2185435 C11.2142022,11.1014629 11.2961587,11.0195064 11.3664071,10.93755 C11.4951958,10.7853452 11.5771522,10.7150968 11.5771522,10.7150968 C11.5771522,10.7150968 11.5537361,10.8204694 11.5186119,11.0195064 C11.4951958,11.113171 11.4717796,11.2302516 11.4483635,11.3590403 C11.4249474,11.487829 11.3898232,11.6400338 11.3664071,11.8039467 C11.3312829,11.9678596 11.2961587,12.1434805 11.2727426,12.3425176 C11.2376184,12.5298466 11.2142022,12.7405918 11.1790781,12.9513369 C11.1205377,13.3728272 11.0619974,13.8411498 11.0151652,14.3211804 C10.9683329,14.801211 10.9332087,15.2695335 10.8980845,15.7027318 C10.8863765,15.913477 10.8746684,16.1242221 10.8629603,16.3115512 C10.8512523,16.5105882 10.8512523,16.6862092 10.8512523,16.8501221 C10.8395442,17.014035 10.8512523,17.1662398 10.8512523,17.3067366 C10.8512523,17.4472333 10.8512523,17.5643139 10.8512523,17.6579785 C10.8512523,17.8570155 10.8512523,17.9623881 10.8512523,17.9623881 C10.8512523,17.9623881 10.792712,17.8687236 10.6873394,17.7048107 C10.6405071,17.6228543 10.5819668,17.5174817 10.5234265,17.388693 C10.4648862,17.2599043 10.3946378,17.1194075 10.3360975,16.9554946 C10.2775572,16.7915818 10.2073088,16.6042527 10.1487685,16.4052157 C10.0902281,16.2061786 10.0433959,15.9837254 10.0082717,15.7495641 C9.91460719,15.2812416 9.89119107,14.7543787 9.93802332,14.2158078 Z" fill="#FFDEA3" opacity="0.17"></path>
                <path d="M36.1172533,27.3990873 C36.7143646,26.4858583 37.2178113,25.5960455 37.6510096,24.7530649 C37.7563822,24.5423198 37.8500467,24.3315747 37.9554193,24.1325376 C38.0022516,24.027165 38.0490838,23.9335005 38.0959161,23.8281279 C38.1427483,23.7227554 38.1778725,23.6290908 38.2247048,23.5354263 C38.3066612,23.3363893 38.4003257,23.1607683 38.4705741,22.9734393 C38.5408225,22.7861103 38.6110709,22.6104893 38.6813192,22.4465764 C38.821816,22.1070426 38.9154805,21.8026329 39.009145,21.5216394 C39.0559773,21.3811427 39.1028095,21.252354 39.1379337,21.1352733 C39.1730579,21.0181927 39.2081821,20.9128201 39.2315982,20.8074475 C39.3486789,20.4093734 39.4189272,20.1986282 39.4189272,20.1986282 C39.4189272,20.1986282 39.4189272,20.4210814 39.3955111,20.8425717 C39.3955111,20.9479443 39.383803,21.0650249 39.372095,21.1821056 C39.3603869,21.3108943 39.3486789,21.439683 39.3252627,21.5918878 C39.2901385,21.8845894 39.2550143,22.2241232 39.1730579,22.5870732 C39.1379337,22.7744022 39.1028095,22.9617312 39.0559773,23.1607683 C39.0208531,23.3598054 38.9506047,23.5588425 38.9037724,23.7812957 C38.8803563,23.8866682 38.8452321,23.9920408 38.8101079,24.1091215 C38.7866918,24.214494 38.7515676,24.3315747 38.7047354,24.4369472 C38.6227789,24.6594004 38.5525305,24.8818536 38.4705741,25.1160149 C38.1193322,26.0409519 37.6393016,27.0244293 37.0070662,27.9844905 C36.3748307,28.9445517 35.6489308,29.7758242 34.946447,30.4665999 C34.759118,30.6305128 34.583497,30.7944257 34.4078761,30.9583386 C34.3259196,31.040295 34.2322551,31.1105434 34.1502987,31.1807918 C34.0566342,31.2510402 33.9746777,31.3212886 33.8927213,31.391537 C33.7171003,31.5203257 33.5531874,31.6608224 33.3892745,31.777903 C33.2253616,31.8949837 33.0614488,32.0003563 32.9092439,32.1057288 C32.6048343,32.316474 32.3121327,32.4803869 32.0545553,32.6325917 C31.9257666,32.7028401 31.808686,32.7730884 31.7033134,32.8316288 C31.5862328,32.8901691 31.4925682,32.9370013 31.3989037,32.9838336 C31.0242457,33.1711626 30.8252086,33.2648271 30.8252086,33.2648271 C30.8252086,33.2648271 31.0008296,33.1126223 31.3052392,32.8433368 C31.3871957,32.7730884 31.4691521,32.7028401 31.5628166,32.6208836 C31.6564811,32.5389272 31.7501456,32.4452627 31.8672263,32.3515982 C32.0779714,32.1525611 32.3355488,31.9418159 32.5814181,31.6842385 C32.7102068,31.5554498 32.8507036,31.4266611 32.9912004,31.2861644 C33.1316971,31.1456676 33.2604858,30.9934628 33.4126907,30.841258 C33.482939,30.7593015 33.5531874,30.6890531 33.6351439,30.6070967 C33.7171003,30.5251403 33.7873487,30.4431838 33.8575971,30.3612274 C34.0098019,30.1973145 34.1502987,30.0216935 34.3142115,29.8343645 C34.8879067,29.1201726 35.5201421,28.3006082 36.1172533,27.3990873 Z" fill="#FFDEA3" opacity="0.17"></path>
                <path d="M0.150082226,19.9293428 C0.173498353,19.4610202 0.255454797,19.0278219 0.349119305,18.6297477 C0.454491877,18.2433816 0.571572512,17.8921397 0.688653147,17.6111462 C0.805733782,17.3301527 0.922814417,17.1076995 1.00477086,16.9672027 C1.08672731,16.8149979 1.14526762,16.7447495 1.14526762,16.7447495 C1.14526762,16.7447495 1.14526762,16.838414 1.13355956,17.014035 C1.1218515,17.1779479 1.11014343,17.4238172 1.09843537,17.7165188 C1.07501924,18.3019219 1.03989505,19.0980703 0.993062798,19.976175 C0.946230544,20.8425717 0.89939829,21.63872 0.8642741,22.2241232 C0.852566036,22.5168248 0.829149909,22.7626941 0.829149909,22.926607 C0.817441846,23.0905199 0.805733782,23.1958925 0.805733782,23.1958925 C0.805733782,23.1958925 0.758901528,23.1139361 0.688653147,22.9500232 C0.618404766,22.7978183 0.524740258,22.5636571 0.43107575,22.2709555 C0.337411242,21.9782539 0.255454797,21.627012 0.19691448,21.2289378 C0.161790289,20.8425717 0.126666099,20.3976653 0.150082226,19.9293428 Z" fill="#FFDEA3" opacity="0.17"></path>
            </g>
            <g transform="translate(49.236399, 11.978106)" fill="#F45506">
                <path d="M0,0.304054054 L5.90371622,0.304054054 C6.7652027,0.304054054 7.55067568,0.430743243 8.2347973,0.658783784 C8.91891892,0.912162162 9.50168919,1.24155405 9.95777027,1.6722973 C10.4391892,2.10304054 10.7939189,2.63513514 11.0472973,3.24324324 C11.3006757,3.85135135 11.4273649,4.53547297 11.4273649,5.27027027 L11.4273649,5.32094595 C11.4273649,6.15709459 11.2753378,6.89189189 10.9712838,7.52533784 C10.6672297,8.15878378 10.2618243,8.69087838 9.72972973,9.12162162 C9.19763514,9.55236486 8.58952703,9.85641892 7.88006757,10.0844595 C7.17060811,10.2871622 6.41047297,10.4138514 5.59966216,10.4138514 L3.19256757,10.4138514 L3.19256757,14.7466216 L0,14.7466216 L0,0.304054054 Z M5.70101351,7.60135135 C6.51182432,7.60135135 7.11993243,7.39864865 7.55067568,6.96790541 C7.98141892,6.53716216 8.20945946,6.03040541 8.20945946,5.39695946 L8.20945946,5.34628378 C8.20945946,4.63682432 7.98141892,4.07939189 7.52533784,3.72466216 C7.06925676,3.34459459 6.43581081,3.16722973 5.625,3.16722973 L3.19256757,3.16722973 L3.19256757,7.57601351 L5.70101351,7.57601351 L5.70101351,7.60135135 Z" id="Shape"></path>
                <path d="M19.9915541,0.202702703 L22.9307432,0.202702703 L29.1385135,14.7719595 L25.8192568,14.7719595 L24.5016892,11.5287162 L18.3952703,11.5287162 L17.0777027,14.7719595 L13.8344595,14.7719595 L19.9915541,0.202702703 Z M23.3361486,8.71621622 L21.410473,4.02871622 L19.4847973,8.71621622 L23.3361486,8.71621622 Z" id="Shape"></path>
                <polygon id="Path" points="32.5844595 0.304054054 35.5236486 0.304054054 42.2888514 9.19763514 42.2888514 0.304054054 45.4307432 0.304054054 45.4307432 14.7719595 42.7195946 14.7719595 35.7263514 5.57432432 35.7263514 14.7719595 32.5844595 14.7719595"></polygon>
                <path d="M57.1114865,15 C55.9712838,15 54.9577703,14.8226351 54.0202703,14.4425676 C53.0827703,14.0625 52.2972973,13.5557432 51.6131757,12.8969595 C50.9543919,12.2381757 50.4222973,11.4527027 50.0422297,10.5405405 C49.6621622,9.62837838 49.4847973,8.6402027 49.4847973,7.57601351 L49.4847973,7.52533784 C49.4847973,6.48648649 49.6621622,5.52364865 50.0422297,4.61148649 C50.4222973,3.69932432 50.9543919,2.91385135 51.6131757,2.22972973 C52.2972973,1.54560811 53.0827703,1.01351351 54.0202703,0.608108108 C54.9324324,0.228040541 55.9459459,0.0253378378 57.0608108,0.0253378378 C57.7195946,0.0253378378 58.3023649,0.0760135135 58.8344595,0.152027027 C59.3665541,0.253378378 59.847973,0.380067568 60.3040541,0.532094595 C60.7601351,0.709459459 61.1908784,0.912162162 61.5962838,1.1402027 C62.0016892,1.39358108 62.3817568,1.6722973 62.7618243,1.97635135 L60.7601351,4.38344595 C60.4814189,4.15540541 60.2027027,3.9527027 59.9239865,3.77533784 C59.6452703,3.59797297 59.3665541,3.44594595 59.0625,3.31925676 C58.7584459,3.19256757 58.4543919,3.09121622 58.0996622,3.04054054 C57.7449324,2.96452703 57.3648649,2.93918919 56.9594595,2.93918919 C56.3766892,2.93918919 55.8445946,3.06587838 55.3378378,3.29391892 C54.8310811,3.5472973 54.4003378,3.85135135 54.0202703,4.25675676 C53.6402027,4.66216216 53.3361486,5.14358108 53.1334459,5.67567568 C52.9307432,6.23310811 52.8040541,6.81587838 52.8040541,7.42398649 L52.8040541,7.47466216 C52.8040541,8.13344595 52.9054054,8.74155405 53.1334459,9.29898649 C53.3361486,9.85641892 53.6402027,10.3378378 54.0456081,10.7685811 C54.4256757,11.1739865 54.9070946,11.5033784 55.4391892,11.7314189 C55.9712838,11.9594595 56.5540541,12.0608108 57.2128378,12.0608108 C58.4037162,12.0608108 59.3918919,11.7820946 60.2027027,11.1993243 L60.2027027,9.12162162 L57.0101351,9.12162162 L57.0101351,6.38513514 L63.2939189,6.38513514 L63.2939189,12.6689189 C62.5591216,13.3023649 61.6722973,13.8344595 60.6334459,14.2905405 C59.5945946,14.7972973 58.4290541,15 57.1114865,15 Z" id="Path"></path>
                <path d="M74.5945946,15 C73.4797297,15 72.4408784,14.7972973 71.5287162,14.4172297 C70.5912162,14.0371622 69.7804054,13.5050676 69.0962838,12.8209459 C68.4121622,12.1621622 67.8800676,11.3766892 67.5,10.464527 C67.1199324,9.55236486 66.9425676,8.58952703 66.9425676,7.55067568 L66.9425676,7.5 C66.9425676,6.46114865 67.1452703,5.49831081 67.5253378,4.58614865 C67.9054054,3.67398649 68.4375,2.88851351 69.1216216,2.20439189 C69.8057432,1.52027027 70.6165541,0.988175676 71.5540541,0.58277027 C72.4915541,0.202702703 73.5304054,0 74.6452703,0 C75.7601351,0 76.7736486,0.202702703 77.7111486,0.58277027 C78.6486486,0.962837838 79.4594595,1.49493243 80.1435811,2.17905405 C80.8277027,2.83783784 81.3597973,3.62331081 81.7398649,4.53547297 C82.1199324,5.44763514 82.2972973,6.41047297 82.2972973,7.44932432 L82.2972973,7.5 C82.2972973,8.53885135 82.0945946,9.50168919 81.714527,10.4138514 C81.3344595,11.3260135 80.8023649,12.1114865 80.1182432,12.7956081 C79.4341216,13.4797297 78.6233108,14.0118243 77.6858108,14.4172297 C76.7483108,14.8226351 75.7094595,15 74.5945946,15 Z M74.6452703,12.0861486 C75.2787162,12.0861486 75.8614865,11.9594595 76.3935811,11.7314189 C76.9256757,11.5033784 77.3817568,11.1739865 77.7618243,10.7685811 C78.1418919,10.3631757 78.4459459,9.88175676 78.6486486,9.32432432 C78.8513514,8.79222973 78.9780405,8.20945946 78.9780405,7.57601351 L78.9780405,7.52533784 C78.9780405,6.91722973 78.8766892,6.30912162 78.6486486,5.77702703 C78.4459459,5.21959459 78.1418919,4.73817568 77.7364865,4.33277027 C77.3564189,3.92736486 76.875,3.59797297 76.3429054,3.34459459 C75.8108108,3.09121622 75.2280405,2.98986486 74.5945946,2.98986486 C73.9358108,2.98986486 73.3530405,3.11655405 72.8209459,3.34459459 C72.2888514,3.57263514 71.8327703,3.90202703 71.4527027,4.30743243 C71.0726351,4.71283784 70.7685811,5.19425676 70.5658784,5.75168919 C70.3631757,6.28378378 70.2364865,6.86655405 70.2364865,7.5 L70.2364865,7.55067568 C70.2364865,8.15878378 70.3378378,8.76689189 70.5658784,9.29898649 C70.7685811,9.85641892 71.0726351,10.3378378 71.4780405,10.7432432 C71.8581081,11.1486486 72.339527,11.4780405 72.8716216,11.7314189 C73.4037162,11.9594595 73.9864865,12.0861486 74.6452703,12.0861486 Z" id="Shape"></path>
                <polygon id="Path" points="86.3766892 0.304054054 89.5692568 0.304054054 89.5692568 11.8834459 96.7652027 11.8834459 96.7652027 14.7466216 86.3766892 14.7466216"></polygon>
                <polygon id="Path" points="100.540541 0.304054054 103.733108 0.304054054 103.733108 14.7719595 100.540541 14.7719595"></polygon>
                <polygon id="Path" points="108.572635 0.304054054 111.511824 0.304054054 118.277027 9.19763514 118.277027 0.304054054 121.418919 0.304054054 121.418919 14.7719595 118.70777 14.7719595 111.714527 5.57432432 111.714527 14.7719595 108.572635 14.7719595"></polygon>
            </g>
        </g>
    </g>
</svg>