<?xml version="1.0" encoding="UTF-8"?>
<svg width="275px" height="40px" viewBox="0 0 275 40" version="1.1" xmlns="http://www.w3.org/2000/svg" xmlns:xlink="http://www.w3.org/1999/xlink">
    <title>sekuritance</title>
    <g id="sekuritance" stroke="none" stroke-width="1" fill="none" fill-rule="evenodd">
        <g id="logo" transform="translate(0.000000, -0.000000)" fill-rule="nonzero">
            <g id="Group-2" transform="translate(26.428571, 20.000000) rotate(90.000000) translate(-26.428571, -20.000000) translate(6.428571, -6.428571)" fill="#1F2C73">
                <path d="M1.42857143,0 L38.5714286,0 C39.3604067,0 40,0.639593214 40,1.42857143 L40,7.14285714 C40,7.93183536 39.3604067,8.57142857 38.5714286,8.57142857 L10.4669699,8.57142857 C9.6779917,8.57142857 9.03839849,9.21102179 9.03839849,10 L9.03839849,38.5714286 C9.03839849,39.3604067 8.39880527,40 7.60982706,40 L1.42857143,40 C0.639593214,40 2.84217094e-14,39.3604067 2.84217094e-14,38.5714286 L2.84217094e-14,1.42857143 C2.84217094e-14,0.639593214 0.639593214,0 1.42857143,0 Z" id="Rectangle"></path>
                <path d="M1.42857143,12.8571429 L38.5714286,12.8571429 C39.3604067,12.8571429 40,13.4967361 40,14.2857143 L40,20 C40,20.7889781 39.3604067,21.4285714 38.5714286,21.4285714 L10.4669699,21.4285714 C9.6779917,21.4285714 9.03839849,22.0681647 9.03839849,22.8571429 L9.03839849,51.4285714 C9.03839849,52.2175496 8.39880527,52.8571429 7.60982706,52.8571429 L1.42857143,52.8571429 C0.639593214,52.8571429 2.84217094e-14,52.2175496 2.84217094e-14,51.4285714 L2.84217094e-14,14.2857143 C2.84217094e-14,13.4967361 0.639593214,12.8571429 1.42857143,12.8571429 Z" id="Rectangle-Copy" transform="translate(20.000000, 32.857143) rotate(180.000000) translate(-20.000000, -32.857143) "></path>
            </g>
            <g id="Sekuritance" transform="translate(64.128571, 4.062857)">
                <g id="path-1-link" fill="#000000">
                    <path d="M9.84285714,28.7485714 C11.1304762,28.7485714 12.3809524,28.5752381 13.5942857,28.2285714 C14.807619,27.8819047 15.8847619,27.3495239 16.8257143,26.6314286 C17.7666667,25.9133333 18.5157143,25.0033333 19.0728571,23.9014286 C19.63,22.7995239 19.9085714,21.4933333 19.9085714,19.9828571 C19.9085714,18.6704761 19.6485714,17.5747619 19.1285714,16.6957143 C18.6085714,15.8166667 17.952381,15.08 17.16,14.4857143 C16.367619,13.8914286 15.4885714,13.4147619 14.5228571,13.0557143 C13.5571429,12.6966667 12.6285714,12.3685714 11.7371429,12.0714286 C11.1180952,11.8733333 10.5609524,11.6814286 10.0657143,11.4957143 C9.57047619,11.31 9.14333333,11.1057143 8.78428571,10.8828571 C8.4252381,10.66 8.15285714,10.4 7.96714286,10.1028571 C7.78142857,9.80571429 7.68857143,9.43428571 7.68857143,8.98857143 C7.68857143,8.46857143 7.80619047,8.04142857 8.04142857,7.70714286 C8.27666667,7.37285714 8.56761904,7.10047614 8.91428571,6.89 C9.26095239,6.67952386 9.65095239,6.53714286 10.0842857,6.46285714 C10.517619,6.38857143 10.9447619,6.35142857 11.3657143,6.35142857 C12.1828571,6.35142857 13.0309524,6.55571429 13.91,6.96428571 C14.7890476,7.37285714 15.5009524,7.92380957 16.0457143,8.61714286 L16.0457143,8.61714286 L20.0942857,4.34571429 C18.9304761,3.28095239 17.5747619,2.47619047 16.0271429,1.93142857 C14.4795239,1.38666667 12.9628571,1.11428571 11.4771429,1.11428571 C10.2390476,1.11428571 9.01333333,1.26904761 7.8,1.57857143 C6.58666667,1.88809524 5.49714286,2.37714286 4.53142857,3.04571429 C3.56571429,3.71428571 2.78571429,4.56857143 2.19142857,5.60857143 C1.59714286,6.64857143 1.3,7.89904757 1.3,9.36 C1.3,10.5485714 1.49190476,11.557619 1.87571429,12.3871429 C2.25952381,13.2166667 2.76714286,13.922381 3.39857143,14.5042857 C4.03,15.0861904 4.74809524,15.5628571 5.55285714,15.9342857 C6.35761904,16.3057143 7.18095239,16.627619 8.02285714,16.9 C8.88952381,17.172381 9.66333333,17.4261904 10.3442857,17.6614286 C11.0252381,17.8966667 11.5947619,18.1566667 12.0528571,18.4414286 C12.5109524,18.7261904 12.8638095,19.0419047 13.1114286,19.3885714 C13.3590476,19.7352381 13.4828571,20.1561904 13.4828571,20.6514286 C13.4828571,21.1714286 13.3838095,21.6171429 13.1857143,21.9885714 C12.987619,22.36 12.7214286,22.6571429 12.3871429,22.88 C12.0528571,23.1028571 11.6628571,23.2638096 11.2171429,23.3628571 C10.7714286,23.4619047 10.3133333,23.5114286 9.84285714,23.5114286 C8.80285714,23.5114286 7.75666667,23.2452381 6.70428571,22.7128571 C5.65190476,22.1804761 4.80380953,21.5180953 4.16,20.7257143 L4.16,20.7257143 L0,24.96 C1.16380953,26.1733333 2.6247619,27.1080953 4.38285714,27.7642857 C6.14095239,28.4204761 7.96095239,28.7485714 9.84285714,28.7485714 Z M33.02,28.6742857 C34.9019047,28.6742857 36.5547619,28.3338096 37.9785714,27.6528571 C39.402381,26.9719047 40.547619,26 41.4142857,24.7371429 L41.4142857,24.7371429 L37.18,22.0628571 C36.7590476,22.632381 36.2142857,23.0966667 35.5457143,23.4557143 C34.8771429,23.8147619 34.06,23.9942857 33.0942857,23.9942857 C32.5495239,23.9942857 32.0233333,23.907619 31.5157143,23.7342857 C31.0080953,23.5609524 30.55,23.3195239 30.1414286,23.01 C29.7328571,22.7004761 29.3985714,22.3352381 29.1385714,21.9142857 C28.8785714,21.4933333 28.7238096,21.0228571 28.6742857,20.5028571 L28.6742857,20.5028571 L42.0828571,20.5028571 C42.107619,20.28 42.12,20.0447619 42.12,19.7971429 L42.12,19.7971429 L42.12,19.0542857 C42.12,17.4695239 41.8909524,16.0580953 41.4328571,14.82 C40.9747619,13.5819047 40.3371429,12.5295239 39.52,11.6628571 C38.7028571,10.7961904 37.7247619,10.1338096 36.5857143,9.67571429 C35.4466667,9.217619 34.1961904,8.98857143 32.8342857,8.98857143 C31.4228571,8.98857143 30.1104761,9.22380957 28.8971429,9.69428571 C27.6838096,10.1647619 26.6314286,10.8271429 25.74,11.6814286 C24.8485714,12.5357143 24.1428571,13.5757143 23.6228571,14.8014286 C23.1028571,16.0271429 22.8428571,17.3952381 22.8428571,18.9057143 C22.8428571,20.4657143 23.1090476,21.852381 23.6414286,23.0657143 C24.1738096,24.2790476 24.9042857,25.3004761 25.8328571,26.13 C26.7614286,26.9595239 27.8447619,27.5909524 29.0828571,28.0242857 C30.3209524,28.457619 31.6333333,28.6742857 33.02,28.6742857 Z M36.5114286,16.7142857 L28.6742857,16.7142857 C28.6990476,16.2438096 28.8228571,15.7919047 29.0457143,15.3585714 C29.2685714,14.9252381 29.5657143,14.547619 29.9371429,14.2257143 C30.3085714,13.9038096 30.7419047,13.65 31.2371429,13.4642857 C31.732381,13.2785714 32.2771429,13.1857143 32.8714286,13.1857143 C34.0847619,13.1857143 34.9947619,13.532381 35.6014286,14.2257143 C36.2080953,14.9190476 36.5114286,15.7485714 36.5114286,16.7142857 L36.5114286,16.7142857 Z M52.0742857,28.08 L52.0742857,19.2028571 L52.1857143,19.2028571 L58.24,28.08 L65.78,28.08 L58.3514286,17.94 L65.4828571,9.58285714 L58.0914286,9.58285714 L52.1857143,17.0857143 L52.0742857,17.0857143 L52.0742857,1.77635684e-15 L45.9457143,1.77635684e-15 L45.9457143,28.08 L52.0742857,28.08 Z M74.1,28.6 C74.7438096,28.6 75.3566667,28.5133333 75.9385714,28.34 C76.5204761,28.1666667 77.0528571,27.9438096 77.5357143,27.6714286 C78.0185714,27.3990476 78.4395239,27.0771429 78.7985714,26.7057143 C79.157619,26.3342857 79.4485714,25.9380953 79.6714286,25.5171429 L79.6714286,25.5171429 L79.7457143,25.5171429 L79.7457143,28.08 L85.6142857,28.08 L85.6142857,9.58285714 L79.5228571,9.58285714 L79.5228571,19.5742857 C79.5228571,20.6390476 79.2442857,21.567619 78.6871429,22.36 C78.13,23.152381 77.3190476,23.5485714 76.2542857,23.5485714 C75.6847619,23.5485714 75.2266667,23.4433333 74.88,23.2328571 C74.5333333,23.022381 74.2547619,22.7314286 74.0442857,22.36 C73.8338096,21.9885714 73.6914286,21.567619 73.6171429,21.0971429 C73.5428571,20.6266667 73.5057143,20.1314286 73.5057143,19.6114286 L73.5057143,19.6114286 L73.5057143,9.58285714 L67.3771429,9.58285714 L67.3771429,21.0228571 C67.3771429,21.9638096 67.4947619,22.8861904 67.73,23.79 C67.9652381,24.6938096 68.3490476,25.4985714 68.8814286,26.2042857 C69.4138096,26.91 70.1071429,27.4857143 70.9614286,27.9314286 C71.8157143,28.3771429 72.8619047,28.6 74.1,28.6 Z M96.46,28.08 L96.46,18.5714286 C96.46,18.2 96.5342857,17.7666667 96.6828571,17.2714286 C96.8314286,16.7761904 97.0728571,16.3180953 97.4071429,15.8971429 C97.7414286,15.4761904 98.1871429,15.1171429 98.7442857,14.82 C99.3014286,14.5228571 99.9885714,14.3742857 100.805714,14.3742857 C101.053333,14.3742857 101.307143,14.3866667 101.567143,14.4114286 C101.827143,14.4361904 102.093333,14.4857143 102.365714,14.56 L102.365714,14.56 L102.625714,9.21142857 C102.477143,9.16190471 102.285238,9.12476186 102.05,9.1 C101.814762,9.07523814 101.573333,9.06285714 101.325714,9.06285714 C100.186667,9.06285714 99.1838096,9.36 98.3171429,9.95428571 C97.4504761,10.5485714 96.7819047,11.3161904 96.3114286,12.2571429 L96.3114286,12.2571429 L96.2371429,12.2571429 L96.2371429,9.58285714 L90.3685714,9.58285714 L90.3685714,28.08 L96.46,28.08 Z M108.197143,7.02 C108.667619,7.02 109.119524,6.93333329 109.552857,6.76 C109.98619,6.58666671 110.357619,6.35142857 110.667143,6.05428571 C110.976667,5.75714286 111.224286,5.40428571 111.41,4.99571429 C111.595714,4.58714286 111.688571,4.14761904 111.688571,3.67714286 C111.688571,3.20666667 111.595714,2.76714286 111.41,2.35857143 C111.224286,1.95 110.976667,1.59714286 110.667143,1.3 C110.357619,1.00285714 109.98619,0.767619043 109.552857,0.594285714 C109.119524,0.420952386 108.667619,0.334285714 108.197143,0.334285714 C107.701905,0.334285714 107.24381,0.427142857 106.822857,0.612857143 C106.401905,0.798571429 106.030476,1.04 105.708571,1.33714286 C105.386667,1.63428571 105.139048,1.98714286 104.965714,2.39571429 C104.792381,2.80428571 104.705714,3.23142857 104.705714,3.67714286 C104.705714,4.59333333 105.04,5.37952386 105.708571,6.03571429 C106.377143,6.69190471 107.206667,7.02 108.197143,7.02 Z M111.242857,28.08 L111.242857,9.58285714 L105.151429,9.58285714 L105.151429,28.08 L111.242857,28.08 Z M123.314286,28.5257143 C123.958095,28.5257143 124.601905,28.47 125.245714,28.3585714 C125.889524,28.2471429 126.421905,28.1171429 126.842857,27.9685714 L126.842857,27.9685714 L126.768571,23.5114286 C126.545714,23.6104761 126.267143,23.6847619 125.932857,23.7342857 C125.598571,23.7838096 125.282857,23.8085714 124.985714,23.8085714 C124.119048,23.8085714 123.518571,23.5919047 123.184286,23.1585714 C122.85,22.7252381 122.682857,22.0752381 122.682857,21.2085714 L122.682857,21.2085714 L122.682857,14.1514286 L127.028571,14.1514286 L127.028571,9.58285714 L122.682857,9.58285714 L122.682857,4.71714286 L116.702857,4.71714286 L116.702857,9.58285714 L113.768571,9.58285714 L113.768571,14.1514286 L116.74,14.1514286 L116.74,21.9514286 C116.74,22.9419047 116.851429,23.8395239 117.074286,24.6442857 C117.297143,25.4490476 117.662381,26.142381 118.17,26.7242857 C118.677619,27.3061904 119.352381,27.7519047 120.194286,28.0614286 C121.03619,28.3709524 122.07619,28.5257143 123.314286,28.5257143 Z M135.46,28.5257143 C136.574286,28.5257143 137.608095,28.3152381 138.561429,27.8942857 C139.514762,27.4733333 140.226667,26.8790476 140.697143,26.1114286 L140.697143,26.1114286 L140.808571,26.1114286 L140.808571,28.08 L146.38,28.08 L146.38,18.7571429 C146.38,17.0733333 146.225239,15.6185714 145.915714,14.3928571 C145.60619,13.1671429 145.117143,12.1519047 144.448571,11.3471429 C143.78,10.542381 142.907143,9.94809529 141.83,9.56428571 C140.752857,9.18047614 139.434286,8.98857143 137.874286,8.98857143 C136.36381,8.98857143 134.884286,9.24857143 133.435714,9.76857143 C131.987143,10.2885714 130.718095,11.0685714 129.628571,12.1085714 L129.628571,12.1085714 L132.711429,15.4142857 C133.280952,14.8942857 133.968095,14.4485714 134.772857,14.0771429 C135.577619,13.7057143 136.413333,13.52 137.28,13.52 C138.220952,13.52 139.013333,13.7366667 139.657143,14.17 C140.300952,14.6033333 140.622857,15.2780953 140.622857,16.1942857 L140.622857,16.1942857 L140.622857,16.4914286 C139.285714,16.4914286 137.911429,16.5657143 136.5,16.7142857 C135.088571,16.8628571 133.807143,17.16 132.655714,17.6057143 C131.504286,18.0514286 130.563333,18.6828571 129.832857,19.5 C129.102381,20.3171429 128.737143,21.3942857 128.737143,22.7314286 C128.737143,23.8209524 128.947619,24.7371429 129.368571,25.48 C129.789524,26.2228571 130.328095,26.8171429 130.984286,27.2628571 C131.640476,27.7085714 132.364762,28.0304761 133.157143,28.2285714 C133.949524,28.4266667 134.717143,28.5257143 135.46,28.5257143 Z M136.982857,24.44 C136.685714,24.44 136.37619,24.4090476 136.054286,24.3471429 C135.732381,24.2852381 135.447619,24.18 135.2,24.0314286 C134.952381,23.8828571 134.748095,23.6847619 134.587143,23.4371429 C134.42619,23.1895239 134.345714,22.892381 134.345714,22.5457143 C134.345714,22.0009524 134.519048,21.5614286 134.865714,21.2271429 C135.212381,20.8928571 135.651905,20.6390476 136.184286,20.4657143 C136.716667,20.292381 137.323333,20.1747619 138.004286,20.1128571 C138.685238,20.0509524 139.36,20.02 140.028571,20.02 L140.028571,20.02 L140.808571,20.02 L140.808571,20.6514286 C140.808571,21.8152381 140.480476,22.737619 139.824286,23.4185714 C139.168095,24.0995239 138.220952,24.44 136.982857,24.44 Z M157.04,28.08 L157.04,18.0514286 C157.04,17.5314286 157.108096,17.03 157.244286,16.5471429 C157.380476,16.0642857 157.584761,15.6371429 157.857143,15.2657143 C158.129524,14.8942857 158.47,14.6033333 158.878571,14.3928571 C159.287143,14.182381 159.76381,14.0771429 160.308571,14.0771429 C160.853333,14.0771429 161.305239,14.182381 161.664286,14.3928571 C162.023333,14.6033333 162.301904,14.8880953 162.5,15.2471429 C162.698096,15.6061904 162.840476,16.0209524 162.927143,16.4914286 C163.01381,16.9619047 163.057143,17.4571429 163.057143,17.9771429 L163.057143,17.9771429 L163.057143,28.08 L169.185714,28.08 L169.185714,16.64 C169.185714,15.7238096 169.068096,14.807619 168.832857,13.8914286 C168.597619,12.9752381 168.21381,12.1642857 167.681429,11.4585714 C167.149047,10.7528571 166.449524,10.1771429 165.582857,9.73142857 C164.71619,9.28571429 163.66381,9.06285714 162.425714,9.06285714 C161.781904,9.06285714 161.175239,9.14952386 160.605714,9.32285714 C160.03619,9.49619043 159.51,9.71904757 159.027143,9.99142857 C158.544286,10.2638096 158.123333,10.5919047 157.764286,10.9757143 C157.405239,11.3595239 157.114286,11.7495239 156.891429,12.1457143 L156.891429,12.1457143 L156.817143,12.1457143 L156.817143,9.58285714 L150.911429,9.58285714 L150.911429,28.08 L157.04,28.08 Z M183.225714,28.6742857 C184.587619,28.6742857 185.875239,28.4638096 187.088571,28.0428571 C188.301904,27.6219047 189.292381,27.04 190.06,26.2971429 L190.06,26.2971429 L186.68,22.1742857 C186.308571,22.62 185.819524,22.9604761 185.212857,23.1957143 C184.60619,23.4309524 183.993333,23.5485714 183.374286,23.5485714 C182.705714,23.5485714 182.105239,23.4247619 181.572857,23.1771429 C181.040476,22.9295239 180.582381,22.5890476 180.198571,22.1557143 C179.814761,21.722381 179.52381,21.2209524 179.325714,20.6514286 C179.127619,20.0819047 179.028571,19.4752381 179.028571,18.8314286 C179.028571,18.187619 179.13381,17.5809524 179.344286,17.0114286 C179.554761,16.4419047 179.845714,15.9404761 180.217143,15.5071429 C180.588571,15.0738096 181.034286,14.7271429 181.554286,14.4671429 C182.074286,14.2071429 182.65619,14.0771429 183.3,14.0771429 C183.919047,14.0771429 184.525714,14.2133333 185.12,14.4857143 C185.714286,14.7580953 186.184761,15.1171429 186.531429,15.5628571 L186.531429,15.5628571 L190.06,11.4771429 C189.688571,11.1057143 189.249047,10.7652381 188.741429,10.4557143 C188.23381,10.1461904 187.676667,9.88619043 187.07,9.67571429 C186.463333,9.46523814 185.831904,9.29809529 185.175714,9.17428571 C184.519524,9.05047614 183.857143,8.98857143 183.188571,8.98857143 C181.752381,8.98857143 180.402857,9.217619 179.14,9.67571429 C177.877143,10.1338096 176.781429,10.79 175.852857,11.6442857 C174.924286,12.4985714 174.19381,13.532381 173.661429,14.7457143 C173.129047,15.9590476 172.862857,17.3209524 172.862857,18.8314286 C172.862857,20.3666667 173.129047,21.7409524 173.661429,22.9542857 C174.19381,24.167619 174.924286,25.2014286 175.852857,26.0557143 C176.781429,26.91 177.877143,27.56 179.14,28.0057143 C180.402857,28.4514286 181.764761,28.6742857 183.225714,28.6742857 Z M201.722857,28.6742857 C203.604761,28.6742857 205.257619,28.3338096 206.681429,27.6528571 C208.105239,26.9719047 209.250476,26 210.117143,24.7371429 L210.117143,24.7371429 L205.882857,22.0628571 C205.461904,22.632381 204.917143,23.0966667 204.248571,23.4557143 C203.58,23.8147619 202.762857,23.9942857 201.797143,23.9942857 C201.252381,23.9942857 200.72619,23.907619 200.218571,23.7342857 C199.710953,23.5609524 199.252857,23.3195239 198.844286,23.01 C198.435714,22.7004761 198.101429,22.3352381 197.841429,21.9142857 C197.581429,21.4933333 197.426667,21.0228571 197.377143,20.5028571 L197.377143,20.5028571 L210.785714,20.5028571 C210.810476,20.28 210.822857,20.0447619 210.822857,19.7971429 L210.822857,19.7971429 L210.822857,19.0542857 C210.822857,17.4695239 210.59381,16.0580953 210.135714,14.82 C209.677619,13.5819047 209.04,12.5295239 208.222857,11.6628571 C207.405714,10.7961904 206.427619,10.1338096 205.288571,9.67571429 C204.149524,9.217619 202.899047,8.98857143 201.537143,8.98857143 C200.125714,8.98857143 198.813333,9.22380957 197.6,9.69428571 C196.386667,10.1647619 195.334286,10.8271429 194.442857,11.6814286 C193.551429,12.5357143 192.845714,13.5757143 192.325714,14.8014286 C191.805714,16.0271429 191.545714,17.3952381 191.545714,18.9057143 C191.545714,20.4657143 191.811904,21.852381 192.344286,23.0657143 C192.876667,24.2790476 193.607143,25.3004761 194.535714,26.13 C195.464286,26.9595239 196.547619,27.5909524 197.785714,28.0242857 C199.02381,28.457619 200.33619,28.6742857 201.722857,28.6742857 Z M205.214286,16.7142857 L197.377143,16.7142857 C197.401904,16.2438096 197.525714,15.7919047 197.748571,15.3585714 C197.971429,14.9252381 198.268571,14.547619 198.64,14.2257143 C199.011429,13.9038096 199.444761,13.65 199.94,13.4642857 C200.435239,13.2785714 200.98,13.1857143 201.574286,13.1857143 C202.787619,13.1857143 203.697619,13.532381 204.304286,14.2257143 C204.910953,14.9190476 205.214286,15.7485714 205.214286,16.7142857 L205.214286,16.7142857 Z" id="path-1"></path>
                </g>
                <g id="path-1-link" fill="#1F2C73">
                    <path d="M9.84285714,28.7485714 C11.1304762,28.7485714 12.3809524,28.5752381 13.5942857,28.2285714 C14.807619,27.8819047 15.8847619,27.3495239 16.8257143,26.6314286 C17.7666667,25.9133333 18.5157143,25.0033333 19.0728571,23.9014286 C19.63,22.7995239 19.9085714,21.4933333 19.9085714,19.9828571 C19.9085714,18.6704761 19.6485714,17.5747619 19.1285714,16.6957143 C18.6085714,15.8166667 17.952381,15.08 17.16,14.4857143 C16.367619,13.8914286 15.4885714,13.4147619 14.5228571,13.0557143 C13.5571429,12.6966667 12.6285714,12.3685714 11.7371429,12.0714286 C11.1180952,11.8733333 10.5609524,11.6814286 10.0657143,11.4957143 C9.57047619,11.31 9.14333333,11.1057143 8.78428571,10.8828571 C8.4252381,10.66 8.15285714,10.4 7.96714286,10.1028571 C7.78142857,9.80571429 7.68857143,9.43428571 7.68857143,8.98857143 C7.68857143,8.46857143 7.80619047,8.04142857 8.04142857,7.70714286 C8.27666667,7.37285714 8.56761904,7.10047614 8.91428571,6.89 C9.26095239,6.67952386 9.65095239,6.53714286 10.0842857,6.46285714 C10.517619,6.38857143 10.9447619,6.35142857 11.3657143,6.35142857 C12.1828571,6.35142857 13.0309524,6.55571429 13.91,6.96428571 C14.7890476,7.37285714 15.5009524,7.92380957 16.0457143,8.61714286 L16.0457143,8.61714286 L20.0942857,4.34571429 C18.9304761,3.28095239 17.5747619,2.47619047 16.0271429,1.93142857 C14.4795239,1.38666667 12.9628571,1.11428571 11.4771429,1.11428571 C10.2390476,1.11428571 9.01333333,1.26904761 7.8,1.57857143 C6.58666667,1.88809524 5.49714286,2.37714286 4.53142857,3.04571429 C3.56571429,3.71428571 2.78571429,4.56857143 2.19142857,5.60857143 C1.59714286,6.64857143 1.3,7.89904757 1.3,9.36 C1.3,10.5485714 1.49190476,11.557619 1.87571429,12.3871429 C2.25952381,13.2166667 2.76714286,13.922381 3.39857143,14.5042857 C4.03,15.0861904 4.74809524,15.5628571 5.55285714,15.9342857 C6.35761904,16.3057143 7.18095239,16.627619 8.02285714,16.9 C8.88952381,17.172381 9.66333333,17.4261904 10.3442857,17.6614286 C11.0252381,17.8966667 11.5947619,18.1566667 12.0528571,18.4414286 C12.5109524,18.7261904 12.8638095,19.0419047 13.1114286,19.3885714 C13.3590476,19.7352381 13.4828571,20.1561904 13.4828571,20.6514286 C13.4828571,21.1714286 13.3838095,21.6171429 13.1857143,21.9885714 C12.987619,22.36 12.7214286,22.6571429 12.3871429,22.88 C12.0528571,23.1028571 11.6628571,23.2638096 11.2171429,23.3628571 C10.7714286,23.4619047 10.3133333,23.5114286 9.84285714,23.5114286 C8.80285714,23.5114286 7.75666667,23.2452381 6.70428571,22.7128571 C5.65190476,22.1804761 4.80380953,21.5180953 4.16,20.7257143 L4.16,20.7257143 L0,24.96 C1.16380953,26.1733333 2.6247619,27.1080953 4.38285714,27.7642857 C6.14095239,28.4204761 7.96095239,28.7485714 9.84285714,28.7485714 Z M33.02,28.6742857 C34.9019047,28.6742857 36.5547619,28.3338096 37.9785714,27.6528571 C39.402381,26.9719047 40.547619,26 41.4142857,24.7371429 L41.4142857,24.7371429 L37.18,22.0628571 C36.7590476,22.632381 36.2142857,23.0966667 35.5457143,23.4557143 C34.8771429,23.8147619 34.06,23.9942857 33.0942857,23.9942857 C32.5495239,23.9942857 32.0233333,23.907619 31.5157143,23.7342857 C31.0080953,23.5609524 30.55,23.3195239 30.1414286,23.01 C29.7328571,22.7004761 29.3985714,22.3352381 29.1385714,21.9142857 C28.8785714,21.4933333 28.7238096,21.0228571 28.6742857,20.5028571 L28.6742857,20.5028571 L42.0828571,20.5028571 C42.107619,20.28 42.12,20.0447619 42.12,19.7971429 L42.12,19.7971429 L42.12,19.0542857 C42.12,17.4695239 41.8909524,16.0580953 41.4328571,14.82 C40.9747619,13.5819047 40.3371429,12.5295239 39.52,11.6628571 C38.7028571,10.7961904 37.7247619,10.1338096 36.5857143,9.67571429 C35.4466667,9.217619 34.1961904,8.98857143 32.8342857,8.98857143 C31.4228571,8.98857143 30.1104761,9.22380957 28.8971429,9.69428571 C27.6838096,10.1647619 26.6314286,10.8271429 25.74,11.6814286 C24.8485714,12.5357143 24.1428571,13.5757143 23.6228571,14.8014286 C23.1028571,16.0271429 22.8428571,17.3952381 22.8428571,18.9057143 C22.8428571,20.4657143 23.1090476,21.852381 23.6414286,23.0657143 C24.1738096,24.2790476 24.9042857,25.3004761 25.8328571,26.13 C26.7614286,26.9595239 27.8447619,27.5909524 29.0828571,28.0242857 C30.3209524,28.457619 31.6333333,28.6742857 33.02,28.6742857 Z M36.5114286,16.7142857 L28.6742857,16.7142857 C28.6990476,16.2438096 28.8228571,15.7919047 29.0457143,15.3585714 C29.2685714,14.9252381 29.5657143,14.547619 29.9371429,14.2257143 C30.3085714,13.9038096 30.7419047,13.65 31.2371429,13.4642857 C31.732381,13.2785714 32.2771429,13.1857143 32.8714286,13.1857143 C34.0847619,13.1857143 34.9947619,13.532381 35.6014286,14.2257143 C36.2080953,14.9190476 36.5114286,15.7485714 36.5114286,16.7142857 L36.5114286,16.7142857 Z M52.0742857,28.08 L52.0742857,19.2028571 L52.1857143,19.2028571 L58.24,28.08 L65.78,28.08 L58.3514286,17.94 L65.4828571,9.58285714 L58.0914286,9.58285714 L52.1857143,17.0857143 L52.0742857,17.0857143 L52.0742857,1.77635684e-15 L45.9457143,1.77635684e-15 L45.9457143,28.08 L52.0742857,28.08 Z M74.1,28.6 C74.7438096,28.6 75.3566667,28.5133333 75.9385714,28.34 C76.5204761,28.1666667 77.0528571,27.9438096 77.5357143,27.6714286 C78.0185714,27.3990476 78.4395239,27.0771429 78.7985714,26.7057143 C79.157619,26.3342857 79.4485714,25.9380953 79.6714286,25.5171429 L79.6714286,25.5171429 L79.7457143,25.5171429 L79.7457143,28.08 L85.6142857,28.08 L85.6142857,9.58285714 L79.5228571,9.58285714 L79.5228571,19.5742857 C79.5228571,20.6390476 79.2442857,21.567619 78.6871429,22.36 C78.13,23.152381 77.3190476,23.5485714 76.2542857,23.5485714 C75.6847619,23.5485714 75.2266667,23.4433333 74.88,23.2328571 C74.5333333,23.022381 74.2547619,22.7314286 74.0442857,22.36 C73.8338096,21.9885714 73.6914286,21.567619 73.6171429,21.0971429 C73.5428571,20.6266667 73.5057143,20.1314286 73.5057143,19.6114286 L73.5057143,19.6114286 L73.5057143,9.58285714 L67.3771429,9.58285714 L67.3771429,21.0228571 C67.3771429,21.9638096 67.4947619,22.8861904 67.73,23.79 C67.9652381,24.6938096 68.3490476,25.4985714 68.8814286,26.2042857 C69.4138096,26.91 70.1071429,27.4857143 70.9614286,27.9314286 C71.8157143,28.3771429 72.8619047,28.6 74.1,28.6 Z M96.46,28.08 L96.46,18.5714286 C96.46,18.2 96.5342857,17.7666667 96.6828571,17.2714286 C96.8314286,16.7761904 97.0728571,16.3180953 97.4071429,15.8971429 C97.7414286,15.4761904 98.1871429,15.1171429 98.7442857,14.82 C99.3014286,14.5228571 99.9885714,14.3742857 100.805714,14.3742857 C101.053333,14.3742857 101.307143,14.3866667 101.567143,14.4114286 C101.827143,14.4361904 102.093333,14.4857143 102.365714,14.56 L102.365714,14.56 L102.625714,9.21142857 C102.477143,9.16190471 102.285238,9.12476186 102.05,9.1 C101.814762,9.07523814 101.573333,9.06285714 101.325714,9.06285714 C100.186667,9.06285714 99.1838096,9.36 98.3171429,9.95428571 C97.4504761,10.5485714 96.7819047,11.3161904 96.3114286,12.2571429 L96.3114286,12.2571429 L96.2371429,12.2571429 L96.2371429,9.58285714 L90.3685714,9.58285714 L90.3685714,28.08 L96.46,28.08 Z M108.197143,7.02 C108.667619,7.02 109.119524,6.93333329 109.552857,6.76 C109.98619,6.58666671 110.357619,6.35142857 110.667143,6.05428571 C110.976667,5.75714286 111.224286,5.40428571 111.41,4.99571429 C111.595714,4.58714286 111.688571,4.14761904 111.688571,3.67714286 C111.688571,3.20666667 111.595714,2.76714286 111.41,2.35857143 C111.224286,1.95 110.976667,1.59714286 110.667143,1.3 C110.357619,1.00285714 109.98619,0.767619043 109.552857,0.594285714 C109.119524,0.420952386 108.667619,0.334285714 108.197143,0.334285714 C107.701905,0.334285714 107.24381,0.427142857 106.822857,0.612857143 C106.401905,0.798571429 106.030476,1.04 105.708571,1.33714286 C105.386667,1.63428571 105.139048,1.98714286 104.965714,2.39571429 C104.792381,2.80428571 104.705714,3.23142857 104.705714,3.67714286 C104.705714,4.59333333 105.04,5.37952386 105.708571,6.03571429 C106.377143,6.69190471 107.206667,7.02 108.197143,7.02 Z M111.242857,28.08 L111.242857,9.58285714 L105.151429,9.58285714 L105.151429,28.08 L111.242857,28.08 Z M123.314286,28.5257143 C123.958095,28.5257143 124.601905,28.47 125.245714,28.3585714 C125.889524,28.2471429 126.421905,28.1171429 126.842857,27.9685714 L126.842857,27.9685714 L126.768571,23.5114286 C126.545714,23.6104761 126.267143,23.6847619 125.932857,23.7342857 C125.598571,23.7838096 125.282857,23.8085714 124.985714,23.8085714 C124.119048,23.8085714 123.518571,23.5919047 123.184286,23.1585714 C122.85,22.7252381 122.682857,22.0752381 122.682857,21.2085714 L122.682857,21.2085714 L122.682857,14.1514286 L127.028571,14.1514286 L127.028571,9.58285714 L122.682857,9.58285714 L122.682857,4.71714286 L116.702857,4.71714286 L116.702857,9.58285714 L113.768571,9.58285714 L113.768571,14.1514286 L116.74,14.1514286 L116.74,21.9514286 C116.74,22.9419047 116.851429,23.8395239 117.074286,24.6442857 C117.297143,25.4490476 117.662381,26.142381 118.17,26.7242857 C118.677619,27.3061904 119.352381,27.7519047 120.194286,28.0614286 C121.03619,28.3709524 122.07619,28.5257143 123.314286,28.5257143 Z M135.46,28.5257143 C136.574286,28.5257143 137.608095,28.3152381 138.561429,27.8942857 C139.514762,27.4733333 140.226667,26.8790476 140.697143,26.1114286 L140.697143,26.1114286 L140.808571,26.1114286 L140.808571,28.08 L146.38,28.08 L146.38,18.7571429 C146.38,17.0733333 146.225239,15.6185714 145.915714,14.3928571 C145.60619,13.1671429 145.117143,12.1519047 144.448571,11.3471429 C143.78,10.542381 142.907143,9.94809529 141.83,9.56428571 C140.752857,9.18047614 139.434286,8.98857143 137.874286,8.98857143 C136.36381,8.98857143 134.884286,9.24857143 133.435714,9.76857143 C131.987143,10.2885714 130.718095,11.0685714 129.628571,12.1085714 L129.628571,12.1085714 L132.711429,15.4142857 C133.280952,14.8942857 133.968095,14.4485714 134.772857,14.0771429 C135.577619,13.7057143 136.413333,13.52 137.28,13.52 C138.220952,13.52 139.013333,13.7366667 139.657143,14.17 C140.300952,14.6033333 140.622857,15.2780953 140.622857,16.1942857 L140.622857,16.1942857 L140.622857,16.4914286 C139.285714,16.4914286 137.911429,16.5657143 136.5,16.7142857 C135.088571,16.8628571 133.807143,17.16 132.655714,17.6057143 C131.504286,18.0514286 130.563333,18.6828571 129.832857,19.5 C129.102381,20.3171429 128.737143,21.3942857 128.737143,22.7314286 C128.737143,23.8209524 128.947619,24.7371429 129.368571,25.48 C129.789524,26.2228571 130.328095,26.8171429 130.984286,27.2628571 C131.640476,27.7085714 132.364762,28.0304761 133.157143,28.2285714 C133.949524,28.4266667 134.717143,28.5257143 135.46,28.5257143 Z M136.982857,24.44 C136.685714,24.44 136.37619,24.4090476 136.054286,24.3471429 C135.732381,24.2852381 135.447619,24.18 135.2,24.0314286 C134.952381,23.8828571 134.748095,23.6847619 134.587143,23.4371429 C134.42619,23.1895239 134.345714,22.892381 134.345714,22.5457143 C134.345714,22.0009524 134.519048,21.5614286 134.865714,21.2271429 C135.212381,20.8928571 135.651905,20.6390476 136.184286,20.4657143 C136.716667,20.292381 137.323333,20.1747619 138.004286,20.1128571 C138.685238,20.0509524 139.36,20.02 140.028571,20.02 L140.028571,20.02 L140.808571,20.02 L140.808571,20.6514286 C140.808571,21.8152381 140.480476,22.737619 139.824286,23.4185714 C139.168095,24.0995239 138.220952,24.44 136.982857,24.44 Z M157.04,28.08 L157.04,18.0514286 C157.04,17.5314286 157.108096,17.03 157.244286,16.5471429 C157.380476,16.0642857 157.584761,15.6371429 157.857143,15.2657143 C158.129524,14.8942857 158.47,14.6033333 158.878571,14.3928571 C159.287143,14.182381 159.76381,14.0771429 160.308571,14.0771429 C160.853333,14.0771429 161.305239,14.182381 161.664286,14.3928571 C162.023333,14.6033333 162.301904,14.8880953 162.5,15.2471429 C162.698096,15.6061904 162.840476,16.0209524 162.927143,16.4914286 C163.01381,16.9619047 163.057143,17.4571429 163.057143,17.9771429 L163.057143,17.9771429 L163.057143,28.08 L169.185714,28.08 L169.185714,16.64 C169.185714,15.7238096 169.068096,14.807619 168.832857,13.8914286 C168.597619,12.9752381 168.21381,12.1642857 167.681429,11.4585714 C167.149047,10.7528571 166.449524,10.1771429 165.582857,9.73142857 C164.71619,9.28571429 163.66381,9.06285714 162.425714,9.06285714 C161.781904,9.06285714 161.175239,9.14952386 160.605714,9.32285714 C160.03619,9.49619043 159.51,9.71904757 159.027143,9.99142857 C158.544286,10.2638096 158.123333,10.5919047 157.764286,10.9757143 C157.405239,11.3595239 157.114286,11.7495239 156.891429,12.1457143 L156.891429,12.1457143 L156.817143,12.1457143 L156.817143,9.58285714 L150.911429,9.58285714 L150.911429,28.08 L157.04,28.08 Z M183.225714,28.6742857 C184.587619,28.6742857 185.875239,28.4638096 187.088571,28.0428571 C188.301904,27.6219047 189.292381,27.04 190.06,26.2971429 L190.06,26.2971429 L186.68,22.1742857 C186.308571,22.62 185.819524,22.9604761 185.212857,23.1957143 C184.60619,23.4309524 183.993333,23.5485714 183.374286,23.5485714 C182.705714,23.5485714 182.105239,23.4247619 181.572857,23.1771429 C181.040476,22.9295239 180.582381,22.5890476 180.198571,22.1557143 C179.814761,21.722381 179.52381,21.2209524 179.325714,20.6514286 C179.127619,20.0819047 179.028571,19.4752381 179.028571,18.8314286 C179.028571,18.187619 179.13381,17.5809524 179.344286,17.0114286 C179.554761,16.4419047 179.845714,15.9404761 180.217143,15.5071429 C180.588571,15.0738096 181.034286,14.7271429 181.554286,14.4671429 C182.074286,14.2071429 182.65619,14.0771429 183.3,14.0771429 C183.919047,14.0771429 184.525714,14.2133333 185.12,14.4857143 C185.714286,14.7580953 186.184761,15.1171429 186.531429,15.5628571 L186.531429,15.5628571 L190.06,11.4771429 C189.688571,11.1057143 189.249047,10.7652381 188.741429,10.4557143 C188.23381,10.1461904 187.676667,9.88619043 187.07,9.67571429 C186.463333,9.46523814 185.831904,9.29809529 185.175714,9.17428571 C184.519524,9.05047614 183.857143,8.98857143 183.188571,8.98857143 C181.752381,8.98857143 180.402857,9.217619 179.14,9.67571429 C177.877143,10.1338096 176.781429,10.79 175.852857,11.6442857 C174.924286,12.4985714 174.19381,13.532381 173.661429,14.7457143 C173.129047,15.9590476 172.862857,17.3209524 172.862857,18.8314286 C172.862857,20.3666667 173.129047,21.7409524 173.661429,22.9542857 C174.19381,24.167619 174.924286,25.2014286 175.852857,26.0557143 C176.781429,26.91 177.877143,27.56 179.14,28.0057143 C180.402857,28.4514286 181.764761,28.6742857 183.225714,28.6742857 Z M201.722857,28.6742857 C203.604761,28.6742857 205.257619,28.3338096 206.681429,27.6528571 C208.105239,26.9719047 209.250476,26 210.117143,24.7371429 L210.117143,24.7371429 L205.882857,22.0628571 C205.461904,22.632381 204.917143,23.0966667 204.248571,23.4557143 C203.58,23.8147619 202.762857,23.9942857 201.797143,23.9942857 C201.252381,23.9942857 200.72619,23.907619 200.218571,23.7342857 C199.710953,23.5609524 199.252857,23.3195239 198.844286,23.01 C198.435714,22.7004761 198.101429,22.3352381 197.841429,21.9142857 C197.581429,21.4933333 197.426667,21.0228571 197.377143,20.5028571 L197.377143,20.5028571 L210.785714,20.5028571 C210.810476,20.28 210.822857,20.0447619 210.822857,19.7971429 L210.822857,19.7971429 L210.822857,19.0542857 C210.822857,17.4695239 210.59381,16.0580953 210.135714,14.82 C209.677619,13.5819047 209.04,12.5295239 208.222857,11.6628571 C207.405714,10.7961904 206.427619,10.1338096 205.288571,9.67571429 C204.149524,9.217619 202.899047,8.98857143 201.537143,8.98857143 C200.125714,8.98857143 198.813333,9.22380957 197.6,9.69428571 C196.386667,10.1647619 195.334286,10.8271429 194.442857,11.6814286 C193.551429,12.5357143 192.845714,13.5757143 192.325714,14.8014286 C191.805714,16.0271429 191.545714,17.3952381 191.545714,18.9057143 C191.545714,20.4657143 191.811904,21.852381 192.344286,23.0657143 C192.876667,24.2790476 193.607143,25.3004761 194.535714,26.13 C195.464286,26.9595239 196.547619,27.5909524 197.785714,28.0242857 C199.02381,28.457619 200.33619,28.6742857 201.722857,28.6742857 Z M205.214286,16.7142857 L197.377143,16.7142857 C197.401904,16.2438096 197.525714,15.7919047 197.748571,15.3585714 C197.971429,14.9252381 198.268571,14.547619 198.64,14.2257143 C199.011429,13.9038096 199.444761,13.65 199.94,13.4642857 C200.435239,13.2785714 200.98,13.1857143 201.574286,13.1857143 C202.787619,13.1857143 203.697619,13.532381 204.304286,14.2257143 C204.910953,14.9190476 205.214286,15.7485714 205.214286,16.7142857 L205.214286,16.7142857 Z" id="path-1"></path>
                </g>
            </g>
        </g>
    </g>
</svg>