<?xml version="1.0" encoding="UTF-8"?>
<svg width="117px" height="40px" viewBox="0 0 117 40" version="1.1" xmlns="http://www.w3.org/2000/svg" xmlns:xlink="http://www.w3.org/1999/xlink">
    <title>serum-color</title>
    <defs>
        <filter color-interpolation-filters="auto" id="filter-1">
            <feColorMatrix in="SourceGraphic" type="matrix" values="0 0 0 0 0.086275 0 0 0 0 0.117647 0 0 0 0 0.160784 0 0 0 1.000000 0"></feColorMatrix>
        </filter>
        <path d="M19.2578125,8 L19.2578125,6.88671875 L18.3242188,6.88671875 L18.3242188,8 L19.2578125,8 Z M22.8671875,8.10546875 C23.0989583,8.10546875 23.2871094,8.09114583 23.4316406,8.0625 C23.5761719,8.03385417 23.7330729,7.9921875 23.9023438,7.9375 C24.0638021,7.88541667 24.2011719,7.83203125 24.3144531,7.77734375 C24.4277344,7.72265625 24.5481771,7.66536458 24.6757812,7.60546875 L24.6757812,7.60546875 L24.6757812,6.68359375 L24.6171875,6.68359375 C24.5572917,6.74348958 24.4752604,6.81575521 24.3710938,6.90039062 C24.2669271,6.98502604 24.1432292,7.06770833 24,7.1484375 C23.8515625,7.23177083 23.6822917,7.30078125 23.4921875,7.35546875 C23.3020833,7.41015625 23.0950521,7.4375 22.8710938,7.4375 C22.6263021,7.4375 22.3945312,7.38867188 22.1757812,7.29101562 C21.9570312,7.19335938 21.7669271,7.04817708 21.6054688,6.85546875 C21.4388021,6.65755208 21.3072917,6.41471354 21.2109375,6.12695312 C21.1145833,5.83919271 21.0664062,5.49609375 21.0664062,5.09765625 C21.0664062,4.72265625 21.1119792,4.38541667 21.203125,4.0859375 C21.2942708,3.78645833 21.421875,3.53776042 21.5859375,3.33984375 C21.7526042,3.14192708 21.9466146,2.9921875 22.1679688,2.890625 C22.3893229,2.7890625 22.6236979,2.73828125 22.8710938,2.73828125 C23.1002604,2.73828125 23.3020833,2.76432292 23.4765625,2.81640625 C23.6510417,2.86848958 23.8125,2.93489583 23.9609375,3.015625 C24.1145833,3.1015625 24.2447917,3.18880208 24.3515625,3.27734375 C24.4583333,3.36588542 24.5455729,3.44140625 24.6132812,3.50390625 L24.6132812,3.50390625 L24.6757812,3.50390625 L24.6757812,2.5703125 C24.5481771,2.5 24.4186198,2.43554688 24.2871094,2.37695312 C24.155599,2.31835938 24.0273438,2.26953125 23.9023438,2.23046875 C23.7565104,2.18619792 23.5983073,2.14973958 23.4277344,2.12109375 C23.2571615,2.09244792 23.0742188,2.078125 22.8789062,2.078125 C22.4856771,2.078125 22.1302083,2.14648438 21.8125,2.28320312 C21.4947917,2.41992188 21.2200521,2.61848958 20.9882812,2.87890625 C20.7513021,3.14713542 20.5709635,3.46223958 20.4472656,3.82421875 C20.3235677,4.18619792 20.2617188,4.61067708 20.2617188,5.09765625 C20.2617188,5.58723958 20.3255208,6.02083333 20.453125,6.3984375 C20.5807292,6.77604167 20.7604167,7.09114583 20.9921875,7.34375 C21.2239583,7.59635417 21.499349,7.78645833 21.8183594,7.9140625 C22.1373698,8.04166667 22.4869792,8.10546875 22.8671875,8.10546875 Z M25.5507812,8 L26.078125,6.375 L28.3007812,6.375 L28.828125,8 L29.6445312,8 L27.6835938,2.18359375 L26.7304688,2.18359375 L24.7695312,8 L25.5507812,8 Z M28.0859375,5.71484375 L26.2929688,5.71484375 L27.1875,2.97265625 L28.0859375,5.71484375 Z M30.96875,8 L30.96875,5.83203125 L31.625,5.83203125 C32.0390625,5.83203125 32.3815104,5.78125 32.6523438,5.6796875 C32.9231771,5.578125 33.1588542,5.42838542 33.359375,5.23046875 C33.5182292,5.07161458 33.6425781,4.87955729 33.7324219,4.65429688 C33.8222656,4.42903646 33.8671875,4.19010417 33.8671875,3.9375 C33.8671875,3.61458333 33.8059896,3.33919271 33.6835938,3.11132812 C33.5611979,2.88346354 33.3919271,2.6953125 33.1757812,2.546875 C32.9908854,2.41927083 32.7773438,2.32682292 32.5351562,2.26953125 C32.2929688,2.21223958 32,2.18359375 31.65625,2.18359375 L31.65625,2.18359375 L30.1953125,2.18359375 L30.1953125,8 L30.96875,8 Z M31.4960938,5.171875 L30.96875,5.171875 L30.96875,2.84765625 L31.609375,2.84765625 C31.8515625,2.84765625 32.0540365,2.86458333 32.2167969,2.8984375 C32.3795573,2.93229167 32.5221354,2.98958333 32.6445312,3.0703125 C32.7851562,3.1640625 32.889974,3.28515625 32.9589844,3.43359375 C33.0279948,3.58203125 33.0625,3.75651042 33.0625,3.95703125 C33.0625,4.14192708 33.0364583,4.30338542 32.984375,4.44140625 C32.9322917,4.57942708 32.8489583,4.70703125 32.734375,4.82421875 C32.6067708,4.95442708 32.4466146,5.04492188 32.2539062,5.09570312 C32.0611979,5.14648438 31.8085938,5.171875 31.4960938,5.171875 L31.4960938,5.171875 Z M36.6367188,8 L36.6367188,7.40625 L35.8945312,7.40625 L35.8945312,2.77734375 L36.6367188,2.77734375 L36.6367188,2.18359375 L34.3789062,2.18359375 L34.3789062,2.77734375 L35.1210938,2.77734375 L35.1210938,7.40625 L34.3789062,7.40625 L34.3789062,8 L36.6367188,8 Z M39.7226562,8 L39.7226562,2.87109375 L41.6757812,2.87109375 L41.6757812,2.18359375 L36.9960938,2.18359375 L36.9960938,2.87109375 L38.9492188,2.87109375 L38.9492188,8 L39.7226562,8 Z M41.9648438,8 L42.4921875,6.375 L44.7148438,6.375 L45.2421875,8 L46.0585938,8 L44.0976562,2.18359375 L43.1445312,2.18359375 L41.1835938,8 L41.9648438,8 Z M44.5,5.71484375 L42.7070312,5.71484375 L43.6015625,2.97265625 L44.5,5.71484375 Z M49.9804688,8 L49.9804688,7.3125 L47.3828125,7.3125 L47.3828125,2.18359375 L46.609375,2.18359375 L46.609375,8 L49.9804688,8 Z" id="path-2"></path>
        <path d="M5.29394531,19.7285156 C7.57063802,19.7285156 9.35644531,19.2333984 10.6513672,18.2431641 C11.9462891,17.2529297 12.59375,15.8860677 12.59375,14.1425781 C12.59375,12.9153646 12.2509766,11.874349 11.5654297,11.0195312 C10.8798828,10.1647135 9.63151042,9.22949219 7.8203125,8.21386719 L7.8203125,8.21386719 L6.47460938,7.46484375 C5.46744792,6.89778646 4.78190104,6.41959635 4.41796875,6.03027344 C4.05403646,5.64095052 3.87207031,5.18815104 3.87207031,4.671875 C3.87207031,4.04557292 4.13232422,3.5398763 4.65283203,3.15478516 C5.17333984,2.76969401 5.86523438,2.57714844 6.72851562,2.57714844 C7.84570312,2.57714844 9.36490885,2.93684896 11.2861328,3.65625 L11.2861328,3.65625 L11.2861328,0.647460937 C9.40722656,0.215820312 7.71875,0 6.22070312,0 C4.35026042,0 2.84586589,0.469726562 1.70751953,1.40917969 C0.569173177,2.34863281 0,3.59277344 0,5.14160156 C0,6.30110677 0.347005208,7.31461589 1.04101562,8.18212891 C1.73502604,9.04964193 2.92415365,9.95735677 4.60839844,10.9052734 L4.60839844,10.9052734 L5.86523438,11.6035156 C6.88085938,12.1790365 7.57063802,12.6762695 7.93457031,13.0952148 C8.2985026,13.5141602 8.48046875,14.0283203 8.48046875,14.6376953 C8.48046875,15.4078776 8.19059245,16.0172526 7.61083984,16.4658203 C7.03108724,16.914388 6.23763021,17.1386719 5.23046875,17.1386719 C3.79166667,17.1386719 2.0608724,16.7154948 0.0380859375,15.8691406 L0.0380859375,15.8691406 L0.0380859375,19.09375 C2.03548177,19.5169271 3.7874349,19.7285156 5.29394531,19.7285156 Z M22.2167969,19.5761719 C23.8164062,19.5761719 25.5091146,19.3138021 27.2949219,18.7890625 L27.2949219,18.7890625 L27.2949219,16.1484375 C25.7122396,16.7324219 24.2903646,17.0244141 23.0292969,17.0244141 C20.3632812,17.0244141 18.9033203,15.695638 18.6494141,13.0380859 L18.6494141,13.0380859 L27.2949219,13.0380859 C27.2949219,10.2535807 26.8251953,8.21809896 25.8857422,6.93164062 C24.9462891,5.64518229 23.4567057,5.00195312 21.4169922,5.00195312 C19.3942057,5.00195312 17.7670898,5.65999349 16.5356445,6.97607422 C15.3041992,8.29215495 14.6884766,10.0292969 14.6884766,12.1875 C14.6884766,14.4726562 15.3613281,16.2753906 16.7070312,17.5957031 C18.0527344,18.9160156 19.8893229,19.5761719 22.2167969,19.5761719 Z M23.6005859,10.9179688 L18.5986328,10.9179688 C18.8440755,8.53971354 19.7454427,7.35058594 21.3027344,7.35058594 C22.8346354,7.35058594 23.6005859,8.53971354 23.6005859,10.9179688 L23.6005859,10.9179688 Z M34.9375,19.2587891 L34.9375,10.4101562 C35.8769531,8.89518229 37.0957031,8.13769531 38.59375,8.13769531 C39.0507812,8.13769531 39.5458984,8.23502604 40.0791016,8.4296875 L40.0791016,8.4296875 L40.0791016,5.078125 C39.8505859,5.02734375 39.6178385,5.00195312 39.3808594,5.00195312 C37.3919271,5.00195312 35.9108073,5.98372396 34.9375,7.94726562 L34.9375,7.94726562 L34.9375,5.31933594 L31.1796875,5.31933594 L31.1796875,19.2587891 L34.9375,19.2587891 Z M46.8710938,19.5761719 C48.8177083,19.5761719 50.4003906,18.594401 51.6191406,16.6308594 L51.6191406,16.6308594 L51.6191406,19.2587891 L55.3769531,19.2587891 L55.3769531,5.31933594 L51.6191406,5.31933594 L51.6191406,14.0917969 C50.5188802,15.7760417 49.3763021,16.6181641 48.1914062,16.6181641 C47.1334635,16.6181641 46.6044922,15.8268229 46.6044922,14.2441406 L46.6044922,14.2441406 L46.6044922,5.31933594 L42.8466797,5.31933594 L42.8466797,15.1708984 C42.8466797,16.5335286 43.2063802,17.6083984 43.9257812,18.3955078 C44.6451823,19.1826172 45.6269531,19.5761719 46.8710938,19.5761719 Z M63.6796875,19.2587891 L63.6796875,10.4101562 C64.7460938,8.77669271 65.8336589,7.95996094 66.9423828,7.95996094 C68.0511068,7.95996094 68.6054688,8.78938802 68.6054688,10.4482422 L68.6054688,10.4482422 L68.6054688,19.2587891 L72.2109375,19.2587891 L72.2109375,10.4101562 C73.2773438,8.78515625 74.3733724,7.97265625 75.4990234,7.97265625 C76.5992839,7.97265625 77.1494141,8.79785156 77.1494141,10.4482422 L77.1494141,10.4482422 L77.1494141,19.2587891 L80.7548828,19.2587891 L80.7548828,9.21679688 C80.7548828,6.40690104 79.4811198,5.00195312 76.9335938,5.00195312 C75.0885417,5.00195312 73.5143229,5.98372396 72.2109375,7.94726562 C72.0585938,7.01627604 71.6438802,6.29264323 70.9667969,5.77636719 C70.2897135,5.26009115 69.4264323,5.00195312 68.3769531,5.00195312 C66.3457031,5.00195312 64.7799479,5.98372396 63.6796875,7.94726562 L63.6796875,7.94726562 L63.6796875,5.31933594 L60.0742188,5.31933594 L60.0742188,19.2587891 L63.6796875,19.2587891 Z" id="path-3"></path>
    </defs>
    <g id="serum-color" stroke="none" stroke-width="1" fill="none" fill-rule="evenodd">
        <g id="serumcapital" fill-rule="nonzero">
            <path d="M26.6481107,40 L3.04402834,40 C1.36555331,40 0,38.6344467 0,36.9559717 C0,36.7923414 0.0312078273,36.6312416 0.0894062078,36.4794197 L8.26332659,15.0548246 C8.2667004,15.0219298 8.27176113,14.9865047 8.27513495,14.95361 L8.27513495,2.67712551 L7.30937922,2.67712551 C6.56966937,2.67712551 5.97165992,2.0782726 5.97165992,1.3377193 C5.97165992,0.598852901 6.56966937,0 7.30937922,0 L9.61285425,0 C10.3534076,0 10.951417,0.598852901 10.951417,1.3377193 L10.951417,15.0565115 C10.951417,15.1341093 10.9455128,15.2108637 10.9337045,15.2859312 C10.9337045,15.4495614 10.8940621,15.6688596 10.8350202,15.8198381 L5.62885726,29.1614333 L23.8039793,29.1614333 L18.5770918,15.8350202 C18.5231107,15.6958502 18.4935897,15.5499325 18.4868421,15.400641 L18.4750337,15.3205128 C18.4708165,15.2673752 18.4674426,15.2142375 18.4674426,15.1636302 L18.4674426,1.3377193 C18.4674426,0.598852901 19.0654521,0 19.8051619,0 L22.1685223,0 C22.9082321,0 23.5062416,0.598852901 23.5062416,1.3377193 C23.5062416,2.0782726 22.9082321,2.67712551 22.1685223,2.67712551 L21.1420378,2.67712551 L21.1420378,15.0421727 L29.5985155,36.465081 C29.6592443,36.6211201 29.6904521,36.7881242 29.6904521,36.9559717 C29.6904521,38.6344467 28.3265857,40 26.6481107,40 Z" id="Fill-124" fill="#161E29"></path>
            <path d="M16.044197,20 C16.8134278,20 17.4392713,20.625 17.4392713,21.3950742 C17.4392713,22.1626181 16.8134278,22.7884615 16.044197,22.7884615 C15.2741228,22.7884615 14.6499663,22.1634615 14.6499663,21.3950742 C14.6499663,20.625 15.2741228,20 16.044197,20 Z M16.044197,20.6688596 C15.643556,20.6688596 15.3188259,20.9952767 15.3188259,21.3950742 C15.3188259,21.7940283 15.643556,22.1196019 16.044197,22.1196019 C16.4423077,22.1196019 16.7704116,21.7940283 16.7704116,21.3950742 C16.7704116,20.9952767 16.4423077,20.6688596 16.044197,20.6688596 Z" id="Combined-Shape" fill="#DA58EB"></path>
            <path d="M18.442139,23.7356613 C18.9962888,23.7356613 19.4458502,24.1860661 19.4458502,24.7393725 C19.4458502,25.2926788 18.9962888,25.7430837 18.442139,25.7430837 C17.8871457,25.7430837 17.4392713,25.2926788 17.4392713,24.7393725 C17.4392713,24.1869096 17.8871457,23.7356613 18.442139,23.7356613 Z M18.442139,24.4053644 C18.2582659,24.4053644 18.1081309,24.5563428 18.1081309,24.7393725 C18.1081309,24.9240891 18.2582659,25.074224 18.442139,25.074224 C18.6268556,25.074224 18.7769906,24.9240891 18.7769906,24.7393725 C18.7769906,24.5554993 18.6268556,24.4053644 18.442139,24.4053644 Z" id="Combined-Shape" fill="#DA58EB"></path>
            <path d="M13.2565789,24.7393725 C13.8098853,24.7393725 14.2594467,25.1897773 14.2594467,25.7430837 C14.2594467,26.2972335 13.8098853,26.7467949 13.2565789,26.7467949 C12.7032726,26.7467949 12.2528677,26.2972335 12.2528677,25.7430837 C12.2528677,25.1906208 12.7032726,24.7393725 13.2565789,24.7393725 Z M13.2565789,25.4082321 C13.0718623,25.4082321 12.9217274,25.5592105 12.9217274,25.7430837 C12.9217274,25.9278003 13.0718623,26.0779352 13.2565789,26.0779352 C13.4412955,26.0779352 13.590587,25.9278003 13.590587,25.7430837 C13.590587,25.5592105 13.4412955,25.4082321 13.2565789,25.4082321 Z" id="Combined-Shape" fill="#DA58EB"></path>
            <path d="M5.62885726,29.1614333 L3.20937202,35.5916881 C2.86219332,36.5143834 3.30080156,37.5547404 4.18903094,37.9153906 C4.38936335,37.9967322 4.60256186,38.0384771 4.8176536,38.0384771 L24.3636496,38.0384771 C25.3173186,38.0384771 26.09042,37.2353771 26.09042,36.2447031 C26.09042,36.042696 26.0575725,35.8421401 25.9932638,35.6514989 L23.8039793,29.1614333 L23.8039793,29.1614333 L5.62885726,29.1614333 Z" id="Path-2" fill="#DA58EB"></path>
        </g>
        <g filter="url(#filter-1)" id="Group">
            <g transform="translate(36.256836, 5.753094)">
                <g id=".Capital" transform="translate(30.743164, 21.246906)" fill-rule="nonzero">
                    <g id=".CAPITAL">
                        <use fill="#000000" xlink:href="#path-2"></use>
                        <use fill="#FFFFFF" xlink:href="#path-2"></use>
                    </g>
                </g>
                <g id="Serum" fill-rule="nonzero">
                    <g>
                        <use fill="#000000" xlink:href="#path-3"></use>
                        <use fill="#FFFFFF" xlink:href="#path-3"></use>
                    </g>
                </g>
            </g>
        </g>
    </g>
</svg>