<?xml version="1.0" encoding="UTF-8"?>
<svg width="148px" height="40px" viewBox="0 0 148 40" version="1.1" xmlns="http://www.w3.org/2000/svg" xmlns:xlink="http://www.w3.org/1999/xlink">
    <title>Solana</title>
    <defs>
        <filter color-interpolation-filters="auto" id="filter-1">
            <feColorMatrix in="SourceGraphic" type="matrix" values="0 0 0 0 0.121569 0 0 0 0 0.172549 0 0 0 0 0.450980 0 0 0 1.000000 0"></feColorMatrix>
        </filter>
    </defs>
    <g id="Solana" stroke="none" stroke-width="1" fill="none" fill-rule="evenodd">
        <g filter="url(#filter-1)" id="logo-(2)">
            <g>
                <g id="Group-2" transform="translate(38.347736, 0.755068)" fill="#FFFFFF" fill-rule="nonzero">
                    <path d="M5.58194276,39.244932 C5.98626207,39.244932 6.31448757,39.219946 6.56661927,39.169974 C6.81875096,39.1200019 7.09246151,39.0473153 7.38775088,38.9519141 C7.66941153,38.8610559 7.90905021,38.7679261 8.10666695,38.672525 C8.3042837,38.5771237 8.51439345,38.4771796 8.73699621,38.3726926 L8.73699621,38.3726926 L8.73699621,36.7645013 L8.63478066,36.7645013 C8.53029364,36.8689883 8.38719186,36.9950541 8.20547532,37.1426988 C8.02375878,37.2903435 7.80797039,37.434581 7.55811014,37.5754113 C7.29916408,37.7207846 7.0038747,37.8411718 6.67224201,37.9365729 C6.34060932,38.0319741 5.97944769,38.0796747 5.58875712,38.0796747 C5.16172326,38.0796747 4.75740395,37.9944951 4.37579922,37.8241358 C3.99419448,37.6537766 3.66256179,37.4005092 3.38090116,37.0643335 C3.09015469,36.7190721 2.86073755,36.2954454 2.69264975,35.7934535 C2.52456195,35.2914615 2.44051805,34.6929327 2.44051805,33.9978669 C2.44051805,33.3436873 2.52001903,32.7553801 2.67902101,32.232945 C2.83802298,31.71051 3.06062574,31.2766617 3.3468293,30.9314003 C3.63757576,30.5861389 3.97602282,30.3249213 4.36217048,30.1477477 C4.74831813,29.9705741 5.15718035,29.8819873 5.58875712,29.8819873 C5.98853352,29.8819873 6.34060932,29.9274164 6.64498453,30.0182746 C6.94935973,30.109133 7.23102037,30.2249772 7.48996645,30.3658076 C7.75799835,30.5157237 7.98514402,30.6679112 8.17140348,30.8223704 C8.35766293,30.9768294 8.50985053,31.1085739 8.62796628,31.2176038 L8.62796628,31.2176038 L8.73699621,31.2176038 L8.73699621,29.5889694 C8.51439345,29.4663107 8.2883835,29.3538735 8.05896636,29.251658 C7.82954923,29.1494424 7.60581073,29.0642628 7.38775088,28.9961191 C7.13334773,28.9188896 6.85736573,28.8552888 6.5598049,28.8053168 C6.26224406,28.7553447 5.94310439,28.7303587 5.60238587,28.7303587 C4.91640593,28.7303587 4.29629823,28.8496102 3.74206277,29.0881131 C3.18782733,29.3266161 2.70854995,29.6730133 2.30423064,30.1273045 C1.89082551,30.5952247 1.57622875,31.1449172 1.36044036,31.7763822 C1.14465196,32.4078472 1.03675777,33.1483421 1.03675777,33.9978669 C1.03675777,34.8519347 1.14805915,35.6083297 1.37066191,36.2670522 C1.59326467,36.9257747 1.90672571,37.4754672 2.31104502,37.9161298 C2.71536432,38.3567925 3.19577743,38.6884252 3.75228433,38.9110279 C4.30879124,39.1336307 4.91867738,39.244932 5.58194276,39.244932 Z M19.7334429,39.060944 L20.6533829,36.226166 L24.5307596,36.226166 L25.4506996,39.060944 L26.874903,39.060944 L23.4540891,28.9143467 L21.7913828,28.9143467 L18.3705689,39.060944 L19.7334429,39.060944 Z M24.1559692,35.0745375 L21.0281733,35.0745375 L22.5886641,30.2908494 L24.1559692,35.0745375 Z M38.6550023,39.060944 L38.6550023,35.2789685 L39.7998165,35.2789685 C40.5221397,35.2789685 41.1195329,35.1903817 41.5919958,35.0132081 C42.0644589,34.8360345 42.4755926,34.574817 42.8253969,34.2295555 C43.1025146,33.9524378 43.3194388,33.6173979 43.4761692,33.2244359 C43.6328998,32.8314739 43.7112651,32.4146616 43.7112651,31.9739989 C43.7112651,31.4106776 43.6045065,30.9302645 43.3909896,30.5327596 C43.1774727,30.1352547 42.8821834,29.8070292 42.5051214,29.5480831 C42.1825746,29.3254804 41.8100557,29.1642069 41.3875648,29.0642628 C40.9650738,28.9643187 40.4539961,28.9143467 39.8543315,28.9143467 L39.8543315,28.9143467 L37.3057569,28.9143467 L37.3057569,39.060944 L38.6550023,39.060944 Z M39.5749422,34.1273399 L38.6550023,34.1273399 L38.6550023,30.0727896 L39.772559,30.0727896 C40.1950499,30.0727896 40.5482615,30.1023185 40.8321936,30.1613764 C41.1161257,30.2204343 41.3648502,30.3203784 41.5783672,30.4612088 C41.8236845,30.6247536 42.0065367,30.8359991 42.1269239,31.0949452 C42.2473111,31.3538912 42.3075048,31.6582664 42.3075048,32.0080708 C42.3075048,32.3306177 42.2620756,32.6122783 42.1712173,32.8530527 C42.0803591,33.0938271 41.9349858,33.3164299 41.7350976,33.520861 C41.5124949,33.7480067 41.2331057,33.9058729 40.8969301,33.9944598 C40.5607545,34.0830466 40.1200919,34.1273399 39.5749422,34.1273399 L39.5749422,34.1273399 Z M58.0126814,39.060944 L58.0126814,38.0251598 L56.717951,38.0251598 L56.717951,29.950131 L58.0126814,29.950131 L58.0126814,28.9143467 L54.0739753,28.9143467 L54.0739753,29.950131 L55.3687056,29.950131 L55.3687056,38.0251598 L54.0739753,38.0251598 L54.0739753,39.060944 L58.0126814,39.060944 Z M72.8660616,39.060944 L72.8660616,30.1136759 L76.2732467,30.1136759 L76.2732467,28.9143467 L68.1096311,28.9143467 L68.1096311,30.1136759 L71.5168163,30.1136759 L71.5168163,39.060944 L72.8660616,39.060944 Z M86.2475379,39.060944 L87.1674779,36.226166 L91.0448546,36.226166 L91.9647946,39.060944 L93.388998,39.060944 L89.9681841,28.9143467 L88.3054778,28.9143467 L84.8846639,39.060944 L86.2475379,39.060944 Z M90.6700643,35.0745375 L87.5422683,35.0745375 L89.1027591,30.2908494 L90.6700643,35.0745375 Z M109.700653,39.060944 L109.700653,37.8616149 L105.169097,37.8616149 L105.169097,28.9143467 L103.819852,28.9143467 L103.819852,39.060944 L109.700653,39.060944 Z" id="CAPITAL"></path>
                    <path d="M10.2273963,25.7339827 C13.3386431,25.7339827 15.7465495,24.9975439 17.4511156,23.5246665 C19.1556817,22.051789 20.0079647,20.2010385 20.0079647,17.972415 C20.0079647,15.7989553 19.2798005,14.1385204 17.8234722,12.9911102 C16.8856851,12.2519133 15.4955536,11.661659 13.6530777,11.2203475 L13.6530777,11.2203475 L9.44958465,10.2108472 C7.82776452,9.82469955 6.76861667,9.48819945 6.27214112,9.20134683 C5.49984582,8.77106806 5.11369818,8.12013345 5.11369818,7.24854303 C5.11369818,6.2997231 5.50536222,5.56052617 6.2886903,5.03095225 C7.07201839,4.50137833 8.12013345,4.23659137 9.43303546,4.23659137 C10.613544,4.23659137 11.6009787,4.44069798 12.3953396,4.84891121 C13.5868809,5.46674745 14.2267827,6.5093461 14.3150451,7.97670718 L14.3150451,7.97670718 L19.2136038,7.97670718 C19.1253415,5.38400152 18.1737634,3.40637392 16.3588693,2.04382435 C14.5439754,0.681274786 12.3512084,1.77075248e-15 9.7805683,1.77075248e-15 C6.70241993,1.77075248e-15 4.36898484,0.722647742 2.78026308,2.16794324 C1.19154132,3.61323873 0.39718044,5.42813269 0.39718044,7.61262511 C0.39718044,10.0067405 1.21912329,11.7664705 2.863009,12.8918152 C3.83389453,13.5648153 5.58810814,14.1881679 8.12564984,14.761873 L8.12564984,14.761873 L10.7073228,15.3410945 C12.2188149,15.6720782 13.3276104,16.0527095 14.0337089,16.4829882 C14.7398074,16.9242999 15.0928567,17.5476525 15.0928567,18.3530462 C15.0928567,19.7321449 14.3812418,20.6754485 12.9580118,21.1829568 C12.2077822,21.4477438 11.2313802,21.5801373 10.0288061,21.5801373 C8.02083834,21.5801373 6.60312482,21.0781454 5.77566557,20.0741614 C5.32332118,19.5225219 5.01991945,18.6895463 4.8654604,17.5752345 L4.8654604,17.5752345 L0,17.5752345 C0,20.1127762 0.910205176,22.106953 2.73061553,23.5577649 C4.55102588,25.0085768 7.04995282,25.7339827 10.2273963,25.7339827 Z M31.5096483,25.7339827 C34.6098623,25.7339827 36.9212318,24.7934373 38.4437568,22.9123467 C39.9662818,21.031256 40.7275443,18.7667758 40.7275443,16.1189062 C40.7275443,13.5151678 39.9662818,11.2589622 38.4437568,9.35028953 C36.9212318,7.44161686 34.6098623,6.48728053 31.5096483,6.48728053 C28.4094343,6.48728053 26.0980648,7.44161686 24.5755397,9.35028953 C23.0530148,11.2589622 22.2917522,13.5151678 22.2917522,16.1189062 C22.2917522,18.7667758 23.0530148,21.031256 24.5755397,22.9123467 C26.0980648,24.7934373 28.4094343,25.7339827 31.5096483,25.7339827 Z M31.493099,21.7787274 C30.1140003,21.7787274 29.0520943,21.2877683 28.307381,20.30585 C27.5626677,19.3239317 27.190311,17.9282837 27.190311,16.1189062 C27.190311,14.3095286 27.5626677,12.9166389 28.307381,11.940237 C29.0520943,10.963835 30.1140003,10.4756342 31.493099,10.4756342 C32.8721978,10.4756342 33.9313457,10.963835 34.6705426,11.940237 C35.4097395,12.9166389 35.779338,14.3095286 35.779338,16.1189062 C35.779338,17.9282837 35.4097395,19.3239317 34.6705426,20.30585 C33.9313457,21.2877683 32.8721978,21.7787274 31.493099,21.7787274 Z M48.9193909,25.1051137 L48.9193909,0.71161496 L44.2028731,0.71161496 L44.2028731,25.1051137 L48.9193909,25.1051137 Z M57.9386967,25.6677859 C59.2185004,25.6677859 60.3659106,25.3754171 61.3809272,24.7906791 C62.2304521,24.2942036 62.9806817,23.6929165 63.6316164,22.986818 C63.6647148,23.3950312 63.7088459,23.7591133 63.7640098,24.0790642 C63.8191739,24.3990151 63.9184689,24.7410316 64.0618952,25.1051137 L64.0618952,25.1051137 L69.1921425,25.1051137 L69.1921425,24.4100479 C68.8832244,24.2666217 68.6515358,24.0845806 68.4970768,23.8639248 C68.3426177,23.6432689 68.248839,23.2240229 68.2157406,22.6061868 C68.193675,21.7897602 68.1826423,21.0946945 68.1826423,20.5209894 L68.1826423,20.5209894 L68.1826423,12.2463969 C68.1826423,10.0729373 67.4158634,8.59454342 65.8823055,7.81121533 C64.3487478,7.02788724 62.5945341,6.63622319 60.6196647,6.63622319 C57.5856475,6.63622319 55.4452862,7.43058407 54.1985809,9.01930583 C53.4152528,10.0343225 52.9739413,11.3306753 52.8746461,12.9083643 L52.8746461,12.9083643 L57.425672,12.9083643 C57.5359999,12.2132985 57.7566557,11.661659 58.0876394,11.2534458 C58.5510166,10.7018063 59.3398611,10.4259866 60.4541728,10.4259866 C61.447124,10.4259866 62.2001119,10.5666546 62.7131366,10.8479908 C63.2261613,11.129327 63.4826738,11.6395935 63.4826738,12.3787904 C63.4826738,12.9855938 63.1461737,13.4324219 62.4731734,13.7192744 C62.0980586,13.8847662 61.4747059,14.0226761 60.6031155,14.133004 L60.6031155,14.133004 L58.9978446,14.3315942 C57.1774342,14.5632828 55.7983355,14.9494305 54.8605483,15.4900372 C53.1504659,16.4829882 52.2954246,18.0882592 52.2954246,20.30585 C52.2954246,22.0159325 52.8277567,23.337109 53.892421,24.2693798 C54.9570852,25.2016505 56.3058438,25.6677859 57.9386967,25.6677859 Z M59.3288283,22.2421047 C58.6889265,22.2421047 58.1455616,22.0628218 57.6987336,21.7042561 C57.2519056,21.3456905 57.0284916,20.7637108 57.0284916,19.9583172 C57.0284916,19.0536284 57.3925737,18.3861445 58.1207378,17.9558657 C58.5510166,17.7021116 59.2626315,17.4869722 60.2555827,17.3104476 L60.2555827,17.3104476 L61.3147305,17.1118573 C61.8443044,17.0125622 62.2607923,16.9049925 62.5641939,16.7891482 C62.8675957,16.6733039 63.1682392,16.521603 63.4661245,16.3340456 L63.4661245,16.3340456 L63.4661245,18.0882592 C63.4330262,19.6659482 62.9889564,20.752678 62.1339151,21.3484487 C61.2788739,21.9442194 60.3438449,22.2421047 59.3288283,22.2421047 Z M77.102653,25.1051137 L77.102653,15.3410945 C77.102653,14.2267827 77.257112,13.3110612 77.5660301,12.5939298 C78.1618008,11.2368966 79.2595635,10.5583801 80.859318,10.5583801 C82.1611872,10.5583801 83.0438104,11.0217572 83.5071876,11.9485116 C83.7609418,12.4560199 83.8878188,13.184184 83.8878188,14.133004 L83.8878188,14.133004 L83.8878188,25.1051137 L88.7201809,25.1051137 L88.7201809,12.9580118 C88.7201809,10.6962899 88.1271685,9.07722798 86.9411435,8.10082606 C85.7551186,7.12442415 84.2298354,6.63622319 82.3652939,6.63622319 C80.8758672,6.63622319 79.6457111,7.00030526 78.6748255,7.72846941 C78.1342188,8.13668263 77.5605138,8.80416643 76.9537103,9.73092075 L76.9537103,9.73092075 L76.9537103,7.09960037 L72.4026845,7.09960037 L72.4026845,25.1051137 L77.102653,25.1051137 Z M97.4912489,25.6677859 C98.7710526,25.6677859 99.9184624,25.3754171 100.933479,24.7906791 C101.783004,24.2942036 102.533234,23.6929165 103.184169,22.986818 C103.217267,23.3950312 103.261398,23.7591133 103.316563,24.0790642 C103.371726,24.3990151 103.471021,24.7410316 103.614448,25.1051137 L103.614448,25.1051137 L108.744695,25.1051137 L108.744695,24.4100479 C108.435776,24.2666217 108.204088,24.0845806 108.049629,23.8639248 C107.895169,23.6432689 107.801391,23.2240229 107.768293,22.6061868 C107.746227,21.7897602 107.735195,21.0946945 107.735195,20.5209894 L107.735195,12.2463969 C107.735195,10.0729373 106.968416,8.59454342 105.434858,7.81121533 C103.9013,7.02788724 102.147086,6.63622319 100.172217,6.63622319 C97.1381996,6.63622319 94.9978384,7.43058407 93.7511331,9.01930583 C92.967805,10.0343225 92.5264935,11.3306753 92.4271983,12.9083643 L92.4271983,12.9083643 L96.9782242,12.9083643 C97.0885521,12.2132985 97.3092079,11.661659 97.6401916,11.2534458 C98.1035688,10.7018063 98.8924133,10.4259866 100.006725,10.4259866 C100.999676,10.4259866 101.752664,10.5666546 102.265689,10.8479908 C102.778714,11.129327 103.035226,11.6395935 103.035226,12.3787904 C103.035226,12.9855938 102.698726,13.4324219 102.025726,13.7192744 C101.650611,13.8847662 101.027258,14.0226761 100.155668,14.133004 L100.155668,14.133004 L98.5503968,14.3315942 C96.7299864,14.5632828 95.3508877,14.9494305 94.4131005,15.4900372 C92.7030181,16.4829882 91.8479769,18.0882592 91.8479769,20.30585 C91.8479769,22.0159325 92.3803089,23.337109 93.4449732,24.2693798 C94.5096374,25.2016505 95.858396,25.6677859 97.4912489,25.6677859 Z M98.8813805,22.2421047 C98.2414787,22.2421047 97.6981137,22.0628218 97.2512857,21.7042561 C96.8044578,21.3456905 96.5810438,20.7637108 96.5810438,19.9583172 C96.5810438,19.0536284 96.9451258,18.3861445 97.67329,17.9558657 C98.1035688,17.7021116 98.8151837,17.4869722 99.8081346,17.3104476 L99.8081346,17.3104476 L100.867282,17.1118573 C101.396856,17.0125622 101.813344,16.9049925 102.116746,16.7891482 C102.420148,16.6733039 102.720791,16.521603 103.018676,16.3340456 L103.018676,16.3340456 L103.018676,18.0882592 C102.985578,19.6659482 102.541509,20.752678 101.686468,21.3484487 C100.831426,21.9442194 99.8963972,22.2421047 98.8813805,22.2421047 Z" id="Solana"></path>
                </g>
                <g id="Unknown" transform="translate(0.000000, 0.000000)" fill="#FFFFFF" fill-rule="nonzero">
                    <path d="M18.2449793,23.6000537 C18.0057366,23.8446517 17.6813243,23.9820698 17.3430184,23.9820698 L-14.613669,23.9820698 C-15.7431309,23.9820698 -16.3152973,22.5917546 -15.5256708,21.7659801 L-10.2838157,16.2841597 C-10.04385,16.0331984 -9.71507756,15.8917314 -9.37182408,15.8917314 L22.7039537,15.8917314 C23.8403003,15.8917314 24.4094903,17.2966071 23.6059148,18.1182425 L18.2449793,23.6000537 Z" id="Path" transform="translate(4.045169, 19.936901) rotate(90.000000) translate(-4.045169, -19.936901) "></path>
                    <path d="M28.2134296,23.6000538 C27.9741869,23.8446517 27.6497745,23.9820698 27.3114686,23.9820698 L-4.64521876,23.9820698 C-5.77468064,23.9820698 -6.34684697,22.5917546 -5.5572205,21.7659801 L-0.315365401,16.2841598 C-0.0753997216,16.0331984 0.253372686,15.8917314 0.596626173,15.8917314 L32.672404,15.8917314 C33.8087506,15.8917314 34.3779405,17.2966071 33.574365,18.1182426 L28.2134296,23.6000538 Z" id="Path-Copy" transform="translate(14.013619, 19.936901) rotate(90.000000) translate(-14.013619, -19.936901) "></path>
                    <path d="M38.1818798,23.6000538 C37.9426371,23.8446517 37.6182248,23.9820698 37.2799189,23.9820698 L5.32323151,23.9820698 C4.19376963,23.9820698 3.6216033,22.5917546 4.41122977,21.7659801 L9.65308488,16.2841598 C9.8930506,16.0331984 10.2218229,15.8917314 10.5650765,15.8917314 L42.6408543,15.8917314 C43.7772009,15.8917314 44.3463908,17.2966071 43.5428153,18.1182426 L38.1818798,23.6000538 Z" id="Path-Copy-2" transform="translate(23.982070, 19.936901) rotate(90.000000) translate(-23.982070, -19.936901) "></path>
                </g>
            </g>
        </g>
    </g>
</svg>