<?xml version="1.0" encoding="UTF-8"?>
<svg width="1050px" height="700px" viewBox="0 0 1050 700" version="1.1" xmlns="http://www.w3.org/2000/svg" xmlns:xlink="http://www.w3.org/1999/xlink">
    <title>Artboard Copy 2</title>
    <g id="Artboard-Copy-2" stroke="none" stroke-width="1" fill="none" fill-rule="evenodd">
        <rect id="Rectangle" fill="#E6F2FB" x="0" y="0" width="1050" height="700"></rect>
        <g id="FAQ-01" transform="translate(105.000000, 75.000000)">
            <path d="M567.800922,549.461983 C567.800922,549.461983 557.094389,532.306935 570.314229,528.533132 C583.534069,524.759329 588.883493,532.937183 588.883493,532.937183 C588.883493,532.937183 572.204974,510.278992 586.370186,504.299321 C600.535398,498.319649 603.994077,510.909241 603.994077,510.909241 C603.994077,510.909241 586.055062,477.859641 617.828794,476.914268 C649.602525,475.968896 652.454014,502.408576 652.454014,502.408576 C652.454014,502.408576 648.672525,454.256078 688.962293,455.20145 C729.252061,456.146822 727.983879,507.758 727.983879,507.758 C727.983879,507.758 739.950908,493.592787 767.950837,500.840642 C795.950765,508.088496 782.746297,534.835614 782.746297,534.835614 C782.746297,534.835614 815.473087,520.040153 815.160224,549.938512 L567.800922,549.461983 Z" id="Path" stroke="#391F7E" fill="#FFC542" fill-rule="nonzero"></path>
            <path d="M699.922463,541.253385 C699.922463,541.253385 687.993863,483.078403 749.212482,443.88004" id="Path" stroke="#391F7E"></path>
            <path d="M759.849842,443.903098 C757.544056,446.97748 750.626698,448.51467 747.552316,446.208884 C744.477935,443.903098 746.507027,438.607476 748.812813,435.563839 C751.199052,432.812682 755.309708,432.382888 758.213418,434.580948 C761.117128,436.779008 761.819253,440.851996 759.819098,443.895412 L759.849842,443.903098 Z" id="Path" stroke="#391F7E" fill="#FFFFFF" fill-rule="nonzero"></path>
            <line x1="746.760663" y1="445.471033" x2="755.48422" y2="438.23855" id="Path" stroke="#391F7E" fill="#FFFFFF" fill-rule="nonzero"></line>
            <line x1="751.825707" y1="441.359048" x2="756.068353" y2="442.027726" id="Path" stroke="#391F7E" fill="#FFFFFF" fill-rule="nonzero"></line>
            <line x1="748.881986" y1="443.757065" x2="749.650582" y2="439.014832" id="Path" stroke="#391F7E" fill="#FFFFFF" fill-rule="nonzero"></line>
            <line x1="727.345945" y1="461.304097" x2="742.026116" y2="463.817404" id="Path" stroke="#391F7E" fill="#FFFFFF" fill-rule="nonzero"></line>
            <path d="M749.097193,471.44187 C745.32339,471.956828 739.32066,468.152281 738.805701,464.378478 C738.290742,460.604675 743.417273,458.275831 747.26025,457.760872 C749.784209,457.254604 752.380525,458.191757 753.999259,460.193351 C755.617993,462.194945 755.991354,464.929852 754.968356,467.292087 C753.945358,469.654322 751.695239,471.253095 749.127937,471.44187 L749.097193,471.44187 Z" id="Path" stroke="#391F7E" fill="#FFFFFF" fill-rule="nonzero"></path>
            <line x1="738.7519" y1="463.271701" x2="750.034879" y2="464.347734" id="Path" stroke="#391F7E" fill="#FFFFFF" fill-rule="nonzero"></line>
            <line x1="745.238844" y1="463.955751" x2="747.759837" y2="467.429802" id="Path" stroke="#391F7E" fill="#FFFFFF" fill-rule="nonzero"></line>
            <line x1="741.465041" y1="463.563767" x2="745.36182" y2="460.758394" id="Path" stroke="#391F7E" fill="#FFFFFF" fill-rule="nonzero"></line>
            <line x1="727.853218" y1="461.688395" x2="721.443132" y2="448.245662" id="Path" stroke="#391F7E" fill="#FFFFFF" fill-rule="nonzero"></line>
            <path d="M712.181558,443.511115 C712.711889,447.284918 718.007511,452.027151 721.781314,451.49682 C725.555118,450.966489 726.392886,445.348057 725.85487,441.589626 C725.656645,439.022591 724.049116,436.77806 721.682556,435.763982 C719.315995,434.749905 716.58205,435.134102 714.586644,436.76116 C712.591238,438.388217 711.664596,440.988871 712.181558,443.511115 Z" id="Path" stroke="#391F7E" fill="#FFFFFF" fill-rule="nonzero"></path>
            <line x1="722.857348" y1="451.25087" x2="718.760735" y2="440.682684" id="Path" stroke="#391F7E" fill="#FFFFFF" fill-rule="nonzero"></line>
            <line x1="720.436273" y1="445.194338" x2="716.408833" y2="443.710949" id="Path" stroke="#391F7E" fill="#FFFFFF" fill-rule="nonzero"></line>
            <line x1="721.842802" y1="448.714505" x2="723.47991" y2="444.20285" id="Path" stroke="#391F7E" fill="#FFFFFF" fill-rule="nonzero"></line>
            <line x1="713.826353" y1="477.851955" x2="728.506524" y2="480.365261" id="Path" stroke="#391F7E" fill="#FFFFFF" fill-rule="nonzero"></line>
            <path d="M735.585287,487.989727 C731.803798,488.504686 725.808754,484.700139 725.293795,480.926336 C724.778836,477.152533 729.905367,474.823689 733.748344,474.30873 C737.391682,474.040834 740.615261,476.652206 741.109397,480.271806 C741.603533,483.891407 739.197859,487.271267 735.616031,487.989727 L735.585287,487.989727 Z" id="Path" stroke="#391F7E" fill="#FFFFFF" fill-rule="nonzero"></path>
            <line x1="725.232307" y1="479.819559" x2="736.515287" y2="480.887906" id="Path" stroke="#391F7E" fill="#FFFFFF" fill-rule="nonzero"></line>
            <line x1="731.719252" y1="480.503609" x2="734.247931" y2="483.97766" id="Path" stroke="#391F7E" fill="#FFFFFF" fill-rule="nonzero"></line>
            <line x1="727.945449" y1="480.111625" x2="731.849913" y2="477.306252" id="Path" stroke="#391F7E" fill="#FFFFFF" fill-rule="nonzero"></line>
            <line x1="714.341311" y1="478.236252" x2="707.92354" y2="464.79352" id="Path" stroke="#391F7E" fill="#FFFFFF" fill-rule="nonzero"></line>
            <path d="M698.669652,460.058972 C699.199983,463.832776 704.487919,468.575009 708.261722,468.044678 C712.035525,467.514347 712.873294,461.895915 712.342964,458.137484 C712.144738,455.570449 710.53721,453.325918 708.17065,452.31184 C705.804089,451.297762 703.070143,451.681959 701.074738,453.309017 C699.079332,454.936075 698.152689,457.536729 698.669652,460.058972 L698.669652,460.058972 Z" id="Path" stroke="#391F7E" fill="#FFFFFF" fill-rule="nonzero"></path>
            <line x1="709.345442" y1="467.798728" x2="705.241143" y2="457.230542" id="Path" stroke="#391F7E" fill="#FFFFFF" fill-rule="nonzero"></line>
            <line x1="706.924366" y1="461.742196" x2="702.889241" y2="460.258807" id="Path" stroke="#391F7E" fill="#FFFFFF" fill-rule="nonzero"></line>
            <line x1="708.32321" y1="465.262363" x2="709.960318" y2="460.750708" id="Path" stroke="#391F7E" fill="#FFFFFF" fill-rule="nonzero"></line>
            <line x1="705.294944" y1="494.407499" x2="719.975115" y2="496.920805" id="Path" stroke="#391F7E" fill="#FFFFFF" fill-rule="nonzero"></line>
            <path d="M727.053878,504.545271 C723.272389,505.06023 717.277346,501.255683 716.762387,497.48188 C716.247428,493.708077 721.373959,491.379233 725.216936,490.864274 C728.860273,490.596378 732.083852,493.20775 732.577989,496.82735 C733.072125,500.44695 730.66645,503.82681 727.084622,504.545271 L727.053878,504.545271 Z" id="Path" stroke="#391F7E" fill="#FFFFFF" fill-rule="nonzero"></path>
            <line x1="716.700899" y1="496.375103" x2="727.983879" y2="497.451136" id="Path" stroke="#391F7E" fill="#FFFFFF" fill-rule="nonzero"></line>
            <line x1="723.187844" y1="497.059152" x2="725.716523" y2="500.533203" id="Path" stroke="#391F7E" fill="#FFFFFF" fill-rule="nonzero"></line>
            <line x1="719.414041" y1="496.667169" x2="723.318505" y2="493.861796" id="Path" stroke="#391F7E" fill="#FFFFFF" fill-rule="nonzero"></line>
            <line x1="705.809903" y1="494.791796" x2="699.399818" y2="481.349064" id="Path" stroke="#391F7E" fill="#FFFFFF" fill-rule="nonzero"></line>
            <path d="M690.138244,476.614516 C690.668575,480.388319 695.956511,485.130553 699.730314,484.600222 C703.504117,484.069891 704.341886,478.451459 703.811555,474.693028 C703.61333,472.125993 702.005802,469.881462 699.639241,468.867384 C697.272681,467.853306 694.538735,468.237503 692.543329,469.864561 C690.547923,471.491619 689.621281,474.092273 690.138244,476.614516 L690.138244,476.614516 Z" id="Path" stroke="#391F7E" fill="#FFFFFF" fill-rule="nonzero"></path>
            <line x1="700.814033" y1="484.354271" x2="696.709734" y2="473.786085" id="Path" stroke="#391F7E" fill="#FFFFFF" fill-rule="nonzero"></line>
            <line x1="698.392958" y1="478.29774" x2="694.357832" y2="476.814351" id="Path" stroke="#391F7E" fill="#FFFFFF" fill-rule="nonzero"></line>
            <line x1="699.791801" y1="481.817907" x2="701.42891" y2="477.306252" id="Path" stroke="#391F7E" fill="#FFFFFF" fill-rule="nonzero"></line>
            <line x1="699.945521" y1="514.32949" x2="714.625692" y2="516.850483" id="Path" stroke="#391F7E" fill="#FFFFFF" fill-rule="nonzero"></line>
            <path d="M721.704455,524.467263 C717.922966,524.989907 711.927922,521.18536 711.405277,517.403871 C710.882632,513.622382 716.055279,511.301224 719.859826,510.786265 C723.505933,510.511664 726.736019,513.122095 727.232594,516.744652 C727.72917,520.367208 725.320704,523.750564 721.735199,524.467263 L721.704455,524.467263 Z" id="Path" stroke="#391F7E" fill="#FFFFFF" fill-rule="nonzero"></path>
            <line x1="711.351476" y1="516.30478" x2="722.634455" y2="517.373127" id="Path" stroke="#391F7E" fill="#FFFFFF" fill-rule="nonzero"></line>
            <line x1="717.83842" y1="516.981144" x2="720.359413" y2="520.462881" id="Path" stroke="#391F7E" fill="#FFFFFF" fill-rule="nonzero"></line>
            <line x1="714.064617" y1="516.596846" x2="717.961396" y2="513.791473" id="Path" stroke="#391F7E" fill="#FFFFFF" fill-rule="nonzero"></line>
            <line x1="700.460479" y1="514.721474" x2="694.042708" y2="501.278741" id="Path" stroke="#391F7E" fill="#FFFFFF" fill-rule="nonzero"></line>
            <path d="M684.781134,496.544194 C685.319151,500.317997 690.607087,505.052544 694.38089,504.522213 C698.154693,503.991882 698.992462,498.37345 698.462132,494.622705 C698.241024,492.073376 696.630616,489.854365 694.275447,488.853793 C691.920278,487.853221 689.205134,488.234561 687.216707,489.845189 C685.228279,491.455817 684.291437,494.032588 684.781134,496.544194 Z" id="Path" stroke="#391F7E" fill="#FFFFFF" fill-rule="nonzero"></path>
            <line x1="695.456924" y1="504.276263" x2="691.360311" y2="493.715763" id="Path" stroke="#391F7E" fill="#FFFFFF" fill-rule="nonzero"></line>
            <line x1="693.035848" y1="498.227417" x2="689.008409" y2="496.736342" id="Path" stroke="#391F7E" fill="#FFFFFF" fill-rule="nonzero"></line>
            <line x1="694.442378" y1="501.747584" x2="696.079486" y2="497.235929" id="Path" stroke="#391F7E" fill="#FFFFFF" fill-rule="nonzero"></line>
            <line x1="698.792628" y1="534.305283" x2="713.680319" y2="534.76644" id="Path" stroke="#391F7E" fill="#FFFFFF" fill-rule="nonzero"></line>
            <path d="M721.742885,541.330244 C718.068999,542.367848 711.605112,539.431814 710.567508,535.757928 C709.529905,532.084042 714.32594,529.071149 717.999825,528.071975 C721.567224,527.310782 725.112647,529.45055 726.101599,532.961635 C727.090551,536.472721 725.183131,540.148367 721.742885,541.360988 L721.742885,541.330244 Z" id="Path" stroke="#391F7E" fill="#FFFFFF" fill-rule="nonzero"></path>
            <line x1="710.359988" y1="534.674209" x2="721.681397" y2="534.174622" id="Path" stroke="#391F7E" fill="#FFFFFF" fill-rule="nonzero"></line>
            <line x1="716.877676" y1="534.451316" x2="719.859826" y2="537.541069" id="Path" stroke="#391F7E" fill="#FFFFFF" fill-rule="nonzero"></line>
            <line x1="713.088501" y1="534.589663" x2="716.562552" y2="531.269331" id="Path" stroke="#391F7E" fill="#FFFFFF" fill-rule="nonzero"></line>
            <line x1="699.353702" y1="534.612721" x2="691.137418" y2="522.19222" id="Path" stroke="#391F7E" fill="#FFFFFF" fill-rule="nonzero"></line>
            <path d="M681.314769,518.779657 C682.360059,522.445857 688.232127,526.404123 691.921385,525.358833 C695.610643,524.313543 695.641387,518.648996 694.588411,514.982796 C694.04054,512.463878 692.137468,510.458566 689.650639,509.77975 C687.16381,509.100934 684.505822,509.861239 682.75414,511.75246 C681.002458,513.643682 680.447708,516.352042 681.314769,518.779657 Z" id="Path" stroke="#391F7E" fill="#FFFFFF" fill-rule="nonzero"></path>
            <line x1="692.958989" y1="524.96685" x2="687.432788" y2="515.067341" id="Path" stroke="#391F7E" fill="#FFFFFF" fill-rule="nonzero"></line>
            <line x1="689.723202" y1="519.302302" x2="685.526672" y2="518.395359" id="Path" stroke="#391F7E" fill="#FFFFFF" fill-rule="nonzero"></line>
            <line x1="691.598575" y1="522.599576" x2="692.597749" y2="517.903458" id="Path" stroke="#391F7E" fill="#FFFFFF" fill-rule="nonzero"></line>
            <path d="M95.2300729,385.297703 C95.2300729,385.297703 76.0151892,217.305818 14.9656607,248.180293 C-42.7789077,277.386916 85.1999036,412.944078 85.1999036,412.944078 L95.2300729,385.297703 Z" id="Path" stroke="#391F7E" fill="#6D9DFF" fill-rule="nonzero"></path>
            <path d="M91.8866831,394.221095 C91.8866831,394.221095 34.3650073,290.337748 30.3529396,278.278487" id="Path" stroke="#391F7E"></path>
            <line x1="40.3831089" y1="299.345685" x2="44.7333586" y2="282.62105" id="Path" stroke="#391F7E" fill="#FFFFFF" fill-rule="nonzero"></line>
            <line x1="52.2041053" y1="321.535033" x2="28.3469057" y2="316.400816" id="Path" stroke="#391F7E" fill="#FFFFFF" fill-rule="nonzero"></line>
            <line x1="71.3728733" y1="356.536865" x2="73.1637005" y2="331.34231" id="Path" stroke="#391F7E" fill="#FFFFFF" fill-rule="nonzero"></line>
            <line x1="33.6963294" y1="336.691733" x2="52.2041053" y2="362.554967" id="Path" stroke="#391F7E" fill="#FFFFFF" fill-rule="nonzero"></line>
            <path d="M23.4355815,253.975502 C23.4355815,253.975502 42.6120354,251.30079 50.6438568,271.368815" id="Path" stroke="#391F7E"></path>
            <path d="M97.9739583,368.734473 C97.9739583,368.734473 185.955068,261.000463 132.72984,242.738638 C82.3868446,225.460614 75.9152718,378.680097 75.9152718,378.680097 L97.9739583,368.734473 Z" id="Path" stroke="#391F7E" fill="#FFFFFF" fill-rule="nonzero"></path>
            <path d="M90.7952777,371.878028 C90.7952777,371.878028 119.025785,278.355346 123.844878,269.0784" id="Path" stroke="#391F7E"></path>
            <line x1="117.158098" y1="287.078903" x2="129.509425" y2="280.046256" id="Path" stroke="#391F7E" fill="#FFFFFF" fill-rule="nonzero"></line>
            <line x1="110.863302" y1="306.778002" x2="100.195199" y2="289.776673" id="Path" stroke="#391F7E" fill="#FFFFFF" fill-rule="nonzero"></line>
            <line x1="101.232803" y1="338.167436" x2="117.104296" y2="324.755447" id="Path" stroke="#391F7E" fill="#FFFFFF" fill-rule="nonzero"></line>
            <line x1="91.3102366" y1="304.572134" x2="86.6832926" y2="330.320078" id="Path" stroke="#391F7E" fill="#FFFFFF" fill-rule="nonzero"></line>
            <path d="M134.174799,251.062525 C134.174799,251.062525 146.756705,260.823686 139.554967,277.071792" id="Path" stroke="#391F7E"></path>
            <path d="M39.4761664,549.408182 C39.4761664,549.408182 10.1004522,530.961893 25.2033508,493.177746 C40.3062494,455.393599 54.579065,459.605501 54.579065,459.605501 C54.579065,459.605501 13.4592139,426.033256 44.5104659,366.444059 C75.561718,306.854862 121.723555,341.264875 121.723555,341.264875 C121.723555,341.264875 151.099269,282.521133 209.005242,302.635273 C266.911216,322.749414 264.397909,424.334661 264.397909,424.334661 C264.397909,424.334661 321.458428,376.520344 355.038358,437.785079 C388.618289,499.049814 353.36282,546.887189 353.36282,546.887189 C353.36282,546.887189 36.9551736,549.408182 39.4761664,549.408182 Z" id="Path" stroke="#391F7E" fill="#FFC542" fill-rule="nonzero"></path>
            <line x1="23.1050855" y1="549.615702" x2="839.676155" y2="549.615702" id="Path" stroke="#391F7E" fill="#FFFFFF" fill-rule="nonzero"></line>
            <path d="M276.764608,239.525909 C276.764608,239.525909 262.122867,233.115824 205.40053,248.67988 C148.678193,264.243936 122.115538,322.810901 134.013394,412.498292 C145.91125,502.185683 203.571273,547.002478 266.719067,547.94785 C329.866861,548.893223 479.051218,547.94785 479.051218,547.94785 C479.051218,547.94785 525.728013,544.289337 505.590815,481.141543 C485.453617,417.993749 413.128795,367.650754 380.186798,353.923641 C347.244801,340.196528 354.561829,234.945081 276.764608,239.525909 Z" id="Path" stroke="#391F7E" fill="#FFFFFF" fill-rule="nonzero"></path>
            <path d="M421.790864,505.890313 L415.373093,521.684947 C414.634034,523.514443 415.513834,525.597094 417.340697,526.342635 L472.833281,548.947024 C473.782554,549.341296 474.850212,549.338846 475.797666,548.940222 C476.74512,548.541598 477.493392,547.780029 477.875267,546.825701 L477.875267,546.825701 C478.510566,545.294432 478.092287,543.528364 476.837663,542.444708 L444.233848,513.96825 C444.233848,513.96825 433.196819,521.193046 421.790864,505.890313 Z" id="Path" stroke="#391F7E" fill="#FFC542" fill-rule="nonzero"></path>
            <polyline id="Path" stroke="#391F7E" fill="#FFFFFF" fill-rule="nonzero" points="428.76971 524.674783 429.868801 534.19768 446.078477 536.710986 452.603852 533.882556 452.688397 530.416191 453.310959 529.793628 447.492693 517.67288 429.084834 524.836188"></polyline>
            <path d="M375.513738,350.16521 C375.513738,350.16521 436.132853,396.088782 445.771039,416.26441 C455.409225,436.440037 454.88658,504.77585 454.88658,504.77585 L420.514996,436.501525 L362.193981,393.790682 L341.072981,380.009767 C341.072981,380.009767 335.100995,364.399595 336.461409,363.484967 C337.821822,362.570339 355.745466,353.839095 355.745466,353.839095 L375.513738,350.16521 Z" id="Path" stroke="#391F7E" fill="#6D9DFF" fill-rule="nonzero"></path>
            <path d="M229.780374,376.520344 C281.391552,368.965052 300.27594,397.941096 300.27594,397.941096 C300.27594,397.941096 266.603778,394.797541 260.308982,412.736557" id="Path" stroke="#391F7E"></path>
            <path d="M266.888158,389.417374 C266.888158,389.417374 238.250295,378.088279 216.529791,395.71217" id="Path" stroke="#391F7E"></path>
            <path d="M283.282297,379.663899 C283.282297,379.663899 271.638077,356.690584 238.281039,354.484715" id="Path" stroke="#391F7E"></path>
            <path d="M300.591064,406.103579 C300.591064,406.103579 273.213698,414.558128 272.268325,444.187478" id="Path" stroke="#391F7E"></path>
            <path d="M289.884531,384.552165 C289.884531,384.552165 296.256186,419.300361 321.742808,426.82491 C347.22943,434.349458 396.465648,440.728799 400.516145,444.20285 C404.566642,447.676901 425.987395,525.881478 425.987395,525.881478 L458.268399,523.998419 C458.268399,523.998419 447.508065,438.115575 435.364258,429.461192 C423.220452,420.806808 400.777467,399.386056 376.889524,387.849439 C364.346048,381.800594 344.908272,362.570339 344.908272,362.570339 L289.884531,384.552165 Z" id="Path" stroke="#391F7E" fill="#6D9DFF" fill-rule="nonzero"></path>
            <path d="M300.92156,216.268214 C300.92156,216.268214 273.413532,236.843512 270.177746,240.77872 C266.94196,244.713928 254.682864,287.263366 258.156915,316.608337 C261.630966,345.953307 266.711381,354.984302 271.330639,357.297774 C271.330639,357.297774 277.394856,385.11324 288.001472,389.755556 C298.608088,394.397872 335.077937,377.81927 339.059261,369.19563 C339.059261,369.19563 367.566462,357.928023 373.538448,355.276369 C379.510434,352.624715 382.17746,339.358759 382.17746,339.358759 L418.53202,359.419098 C418.53202,359.419098 429.292355,342.679091 429.292355,340.688429 C429.292355,338.697767 424.357973,327.99892 424.357973,327.99892 L395.412672,311.550979 C395.412672,311.550979 366.90547,240.609629 358.289517,237.289297 C349.673563,233.968965 326.461983,224.031027 326.461983,224.031027 L300.92156,216.268214 Z" id="Path" stroke="#391F7E" fill="#FFC542" fill-rule="nonzero"></path>
            <polyline id="Path" stroke="#391F7E" points="319.829005 232.623923 323.441404 243.707068 326.246777 230.640947"></polyline>
            <path d="M334.670582,356.175625 C335.844571,360.607713 337.31067,364.957224 339.059261,369.19563" id="Path" stroke="#391F7E"></path>
            <path d="M323.441404,243.707068 C323.441404,243.707068 323.341486,285.211217 328.406529,323.36429" id="Path" stroke="#391F7E"></path>
            <g id="Group" transform="translate(246.013108, 237.673595)" fill="#391F7E" fill-rule="nonzero">
                <circle id="Oval" cx="20.1679419" cy="2.86686065" r="2.86686065"></circle>
                <circle id="Oval" cx="54.1475422" cy="2.86686065" r="2.86686065"></circle>
                <circle id="Oval" cx="88.1271426" cy="2.86686065" r="2.86686065"></circle>
                <circle id="Oval" cx="122.106743" cy="2.86686065" r="2.86686065"></circle>
                <circle id="Oval" cx="156.086343" cy="2.86686065" r="2.86686065"></circle>
                <circle id="Oval" cx="2.86686065" cy="17.7314947" r="2.86686065"></circle>
                <circle id="Oval" cx="36.846461" cy="17.7314947" r="2.86686065"></circle>
                <circle id="Oval" cx="70.8260613" cy="17.7314947" r="2.86686065"></circle>
                <circle id="Oval" cx="104.805662" cy="17.7314947" r="2.86686065"></circle>
                <circle id="Oval" cx="138.785262" cy="17.7314947" r="2.86686065"></circle>
                <circle id="Oval" cx="20.1679419" cy="33.6029886" r="2.86686065"></circle>
                <circle id="Oval" cx="54.1475422" cy="33.6029886" r="2.86686065"></circle>
                <circle id="Oval" cx="88.1271426" cy="33.6029886" r="2.86686065"></circle>
                <circle id="Oval" cx="122.106743" cy="33.6029886" r="2.86686065"></circle>
                <circle id="Oval" cx="156.086343" cy="33.6029886" r="2.86686065"></circle>
                <circle id="Oval" cx="2.86686065" cy="48.4599367" r="2.86686065"></circle>
                <circle id="Oval" cx="36.846461" cy="48.4599367" r="2.86686065"></circle>
                <circle id="Oval" cx="70.8260613" cy="48.4599367" r="2.86686065"></circle>
                <circle id="Oval" cx="104.805662" cy="48.4599367" r="2.86686065"></circle>
                <circle id="Oval" cx="138.785262" cy="48.4599367" r="2.86686065"></circle>
                <circle id="Oval" cx="20.1679419" cy="64.3314306" r="2.86686065"></circle>
                <circle id="Oval" cx="54.1475422" cy="64.3314306" r="2.86686065"></circle>
                <circle id="Oval" cx="88.1271426" cy="64.3314306" r="2.86686065"></circle>
                <circle id="Oval" cx="122.106743" cy="64.3314306" r="2.86686065"></circle>
                <circle id="Oval" cx="156.086343" cy="64.3314306" r="2.86686065"></circle>
                <circle id="Oval" cx="2.86686065" cy="79.1883787" r="2.86686065"></circle>
                <circle id="Oval" cx="36.846461" cy="79.1883787" r="2.86686065"></circle>
                <circle id="Oval" cx="70.8260613" cy="79.1883787" r="2.86686065"></circle>
                <circle id="Oval" cx="104.805662" cy="79.1883787" r="2.86686065"></circle>
                <circle id="Oval" cx="138.785262" cy="79.1883787" r="2.86686065"></circle>
                <circle id="Oval" cx="20.1679419" cy="95.0598726" r="2.86686065"></circle>
                <circle id="Oval" cx="54.1475422" cy="95.0598726" r="2.86686065"></circle>
                <circle id="Oval" cx="88.1271426" cy="95.0598726" r="2.86686065"></circle>
                <circle id="Oval" cx="122.106743" cy="95.0598726" r="2.86686065"></circle>
                <circle id="Oval" cx="156.086343" cy="95.0598726" r="2.86686065"></circle>
                <circle id="Oval" cx="2.86686065" cy="109.916821" r="2.86686065"></circle>
                <circle id="Oval" cx="36.846461" cy="109.916821" r="2.86686065"></circle>
                <circle id="Oval" cx="70.8260613" cy="109.916821" r="2.86686065"></circle>
                <circle id="Oval" cx="104.805662" cy="109.916821" r="2.86686065"></circle>
                <circle id="Oval" cx="138.785262" cy="109.916821" r="2.86686065"></circle>
                <circle id="Oval" cx="20.1679419" cy="125.788315" r="2.86686065"></circle>
                <circle id="Oval" cx="54.1475422" cy="125.788315" r="2.86686065"></circle>
                <circle id="Oval" cx="88.1271426" cy="125.788315" r="2.86686065"></circle>
                <circle id="Oval" cx="122.106743" cy="125.788315" r="2.86686065"></circle>
                <circle id="Oval" cx="156.086343" cy="125.788315" r="2.86686065"></circle>
                <circle id="Oval" cx="2.86686065" cy="140.645263" r="2.86686065"></circle>
                <circle id="Oval" cx="36.846461" cy="140.645263" r="2.86686065"></circle>
                <circle id="Oval" cx="70.8260613" cy="140.645263" r="2.86686065"></circle>
                <circle id="Oval" cx="104.805662" cy="140.645263" r="2.86686065"></circle>
                <circle id="Oval" cx="138.785262" cy="140.645263" r="2.86686065"></circle>
            </g>
            <polyline id="Path" stroke="#391F7E" points="350.895629 279.085512 362.3477 324.455695 382.154402 339.358759"></polyline>
            <path d="M360.310922,333.471319 C360.310922,333.471319 373.707539,330.289334 377.058615,329.628342 C380.409691,328.96735 391.462092,331.803467 393.967713,333.648096 C396.473333,335.492724 403.513667,348.051572 402.00722,349.388928 C400.500773,350.726284 391.454406,339.174296 390.11705,338.836114 C388.779694,338.497932 384.736883,337.83694 384.736883,337.83694 C384.736883,337.83694 390.655067,341.679917 391.654241,344.577521 C392.653415,347.475126 393.74482,350.41116 392.353662,351.387276 C390.962505,352.363392 388.326223,345.830332 387.21176,345.276943 C386.097296,344.723555 379.848616,341.941239 379.848616,341.941239 C379.848616,341.941239 384.160436,345.553638 385.128866,346.937109 C386.097296,348.320581 388.46457,352.770748 387.350107,353.193475 C386.235643,353.616203 382.89994,350.749342 382.069857,349.996119 C380.786302,348.820168 378.042417,346.522068 375.682829,347.075456 C373.323242,347.628845 359.64993,349.020003 359.64993,349.020003 L360.310922,333.471319 Z" id="Path" stroke="#391F7E" fill="#FFFFFF" fill-rule="nonzero"></path>
            <path d="M337.414467,155.579925 C337.414467,155.579925 352.940093,151.590916 352.940093,140.892068 C352.940093,130.193221 346.645297,124.943715 341.826204,124.943715 C337.007111,124.943715 331.334878,131.861073 331.334878,131.861073 C331.334878,131.861073 323.095536,124.943715 318.530079,133.536611 C318.530079,133.536611 313.288259,128.08727 306.470818,132.176197 C299.653378,136.265124 300.498832,139.862151 294.826599,140.630746 C284.227669,142.106449 283.804941,153.220338 286.218331,162.243647 C288.63172,171.266956 281.499155,178.299604 286.533455,187.530434 C291.567754,196.761264 299.338253,195.40085 299.338253,195.40085 L299.338253,210.296228 C299.338253,210.296228 302.643213,223.831192 307.992637,229.511112 C313.342061,235.191032 324.671156,234.545411 326.246777,230.610203 C327.822397,226.674995 325.616528,211.39532 325.616528,211.39532 L325.616528,201.326721 C325.616528,201.326721 337.099343,201.48044 337.729591,191.56556 C338.359839,181.65068 337.414467,155.579925 337.414467,155.579925 Z" id="Path" stroke="#391F7E" fill="#FFFFFF" fill-rule="nonzero"></path>
            <path d="M298.316022,209.320112 C298.316022,209.320112 309.076356,228.819376 319.836691,232.623923 C319.836691,232.623923 306.616851,236.659049 304.603132,244.921449 C304.603132,244.921449 294.519161,220.495488 294.296268,215.338214 C294.073375,210.180939 298.316022,209.320112 298.316022,209.320112 Z" id="Path" stroke="#391F7E" fill="#FFC542" fill-rule="nonzero"></path>
            <path d="M325.616528,211.441435 C325.616528,211.441435 328.398844,225.514416 326.246777,230.656319 C326.246777,230.656319 332.157275,231.970617 332.60306,240.033182 C332.60306,240.01781 333.417771,212.894081 325.616528,211.441435 Z" id="Path" stroke="#391F7E" fill="#FFC542" fill-rule="nonzero"></path>
            <path d="M292.520813,283.866175 C292.520813,283.866175 296.678914,314.118088 296.678914,322.818587" id="Path" stroke="#391F7E" fill="#FFC542" fill-rule="nonzero"></path>
            <path d="M289.115935,322.818587 C289.115935,322.818587 331.096613,319.41371 360.211005,330.004954 L359.542327,351.05678 C337.537442,358.842651 272.475846,357.205543 271.330639,357.282403" id="Path" stroke="#391F7E"></path>
            <rect id="Rectangle" stroke="#391F7E" fill="#FFFFFF" fill-rule="nonzero" x="356.890673" y="358.281576" width="60.3424207" height="5.7490932"></rect>
            <path d="M496.759654,364.03067 L410.507885,364.03067 L440.383186,273.036666 C441.128383,270.746259 443.262537,269.195275 445.671122,269.19369 L520.22487,269.19369 C522.009615,269.19369 523.686268,270.048905 524.733107,271.494395 C525.779946,272.939885 526.069923,274.799782 525.512806,276.495346 L496.759654,364.03067 Z" id="Path" stroke="#391F7E" fill="#FFFFFF" fill-rule="nonzero"></path>
            <path d="M337.414467,155.579925 C337.414467,155.579925 333.171821,155.733644 330.804547,152.274965" id="Path" stroke="#391F7E" fill="#FFFFFF" fill-rule="nonzero"></path>
            <line x1="318.530079" y1="133.544297" x2="317.746112" y2="138.424877" id="Path" stroke="#391F7E" fill="#FFFFFF" fill-rule="nonzero"></line>
            <path d="M297.631972,139.69306 C297.631972,139.69306 304.618503,139.37025 310.698093,141.737523" id="Path" stroke="#391F7E" fill="#FFFFFF" fill-rule="nonzero"></path>
            <path d="M296.187013,149.123725 C296.187013,149.123725 291.621556,151.329593 291.93668,158.408356" id="Path" stroke="#391F7E" fill="#FFFFFF" fill-rule="nonzero"></path>
            <path d="M341.349675,132.598925 C341.349675,132.598925 348.436124,136.219009 342.610172,146.433641" id="Path" stroke="#391F7E" fill="#FFFFFF" fill-rule="nonzero"></path>
            <path d="M311.920159,167.224145 C311.920159,167.224145 311.612721,163.288937 307.677513,164.703152 C303.742305,166.117368 303.780735,172.888693 306.086521,176.508777 C308.392307,180.128861 312.235283,176.508777 312.235283,176.508777" id="Path" stroke="#391F7E" fill="#FFFFFF" fill-rule="nonzero"></path>
            <path d="M309.245447,169.376212 C307.992637,169.376212 307.831232,173.618858 308.884208,173.780263" id="Path" stroke="#391F7E" fill="#FFFFFF" fill-rule="nonzero"></path>
            <path d="M326.71562,170.213981 C326.71562,170.213981 330.412563,177.769273 330.258844,179.813737 C330.105125,181.8582 325.770247,181.8582 325.770247,181.8582" id="Path" stroke="#391F7E" fill="#FFFFFF" fill-rule="nonzero"></path>
            <path d="M333.878928,187.599608 C333.878928,187.599608 331.988184,191.142832 326.477355,189.328947" id="Path" stroke="#391F7E" fill="#FFFFFF" fill-rule="nonzero"></path>
            <path d="M299.338253,195.44701 C299.338253,195.44701 308.069497,195.546884 307.792802,186.185392" id="Path" stroke="#391F7E" fill="#FFFFFF" fill-rule="nonzero"></path>
            <path d="M325.616528,201.372836 C325.616528,201.372836 322.311568,201.603415 317.430988,198.221595" id="Path" stroke="#391F7E" fill="#FFFFFF" fill-rule="nonzero"></path>
            <path d="M316.11669,155.157198 C316.11669,155.157198 312.658011,154.52695 311.505118,155.264801 C310.352225,156.002653 310.698093,160.445134 310.698093,160.445134" id="Path" stroke="#391F7E" fill="#FFFFFF" fill-rule="nonzero"></path>
            <path d="M291.990482,183.172498 C291.990482,183.172498 291.782961,189.774732 298.90784,189.044567" id="Path" stroke="#391F7E" fill="#FFFFFF" fill-rule="nonzero"></path>
            <ellipse id="Oval" fill="#391F7E" fill-rule="nonzero" cx="332.065043" cy="168.300178" rx="1.31429804" ry="1.80619907"></ellipse>
            <ellipse id="Oval" fill="#391F7E" fill-rule="nonzero" cx="321.250907" cy="168.576873" rx="1.31429804" ry="1.80619907"></ellipse>
            <path d="M429.146322,528.264124 L429.146322,545.273139 C429.146322,547.246987 430.746442,548.847107 432.72029,548.847107 L492.670727,548.847107 C494.793145,548.847107 496.513745,547.126548 496.513745,545.00413 L496.513745,545.00413 C496.521282,543.349149 495.46846,541.875199 493.90048,541.345616 L452.965092,527.272636 C452.965092,527.272636 445.478973,538.132888 429.146322,528.264124 Z" id="Path" stroke="#391F7E" fill="#FFC542" fill-rule="nonzero"></path>
            <path d="M473.002372,311.919905 C472.911054,314.915465 470.45775,317.297313 467.4608,317.300073 C467.237264,317.296179 467.014076,317.280787 466.792119,317.253957 C466.792119,317.32313 466.792119,317.384618 466.792119,317.453792 C466.789073,320.432396 469.138108,322.882149 472.114217,323.004079 C475.090327,323.126009 477.631883,320.876622 477.8725,317.90775 C478.113116,314.938878 475.966961,312.309568 473.010058,311.950649 L473.002372,311.919905 Z" id="Path" stroke="#391F7E" fill="#FFFFFF" fill-rule="nonzero"></path>
            <path d="M543.39802,138.447902 L447.062279,138.447902 C443.264662,138.445896 439.621776,139.952538 436.935014,142.636418 C434.248252,145.320297 432.7377,148.961564 432.735662,152.75918 L432.735662,205.331102 C432.748386,213.233225 439.160147,219.631228 447.062279,219.626976 L500.018499,219.626976 C501.264243,219.629037 502.414838,220.29363 503.039078,221.371687 L514.160653,240.640373 C515.491413,242.943356 517.949346,244.36184 520.609168,244.36184 C523.26899,244.36184 525.726923,242.943356 527.057683,240.640373 L538.202316,221.402431 C538.826556,220.324374 539.977151,219.659781 541.222895,219.65772 L543.421078,219.65772 C547.221358,219.65976 550.866575,218.151008 553.553779,215.463804 C556.240984,212.776599 557.749736,209.131383 557.747697,205.331102 L557.747697,152.75918 C557.745663,148.957563 556.231946,145.312796 553.540194,142.628253 C550.848442,139.94371 547.199629,138.439772 543.39802,138.447902 Z" id="Path" stroke="#391F7E" fill="#FFFFFF" fill-rule="nonzero"></path>
            <path d="M499.841722,152.259594 C510.148585,152.259594 517.334952,157.824224 517.334952,168.123401 C517.334952,177.692414 510.417594,182.880432 500.733292,182.949606 L500.364367,188.514236 L489.242792,188.514236 L488.873866,174.725636 L493.316347,174.725636 C500.287507,174.725636 505.1066,173.465139 505.02974,168.054228 C505.02974,164.718524 502.954533,162.67406 499.695689,162.67406 C496.060233,162.67406 494.061885,164.895301 494.061885,168.307864 L482.094855,168.307864 C481.902706,159.376786 488.128329,152.259594 499.841722,152.259594 Z M494.953455,207.790607 C490.426429,207.790607 487.390477,204.716226 487.390477,200.965481 C487.390477,197.037958 490.426429,194.002007 494.953455,194.002007 C499.480482,194.002007 502.439574,197.037958 502.439574,200.965481 C502.439574,204.74697 499.395936,207.790607 494.953455,207.790607 Z" id="Shape" fill="#391F7E" fill-rule="nonzero"></path>
            <path d="M461.988401,29.5149165 L425.86442,1.43044249 C422.900719,-0.871572257 418.632598,-0.338487045 416.326151,2.62176528 L401.008046,22.3054921 C399.900075,23.7293138 399.403132,25.5349777 399.626552,27.3252158 C399.849971,29.1154538 400.775449,30.7436014 402.199369,31.8514464 L422.029129,47.2848409 C422.497369,47.6484639 422.734939,48.235056 422.651691,48.8220316 L421.206732,59.2749284 C421.0305,60.5254804 421.536189,61.7748437 422.532641,62.5507437 C423.529094,63.3266436 424.86429,63.5107085 426.033511,63.0333596 L435.817729,59.0597217 C436.365619,58.8400765 436.988931,58.927867 437.454837,59.2903003 L438.277234,59.9282344 C439.701056,61.0362057 441.50672,61.5331483 443.296958,61.3097289 C445.087196,61.0863095 446.715344,60.1608316 447.823189,58.7369116 L463.141294,39.0531848 C465.456437,36.1007864 464.940309,31.830685 461.988401,29.5149165 L461.988401,29.5149165 Z" id="Path" stroke="#391F7E" fill="#FFC542" fill-rule="nonzero"></path>
            <path d="M441.651368,21.990368 C445.494345,24.9955758 446.578064,29.1767345 443.572856,33.0350832 C440.790541,36.6167375 436.655498,36.5475639 433.035414,33.7498769 L431.275331,35.717481 L427.109544,32.4816945 L430.952521,27.2091305 L432.620373,28.5003706 C435.225911,30.5371483 437.401036,31.4671487 438.953598,29.4149991 C439.423521,28.9052039 439.647204,28.2155132 439.565936,27.526954 C439.484668,26.8383947 439.106566,26.2197302 438.530871,25.8333448 C437.997593,25.3345139 437.270232,25.0984365 436.545654,25.1890089 C435.821075,25.2795812 435.174206,25.6874373 434.780126,26.3021879 L430.34533,22.8665667 C432.850951,19.4309455 437.262689,18.5778047 441.651368,21.990368 Z M423.635493,41.3589708 C421.936897,40.0446728 421.683261,38.023267 422.790038,36.6013656 C423.580725,35.3473312 425.061029,34.708429 426.5159,34.9932757 C427.970772,35.2781224 429.100833,36.4281033 429.360217,37.8877293 C429.619601,39.3473553 428.954934,40.8162704 427.687276,41.5849267 C426.419618,42.353583 424.809825,42.2638096 423.635493,41.3589708 L423.635493,41.3589708 Z" id="Shape" fill="#391F7E" fill-rule="nonzero"></path>
            <path d="M668.732863,180.428613 L628.174087,212.448295 C624.862806,215.074307 624.29286,219.881074 626.898219,223.20863 L644.368391,245.33649 C646.9967,248.645315 651.80318,249.211793 655.128726,246.604672 L677.417991,229.003839 C677.94335,228.590433 678.649053,228.487945 679.270306,228.734831 L690.353451,233.146568 C691.677844,233.675356 693.183783,233.456918 694.303354,232.57363 C695.422924,231.690343 695.985808,230.276579 695.779734,228.865492 L694.05808,217.059867 C693.963363,216.396828 694.226492,215.733157 694.749816,215.315156 L695.679816,214.58499 C698.988641,211.956681 699.555119,207.150201 696.947999,203.824655 L679.477826,181.696795 C676.850664,178.397773 672.055879,177.831864 668.732863,180.428613 L668.732863,180.428613 Z" id="Path" stroke="#391F7E" fill="#6D9DFF" fill-rule="nonzero"></path>
            <path d="M654.982693,200.734902 C659.325256,197.306967 664.205837,197.260851 667.626086,201.595729 C670.800385,205.623169 669.624434,210.104079 665.558565,213.362924 L667.249474,215.822429 L662.568729,219.519372 L657.834181,213.839453 L659.701868,212.356064 C662.637902,210.050278 664.244267,207.913583 662.41501,205.653912 C661.982176,205.001253 661.285735,204.570342 660.508506,204.474296 C659.731277,204.378251 658.950889,204.626664 658.372198,205.154325 C657.681417,205.605267 657.226358,206.339495 657.129885,207.158776 C657.033412,207.978056 657.305472,208.797905 657.872611,209.396972 L652.845998,213.362924 C649.794674,209.696724 650.055997,204.631681 654.982693,200.734902 Z M671.384517,225.775739 C669.478401,227.274499 667.187987,227.013177 665.92749,225.414499 C664.666994,223.81582 664.897573,221.471605 666.796003,219.972844 C667.565069,219.270814 668.591367,218.920095 669.62923,219.00464 C670.667093,219.089185 671.623098,219.601384 672.268402,220.418629 C673.521213,221.971192 673.252204,224.238548 671.384517,225.775739 Z" id="Shape" fill="#FFFFFF" fill-rule="nonzero"></path>
            <path d="M675.27361,511.055274 C675.27361,511.055274 659.586579,374.014723 609.804658,399.201593 C562.697449,423.028049 667.088069,533.605861 667.088069,533.605861 L675.27361,511.055274 Z" id="Path" stroke="#391F7E" fill="#FFFFFF" fill-rule="nonzero"></path>
            <path d="M672.545096,518.326186 C672.545096,518.326186 625.66078,433.573177 622.348134,423.788958" id="Path" stroke="#391F7E" fill="#FFFFFF" fill-rule="nonzero"></path>
            <line x1="630.533675" y1="440.93632" x2="634.084585" y2="427.301439" id="Path" stroke="#391F7E" fill="#FFFFFF" fill-rule="nonzero"></line>
            <line x1="640.17186" y1="459.036741" x2="620.711026" y2="454.855582" id="Path" stroke="#391F7E" fill="#FFFFFF" fill-rule="nonzero"></line>
            <line x1="655.812776" y1="487.590058" x2="657.273107" y2="467.037818" id="Path" stroke="#391F7E" fill="#FFFFFF" fill-rule="nonzero"></line>
            <line x1="625.076648" y1="471.40344" x2="640.17186" y2="492.501382" id="Path" stroke="#391F7E" fill="#FFFFFF" fill-rule="nonzero"></line>
            <path d="M616.71433,403.928454 C616.71433,403.928454 632.355246,401.784073 638.888306,418.116724" id="Path" stroke="#391F7E" fill="#FFFFFF" fill-rule="nonzero"></path>
            <path d="M128.195127,542.875121 C128.195127,542.875121 105.237184,430.906151 223.078223,355.460832" id="Path" stroke="#391F7E"></path>
            <path d="M243.545917,355.506947 C239.118808,361.363644 225.783679,364.376538 219.934668,359.949428 C214.085657,355.522319 217.920948,345.346117 222.348057,339.474048 C226.77542,333.620421 235.109809,332.464205 240.963437,336.891568 C246.817064,341.318931 247.97328,349.65332 243.545917,355.506947 Z" id="Path" stroke="#391F7E" fill="#6D9DFF" fill-rule="nonzero"></path>
            <line x1="218.351362" y1="358.527527" x2="235.137484" y2="344.592893" id="Path" stroke="#391F7E" fill="#6D9DFF" fill-rule="nonzero"></line>
            <line x1="228.089465" y1="350.610995" x2="236.259633" y2="351.886863" id="Path" stroke="#391F7E" fill="#6D9DFF" fill-rule="nonzero"></line>
            <line x1="222.432603" y1="355.222567" x2="223.908306" y2="346.09934" id="Path" stroke="#391F7E" fill="#6D9DFF" fill-rule="nonzero"></line>
            <line x1="180.97457" y1="388.994647" x2="209.228135" y2="393.829111" id="Path" stroke="#391F7E" fill="#6D9DFF" fill-rule="nonzero"></line>
            <path d="M222.847644,408.501596 C215.576732,409.50077 204.03243,402.183743 203.040942,394.905145 C202.049454,387.626547 211.979706,383.161008 219.250618,382.16952 C226.479351,381.257663 233.094364,386.336466 234.080494,393.555442 C235.066624,400.774418 230.0561,407.441298 222.847644,408.501596 L222.847644,408.501596 Z" id="Path" stroke="#391F7E" fill="#6D9DFF" fill-rule="nonzero"></path>
            <line x1="202.933339" y1="392.783822" x2="224.646158" y2="394.843657" id="Path" stroke="#391F7E" fill="#6D9DFF" fill-rule="nonzero"></line>
            <line x1="215.415327" y1="394.09812" x2="220.27285" y2="400.784899" id="Path" stroke="#391F7E" fill="#6D9DFF" fill-rule="nonzero"></line>
            <line x1="208.152101" y1="393.344896" x2="215.653592" y2="387.949357" id="Path" stroke="#391F7E" fill="#6D9DFF" fill-rule="nonzero"></line>
            <line x1="181.958372" y1="389.740184" x2="169.622417" y2="363.861579" id="Path" stroke="#391F7E" fill="#6D9DFF" fill-rule="nonzero"></line>
            <path d="M151.79869,354.746038 C152.820922,362.01695 162.997125,371.132491 170.244979,370.117945 C177.492833,369.103399 179.114569,358.320006 178.092337,351.05678 C177.495787,346.299383 174.382785,342.232212 169.946299,340.413892 C165.509812,338.595571 160.437831,339.308078 156.674043,342.278364 C152.910255,345.248651 151.038332,350.016099 151.775633,354.753724 L151.79869,354.746038 Z" id="Path" stroke="#391F7E" fill="#6D9DFF" fill-rule="nonzero"></path>
            <line x1="172.343244" y1="369.641416" x2="164.44977" y2="349.304383" id="Path" stroke="#391F7E" fill="#6D9DFF" fill-rule="nonzero"></line>
            <line x1="167.685556" y1="357.981824" x2="159.930429" y2="355.130336" id="Path" stroke="#391F7E" fill="#6D9DFF" fill-rule="nonzero"></line>
            <line x1="170.383326" y1="364.768521" x2="173.534567" y2="356.075708" id="Path" stroke="#391F7E" fill="#6D9DFF" fill-rule="nonzero"></line>
            <line x1="154.957617" y1="420.837552" x2="183.211182" y2="425.679703" id="Path" stroke="#391F7E" fill="#6D9DFF" fill-rule="nonzero"></line>
            <path d="M196.830692,440.352188 C189.55978,441.343676 178.015478,434.026648 177.02399,426.755736 C176.032502,419.484824 185.962754,415.011599 193.233666,414.020111 C197.963042,413.324463 202.701632,415.222515 205.64301,418.990701 C208.584388,422.758886 209.275272,427.816506 207.452284,432.235516 C205.629297,436.654525 201.573372,439.75393 196.830692,440.352188 L196.830692,440.352188 Z" id="Path" stroke="#391F7E" fill="#6D9DFF" fill-rule="nonzero"></path>
            <line x1="176.916386" y1="424.626727" x2="198.629205" y2="426.694248" id="Path" stroke="#391F7E" fill="#6D9DFF" fill-rule="nonzero"></line>
            <line x1="189.398375" y1="425.941025" x2="194.255897" y2="432.627804" id="Path" stroke="#391F7E" fill="#6D9DFF" fill-rule="nonzero"></line>
            <line x1="182.135149" y1="425.195487" x2="189.644325" y2="419.792262" id="Path" stroke="#391F7E" fill="#6D9DFF" fill-rule="nonzero"></line>
            <line x1="155.941419" y1="421.583089" x2="143.605464" y2="395.71217" id="Path" stroke="#391F7E" fill="#6D9DFF" fill-rule="nonzero"></line>
            <path d="M125.781738,386.596629 C126.80397,393.859855 136.980172,402.983082 144.228026,401.968536 C151.47588,400.95399 153.097617,390.170597 152.075385,382.899685 C151.464305,378.1538 148.348928,374.102894 143.918967,372.293945 C139.489006,370.484996 134.428577,371.197358 130.670176,374.158991 C126.911774,377.120624 125.035809,381.874166 125.75868,386.604315 L125.781738,386.596629 Z" id="Path" stroke="#391F7E" fill="#6D9DFF" fill-rule="nonzero"></path>
            <line x1="146.326292" y1="401.484321" x2="138.432817" y2="381.154974" id="Path" stroke="#391F7E" fill="#6D9DFF" fill-rule="nonzero"></line>
            <line x1="141.668604" y1="389.832415" x2="133.913477" y2="386.973241" id="Path" stroke="#391F7E" fill="#6D9DFF" fill-rule="nonzero"></line>
            <line x1="144.366373" y1="396.619112" x2="147.517614" y2="387.926299" id="Path" stroke="#391F7E" fill="#6D9DFF" fill-rule="nonzero"></line>
            <line x1="138.540421" y1="452.703515" x2="166.793986" y2="457.545666" id="Path" stroke="#391F7E" fill="#6D9DFF" fill-rule="nonzero"></line>
            <path d="M180.413495,472.218151 C173.119525,473.209639 161.590595,465.892611 160.606793,458.660129 C159.622991,451.427647 169.545557,446.915992 176.816469,445.924504 C184.045202,445.012647 190.660215,450.09145 191.646345,457.310426 C192.632475,464.529402 187.621951,471.196282 180.413495,472.256581 L180.413495,472.218151 Z" id="Path" stroke="#391F7E" fill="#6D9DFF" fill-rule="nonzero"></path>
            <line x1="160.49919" y1="456.49269" x2="182.212008" y2="458.560211" id="Path" stroke="#391F7E" fill="#6D9DFF" fill-rule="nonzero"></line>
            <line x1="172.981178" y1="457.806988" x2="177.838701" y2="464.493768" id="Path" stroke="#391F7E" fill="#6D9DFF" fill-rule="nonzero"></line>
            <line x1="165.717952" y1="457.061451" x2="173.219443" y2="451.665911" id="Path" stroke="#391F7E" fill="#6D9DFF" fill-rule="nonzero"></line>
            <line x1="139.524223" y1="453.449052" x2="127.180582" y2="427.578133" id="Path" stroke="#391F7E" fill="#6D9DFF" fill-rule="nonzero"></line>
            <path d="M109.364541,418.462592 C110.386773,425.733504 120.562976,434.849045 127.81083,433.834499 C135.058684,432.819953 136.68042,422.036561 135.658188,414.765649 C135.047108,410.019763 131.931732,405.968857 127.501771,404.159908 C123.07181,402.350959 118.01138,403.063321 114.252979,406.024954 C110.494578,408.986587 108.618612,413.740129 109.341483,418.470278 L109.364541,418.462592 Z" id="Path" stroke="#391F7E" fill="#6D9DFF" fill-rule="nonzero"></path>
            <line x1="129.909095" y1="433.35797" x2="122.015621" y2="413.020937" id="Path" stroke="#391F7E" fill="#6D9DFF" fill-rule="nonzero"></line>
            <line x1="125.251407" y1="421.698379" x2="117.49628" y2="418.839204" id="Path" stroke="#391F7E" fill="#6D9DFF" fill-rule="nonzero"></line>
            <line x1="127.949177" y1="428.485076" x2="131.100418" y2="419.792262" id="Path" stroke="#391F7E" fill="#6D9DFF" fill-rule="nonzero"></line>
            <line x1="128.241243" y1="491.056423" x2="156.494808" y2="495.898573" id="Path" stroke="#391F7E" fill="#6D9DFF" fill-rule="nonzero"></line>
            <path d="M170.114318,510.571059 C162.843406,511.562547 151.299104,504.245519 150.307616,496.974607 C149.316128,489.703695 159.246379,485.23047 166.517291,484.238982 C171.246668,483.543334 175.985258,485.441386 178.926636,489.209572 C181.868014,492.977757 182.558897,498.035377 180.73591,502.454387 C178.912923,506.873396 174.856998,509.972801 170.114318,510.571059 L170.114318,510.571059 Z" id="Path" stroke="#391F7E" fill="#6D9DFF" fill-rule="nonzero"></path>
            <line x1="150.192326" y1="494.845598" x2="171.912831" y2="496.913119" id="Path" stroke="#391F7E" fill="#6D9DFF" fill-rule="nonzero"></line>
            <line x1="162.674315" y1="496.159896" x2="167.539523" y2="502.846675" id="Path" stroke="#391F7E" fill="#6D9DFF" fill-rule="nonzero"></line>
            <line x1="155.418775" y1="495.414358" x2="162.920265" y2="490.018819" id="Path" stroke="#391F7E" fill="#6D9DFF" fill-rule="nonzero"></line>
            <line x1="129.225045" y1="491.80196" x2="116.881404" y2="465.931041" id="Path" stroke="#391F7E" fill="#6D9DFF" fill-rule="nonzero"></line>
            <path d="M99.0576777,456.8155 C100.07991,464.086412 110.263798,473.201953 117.503966,472.187407 C124.744134,471.172861 126.373556,460.389468 125.351325,453.126242 C124.690929,448.423843 121.571998,444.430963 117.169403,442.651683 C112.766808,440.872402 107.749408,441.577036 104.007208,444.500155 C100.265008,447.423273 98.3665385,452.120787 99.0269339,456.823186 L99.0576777,456.8155 Z" id="Path" stroke="#391F7E" fill="#6D9DFF" fill-rule="nonzero"></path>
            <line x1="119.609917" y1="471.710878" x2="111.716443" y2="451.373845" id="Path" stroke="#391F7E" fill="#6D9DFF" fill-rule="nonzero"></line>
            <line x1="114.95223" y1="460.051286" x2="107.189417" y2="457.192112" id="Path" stroke="#391F7E" fill="#6D9DFF" fill-rule="nonzero"></line>
            <line x1="117.642313" y1="466.837983" x2="120.793554" y2="458.14517" id="Path" stroke="#391F7E" fill="#6D9DFF" fill-rule="nonzero"></line>
            <line x1="126.020003" y1="529.493876" x2="154.673237" y2="530.377761" id="Path" stroke="#391F7E" fill="#6D9DFF" fill-rule="nonzero"></line>
            <path d="M170.191177,543.021154 C163.127786,545.011816 150.684227,539.36264 148.670507,532.260819 C146.656788,525.158998 155.895304,519.394533 162.958695,517.403871 C167.552351,516.039558 172.524763,517.254052 175.972256,520.582387 C179.41975,523.910722 180.808326,528.837357 179.606374,533.476143 C178.404421,538.114929 174.798115,541.747342 170.168119,542.982724 L170.191177,543.021154 Z" id="Path" stroke="#391F7E" fill="#6D9DFF" fill-rule="nonzero"></path>
            <line x1="148.28621" y1="530.20867" x2="170.083574" y2="529.247926" id="Path" stroke="#391F7E" fill="#6D9DFF" fill-rule="nonzero"></line>
            <line x1="160.829686" y1="529.785942" x2="166.571093" y2="535.73487" id="Path" stroke="#391F7E" fill="#6D9DFF" fill-rule="nonzero"></line>
            <line x1="153.535716" y1="530.047265" x2="160.222496" y2="523.660237" id="Path" stroke="#391F7E" fill="#6D9DFF" fill-rule="nonzero"></line>
            <line x1="127.096036" y1="530.09338" x2="111.293716" y2="506.182379" id="Path" stroke="#391F7E" fill="#6D9DFF" fill-rule="nonzero"></line>
            <path d="M92.4170139,499.618575 C94.4384197,506.67428 105.782887,514.298746 112.838592,512.27734 C119.894298,510.255935 119.994215,499.372624 117.972809,492.293861 C115.950145,485.236823 108.589593,481.155657 101.532555,483.17832 C94.4755167,485.200984 90.3943501,492.561537 92.4170139,499.618575 Z" id="Path" stroke="#391F7E" fill="#6D9DFF" fill-rule="nonzero"></path>
            <line x1="114.790824" y1="511.524117" x2="104.161151" y2="492.478324" id="Path" stroke="#391F7E" fill="#6D9DFF" fill-rule="nonzero"></line>
            <line x1="108.565202" y1="500.625435" x2="100.487265" y2="498.873037" id="Path" stroke="#391F7E" fill="#6D9DFF" fill-rule="nonzero"></line>
            <line x1="112.169914" y1="506.974032" x2="114.091403" y2="497.927665" id="Path" stroke="#391F7E" fill="#6D9DFF" fill-rule="nonzero"></line>
            <path d="M113.061485,542.975039 C113.061485,542.975039 131.984302,450.682109 34.8569083,388.487374" id="Path" stroke="#391F7E"></path>
            <path d="M17.9862405,388.533489 C21.6293824,393.360268 32.5895521,395.842831 37.4470747,392.192003 C42.3045973,388.541175 39.1072406,380.140428 35.4564127,375.282906 C31.8058546,370.458651 24.9356616,369.507182 20.1114068,373.15774 C15.2871521,376.808298 14.3356827,383.678491 17.9862405,388.502746 L17.9862405,388.533489 Z" id="Path" stroke="#391F7E" fill="#FFFFFF" fill-rule="nonzero"></path>
            <line x1="38.7536868" y1="391.023738" x2="24.9112845" y2="379.540924" id="Path" stroke="#391F7E" fill="#FFFFFF" fill-rule="nonzero"></line>
            <line x1="30.7218654" y1="384.490678" x2="23.9889701" y2="385.543653" id="Path" stroke="#391F7E" fill="#FFFFFF" fill-rule="nonzero"></line>
            <line x1="35.3872391" y1="388.295225" x2="34.1728585" y2="380.778362" id="Path" stroke="#391F7E" fill="#FFFFFF" fill-rule="nonzero"></line>
            <line x1="69.5589883" y1="416.133748" x2="46.2705493" y2="420.122758" id="Path" stroke="#391F7E" fill="#FFFFFF" fill-rule="nonzero"></line>
            <path d="M35.0413712,432.212763 C41.0364149,433.03516 50.5516253,427.001687 51.3663364,421.006643 C52.1810475,415.011599 44.003193,411.330027 38.0081493,410.50763 C32.0144426,409.688378 26.4914476,413.883101 25.6721945,419.876808 C24.8529414,425.870514 29.0476646,431.39351 35.0413712,432.212763 L35.0413712,432.212763 Z" id="Path" stroke="#391F7E" fill="#FFFFFF" fill-rule="nonzero"></path>
            <line x1="51.4585678" y1="419.254245" x2="33.5579822" y2="420.960527" id="Path" stroke="#391F7E" fill="#FFFFFF" fill-rule="nonzero"></line>
            <line x1="41.1747621" y1="420.337965" x2="37.1626944" y2="425.848793" id="Path" stroke="#391F7E" fill="#FFFFFF" fill-rule="nonzero"></line>
            <line x1="47.1544339" y1="419.723089" x2="40.9672414" y2="415.272922" id="Path" stroke="#391F7E" fill="#FFFFFF" fill-rule="nonzero"></line>
            <line x1="68.7442772" y1="416.748625" x2="78.9204796" y2="395.420104" id="Path" stroke="#391F7E" fill="#FFFFFF" fill-rule="nonzero"></line>
            <path d="M93.6083367,387.903241 C92.7628818,393.898285 84.3851925,401.415147 78.3824629,400.569693 C72.3797332,399.724238 71.0731211,390.846961 71.9108901,384.859604 C72.759857,378.868019 78.3052196,374.699104 84.2968041,375.548071 C90.2883885,376.397038 94.4573037,381.942401 93.6083367,387.933985 L93.6083367,387.903241 Z" id="Path" stroke="#391F7E" fill="#FFFFFF" fill-rule="nonzero"></path>
            <line x1="76.6761812" y1="400.185395" x2="83.1784978" y2="383.42233" id="Path" stroke="#391F7E" fill="#FFFFFF" fill-rule="nonzero"></line>
            <line x1="80.511472" y1="390.577953" x2="86.9061853" y2="388.218365" id="Path" stroke="#391F7E" fill="#FFFFFF" fill-rule="nonzero"></line>
            <line x1="78.2902314" y1="396.165641" x2="75.6923792" y2="389.002333" id="Path" stroke="#391F7E" fill="#FFFFFF" fill-rule="nonzero"></line>
            <line x1="91.0027985" y1="442.381279" x2="67.7143595" y2="446.370289" id="Path" stroke="#391F7E" fill="#FFFFFF" fill-rule="nonzero"></line>
            <path d="M56.4851814,458.46798 C62.4802251,459.282691 71.9954355,453.256904 72.8178326,447.26186 C73.6402296,441.266816 65.4470032,437.577558 59.4519595,436.762847 C53.4582526,435.943594 47.9352573,440.138318 47.1160041,446.132025 C46.296751,452.125732 50.4914746,457.648727 56.4851814,458.46798 Z" id="Path" stroke="#391F7E" fill="#FFFFFF" fill-rule="nonzero"></path>
            <line x1="72.902378" y1="445.509462" x2="55.0017924" y2="447.208058" id="Path" stroke="#391F7E" fill="#FFFFFF" fill-rule="nonzero"></line>
            <line x1="62.6185723" y1="446.585496" x2="58.6065046" y2="452.104011" id="Path" stroke="#391F7E" fill="#FFFFFF" fill-rule="nonzero"></line>
            <line x1="68.5982441" y1="445.97062" x2="62.4187375" y2="441.520453" id="Path" stroke="#391F7E" fill="#FFFFFF" fill-rule="nonzero"></line>
            <line x1="90.1880874" y1="442.996156" x2="100.36429" y2="421.667635" id="Path" stroke="#391F7E" fill="#FFFFFF" fill-rule="nonzero"></line>
            <path d="M115.052147,414.158458 C114.214378,420.145816 105.829003,427.662679 99.8262731,426.82491 C93.8235434,425.987141 92.5169313,417.094492 93.3623862,411.107135 C93.9115714,407.232632 96.4860621,403.945431 100.116072,402.483788 C103.746083,401.022145 107.880128,401.608119 110.960953,404.020978 C114.041778,406.433838 115.601332,410.307013 115.052147,414.181516 L115.052147,414.158458 Z" id="Path" stroke="#391F7E" fill="#FFFFFF" fill-rule="nonzero"></path>
            <line x1="98.1199914" y1="426.432926" x2="104.622308" y2="409.669861" id="Path" stroke="#391F7E" fill="#FFFFFF" fill-rule="nonzero"></line>
            <line x1="101.955282" y1="416.825484" x2="108.349995" y2="414.465896" id="Path" stroke="#391F7E" fill="#FFFFFF" fill-rule="nonzero"></line>
            <line x1="99.7340416" y1="422.413172" x2="97.1361894" y2="415.25755" id="Path" stroke="#391F7E" fill="#FFFFFF" fill-rule="nonzero"></line>
            <line x1="104.537763" y1="468.651868" x2="81.2416376" y2="472.640878" id="Path" stroke="#391F7E" fill="#FFFFFF" fill-rule="nonzero"></line>
            <path d="M70.0201455,484.730883 C76.0151892,485.55328 85.5303996,479.519807 86.3451107,473.524763 C87.1598217,467.529719 78.9742813,463.848147 72.9869235,463.02575 C66.9932167,462.206497 61.4702213,466.401221 60.6509682,472.394928 C59.8317151,478.388635 64.0264386,483.91163 70.0201455,484.730883 Z" id="Path" stroke="#391F7E" fill="#FFFFFF" fill-rule="nonzero"></path>
            <line x1="86.4373421" y1="471.772366" x2="68.5367565" y2="473.470961" id="Path" stroke="#391F7E" fill="#FFFFFF" fill-rule="nonzero"></line>
            <line x1="76.1458504" y1="472.856085" x2="72.1414687" y2="478.366914" id="Path" stroke="#391F7E" fill="#FFFFFF" fill-rule="nonzero"></line>
            <line x1="82.1332082" y1="472.241209" x2="75.9460156" y2="467.791042" id="Path" stroke="#391F7E" fill="#FFFFFF" fill-rule="nonzero"></line>
            <line x1="103.723051" y1="469.266745" x2="113.899254" y2="447.938224" id="Path" stroke="#391F7E" fill="#FFFFFF" fill-rule="nonzero"></line>
            <path d="M128.587111,440.421361 C127.741656,446.416405 119.363967,453.933267 113.361237,453.087813 C107.358507,452.242358 106.051895,443.365081 106.889664,437.370038 C107.738632,431.378454 113.283994,427.209539 119.275578,428.058506 C125.267163,428.907473 129.436078,434.452835 128.587111,440.444419 L128.587111,440.421361 Z" id="Path" stroke="#391F7E" fill="#FFFFFF" fill-rule="nonzero"></path>
            <line x1="111.64727" y1="452.695829" x2="118.157272" y2="435.932764" id="Path" stroke="#391F7E" fill="#FFFFFF" fill-rule="nonzero"></line>
            <line x1="115.490246" y1="443.088387" x2="121.88496" y2="440.736485" id="Path" stroke="#391F7E" fill="#FFFFFF" fill-rule="nonzero"></line>
            <line x1="113.269006" y1="448.683761" x2="110.671153" y2="441.520453" id="Path" stroke="#391F7E" fill="#FFFFFF" fill-rule="nonzero"></line>
            <line x1="113.023055" y1="500.264195" x2="89.7346162" y2="504.253205" id="Path" stroke="#391F7E" fill="#FFFFFF" fill-rule="nonzero"></line>
            <path d="M78.5131241,516.34321 C84.5004818,517.165607 94.0156923,511.132133 94.8380893,505.13709 C95.6604863,499.142046 87.4672599,495.460474 81.4722162,494.638077 C75.4785093,493.820946 69.9572345,498.017391 69.1401038,504.011097 C68.3229731,510.004804 72.5194172,515.526079 78.5131241,516.34321 L78.5131241,516.34321 Z" id="Path" stroke="#391F7E" fill="#FFFFFF" fill-rule="nonzero"></path>
            <line x1="94.9303207" y1="503.384692" x2="77.0297351" y2="505.090974" id="Path" stroke="#391F7E" fill="#FFFFFF" fill-rule="nonzero"></line>
            <line x1="84.638829" y1="504.468412" x2="80.6344472" y2="509.97924" id="Path" stroke="#391F7E" fill="#FFFFFF" fill-rule="nonzero"></line>
            <line x1="90.6261868" y1="503.853535" x2="84.4389942" y2="499.403368" id="Path" stroke="#391F7E" fill="#FFFFFF" fill-rule="nonzero"></line>
            <line x1="112.21603" y1="500.879071" x2="122.384547" y2="479.55055" id="Path" stroke="#391F7E" fill="#FFFFFF" fill-rule="nonzero"></line>
            <path d="M137.08009,472.033688 C136.234635,478.028732 127.856945,485.545594 121.854216,484.700139 C115.851486,483.854684 114.537188,474.977408 115.382643,468.99005 C116.23161,462.998466 121.776973,458.829551 127.768557,459.678518 C133.760141,460.527485 137.929056,466.072847 137.08009,472.064432 L137.08009,472.033688 Z" id="Path" stroke="#391F7E" fill="#FFFFFF" fill-rule="nonzero"></path>
            <line x1="120.140248" y1="484.315842" x2="126.642565" y2="467.552777" id="Path" stroke="#391F7E" fill="#FFFFFF" fill-rule="nonzero"></line>
            <line x1="123.983225" y1="474.7084" x2="130.377938" y2="472.348812" id="Path" stroke="#391F7E" fill="#FFFFFF" fill-rule="nonzero"></line>
            <line x1="121.761984" y1="480.296088" x2="119.156446" y2="473.132779" id="Path" stroke="#391F7E" fill="#FFFFFF" fill-rule="nonzero"></line>
            <line x1="114.852312" y1="531.945695" x2="91.241063" y2="532.675861" id="Path" stroke="#391F7E" fill="#FFFFFF" fill-rule="nonzero"></line>
            <path d="M78.4439505,543.098014 C84.2699032,544.735122 94.5306511,540.077434 96.1677592,534.259167 C97.8048673,528.4409 90.2111453,523.652551 84.3851925,522.007757 C78.5612792,520.367129 72.5100724,523.758351 70.8694438,529.582265 C69.2288152,535.406178 72.6200373,541.457385 78.4439505,543.098014 L78.4439505,543.098014 Z" id="Path" stroke="#391F7E" fill="#FFFFFF" fill-rule="nonzero"></path>
            <line x1="96.4982552" y1="532.537514" x2="78.5361819" y2="531.738175" id="Path" stroke="#391F7E" fill="#FFFFFF" fill-rule="nonzero"></line>
            <line x1="86.1606478" y1="532.18396" x2="81.4337864" y2="537.087598" id="Path" stroke="#391F7E" fill="#FFFFFF" fill-rule="nonzero"></line>
            <line x1="92.1710634" y1="532.399167" x2="86.6602348" y2="527.134288" id="Path" stroke="#391F7E" fill="#FFFFFF" fill-rule="nonzero"></line>
            <line x1="113.968427" y1="532.437596" x2="126.996119" y2="512.723126" id="Path" stroke="#391F7E" fill="#FFFFFF" fill-rule="nonzero"></line>
            <path d="M142.583232,507.3199 C140.91538,513.138167 131.569261,519.417591 125.750994,517.757425 C119.932727,516.097259 119.855868,507.11238 121.516034,501.294113 C122.592437,497.53082 125.594767,494.627649 129.392076,493.678195 C133.189385,492.728741 137.20477,493.87725 139.925675,496.691089 C142.646581,499.504928 143.659636,503.556608 142.583232,507.3199 L142.583232,507.3199 Z" id="Path" stroke="#391F7E" fill="#FFFFFF" fill-rule="nonzero"></path>
            <line x1="124.113886" y1="517.134863" x2="132.875873" y2="501.43246" id="Path" stroke="#391F7E" fill="#FFFFFF" fill-rule="nonzero"></line>
            <line x1="129.240417" y1="508.149983" x2="135.904139" y2="506.697338" id="Path" stroke="#391F7E" fill="#FFFFFF" fill-rule="nonzero"></line>
            <line x1="126.265953" y1="513.376432" x2="124.682647" y2="505.928743" id="Path" stroke="#391F7E" fill="#FFFFFF" fill-rule="nonzero"></line>
            <path d="M73.6709734,548.985454 C73.6709734,548.985454 65.5161768,527.272636 81.8565139,524.121395 C98.1968509,520.970154 103.577018,528.218008 103.577018,528.218008 C103.577018,528.218008 79.3432071,501.778328 104.514705,489.188736 C129.686202,476.599144 139.455049,511.539489 139.455049,511.539489 C139.455049,511.539489 157.394065,498.949897 181.312752,522.238336 C205.231439,545.526775 191.066227,549.615702 191.066227,549.615702 L73.6709734,548.985454 Z" id="Path" stroke="#391F7E" fill="#FFFFFF" fill-rule="nonzero"></path>
            <path d="M626.337144,548.985454 C626.337144,548.985454 618.151604,527.272636 634.522685,524.121395 C650.893765,520.970154 656.235503,528.218008 656.235503,528.218008 C656.235503,528.218008 632.001692,501.778328 657.180875,489.188736 C682.360059,476.599144 692.113534,511.539489 692.113534,511.539489 C692.113534,511.539489 703.504117,491.217828 723.487596,507.650396 C736.492229,518.35693 726.42363,529.686025 726.42363,529.686025 C726.42363,529.686025 737.329998,524.021477 744.255042,532.199332 C757.382651,547.717272 743.732398,549.615702 743.732398,549.615702 L626.337144,548.985454 Z" id="Path" stroke="#391F7E" fill="#6D9DFF" fill-rule="nonzero"></path>
            <circle id="Oval" fill="#FFBB29" fill-rule="nonzero" cx="184.371761" cy="120.43206" r="30.7053841"></circle>
            <path d="M201.903421,146.987029 C191.163169,154.07965 177.207843,154.003569 166.545562,146.794267 C155.883281,139.584964 150.614107,126.662398 153.19534,114.053056 C155.776572,101.443713 165.699807,91.6311534 178.337305,89.1915008 C190.974804,86.7518482 203.837462,92.1656211 210.926731,102.908086 C220.581667,117.576767 216.545762,137.292194 201.903421,146.987029 L201.903421,146.987029 Z M168.085226,95.7294057 C154.443706,104.73487 150.68475,123.093501 159.689119,136.735744 C168.693489,150.377987 187.051817,154.138417 200.694783,145.135143 C214.337749,136.131868 218.099653,117.773842 209.097474,104.130153 C200.077152,90.4966559 181.722724,86.7384338 168.069854,95.7294057 L168.085226,95.7294057 Z" id="Shape" fill="#FF8900" fill-rule="nonzero"></path>
            <circle id="Oval" fill="#FFBB29" fill-rule="nonzero" cx="184.371761" cy="120.43206" r="22.5582735"></circle>
            <path d="M197.414824,140.192647 C189.423965,145.471117 179.039942,145.414977 171.106624,140.050414 C163.173305,134.685851 159.253747,125.069815 161.176319,115.687928 C163.098891,106.306042 170.484799,99.0067645 179.888715,97.1950137 C189.292631,95.3832628 198.861755,99.4159973 204.132348,107.412055 C211.304649,118.323934 208.30099,132.981377 197.414824,140.192647 L197.414824,140.192647 Z M172.558451,102.531475 C162.671184,109.057923 159.94649,122.363752 166.472602,132.25124 C172.998713,142.138729 186.304449,144.863876 196.192161,138.338101 C206.079872,131.812326 208.805471,118.506683 202.280033,108.61875 C195.74626,98.7412634 182.449274,96.0179087 172.558451,102.531475 L172.558451,102.531475 Z" id="Shape" fill="#FF8900" fill-rule="nonzero"></path>
            <path d="M180.313578,137.802315 C180.021512,136.949174 179.729445,136.103719 179.445065,135.258264 C179.345148,134.966198 179.260602,134.666446 179.145313,134.382066 C179.030024,134.097685 179.099197,134.082314 179.291346,133.990082 C179.875479,133.698016 180.451925,133.398264 181.013,133.075454 C181.375923,132.947792 181.65345,132.650677 181.756102,132.279903 C181.858755,131.909129 181.77355,131.511588 181.527959,131.215453 C179.3349,127.116278 177.139279,123.017103 174.941096,118.917927 C174.593007,118.180291 173.729403,117.842945 172.973492,118.149332 C172.32138,118.413249 171.691646,118.729401 171.090434,119.094704 C170.460186,119.440572 170.460186,119.448258 170.122004,118.81801 C169.783822,118.187762 169.353408,117.380737 168.969111,116.681315 C168.838449,116.44305 168.907623,116.366191 169.115144,116.258587 C170.598533,115.489992 172.081922,114.675281 173.565311,113.883628 C173.818947,113.752967 174.057212,113.599248 174.333906,113.476272 C174.6106,113.353297 174.549113,113.261066 174.441509,113.068917 C173.672914,111.685445 172.95812,110.301973 172.204897,108.926188 C172.089608,108.710981 172.128037,108.634122 172.327872,108.526518 C173.096468,108.126849 173.865063,107.711807 174.633658,107.28908 C174.833493,107.17379 174.93341,107.166104 175.056386,107.404369 C175.763493,108.764783 176.501345,110.109825 177.216139,111.462552 C177.323742,111.662387 177.400602,111.716189 177.608122,111.585528 C178.187131,111.247346 178.771263,110.924536 179.36052,110.617098 C179.56804,110.509494 179.591098,110.417263 179.483495,110.217428 C178.761015,108.887758 178.053908,107.550402 177.323742,106.220732 C177.185395,105.982468 177.231511,105.88255 177.462089,105.767261 C178.230684,105.367591 178.99928,104.960236 179.767875,104.537508 C179.96771,104.429905 180.059941,104.445277 180.167545,104.660484 C180.93614,106.036269 181.643248,107.412055 182.373413,108.787841 C182.488703,109.003047 182.580934,109.056849 182.819199,108.956932 C184.109168,108.377268 185.48039,107.998821 186.885068,107.834782 C188.217898,107.627538 189.578047,107.965497 190.658871,108.772469 C192.351649,109.984473 193.261793,112.013214 193.041517,114.083463 C192.939861,114.787291 192.676809,115.458074 192.272921,116.043381 C192.272921,116.097182 192.173004,116.135612 192.203748,116.220158 C192.334496,116.222851 192.464665,116.202024 192.588046,116.15867 C193.916428,115.791668 195.333366,115.925703 196.569369,116.535282 C197.600636,117.121659 198.424943,118.013092 198.928957,119.087018 C199.653327,120.33217 200.025288,121.750935 200.004991,123.191317 C199.911091,124.622415 199.330731,125.978397 198.360197,127.034294 C197.175936,128.33087 195.799457,129.437756 194.278955,130.316196 C194.056063,130.446858 194.040691,130.546775 194.163666,130.769668 C194.932261,132.160825 195.662427,133.567355 196.423336,134.966198 C196.523254,135.150661 196.500196,135.219835 196.308047,135.319752 C195.539452,135.734794 194.770856,136.157521 193.956145,136.59562 C193.740939,136.71091 193.664079,136.657108 193.556476,136.464959 C192.82631,135.081488 192.073087,133.698016 191.342921,132.306858 C191.235318,132.107024 191.150772,132.099338 190.958623,132.206941 C190.374491,132.529751 189.782673,132.837189 189.183168,133.129255 C188.967962,133.236859 188.95259,133.32909 189.060193,133.528925 C189.828788,134.904711 190.551268,136.295868 191.296805,137.671654 C191.412095,137.871489 191.412095,137.96372 191.189202,138.071323 C190.420607,138.478679 189.652011,138.901406 188.883416,139.33182 C188.698953,139.431737 188.614408,139.439423 188.499118,139.224216 C187.730523,137.802315 186.961928,136.3881 186.193332,134.973884 C186.093415,134.774049 186.016555,134.766363 185.832092,134.866281 L180.605644,137.648596 L180.313578,137.802315 Z M192.050029,126.749914 C192.547387,126.319386 192.977449,125.816785 193.325897,125.258839 C193.853231,124.390304 193.887102,123.309012 193.41516,122.409176 C192.943218,121.50934 192.034427,120.922451 191.020111,120.862474 C190.303077,120.836141 189.586552,120.927005 188.898788,121.131482 C187.173702,121.715027 185.518763,122.488363 183.964406,123.437268 C183.826059,123.514128 183.818373,123.590987 183.895232,123.729334 C184.102753,124.082888 184.287216,124.451814 184.487051,124.82074 C185.332506,126.404046 186.185646,127.987352 187.023415,129.570659 C187.115647,129.73975 187.192506,129.77818 187.369283,129.670576 C187.722837,129.470741 188.084077,129.30165 188.445317,129.109502 C189.734369,128.465499 190.94408,127.673641 192.050029,126.749914 L192.050029,126.749914 Z M186.300936,118.17239 C186.719495,117.801799 187.075113,117.365713 187.353911,116.88115 C187.775592,116.101905 187.795043,115.166996 187.406139,114.370887 C187.017235,113.574777 186.267842,113.015453 185.393993,112.869082 C184.595415,112.772344 183.785296,112.872619 183.034405,113.161148 C181.754668,113.637697 180.524259,114.237457 179.36052,114.951975 C179.152999,115.074951 179.275974,115.182554 179.36052,115.290157 L182.058289,120.309085 C182.26581,120.708754 182.26581,120.708754 182.673166,120.501234 C183.974746,119.879164 185.193452,119.096816 186.300936,118.17239 Z" id="Shape" fill="#FF8900" fill-rule="nonzero"></path>
            <circle id="Oval" fill="#FFBB29" fill-rule="nonzero" cx="730.766194" cy="354.961245" r="25.9016632"></circle>
            <path d="M714.979246,376.658691 C702.999965,367.929246 700.365097,351.141682 709.094007,339.162012 C717.822916,327.182342 734.610363,324.546723 746.590423,333.275098 C758.570483,342.003472 761.206852,358.790801 752.479013,370.771251 C743.730999,382.721961 726.968616,385.353644 714.979246,376.658691 Z M745.492481,334.785617 C737.329225,328.836219 726.38575,328.390717 717.765916,333.656886 C709.146082,338.923055 704.547805,348.863576 706.115646,358.842351 C707.683488,368.821125 715.10862,376.872557 724.928078,379.241587 C734.747537,381.610617 745.027108,377.830599 750.972566,369.664474 C759.064596,358.508522 756.603188,342.908146 745.469423,334.785617 L745.492481,334.785617 Z" id="Shape" fill="#FF8900" fill-rule="nonzero"></path>
            <circle id="Oval" fill="#FFBB29" fill-rule="nonzero" cx="730.766194" cy="354.961245" r="19.0304208"></circle>
            <path d="M719.006685,371.101747 C712.468881,366.345223 709.441347,358.117914 711.336538,350.258166 C713.231729,342.398417 719.676184,336.455053 727.663326,335.200874 C735.650468,333.946695 743.606367,337.628846 747.819302,344.529467 C752.032238,351.430088 751.672017,360.189358 746.906696,366.720753 C740.407912,375.628051 727.922723,377.588535 719.006685,371.101747 Z M741.418926,340.357933 C735.50143,336.047388 727.569982,335.72596 721.323087,339.543532 C715.076192,343.361104 711.744105,350.565851 712.880606,357.798134 C714.017108,365.030417 719.398378,370.865921 726.515082,372.5835 C733.631786,374.301078 741.082372,371.562473 745.392563,365.64472 C748.221972,361.761506 749.392869,356.91335 748.647665,352.166818 C747.902461,347.420285 745.3022,343.164199 741.418926,340.334875 L741.418926,340.357933 Z" id="Shape" fill="#FF8900" fill-rule="nonzero"></path>
            <path d="M715.840072,356.882733 L717.59247,355.44546 C717.792305,355.284055 718.007511,355.12265 718.19966,354.945873 C718.391809,354.769096 718.414867,354.830583 718.553214,354.945873 C718.952884,355.322484 719.321809,355.714468 719.782966,356.037278 C719.99145,356.28621 720.308611,356.417284 720.632006,356.388163 C720.955401,356.359042 721.244044,356.173417 721.404703,355.891245 L729.15983,347.060084 C729.628428,346.558063 729.628428,345.778965 729.15983,345.276943 C728.758338,344.839344 728.321308,344.435734 727.853218,344.070248 C727.39206,343.670579 727.39206,343.678265 727.79173,343.224794 C728.1914,342.771322 728.698673,342.202562 729.136772,341.687603 C729.282805,341.518512 729.36735,341.549256 729.505698,341.687603 L732.703054,344.508348 C732.879831,344.662067 733.07198,344.8081 733.241071,344.977191 C733.410162,345.146282 733.479336,345.084794 733.602311,344.977191 C734.470824,343.970331 735.347022,342.986529 736.215535,341.979669 C736.346196,341.82595 736.423056,341.833636 736.561403,341.979669 C737.107106,342.47157 737.66818,342.963471 738.229255,343.44 C738.375288,343.570662 738.406032,343.639835 738.229255,343.808926 C737.360742,344.76967 736.515287,345.753472 735.65446,346.721902 C735.531485,346.86025 735.516113,346.937109 735.65446,347.06777 C736.09256,347.421324 736.522973,347.782564 736.938015,348.159176 C737.084048,348.289837 737.160907,348.289837 737.291569,348.159176 C738.129337,347.190746 738.974792,346.237687 739.804875,345.269257 C739.958594,345.09248 740.050826,345.09248 740.212231,345.269257 C740.750248,345.761158 741.303636,346.237687 741.857025,346.714216 C742.003058,346.837192 742.01843,346.921737 741.857025,347.06777 C740.980826,348.051572 740.119999,349.050746 739.243801,350.034548 C739.105454,350.188267 739.090082,350.272813 739.243801,350.434218 C740.087486,351.277631 740.790684,352.250691 741.326694,353.316451 C741.886268,354.304565 742.024766,355.476261 741.710992,356.567609 C741.253892,358.266553 739.917774,359.587988 738.213883,360.026288 C737.6297,360.160728 737.022611,360.160728 736.438428,360.026288 C736.392312,360.026288 736.33851,359.972486 736.277023,360.026288 C736.315714,360.126542 736.370205,360.219955 736.438428,360.302982 C737.122767,361.247021 737.437239,362.409202 737.322312,363.569512 C737.160501,364.555688 736.698922,365.46811 736.000328,366.182737 C735.230901,367.120769 734.221539,367.832635 733.079666,368.242572 C731.920364,368.597809 730.673835,368.540778 729.551813,368.081167 C728.178643,367.528752 726.898178,366.769286 725.754952,365.829183 C725.585861,365.690836 725.501316,365.706208 725.362969,365.867613 C724.48677,366.882158 723.595199,367.881332 722.711315,368.895878 C722.596025,369.026539 722.534538,369.034225 722.396191,368.895878 C721.842802,368.388605 721.274041,367.896704 720.697595,367.412489 C720.543876,367.281828 720.559248,367.197283 720.697595,367.058935 C721.573794,366.067447 722.442306,365.068273 723.326191,364.076785 C723.456852,363.930752 723.44148,363.869265 723.326191,363.746289 C722.903464,363.377364 722.480736,362.977694 722.073381,362.616454 C721.927348,362.478107 721.850488,362.493479 721.719827,362.616454 L719.106603,365.60629 C718.983627,365.752323 718.914454,365.775381 718.760735,365.60629 C718.207346,365.099017 717.638585,364.614802 717.077511,364.130587 C716.939164,364.015298 716.90842,363.95381 717.077511,363.800091 C717.976767,362.785545 718.868338,361.755627 719.767595,360.72571 C719.89057,360.587363 719.875198,360.525875 719.767595,360.410586 L716.016849,357.105626 L715.840072,356.882733 Z M728.045366,362.893149 C728.527021,363.157264 729.044989,363.348912 729.582557,363.461909 C730.426755,363.618775 731.2915,363.32259 731.862247,362.681088 C732.432995,362.039587 732.626569,361.146257 732.372558,360.32604 C732.179288,359.753196 731.893706,359.215783 731.527103,358.735048 C730.550896,357.544861 729.444966,356.467288 728.229829,355.522319 C728.129912,355.437774 728.060738,355.453146 727.976193,355.522319 C727.7533,355.791328 727.515036,356.05265 727.284457,356.290915 L724.286935,359.703478 C724.171646,359.826453 724.171646,359.895627 724.286935,360.00323 C724.555944,360.218437 724.794208,360.456701 725.055531,360.68728 C725.962796,361.536545 726.966215,362.276858 728.045366,362.893149 Z M733.133468,355.814385 C733.550931,356.032563 733.999356,356.185495 734.463138,356.267857 C735.204716,356.374939 735.952087,356.115015 736.467181,355.57088 C736.982276,355.026744 737.200859,354.266255 737.053304,353.531657 C736.893796,352.871733 736.577404,352.260041 736.13099,351.748516 C735.374297,350.880258 734.53516,350.087454 733.625369,349.381242 C733.47165,349.250581 733.425534,349.381242 733.35636,349.458102 C732.295699,350.664797 731.242723,351.871491 730.182062,353.0705 C729.936111,353.35488 729.928425,353.362566 730.182062,353.616203 C731.066478,354.470371 732.055601,355.208985 733.125782,355.814385 L733.133468,355.814385 Z" id="Shape" fill="#FF8900" fill-rule="nonzero"></path>
            <line x1="400.516145" y1="444.210536" x2="410.254248" y2="443.664834" id="Path" stroke="#391F7E" fill="#6D9DFF" fill-rule="nonzero"></line>
            <line x1="424.957477" y1="520.908666" x2="432.643431" y2="519.371475" id="Path" stroke="#391F7E" fill="#6D9DFF" fill-rule="nonzero"></line>
            <path d="M444.779551,415.618789 C444.779551,415.618789 444.264592,419.20813 439.991202,421.083502" id="Path" stroke="#391F7E" fill="#6D9DFF" fill-rule="nonzero"></path>
            <line x1="355.568689" y1="372.339185" x2="369.242" y2="374.160756" id="Path" stroke="#391F7E" fill="#6D9DFF" fill-rule="nonzero"></line>
            <line x1="296.678914" y1="322.818587" x2="291.137341" y2="325.570158" id="Path" stroke="#391F7E"></line>
            <line x1="355.138276" y1="328.475449" x2="355.138276" y2="346.591241" id="Path" stroke="#391F7E"></line>
            <line x1="397.01135" y1="345.392232" x2="398.37945" y2="344.370001" id="Path" stroke="#391F7E"></line>
            <line x1="391.200769" y1="344.108678" x2="388.810438" y2="344.708183" id="Path" stroke="#391F7E"></line>
            <line x1="383.852998" y1="345.991737" x2="382.146716" y2="347.444382" id="Path" stroke="#391F7E" fill="#FFC542" fill-rule="nonzero"></line>
            <path d="M502.078334,275.734433 L515.067596,275.734433 C516.131169,275.732936 517.131399,276.23987 517.759041,277.098507 C518.386682,277.957145 518.566126,279.064051 518.241894,280.077 L514.844703,290.775847" id="Path" stroke="#391F7E" fill="#FFFFFF" fill-rule="nonzero"></path>
        </g>
    </g>
</svg>