<?xml version="1.0" encoding="UTF-8"?>
<svg width="1050px" height="700px" viewBox="0 0 1050 700" version="1.1" xmlns="http://www.w3.org/2000/svg" xmlns:xlink="http://www.w3.org/1999/xlink">
    <title>Artboard Copy 2</title>
    <g id="Artboard-Copy-2" stroke="none" stroke-width="1" fill="none" fill-rule="evenodd">
        <rect id="Rectangle" fill="#E6F2FB" x="0" y="0" width="1050" height="700"></rect>
        <g id="About-1-01" transform="translate(70.000000, 140.000000)">
            <path d="M781.549257,418.867111 C781.549257,418.867111 772.581926,402.084288 786.040653,396.70389 C799.49938,391.323491 803.983045,399.618272 803.983045,399.618272 C803.983045,399.618272 787.609936,371.355719 813.406473,361.483925 C839.203009,351.612131 844.807591,381.900063 844.807591,381.900063 C844.807591,381.900063 852.878189,368.217153 871.091147,378.088948 C889.304105,387.960742 866.375568,403.205204 866.375568,403.205204 C866.375568,403.205204 876.919912,399.842455 881.179394,403.769528 C885.438876,407.6966 879.277701,414.422098 879.277701,414.422098 C879.277701,414.422098 890.154455,409.598293 889.814315,419.02172 L781.549257,418.867111 Z" id="Path" stroke="#391F7E" fill="#6D9DFF" fill-rule="nonzero"></path>
            <path d="M831.024185,407.35646 C831.024185,407.35646 824.298687,335.695119 861.304388,320.551152 C898.310088,305.407186 875.103254,390.898316 848.858351,410.719209 L831.024185,407.35646 Z" id="Path" stroke="#391F7E" fill="#FFFFFF" fill-rule="nonzero"></path>
            <path d="M840.107473,408.144967 C840.107473,408.144967 843.253769,360.363009 867.024926,333.893922" id="Path" stroke="#391F7E" fill="#FFFFFF" fill-rule="nonzero"></path>
            <path d="M814.790225,418.905764 C814.790225,418.905764 810.221524,413.494443 817.109362,409.374109 C817.109362,409.374109 810.546203,398.860687 821.747636,396.587933 C832.949069,394.315178 835.66246,404.99867 835.66246,404.99867 C835.66246,404.99867 835.83253,391.083847 844.830783,389.607329 C853.829035,388.130812 859.209434,405.253776 859.209434,405.253776 C859.209434,405.253776 866.700247,397.600623 873.595815,401.976062 C880.491383,406.351501 869.390446,410.719209 869.390446,410.719209 C869.390446,410.719209 875.613464,408.400072 876.456084,411.561829 C877.298704,414.723586 875.783535,415.597128 875.783535,415.597128 C875.783535,415.597128 884.109237,410.634174 885.794477,418.797537 L814.790225,418.905764 Z" id="Path" stroke="#391F7E" fill="#FFFFFF" fill-rule="nonzero"></path>
            <line x1="851.757273" y1="359.03337" x2="870.619589" y2="355.65516" id="Path" stroke="#391F7E" fill="#FFFFFF" fill-rule="nonzero"></line>
            <line x1="844.823052" y1="380.439007" x2="837.193091" y2="369.786436" id="Path" stroke="#391F7E" fill="#FFFFFF" fill-rule="nonzero"></line>
            <line x1="856.372356" y1="349.153845" x2="860.856021" y2="348.589522" id="Path" stroke="#391F7E" fill="#FFFFFF" fill-rule="nonzero"></line>
            <path d="M850.876,340.402967 C850.876,340.402967 844.823052,348.133425 842.581219,357.116216" id="Path" stroke="#391F7E" fill="#FFFFFF" fill-rule="nonzero"></path>
            <line x1="847.629208" y1="370.126576" x2="857.717455" y2="366.701984" id="Path" stroke="#391F7E" fill="#FFFFFF" fill-rule="nonzero"></line>
            <rect id="Rectangle" stroke="#391F7E" fill="#FFC542" fill-rule="nonzero" x="289.180956" y="119.96124" width="6.82599401" height="298.758992"></rect>
            <rect id="Rectangle" stroke="#391F7E" fill="#FFFFFF" fill-rule="nonzero" x="254.911837" y="351.650783" width="75.8744407" height="8.71222565"></rect>
            <polygon id="Rectangle" stroke="#391F7E" fill="#FFFFFF" fill-rule="nonzero" transform="translate(327.225851, 348.565777) rotate(-18.000000) translate(-327.225851, -348.565777) " points="323.812854 275.853093 330.638848 275.853093 330.638848 421.27846 323.812854 421.27846"></polygon>
            <polygon id="Rectangle" stroke="#391F7E" fill="#FFFFFF" fill-rule="nonzero" transform="translate(257.818430, 348.696293) rotate(-162.000000) translate(-257.818430, -348.696293) " points="254.405433 275.813539 261.231427 275.813539 261.231427 421.579046 254.405433 421.579046"></polygon>
            <rect id="Rectangle" stroke="#391F7E" stroke-width="10" fill="#6D9DFF" fill-rule="nonzero" transform="translate(292.593953, 212.858148) rotate(180.000000) translate(-292.593953, -212.858148) " x="219.30535" y="146.422596" width="146.577205" height="132.871104"></rect>
            <path d="M340.232897,180.993202 C334.914342,179.447111 329.410257,181.719865 326.124812,184.6729 C320.899023,189.365288 320.497039,196.477309 320.303778,200.002397 C319.809028,208.753275 323.357308,212.664887 320.914484,215.339625 C317.6445,218.918827 309.117806,214.296013 307.417105,217.179474 C306.242075,219.173932 309.171919,223.36384 312.055379,225.768012 C318.749956,231.403516 328.157923,229.795581 331.064575,229.138492 C340.812682,226.927581 346.138967,219.722795 348.241651,216.870256 C350.344336,214.017717 352.879926,210.508089 353.45198,205.220456 C354.093608,199.3685 351.905888,194.908026 350.692206,192.333784 C348.55087,187.981536 345.984358,182.670712 340.232897,180.993202 Z" id="Path" fill="#FFFFFF" fill-rule="nonzero"></path>
            <path d="M262.773713,192.990872 C269.878003,191.019606 279.888946,196.933406 283.267156,204.694785 C289.559748,219.197124 271.393173,237.03902 276.433431,242.1102 C281.071706,246.748474 296.609925,231.658621 308.313838,237.55696 C316.044296,241.422189 320.497039,253.713616 317.095638,261.297195 C310.656167,275.675846 272.135297,282.014821 253.984182,263.902359 C233.019182,242.96828 247.196841,197.304468 262.773713,192.990872 Z" id="Path" fill="#FFC542" fill-rule="nonzero"></path>
            <path d="M327.067928,167.09384 C329.758127,175.489117 321.494268,188.128415 311.869848,191.344285 C306.613137,193.106829 304.549105,190.841805 290.224567,188.715929 C275.119253,186.466366 267.566596,185.34545 260.717411,188.715929 C250.126684,193.926258 249.121725,205.204995 244.352032,204.787551 C238.167666,204.230958 230.491322,189.380749 234.132367,177.614992 C238.948443,162.014929 261.830597,157.863673 272.112105,155.969711 C292.064416,152.382779 322.847098,153.944331 327.067928,167.09384 Z" id="Path" fill="#7E39F2" fill-rule="nonzero"></path>
            <rect id="Rectangle" stroke="#391F7E" fill="#FFFFFF" fill-rule="nonzero" x="254.548506" y="283.723253" width="76.098624" height="8.71222565"></rect>
            <rect id="Rectangle" stroke="#391F7E" fill="#FFFFFF" fill-rule="nonzero" x="273.604084" y="133.334932" width="37.9797379" height="8.71222565"></rect>
            <path d="M120.077197,262.333077 L120.077197,278.95356 L137.509379,278.95356 L137.509379,263.06747 L132.96387,258.699762 C132.96387,258.699762 121.468679,260.060322 121.368183,259.565573 C121.267687,259.070823 120.077197,262.333077 120.077197,262.333077 Z" id="Path" stroke="#391F7E" fill="#FFFFFF" fill-rule="nonzero"></path>
            <path d="M175.605073,262.333077 L175.605073,278.95356 L193.037255,278.95356 L193.037255,263.06747 L188.468555,258.699762 C188.468555,258.699762 176.973364,260.060322 176.872868,259.565573 C176.772373,259.070823 175.605073,262.333077 175.605073,262.333077 Z" id="Path" stroke="#391F7E" fill="#FFFFFF" fill-rule="nonzero"></path>
            <path d="M161.705711,225.659786 C161.705711,225.659786 179.485763,231.442168 182.778938,233.776766 C186.072113,236.111365 195.271357,243.648561 194.80753,262.085702 C194.80753,262.085702 186.937924,265.77313 181.047316,263.562219 L181.047316,302.144933 L134.077056,302.144933 L134.077056,263.06747 C134.077056,263.06747 124.499019,266.507524 116.876788,262.333077 C116.876788,262.333077 118.60068,234.804917 128.92084,230.383096 C139.241001,225.961274 144.7992,224.778514 144.7992,224.778514 L161.705711,225.659786 Z" id="Path" stroke="#391F7E" fill="#6D9DFF" fill-rule="nonzero"></path>
            <rect id="Rectangle" stroke="#391F7E" fill="#FFFFFF" fill-rule="nonzero" x="469.826287" y="33.7434472" width="384.574802" height="266.530715" rx="13.86"></rect>
            <g id="Group" transform="translate(427.355154, 95.633490)" fill-rule="nonzero">
                <polygon id="Rectangle" stroke="#391F7E" stroke-width="10" fill="#FFC542" transform="translate(234.167155, 77.227271) rotate(90.000000) translate(-234.167155, -77.227271) " points="156.939884 7.22411257 311.394425 7.22411257 311.394425 147.230429 156.939884 147.230429"></polygon>
                <path d="M200.597643,27.0102186 C198.958786,32.6148004 201.370688,38.420374 204.462871,41.8758885 C209.418095,47.3877047 216.908908,47.8128799 220.627258,48.0216022 C229.841964,48.5318124 233.962297,44.7980014 236.783914,47.3722438 C240.548647,50.8200279 235.686189,59.8028195 238.716529,61.5885552 C240.819213,62.8331589 245.241035,59.7487063 247.768895,56.7415583 C253.705886,49.6913811 252.020646,39.7345517 251.324905,36.7042124 C249.005768,26.4381648 241.398998,20.8258526 238.39958,18.6149418 C235.400163,16.4040309 231.697273,13.7292926 226.115883,13.1185864 C219.931517,12.4383062 215.293242,14.7187912 212.5412,16.0252385 C207.957038,18.2670712 202.367917,20.9727313 200.597643,27.0102186 Z" id="Path" fill="#FFFFFF"></path>
                <path d="M213.236941,108.659311 C211.165178,101.168498 217.395927,90.6164233 225.605673,87.0604128 C240.881057,80.4199498 259.68926,99.5760236 265.031006,94.2574688 C269.963038,89.3563587 254.030565,72.9987105 260.238123,60.6686308 C264.342996,52.5129981 277.245129,47.8283408 285.261614,51.3920817 C300.40558,58.1794234 307.084695,98.7643255 287.998196,117.874017 C265.904548,140.006316 217.79018,125.063342 213.236941,108.659311 Z" id="Path" fill="#6D9DFF"></path>
                <path d="M185.956156,40.9250422 C194.792069,38.0879643 208.111647,46.7924595 211.505318,56.9270893 C213.360628,62.4775578 210.979647,64.6575469 208.737814,79.7087477 C206.372294,95.6257598 205.181804,103.580401 208.737814,110.800648 C214.226439,121.963429 226.115883,123.037962 225.667516,128.039568 C225.087732,134.587266 209.433556,142.650133 197.064824,138.815826 C180.62214,133.736915 176.246701,109.633349 174.283165,98.7952473 C170.448858,77.7915942 172.095446,45.3545944 185.956156,40.9250422 Z" id="Path" fill="#7E39F2"></path>
                <polygon id="Rectangle" stroke="#391F7E" stroke-width="10" fill="#FFFFFF" transform="translate(397.685658, 77.227271) rotate(90.000000) translate(-397.685658, -77.227271) " points="330.631669 16.4426832 464.739646 16.4426832 464.739646 138.011858 330.631669 138.011858"></polygon>
                <path d="M368.534102,33.6429512 C367.111698,38.505409 369.198922,43.5456673 371.904582,46.5450848 C376.202716,51.3379685 382.727222,51.7013 385.927632,51.8791005 C393.936386,52.3274671 397.523318,49.0806749 399.958412,51.3147771 C403.236126,54.3064642 399.007566,62.1374177 401.643652,63.6835092 C403.46804,64.7580428 407.302347,62.0833045 409.497797,59.4704098 C414.654012,53.3478875 413.192955,44.7361578 412.58998,42.0768804 C410.57233,33.1559324 403.97825,28.2857441 401.373086,26.3608602 C398.767922,24.4359763 395.552051,22.1245695 390.705054,21.5911679 C385.355578,21.0036531 381.273896,22.9749198 378.923837,24.1190275 C374.927191,26.0284505 370.072463,28.3785096 368.534102,33.6429512 Z" id="Path" fill="#FFC542"></path>
                <path d="M379.511352,104.515786 C377.710155,98.0144711 383.121476,88.8538789 390.225766,85.7694264 C403.491231,80.0025051 419.817958,96.5920669 424.448502,92.0156361 C428.731175,87.7638844 414.893656,73.5553035 420.281785,62.8486198 C423.845526,55.7752511 435.07015,51.7013 442.012101,54.8166744 C455.153879,60.7072831 460.967183,95.950439 444.393082,112.555462 C425.237008,131.742457 383.461616,118.763019 379.511352,104.515786 Z" id="Path" fill="#6D9DFF"></path>
                <path d="M355.82523,45.6870041 C363.501574,43.2287186 375.058608,50.789106 378.011643,59.6018276 C379.619578,64.4101722 377.547816,66.2964039 375.59974,79.376338 C373.543439,93.1983961 372.507557,100.101695 375.59974,106.378826 C380.369433,116.065089 390.689594,117.000475 390.28761,121.344992 C389.78513,127.026878 376.194986,134.022942 365.434189,130.698846 C351.156034,126.292485 347.360379,105.358406 345.651948,95.9117867 C342.358773,77.7142896 343.788908,49.5522328 355.82523,45.6870041 Z" id="Path" fill="#7E39F2"></path>
                <polygon id="Rectangle" stroke="#391F7E" stroke-width="10" fill="#6D9DFF" transform="translate(60.784588, 77.227271) rotate(90.000000) translate(-60.784588, -77.227271) " points="-6.26940106 16.4426832 127.838576 16.4426832 127.838576 138.011858 -6.26940106 138.011858"></polygon>
                <path d="M31.6330322,33.6429512 C30.2106281,38.505409 32.3055821,43.5456673 35.0035117,46.5450848 C39.3016461,51.3379685 45.8261523,51.7013 49.0342922,51.8791005 C57.0353157,52.3274671 60.6299785,49.0806749 63.0650726,51.3147771 C66.3350561,54.3064642 62.1064959,62.1374177 64.7425819,63.6835092 C66.5669699,64.7580428 70.4012768,62.0833045 72.6044572,59.4704098 C77.7606724,53.3478875 76.2918854,44.7361578 75.6966402,42.0768804 C73.6712603,33.1559324 67.0771801,28.2857441 64.4720159,26.3608602 C61.8668517,24.4359763 58.6509813,22.1245695 53.8117149,21.5911679 C48.4622383,21.0036531 44.3728263,22.9749198 42.0227672,24.1190275 C38.0183902,26.0284505 33.1713933,28.3785096 31.6330322,33.6429512 Z" id="Path" fill="#FFFFFF"></path>
                <path d="M42.610282,104.515786 C40.8090853,98.0144711 46.2204056,88.8538789 53.3246961,85.7694264 C66.5901612,80.0025051 82.9168876,96.5920669 87.5551621,92.0156361 C91.8301051,87.7638844 77.9925861,73.5553035 83.3884455,62.8486198 C86.9521864,55.7752511 98.1690803,51.7013 105.111031,54.8166744 C118.252809,60.7072831 124.066113,95.950439 107.492012,112.555462 C88.3436688,131.742457 46.5605458,118.763019 42.610282,104.515786 Z" id="Path" fill="#FFC542"></path>
                <path d="M18.9241601,45.6870041 C26.6005044,43.2287186 38.1652689,50.789106 41.1105732,59.6018276 C42.7185084,64.4101722 40.6544762,66.2964039 38.7064009,79.376338 C36.6500992,93.1983961 35.6142179,100.101695 38.7064009,106.378826 C43.4683627,116.065089 53.796254,117.000475 53.3942702,121.344992 C52.88406,127.026878 39.2939157,134.022942 28.5331188,130.698846 C14.2549637,126.292485 10.459309,105.358406 8.75087793,95.9117867 C5.45770302,77.7142896 6.89556812,49.5522328 18.9241601,45.6870041 Z" id="Path" fill="#7E39F2"></path>
            </g>
            <rect id="Rectangle" stroke="#391F7E" x="469.826287" y="33.7434472" width="384.574802" height="266.530715" rx="13.86"></rect>
            <rect id="Rectangle" stroke="#391F7E" fill="#FFFFFF" fill-rule="nonzero" x="469.834018" y="33.7434472" width="385.108203" height="25.2940571" rx="12.6470285"></rect>
            <path d="M771.762498,401.419469 L770.726617,405.887673 C771.214037,407.256788 771.808544,408.585382 772.504622,409.861128 C773.007102,410.440913 775.078864,410.866088 775.797797,411.152115 C776.516729,411.438142 786.187532,407.35646 786.187532,407.35646 L786.790507,405.400654 C786.790507,405.400654 784.97385,401.705496 784.687823,401.203016 C784.401796,400.700536 771.762498,401.419469 771.762498,401.419469 Z" id="Path" stroke="#391F7E" fill="#FFFFFF" fill-rule="nonzero"></path>
            <path d="M770.726617,405.887673 C770.726617,405.887673 754.56223,410.317225 749.807999,413.347565 C746.244258,415.620319 748.671621,420.158098 752.080753,419.995758 C754.917831,419.85661 777.939133,419.949375 785.507251,419.995758 C786.92905,420.003004 788.123667,418.928853 788.267025,417.514281 C788.576243,414.491672 788.723122,409.304535 786.775046,405.416084 C786.751855,405.400654 780.103662,411.07481 770.726617,405.887673 Z" id="Path" stroke="#391F7E" fill="#7E39F2" fill-rule="nonzero"></path>
            <path d="M737.106857,401.419469 L736.040054,405.887673 C736.530562,407.256783 737.127636,408.585337 737.825789,409.861128 C738.328269,410.440913 740.400032,410.866088 741.118964,411.152115 C741.837897,411.438142 751.493238,407.35646 751.493238,407.35646 L752.096214,405.400654 C752.096214,405.400654 750.271826,401.705496 749.985799,401.203016 C749.699772,400.700536 737.106857,401.419469 737.106857,401.419469 Z" id="Path" stroke="#391F7E" fill="#FFFFFF" fill-rule="nonzero"></path>
            <path d="M741.714209,265.9432 C741.714209,265.9432 738.622026,290.827543 738.289617,304.827402 C737.957207,318.82726 736.426577,402.231167 736.426577,402.231167 C736.426577,402.231167 744.512635,408.137236 753.224861,403.46804 C753.224861,403.46804 758.512494,360.857758 759.757097,353.699354 C761.001701,346.540951 766.598552,312.016727 766.598552,312.016727 C766.598552,312.016727 767.533938,357.433165 768.461593,368.317649 C769.389247,379.202134 770.641582,402.849603 770.641582,402.849603 C770.641582,402.849603 779.663026,409.691058 786.195262,403.784989 C786.195262,403.784989 789.287445,369.879202 788.993688,359.922373 C788.69993,349.965543 790.238291,278.752568 784.015273,265.355685 C777.792255,251.958803 741.714209,265.9432 741.714209,265.9432 Z" id="Path" stroke="#391F7E" fill="#FFC542" fill-rule="nonzero"></path>
            <path d="M709.540045,193.377395 L703.007809,191.336555 C703.007809,191.336555 697.349114,169.211985 693.57665,162.401452 C691.899141,159.363382 690.484467,153.318164 690.383971,152.498736 C690.283475,151.679307 691.21113,147.419825 690.252554,145.224375 C689.293977,143.028925 680.272533,125.898231 677.806517,127.150566 C675.48738,128.356517 681.323875,137.973206 681.323875,137.973206 C681.323875,137.973206 675.974399,141.838435 675.286388,143.879276 C674.598377,145.920116 674.737525,150.604774 675.83525,151.431933 C676.932975,152.259092 680.775013,154.864256 681.323875,155.297161 C681.872738,155.730067 688.049373,198.958786 693.692607,204.447411 C697.04447,207.705278 701.23118,209.97386 705.790773,211.002839 C705.790773,211.002839 714.819948,204.880316 709.540045,193.377395 Z" id="Path" stroke="#391F7E" fill="#FFFFFF" fill-rule="nonzero"></path>
            <path d="M760.004472,186.35814 C760.004472,186.35814 772.63604,189.728619 776.508999,192.867185 C780.381958,196.005751 789.101914,203.952661 789.357019,239.458653 C789.612124,274.964644 788.096955,273.194369 779.786713,274.709539 C771.476471,276.224709 742.518177,272.946995 738.490609,268.161842 C734.46304,263.376688 732.058868,221.910514 731.216248,219.459959 C730.018027,215.988984 709.570967,216.275011 705.759851,210.956456 C705.759851,210.956456 710.792379,196.353621 709.540045,193.331013 C709.540045,193.331013 722.882815,196.106247 725.905424,195.851142 C728.928033,195.596037 739.719751,187.463595 746.28291,187.757353 C750.896391,187.844484 755.503535,187.374685 760.004472,186.35814 L760.004472,186.35814 Z" id="Path" stroke="#391F7E" fill="#FFFFFF" fill-rule="nonzero"></path>
            <path d="M739.804786,135.445347 C737.307849,136.581724 733.844604,141.768861 738.00359,147.180181 C738.00359,147.180181 737.462458,154.222628 737.818059,156.564957 C738.17366,158.907285 734.725876,161.976277 735.653531,163.066271 C736.355996,163.799596 737.222303,164.35594 738.18139,164.689667 C738.18139,164.689667 736.194663,171.368783 738.722522,174.082173 C741.250382,176.795564 746.12057,176.246701 746.12057,176.246701 C746.12057,176.246701 746.847233,183.289148 746.306101,187.842388 C746.306101,187.842388 746.847233,192.349244 752.985217,192.534775 C759.1232,192.720306 760.027663,186.396792 760.027663,186.396792 C760.027663,186.396792 757.855405,175.574152 758.040936,172.67523 C758.040936,172.67523 762.911124,173.216362 764.53452,167.078379 C766.157916,160.940395 765.802315,147.396634 761.442337,145.232106 C758.638312,143.875705 755.663339,142.905718 752.598694,142.348645 C752.598694,142.348645 749.854381,130.876646 739.804786,135.445347 Z" id="Path" stroke="#391F7E" fill="#FFFFFF" fill-rule="nonzero"></path>
            <path d="M736.040054,405.887673 C736.040054,405.887673 719.875667,410.317225 715.129166,413.347565 C711.565425,415.620319 713.992789,420.158098 717.39419,419.995758 C720.238998,419.85661 743.260301,419.949375 750.828419,419.995758 C752.250218,420.003004 753.444834,418.928853 753.588192,417.514281 C753.897411,414.491672 754.036559,409.304535 752.096214,405.416084 C752.096214,405.400654 745.44802,411.07481 736.040054,405.887673 Z" id="Path" stroke="#391F7E" fill="#7E39F2" fill-rule="nonzero"></path>
            <path d="M737.980398,147.180181 C737.980398,147.180181 740.639676,151.455124 743.994694,151.37782 C745.707038,151.291017 747.423711,151.397337 749.112257,151.694768" id="Path" stroke="#391F7E"></path>
            <path d="M750.627427,156.572687 C751.663308,156.016094 754.624074,155.289431 755.103362,158.806789 C755.58265,162.324147 753.905141,164.805624 751.34636,163.769743" id="Path" stroke="#391F7E"></path>
            <path d="M752.475006,159.448417 C752.475006,159.448417 753.750532,160.731673 752.629616,161.52791" id="Path" stroke="#391F7E"></path>
            <path d="M758.017744,172.636578 C758.017744,172.636578 753.990176,173.200901 754.075211,168.322982" id="Path" stroke="#391F7E"></path>
            <path d="M746.097379,176.246701 C746.097379,176.246701 749.514241,175.682378 751.276785,174.244513" id="Path" stroke="#391F7E"></path>
            <path d="M740.322727,138.259233 C740.322727,138.259233 737.763946,139.859438 739.039471,143.539136" id="Path" stroke="#391F7E"></path>
            <path d="M758.628451,147.458478 C758.628451,147.458478 762.493679,147.218833 762.949776,153.132633" id="Path" stroke="#391F7E"></path>
            <path d="M737.439266,169.12695 C737.617067,169.482551 740.0367,170.835381 741.520948,167.928729" id="Path" stroke="#391F7E"></path>
            <line x1="731.216248" y1="219.47542" x2="734.934598" y2="223.36384" id="Path" stroke="#391F7E" fill="#FFFFFF" fill-rule="nonzero"></line>
            <path d="M708.009415,212.796305 C708.009415,212.796305 712.423506,208.374483 712.245705,202.452952" id="Path" stroke="#391F7E" fill="#FFFFFF" fill-rule="nonzero"></path>
            <line x1="703.131496" y1="191.707617" x2="697.836132" y2="191.707617" id="Path" stroke="#391F7E"></line>
            <path d="M690.383971,152.498736 C690.383971,152.498736 687.724694,156.928288 687.724694,156.804601" id="Path" stroke="#391F7E"></path>
            <line x1="678.579563" y1="140.075891" x2="681.107422" y2="143.44637" id="Path" stroke="#391F7E"></line>
            <line x1="676.051703" y1="142.364106" x2="678.216231" y2="144.768278" id="Path" stroke="#391F7E"></line>
            <path d="M675.085396,145.97423 C675.085396,145.97423 677.736943,147.520321 677.497299,147.783157" id="Path" stroke="#391F7E"></path>
            <line x1="766.598552" y1="311.978075" x2="771.089948" y2="289.660244" id="Path" stroke="#391F7E"></line>
            <line x1="753.858758" y1="273.287135" x2="744.667244" y2="404.844061" id="Path" stroke="#391F7E"></line>
            <path d="M770.231867,295.690001 C770.231867,295.690001 778.271543,387.319114 778.843597,405.702142" id="Path" stroke="#391F7E"></path>
            <line x1="737.50111" y1="340.758568" x2="742.719169" y2="341.894946" id="Path" stroke="#391F7E"></line>
            <line x1="767.456633" y1="343.935786" x2="771.082218" y2="344.391883" id="Path" stroke="#391F7E"></line>
            <line x1="726.17599" y1="408.786595" x2="730.07214" y2="410.440913" id="Path" stroke="#391F7E"></line>
            <line x1="730.265402" y1="407.426034" x2="733.380776" y2="408.979856" id="Path" stroke="#391F7E"></line>
            <line x1="761.434607" y1="408.593333" x2="765.531749" y2="411.028427" id="Path" stroke="#391F7E"></line>
            <line x1="765.531749" y1="407.325538" x2="768.647124" y2="409.760632" id="Path" stroke="#391F7E"></line>
            <path d="M770.123641,293.030723 C770.123641,293.030723 767.74266,287.665786 767.541668,287.06281" id="Path" stroke="#391F7E"></path>
            <circle id="Oval" fill="#391F7E" fill-rule="nonzero" cx="740.291805" cy="156.495382" r="1"></circle>
            <circle id="Oval" stroke="#391F7E" fill="#FFC542" fill-rule="nonzero" cx="496.434522" cy="46.614659" r="4.22856027"></circle>
            <circle id="Oval" stroke="#391F7E" fill="#6D9DFF" fill-rule="nonzero" cx="511.114661" cy="46.614659" r="4.22856027"></circle>
            <circle id="Oval" stroke="#391F7E" fill="#7E39F2" fill-rule="nonzero" cx="525.787069" cy="46.614659" r="4.22856027"></circle>
            <circle id="Oval" stroke="#391F7E" fill="#FFC542" fill-rule="nonzero" cx="668.367628" cy="33.8439431" r="33.8439431"></circle>
            <path d="M677.041202,23.5392432 C674.328474,20.7623017 670.42251,19.4988625 666.597354,20.1610333 C662.053043,20.6205513 658.223854,23.7526941 656.872438,28.1156741 C655.326346,32.6302613 656.315845,36.7119429 659.562637,40.2138401 C660.209985,40.901728 660.749496,41.6836279 661.162842,42.5329774 C662.142187,44.6905973 662.78859,46.9842863 663.079995,49.33578 C664.123607,49.33578 665.174949,49.2816668 666.218561,49.33578 L670.462582,49.33578 C671.529385,49.33578 672.603919,49.33578 673.670722,49.33578 C673.724835,48.9337962 673.771218,48.5627343 673.848523,48.1375591 C674.505612,45.0453761 675.394614,42.1232631 677.644177,39.6340558 C681.773314,34.9688664 681.507826,27.8824012 677.041202,23.5392432 L677.041202,23.5392432 Z" id="Path" stroke="#391F7E" fill="#FFFFFF" fill-rule="nonzero"></path>
            <path d="M668.367628,35.9079753 L668.367628,35.9079753 C668.931191,35.9079753 669.388049,36.364833 669.388049,36.9283957 L669.388049,49.4903892 C669.388049,49.5586998 669.332672,49.6140765 669.264361,49.6140765 L667.478626,49.6140765 C667.410315,49.6140765 667.354938,49.5586998 667.354938,49.4903892 L667.354938,36.9283957 C667.354938,36.364833 667.811796,35.9079753 668.375359,35.9079753 L668.367628,35.9079753 Z" id="Path" stroke="#391F7E" fill="#7E39F2" fill-rule="nonzero"></path>
            <path d="M663.041343,49.1115967 L673.693914,49.1115967 L673.693914,50.2788958 C673.693914,51.4145599 672.773276,52.3351975 671.637612,52.3351975 L665.089914,52.3351975 C663.95425,52.3351975 663.033613,51.4145599 663.033613,50.2788958 L663.033613,49.1115967 L663.041343,49.1115967 Z" id="Path" stroke="#391F7E" fill="#7E39F2" fill-rule="nonzero"></path>
            <path d="M663.752545,51.971866 L673.029094,51.971866 L673.029094,52.6676072 C673.029094,54.0594361 671.900794,55.1877364 670.508965,55.1877364 L666.311327,55.1877364 C664.919498,55.1877364 663.791197,54.0594361 663.791197,52.6676072 L663.791197,51.971866 L663.752545,51.971866 Z" id="Path" stroke="#391F7E" fill="#7E39F2" fill-rule="nonzero"></path>
            <polyline id="Path" stroke="#391F7E" stroke-linecap="round" stroke-linejoin="round" points="663.605666 32.2514689 665.986647 35.3436519 668.367628 32.2514689 670.748609 35.3436519 673.137321 32.2514689"></polyline>
            <line x1="668.429472" y1="18.0738097" x2="668.429472" y2="12.1290879" id="Path" stroke="#FFFFFF" stroke-width="2" stroke-linecap="round" stroke-linejoin="round"></line>
            <line x1="676.121277" y1="19.4498312" x2="678.409493" y2="13.9612063" id="Path" stroke="#FFFFFF" stroke-width="2" stroke-linecap="round" stroke-linejoin="round"></line>
            <line x1="660.358874" y1="19.751319" x2="657.861937" y2="14.3554596" id="Path" stroke="#FFFFFF" stroke-width="2" stroke-linecap="round" stroke-linejoin="round"></line>
            <circle id="Oval" stroke="#391F7E" fill="#7E39F2" fill-rule="nonzero" cx="214.303744" cy="140.075891" r="36.9902393"></circle>
            <path d="M224.438374,146.453518 C222.00328,149.159178 221.006051,152.351857 220.287118,155.730067 C220.202083,156.155242 220.1557,156.595878 220.093857,157.028784 C218.926557,157.028784 217.774719,156.982401 216.591959,156.982401 L212.773113,156.982401 C212.683109,156.990553 212.592552,156.990553 212.502547,156.982401 C212.386731,156.990464 212.270493,156.990464 212.154677,156.982401 L211.945954,156.982401 C210.809577,156.982401 209.626817,157.021054 208.521362,157.036514 C208.202653,154.466033 207.496319,151.958678 206.426408,149.599814 C205.974075,148.658472 205.382498,147.790651 204.671594,147.025572 C201.123314,143.198995 200.033319,138.738521 201.73402,133.80649 C202.082987,132.793156 202.541816,131.821061 203.102311,130.907568 C204.065593,131.803761 205.099683,132.620692 206.194494,133.350393 C206.194494,133.180322 206.812931,129.438781 207.245836,126.818156 C207.741152,126.522189 208.257965,126.263783 208.791928,126.04511 L214.551119,134.896484 L214.473814,124.955116 L215.192747,124.955116 C216.344585,127.506167 218.47046,132.214015 218.609609,132.476851 C218.563226,132.345433 218.97294,129.059989 219.382654,125.836388 C221.047569,126.49938 222.554201,127.505557 223.804476,128.789423 C228.636012,133.736915 229.045726,141.335955 224.438374,146.453518 Z" id="Path" stroke="#391F7E" fill="#FFFFFF" fill-rule="nonzero"></path>
            <path d="M214.210978,142.340915 L214.40424,142.340915 C214.674872,142.340915 214.93442,142.448423 215.125786,142.639789 C215.317152,142.831155 215.42466,143.090703 215.42466,143.361335 L215.42466,157.191124 C215.42466,157.259434 215.369284,157.314811 215.300973,157.314811 L213.321976,157.314811 C213.253665,157.314811 213.198288,157.259434 213.198288,157.191124 L213.198288,143.361335 C213.198288,142.800778 213.650437,142.345161 214.210978,142.340915 L214.210978,142.340915 Z" id="Path" stroke="#391F7E" fill="#7E39F2" fill-rule="nonzero"></path>
            <path d="M208.474979,156.765948 L220.124778,156.765948 L220.124778,158.203814 C220.124778,158.749179 219.908133,159.272207 219.522502,159.657838 C219.13687,160.04347 218.613842,160.260115 218.068477,160.260115 L210.531281,160.260115 C209.395617,160.260115 208.474979,159.339478 208.474979,158.203814 L208.474979,156.742757 L208.474979,156.765948 Z" id="Path" stroke="#391F7E" fill="#7E39F2" fill-rule="nonzero"></path>
            <path d="M209.248025,159.896784 L219.351733,159.896784 L219.351733,160.894013 C219.351733,162.285842 218.223432,163.414142 216.831604,163.414142 L211.768154,163.414142 C210.376325,163.414142 209.248025,162.285842 209.248025,160.894013 L209.248025,159.896784 L209.248025,159.896784 Z" id="Path" stroke="#391F7E" fill="#7E39F2" fill-rule="nonzero"></path>
            <polyline id="Path" stroke="#391F7E" stroke-linecap="round" stroke-linejoin="round" points="209.093416 138.483416 211.690849 141.575599 214.296013 138.483416 216.908908 141.575599 219.514072 138.483416"></polyline>
            <path d="M169.29702,189.898689 C169.29702,189.898689 179.238388,187.347638 179.238388,180.506184 C179.238388,173.664729 175.21082,170.30198 172.118637,170.30198 C169.026454,170.30198 165.4086,174.731532 165.4086,174.731532 C165.4086,174.731532 160.136428,170.30198 157.214315,175.806065 C155.151592,173.757992 151.951595,173.396392 149.483857,174.932524 C145.116149,177.553149 145.665011,179.864556 142.031696,180.343844 C135.252085,181.28696 134.981519,188.398981 136.527611,194.173632 C138.073702,199.948284 133.505002,204.447411 136.728602,210.35348 C139.952203,216.25955 144.891966,215.409199 144.891966,215.409199 L144.891966,224.940853 C144.891966,224.940853 147.010111,231.179333 151.918952,232.045144 C162.138616,233.83861 161.705711,225.644325 161.705711,225.644325 L161.705711,219.204854 C161.705711,219.204854 169.057376,219.30535 169.436168,212.958644 C169.814961,206.611939 169.29702,189.898689 169.29702,189.898689 Z" id="Path" stroke="#391F7E" fill="#FFFFFF" fill-rule="nonzero"></path>
            <path d="M169.29702,189.898689 C167.632621,189.905427 166.063662,189.122382 165.06846,187.788275" id="Path" stroke="#391F7E" fill="#FFFFFF" fill-rule="nonzero"></path>
            <line x1="157.175663" y1="175.821526" x2="156.673183" y2="178.944631" id="Path" stroke="#391F7E" fill="#FFFFFF" fill-rule="nonzero"></line>
            <path d="M143.78651,179.748599 C146.628073,179.676124 149.45928,180.118746 152.143135,181.055046" id="Path" stroke="#391F7E" fill="#FFFFFF" fill-rule="nonzero"></path>
            <path d="M142.882047,185.786086 C142.882047,185.786086 139.959934,187.20076 140.160926,191.730808" id="Path" stroke="#391F7E" fill="#FFFFFF" fill-rule="nonzero"></path>
            <path d="M171.778497,175.21082 C171.778497,175.21082 176.308545,177.529957 172.551543,184.069924" id="Path" stroke="#391F7E" fill="#FFFFFF" fill-rule="nonzero"></path>
            <path d="M152.947102,197.366311 C152.938691,196.722382 152.595595,196.129293 152.041581,195.800988 C151.487567,195.472683 150.802579,195.456538 150.233712,195.758376 C147.713583,196.66284 147.713583,200.991896 149.221022,203.311033 C150.728461,205.630171 153.148094,203.311033 153.148094,203.311033" id="Path" stroke="#391F7E" fill="#FFFFFF" fill-rule="nonzero"></path>
            <path d="M151.238671,198.742333 C150.465626,198.742333 150.334208,201.463454 150.999027,201.56395" id="Path" stroke="#391F7E" fill="#FFFFFF" fill-rule="nonzero"></path>
            <path d="M162.416913,199.283465 C162.416913,199.283465 164.782433,204.115001 164.681937,205.421448 C164.581441,206.727895 161.813937,206.735626 161.813937,206.735626" id="Path" stroke="#391F7E" fill="#FFFFFF" fill-rule="nonzero"></path>
            <path d="M167.10157,211.018299 C167.10157,211.018299 165.207608,209.278946 162.270034,211.543971" id="Path" stroke="#391F7E" fill="#FFFFFF" fill-rule="nonzero"></path>
            <path d="M144.891966,215.409235 C144.891966,215.409235 150.481086,215.478773 150.303286,209.487669" id="Path" stroke="#391F7E" fill="#FFFFFF" fill-rule="nonzero"></path>
            <path d="M161.705711,219.220315 C161.705711,219.220315 159.595296,219.367194 156.472191,217.202665" id="Path" stroke="#391F7E" fill="#FFFFFF" fill-rule="nonzero"></path>
            <path d="M155.637302,189.651315 C155.637302,189.651315 153.41866,189.249331 152.684267,189.713158 C151.949873,190.176986 152.143135,193.006333 152.143135,193.006333" id="Path" stroke="#391F7E" fill="#FFFFFF" fill-rule="nonzero"></path>
            <path d="M140.191847,207.570515 C140.191847,207.570515 140.06043,211.799076 144.62913,211.327518" id="Path" stroke="#391F7E" fill="#FFFFFF" fill-rule="nonzero"></path>
            <ellipse id="Oval" fill="#391F7E" fill-rule="nonzero" cx="165.841506" cy="198.054322" rx="1" ry="1.15956863"></ellipse>
            <ellipse id="Oval" fill="#391F7E" fill-rule="nonzero" cx="158.915016" cy="198.232123" rx="1" ry="1.15956863"></ellipse>
            <rect id="Rectangle" stroke="#391F7E" fill="#FFC542" fill-rule="nonzero" x="111.465467" y="279.332353" width="87.7252321" height="138.166468"></rect>
            <rect id="Rectangle" stroke="#391F7E" fill="#FFC542" fill-rule="nonzero" x="105.126492" y="279.332353" width="100.410913" height="9.71718513"></rect>
            <rect id="Rectangle" stroke="#391F7E" fill="#FFFFFF" fill-rule="nonzero" x="139.086392" y="257.756646" width="13.5437616" height="21.475211" rx="2.27"></rect>
            <rect id="Rectangle" stroke="#391F7E" fill="#FFC542" fill-rule="nonzero" x="149.955415" y="267.010003" width="46.6533112" height="2.96076524"></rect>
            <rect id="Rectangle" stroke="#391F7E" fill="#FFC542" fill-rule="nonzero" x="139.086392" y="265.804052" width="13.5437616" height="5.37266799"></rect>
            <line x1="909.101807" y1="418.944416" x2="0" y2="418.944416" id="Path" stroke="#391F7E" stroke-width="3"></line>
            <path d="M454.365372,418.032222 C454.365372,418.032222 447.647605,407.263695 455.911464,404.890444 C464.175323,402.517194 467.568994,407.650217 467.568994,407.650217 C467.568994,407.650217 457.094224,393.426176 466.022902,389.669173 C474.951581,385.912171 477.092917,393.820429 477.092917,393.820429 C477.092917,393.820429 465.829641,373.110533 485.781952,372.492097 C505.734263,371.87366 507.519998,388.494144 507.519998,388.494144 C507.519998,388.494144 505.146748,358.260324 530.440805,358.855569 C555.734862,359.450815 554.946355,391.856893 554.946355,391.856893 C554.946355,391.856893 562.45263,382.959136 580.03942,387.504645 C597.626211,392.050154 589.31597,408.848438 589.31597,408.848438 C589.31597,408.848438 609.863526,399.571889 609.671619,418.33371 L454.365372,418.032222 Z" id="Path" stroke="#391F7E" fill="#FFC542" fill-rule="nonzero"></path>
            <path d="M537.320912,412.883737 C537.320912,412.883737 529.830099,376.357325 568.242742,351.751279" id="Path" stroke="#391F7E"></path>
            <path d="M574.945049,351.76674 C573.499453,353.676163 569.147206,354.657931 567.214591,353.212335 C565.281977,351.76674 566.557503,348.442643 567.987637,346.53322 C568.922515,345.290398 570.449416,344.640735 571.993171,344.828952 C573.536925,345.01717 574.863,346.014673 575.471877,347.445712 C576.080753,348.876752 575.879927,350.523918 574.945049,351.76674 L574.945049,351.76674 Z" id="Path" stroke="#391F7E" fill="#FFFFFF" fill-rule="nonzero"></path>
            <line x1="566.727573" y1="352.748508" x2="572.200737" y2="348.202999" id="Path" stroke="#391F7E" fill="#FFFFFF" fill-rule="nonzero"></line>
            <line x1="569.904791" y1="350.166535" x2="572.564068" y2="350.58398" id="Path" stroke="#391F7E" fill="#FFFFFF" fill-rule="nonzero"></line>
            <line x1="568.057211" y1="351.673974" x2="568.5365" y2="348.697748" id="Path" stroke="#391F7E" fill="#FFFFFF" fill-rule="nonzero"></line>
            <line x1="554.536641" y1="362.689876" x2="563.751346" y2="364.26689" id="Path" stroke="#391F7E" fill="#FFFFFF" fill-rule="nonzero"></line>
            <path d="M568.188629,369.052043 C565.815379,369.376722 562.050646,366.988011 561.725967,364.61476 C561.401287,362.24151 564.640349,360.749531 567.0136,360.463505 C569.339143,360.225662 571.434723,361.873832 571.751597,364.189931 C572.068471,366.506029 570.492598,368.656504 568.188629,369.052043 L568.188629,369.052043 Z" id="Path" stroke="#391F7E" fill="#FFFFFF" fill-rule="nonzero"></path>
            <line x1="561.695045" y1="363.92675" x2="568.776144" y2="364.599299" id="Path" stroke="#391F7E" fill="#FFFFFF" fill-rule="nonzero"></line>
            <line x1="565.768996" y1="364.351925" x2="567.35374" y2="366.531914" id="Path" stroke="#391F7E" fill="#FFFFFF" fill-rule="nonzero"></line>
            <line x1="563.395745" y1="364.10455" x2="565.8463" y2="362.349736" id="Path" stroke="#391F7E" fill="#FFFFFF" fill-rule="nonzero"></line>
            <line x1="554.85359" y1="362.929521" x2="550.826021" y2="354.487861" id="Path" stroke="#391F7E" fill="#FFFFFF" fill-rule="nonzero"></line>
            <path d="M544.997256,351.519365 C545.337397,353.884885 548.653763,356.861111 551.027013,356.528702 C553.400264,356.196292 553.918204,352.663473 553.585795,350.344336 C553.389231,348.793479 552.373222,347.46843 550.926498,346.876159 C549.479775,346.283889 547.826257,346.516066 546.598589,347.483859 C545.37092,348.451652 544.759116,350.005268 544.997256,351.550287 L544.997256,351.519365 Z" id="Path" stroke="#391F7E" fill="#FFFFFF" fill-rule="nonzero"></path>
            <line x1="551.715024" y1="356.374093" x2="549.140782" y2="349.74136" id="Path" stroke="#391F7E" fill="#FFFFFF" fill-rule="nonzero"></line>
            <line x1="550.199854" y1="352.570707" x2="547.671995" y2="351.643053" id="Path" stroke="#391F7E" fill="#FFFFFF" fill-rule="nonzero"></line>
            <line x1="551.081127" y1="354.789349" x2="552.109277" y2="351.952271" id="Path" stroke="#391F7E" fill="#FFFFFF" fill-rule="nonzero"></line>
            <line x1="546.048599" y1="373.071881" x2="555.263304" y2="374.656625" id="Path" stroke="#391F7E" fill="#FFFFFF" fill-rule="nonzero"></line>
            <path d="M559.685126,379.441778 C557.311875,379.766457 553.547143,377.377746 553.222463,375.004495 C552.897784,372.631245 556.136846,371.139266 558.510096,370.85324 C560.83564,370.615397 562.93122,372.263567 563.248094,374.579666 C563.564968,376.895764 561.989094,379.046239 559.685126,379.441778 L559.685126,379.441778 Z" id="Path" stroke="#391F7E" fill="#FFFFFF" fill-rule="nonzero"></path>
            <line x1="553.207002" y1="374.308754" x2="560.295832" y2="374.981304" id="Path" stroke="#391F7E" fill="#FFFFFF" fill-rule="nonzero"></line>
            <line x1="557.280954" y1="374.74166" x2="558.865697" y2="376.921649" id="Path" stroke="#391F7E" fill="#FFFFFF" fill-rule="nonzero"></line>
            <line x1="554.915433" y1="374.494285" x2="557.358258" y2="372.731741" id="Path" stroke="#391F7E" fill="#FFFFFF" fill-rule="nonzero"></line>
            <line x1="546.365547" y1="373.319255" x2="542.34571" y2="364.877596" id="Path" stroke="#391F7E" fill="#FFFFFF" fill-rule="nonzero"></line>
            <path d="M536.532405,361.9091 C536.864815,364.27462 540.181181,367.250846 542.554432,366.918437 C544.927682,366.586027 545.445623,363.053208 545.113213,360.734071 C544.955361,359.149902 543.942218,357.779574 542.473913,357.16428 C541.005608,356.548986 539.318215,356.787654 538.078149,357.786023 C536.838082,358.784393 536.244721,360.381948 536.532405,361.947752 L536.532405,361.9091 Z" id="Path" stroke="#391F7E" fill="#FFFFFF" fill-rule="nonzero"></path>
            <line x1="543.234712" y1="366.763827" x2="540.66047" y2="360.131095" id="Path" stroke="#391F7E" fill="#FFFFFF" fill-rule="nonzero"></line>
            <line x1="541.711812" y1="362.960442" x2="539.183952" y2="362.032787" id="Path" stroke="#391F7E" fill="#FFFFFF" fill-rule="nonzero"></line>
            <line x1="542.593084" y1="365.171353" x2="543.621235" y2="362.342006" id="Path" stroke="#391F7E" fill="#FFFFFF" fill-rule="nonzero"></line>
            <line x1="540.691392" y1="383.469346" x2="549.906097" y2="385.04636" id="Path" stroke="#391F7E" fill="#FFFFFF" fill-rule="nonzero"></line>
            <path d="M554.35111,389.831513 C551.97786,390.156192 548.213127,387.775211 547.888448,385.401961 C547.563768,383.02871 550.80283,381.536732 553.176081,381.242974 C554.737843,380.974856 556.321504,381.579879 557.306665,382.821027 C558.291826,384.062174 558.521625,385.741826 557.906039,387.201977 C557.290453,388.662129 555.927497,389.67029 554.35111,389.831513 L554.35111,389.831513 Z" id="Path" stroke="#391F7E" fill="#FFFFFF" fill-rule="nonzero"></path>
            <line x1="547.857526" y1="384.706219" x2="554.938625" y2="385.378769" id="Path" stroke="#391F7E" fill="#FFFFFF" fill-rule="nonzero"></line>
            <line x1="551.923746" y1="385.131395" x2="553.50849" y2="387.319114" id="Path" stroke="#391F7E" fill="#FFFFFF" fill-rule="nonzero"></line>
            <line x1="549.558226" y1="384.89175" x2="552.008781" y2="383.129206" id="Path" stroke="#391F7E" fill="#FFFFFF" fill-rule="nonzero"></line>
            <line x1="541.016071" y1="383.716721" x2="536.988502" y2="375.275061" id="Path" stroke="#391F7E" fill="#FFFFFF" fill-rule="nonzero"></line>
            <path d="M531.175198,372.337487 C531.507608,374.710738 534.831705,377.686964 537.197225,377.354554 C539.562745,377.022145 540.096146,373.489326 539.756006,371.131536 C539.422992,368.762011 537.232151,367.111093 534.862627,367.444108 C532.493102,367.777122 530.842184,369.967963 531.175198,372.337487 L531.175198,372.337487 Z" id="Path" stroke="#391F7E" fill="#FFFFFF" fill-rule="nonzero"></path>
            <line x1="537.877505" y1="377.161293" x2="535.303263" y2="370.52083" id="Path" stroke="#391F7E" fill="#FFFFFF" fill-rule="nonzero"></line>
            <line x1="536.354605" y1="373.357908" x2="533.826745" y2="372.422522" id="Path" stroke="#391F7E" fill="#FFFFFF" fill-rule="nonzero"></line>
            <line x1="537.235877" y1="375.568819" x2="538.264028" y2="372.731741" id="Path" stroke="#391F7E" fill="#FFFFFF" fill-rule="nonzero"></line>
            <line x1="537.328643" y1="395.977227" x2="546.551078" y2="397.56197" id="Path" stroke="#391F7E" fill="#FFFFFF" fill-rule="nonzero"></line>
            <path d="M550.988361,402.347124 C548.622841,402.671803 544.850378,400.283091 544.525699,397.909841 C544.201019,395.53659 547.447812,394.044612 549.821062,393.758585 C551.385593,393.485984 552.973996,394.090339 553.961627,395.333985 C554.949257,396.577631 555.178137,398.261639 554.558258,399.723767 C553.938379,401.185896 552.568896,402.192268 550.988361,402.347124 L550.988361,402.347124 Z" id="Path" stroke="#391F7E" fill="#FFFFFF" fill-rule="nonzero"></path>
            <line x1="544.494777" y1="397.2141" x2="551.575876" y2="397.88665" id="Path" stroke="#391F7E" fill="#FFFFFF" fill-rule="nonzero"></line>
            <line x1="548.568728" y1="397.647005" x2="550.153472" y2="399.826994" id="Path" stroke="#391F7E" fill="#FFFFFF" fill-rule="nonzero"></line>
            <line x1="546.195477" y1="397.399631" x2="548.646032" y2="395.637086" id="Path" stroke="#391F7E" fill="#FFFFFF" fill-rule="nonzero"></line>
            <line x1="537.653322" y1="396.224601" x2="533.625753" y2="387.782942" id="Path" stroke="#391F7E" fill="#FFFFFF" fill-rule="nonzero"></line>
            <path d="M527.812449,384.814446 C528.144859,387.179966 531.468956,390.156192 533.842206,389.823782 C536.215457,389.491373 536.733397,385.958554 536.400988,383.639416 C536.184184,382.105222 535.165367,380.80323 533.728314,380.22389 C532.29126,379.64455 530.654294,379.875877 529.434044,380.830731 C528.213794,381.785586 527.595646,383.318903 527.812449,384.853098 L527.812449,384.814446 Z" id="Path" stroke="#391F7E" fill="#FFFFFF" fill-rule="nonzero"></path>
            <line x1="534.514756" y1="389.669173" x2="531.940514" y2="383.036441" id="Path" stroke="#391F7E" fill="#FFFFFF" fill-rule="nonzero"></line>
            <line x1="532.999586" y1="385.865788" x2="530.463996" y2="384.938133" id="Path" stroke="#391F7E" fill="#FFFFFF" fill-rule="nonzero"></line>
            <line x1="533.873128" y1="388.076699" x2="534.901279" y2="385.247351" id="Path" stroke="#391F7E" fill="#FFFFFF" fill-rule="nonzero"></line>
            <line x1="536.60971" y1="408.516029" x2="545.955833" y2="408.809786" id="Path" stroke="#391F7E" fill="#FFFFFF" fill-rule="nonzero"></line>
            <path d="M551.019283,412.93012 C548.700146,413.579478 544.649386,411.739629 544.000027,409.435953 C543.350669,407.132277 546.319165,405.238315 548.638302,404.588956 C550.880589,404.11005 553.108217,405.459312 553.722415,407.668376 C554.336613,409.877441 553.125125,412.182898 550.957439,412.93012 L551.019283,412.93012 Z" id="Path" stroke="#391F7E" fill="#FFFFFF" fill-rule="nonzero"></path>
            <line x1="543.86861" y1="408.755673" x2="550.980631" y2="408.438724" id="Path" stroke="#391F7E" fill="#FFFFFF" fill-rule="nonzero"></line>
            <line x1="547.965752" y1="408.608794" x2="549.836523" y2="410.556869" id="Path" stroke="#391F7E" fill="#FFFFFF" fill-rule="nonzero"></line>
            <line x1="545.584771" y1="408.70156" x2="547.76476" y2="406.614336" id="Path" stroke="#391F7E" fill="#FFFFFF" fill-rule="nonzero"></line>
            <line x1="536.957581" y1="408.717021" x2="531.801365" y2="400.916989" id="Path" stroke="#391F7E" fill="#FFFFFF" fill-rule="nonzero"></line>
            <path d="M525.671113,398.775652 C526.335932,401.094789 530.031091,403.560805 532.334767,402.903716 C534.638443,402.246628 534.653904,398.690617 534.012276,396.386941 C533.352652,394.083592 530.950688,392.75109 528.647339,393.410715 C526.34399,394.070339 525.011488,396.472303 525.671113,398.775652 L525.671113,398.775652 Z" id="Path" stroke="#391F7E" fill="#FFFFFF" fill-rule="nonzero"></path>
            <line x1="532.945473" y1="402.656342" x2="529.474498" y2="396.441054" id="Path" stroke="#391F7E" fill="#FFFFFF" fill-rule="nonzero"></line>
            <line x1="530.912363" y1="399.100331" x2="528.276277" y2="398.528277" id="Path" stroke="#391F7E" fill="#FFFFFF" fill-rule="nonzero"></line>
            <line x1="532.087392" y1="401.172094" x2="532.72129" y2="398.219059" id="Path" stroke="#391F7E" fill="#FFFFFF" fill-rule="nonzero"></line>
            <path d="M521.844536,393.920925 C521.844536,393.920925 511.995933,307.888663 480.733963,323.697449 C451.164963,338.655884 516.703782,408.083123 516.703782,408.083123 L521.844536,393.920925 Z" id="Path" stroke="#391F7E" fill="#FFFFFF" fill-rule="nonzero"></path>
            <path d="M520.128375,398.489625 C520.128375,398.489625 490.667601,345.280886 488.61903,339.09652" id="Path" stroke="#391F7E" fill="#FFFFFF" fill-rule="nonzero"></path>
            <line x1="493.752053" y1="349.9037" x2="495.978425" y2="341.338353" id="Path" stroke="#391F7E" fill="#FFFFFF" fill-rule="nonzero"></line>
            <line x1="499.805002" y1="361.259742" x2="487.590879" y2="358.639117" id="Path" stroke="#391F7E" fill="#FFFFFF" fill-rule="nonzero"></line>
            <line x1="509.622683" y1="379.186673" x2="510.542607" y2="366.284539" id="Path" stroke="#391F7E" fill="#FFFFFF" fill-rule="nonzero"></line>
            <line x1="490.327461" y1="369.028852" x2="499.805002" y2="382.271125" id="Path" stroke="#391F7E" fill="#FFFFFF" fill-rule="nonzero"></line>
            <path d="M485.07848,326.665944 C485.07848,326.665944 494.896161,325.297653 498.993304,335.571431" id="Path" stroke="#391F7E" fill="#FFFFFF" fill-rule="nonzero"></path>
            <path d="M491.115967,417.738464 C491.115967,417.738464 485.982944,404.101937 496.256722,402.130671 C506.5305,400.159404 509.893249,404.697183 509.893249,404.697183 C509.893249,404.697183 494.679708,388.09989 510.480764,380.191632 C526.281819,372.283374 532.419802,394.222413 532.419802,394.222413 C532.419802,394.222413 539.562745,381.467158 552.109277,391.787319 C560.280371,398.505086 553.956857,405.617107 553.956857,405.617107 C553.956857,405.617107 560.806042,402.061097 565.150559,407.201851 C573.391227,416.942227 564.82588,418.132718 564.82588,418.132718 L491.115967,417.738464 Z" id="Path" stroke="#391F7E" fill="#7E39F2" fill-rule="nonzero"></path>
            <path d="M162.154077,418.032222 C162.154077,418.032222 168.871845,407.263695 160.607986,404.890444 C152.344127,402.517194 148.950456,407.650217 148.950456,407.650217 C148.950456,407.650217 159.425226,393.426176 150.496547,389.669173 C141.567869,385.912171 139.434263,393.820429 139.434263,393.820429 C139.434263,393.820429 150.697539,373.071881 130.737498,372.484366 C110.777457,371.896851 108.999451,388.494144 108.999451,388.494144 C108.999451,388.494144 111.364971,358.260324 86.0786447,358.855569 C60.7923181,359.450815 61.5730943,391.856893 61.5730943,391.856893 C61.5730943,391.856893 54.06682,382.959136 36.4800291,387.504645 C18.8932382,392.050154 27.2034801,408.848438 27.2034801,408.848438 C27.2034801,408.848438 6.64819348,399.571889 6.84772094,418.33371 L162.154077,418.032222 Z" id="Path" stroke="#391F7E" fill="#FFFFFF" fill-rule="nonzero"></path>
            <path d="M79.1985375,412.883737 C79.1985375,412.883737 86.6893508,376.357325 48.2767073,351.751279" id="Path" stroke="#391F7E"></path>
            <path d="M41.5744006,351.76674 C43.0199962,353.676163 47.3645133,354.657931 49.3048582,353.212335 C51.245203,351.76674 49.9619471,348.442643 48.5318124,346.53322 C47.617573,345.241068 46.0719596,344.549648 44.4993147,344.729309 C42.9266697,344.908969 41.5768219,345.931169 40.9775683,347.396224 C40.3783148,348.861279 40.6248523,350.536451 41.6207834,351.76674 L41.5744006,351.76674 Z" id="Path" stroke="#391F7E" fill="#FFFFFF" fill-rule="nonzero"></path>
            <line x1="49.791877" y1="352.748508" x2="44.3187131" y2="348.202999" id="Path" stroke="#391F7E" fill="#FFFFFF" fill-rule="nonzero"></line>
            <line x1="46.614659" y1="350.166535" x2="43.9476511" y2="350.58398" id="Path" stroke="#391F7E" fill="#FFFFFF" fill-rule="nonzero"></line>
            <line x1="48.4622383" y1="351.673974" x2="47.9829499" y2="348.697748" id="Path" stroke="#391F7E" fill="#FFFFFF" fill-rule="nonzero"></line>
            <line x1="61.9828085" y1="362.689876" x2="52.7681032" y2="364.26689" id="Path" stroke="#391F7E" fill="#FFFFFF" fill-rule="nonzero"></line>
            <path d="M48.3230901,369.052043 C50.6963405,369.376722 54.4610734,366.988011 54.7857526,364.61476 C55.1104318,362.24151 51.8713701,360.749531 49.4981196,360.463505 C47.9363577,360.195386 46.3526958,360.800409 45.3675351,362.041557 C44.3823745,363.282704 44.1525751,364.962356 44.7681612,366.422507 C45.3837472,367.882659 46.7467033,368.89082 48.3230901,369.052043 L48.3230901,369.052043 Z" id="Path" stroke="#391F7E" fill="#FFFFFF" fill-rule="nonzero"></path>
            <line x1="54.8244049" y1="363.92675" x2="47.7355753" y2="364.599299" id="Path" stroke="#391F7E" fill="#FFFFFF" fill-rule="nonzero"></line>
            <line x1="50.7504537" y1="364.351925" x2="49.1657099" y2="366.531914" id="Path" stroke="#391F7E" fill="#FFFFFF" fill-rule="nonzero"></line>
            <line x1="53.1159737" y1="364.10455" x2="50.6731492" y2="362.349736" id="Path" stroke="#391F7E" fill="#FFFFFF" fill-rule="nonzero"></line>
            <line x1="61.6581293" y1="362.929521" x2="65.6856977" y2="354.487861" id="Path" stroke="#391F7E" fill="#FFFFFF" fill-rule="nonzero"></line>
            <path d="M71.4990018,351.519365 C71.1665921,353.884885 67.8502258,356.861111 65.4769754,356.528702 C63.1037249,356.196292 62.5857842,352.663473 62.9181939,350.344336 C63.1336164,348.811522 64.1504213,347.51007 65.5855881,346.930225 C67.020755,346.350379 68.6562477,346.580232 69.8759921,347.5332 C71.0957364,348.486169 71.7144242,350.017473 71.4990018,351.550287 L71.4990018,351.519365 Z" id="Path" stroke="#391F7E" fill="#FFFFFF" fill-rule="nonzero"></path>
            <line x1="64.7966951" y1="356.374093" x2="67.3709374" y2="349.74136" id="Path" stroke="#391F7E" fill="#FFFFFF" fill-rule="nonzero"></line>
            <line x1="66.3195952" y1="352.570707" x2="68.8474548" y2="351.643053" id="Path" stroke="#391F7E" fill="#FFFFFF" fill-rule="nonzero"></line>
            <line x1="65.4383231" y1="354.789349" x2="64.4101722" y2="351.952271" id="Path" stroke="#391F7E" fill="#FFFFFF" fill-rule="nonzero"></line>
            <line x1="70.4708509" y1="373.071881" x2="61.2561455" y2="374.656625" id="Path" stroke="#391F7E" fill="#FFFFFF" fill-rule="nonzero"></line>
            <path d="M56.8111325,379.441778 C59.1843829,379.766457 62.9491157,377.377746 63.273795,375.004495 C63.5984742,372.631245 60.3594125,371.139266 57.986162,370.85324 C56.4244,370.585121 54.8407382,371.190144 53.8555775,372.431292 C52.8704169,373.672439 52.6406175,375.352091 53.2562035,376.812242 C53.8717896,378.272394 55.2347457,379.280555 56.8111325,379.441778 L56.8111325,379.441778 Z" id="Path" stroke="#391F7E" fill="#FFFFFF" fill-rule="nonzero"></path>
            <line x1="63.3047168" y1="374.308754" x2="56.2236177" y2="374.981304" id="Path" stroke="#391F7E" fill="#FFFFFF" fill-rule="nonzero"></line>
            <line x1="59.2384961" y1="374.74166" x2="57.6537523" y2="376.921649" id="Path" stroke="#391F7E" fill="#FFFFFF" fill-rule="nonzero"></line>
            <line x1="61.6040161" y1="374.494285" x2="59.1534611" y2="372.731741" id="Path" stroke="#391F7E" fill="#FFFFFF" fill-rule="nonzero"></line>
            <line x1="70.1461717" y1="373.319255" x2="74.1737401" y2="364.877596" id="Path" stroke="#391F7E" fill="#FFFFFF" fill-rule="nonzero"></line>
            <path d="M79.9870442,361.9091 C79.6546345,364.27462 76.3305377,367.250846 73.9650177,366.918437 C71.5994977,366.586027 71.0660962,363.053208 71.3985058,360.734071 C71.7336549,358.362411 73.9279566,356.711494 76.2996159,357.046643 C78.6712751,357.381792 80.322193,359.576093 79.9870442,361.947752 L79.9870442,361.9091 Z" id="Path" stroke="#391F7E" fill="#FFFFFF" fill-rule="nonzero"></path>
            <line x1="73.2847375" y1="366.763827" x2="75.8589798" y2="360.131095" id="Path" stroke="#391F7E" fill="#FFFFFF" fill-rule="nonzero"></line>
            <line x1="74.8076376" y1="362.960442" x2="77.3354972" y2="362.032787" id="Path" stroke="#391F7E" fill="#FFFFFF" fill-rule="nonzero"></line>
            <line x1="73.9263654" y1="365.171353" x2="72.8982146" y2="362.342006" id="Path" stroke="#391F7E" fill="#FFFFFF" fill-rule="nonzero"></line>
            <line x1="75.828058" y1="383.469346" x2="66.6056222" y2="385.04636" id="Path" stroke="#391F7E" fill="#FFFFFF" fill-rule="nonzero"></line>
            <path d="M62.1683395,389.831513 C64.54159,390.156192 68.3063228,387.775211 68.631002,385.401961 C68.9556812,383.02871 65.7088891,381.536732 63.3356386,381.242974 C61.0147441,381.01558 58.929545,382.664273 58.6154809,384.975036 C58.3014169,387.285798 59.8709445,389.431219 62.1683395,389.831513 Z" id="Path" stroke="#391F7E" fill="#FFFFFF" fill-rule="nonzero"></path>
            <line x1="68.6619239" y1="384.706219" x2="61.5808248" y2="385.378769" id="Path" stroke="#391F7E" fill="#FFFFFF" fill-rule="nonzero"></line>
            <line x1="64.5879727" y1="385.131395" x2="63.0032289" y2="387.319114" id="Path" stroke="#391F7E" fill="#FFFFFF" fill-rule="nonzero"></line>
            <line x1="66.9612232" y1="384.89175" x2="64.5106682" y2="383.129206" id="Path" stroke="#391F7E" fill="#FFFFFF" fill-rule="nonzero"></line>
            <line x1="75.5033788" y1="383.716721" x2="79.5309472" y2="375.275061" id="Path" stroke="#391F7E" fill="#FFFFFF" fill-rule="nonzero"></line>
            <path d="M85.3442512,372.337487 C85.0118416,374.710738 81.6877448,377.686964 79.3144943,377.354554 C76.9412439,377.022145 76.4233032,373.489326 76.7557129,371.131536 C77.1171176,368.786795 79.2955322,367.167639 81.6449145,367.497525 C83.9942968,367.827411 85.6425596,369.983887 85.3442512,372.337487 Z" id="Path" stroke="#391F7E" fill="#FFFFFF" fill-rule="nonzero"></path>
            <line x1="78.6419445" y1="377.161293" x2="81.2161869" y2="370.52083" id="Path" stroke="#391F7E" fill="#FFFFFF" fill-rule="nonzero"></line>
            <line x1="80.1571142" y1="373.357908" x2="82.6927043" y2="372.422522" id="Path" stroke="#391F7E" fill="#FFFFFF" fill-rule="nonzero"></line>
            <line x1="79.2835725" y1="375.568819" x2="78.2554217" y2="372.731741" id="Path" stroke="#391F7E" fill="#FFFFFF" fill-rule="nonzero"></line>
            <line x1="79.1830766" y1="395.977227" x2="69.9683712" y2="397.56197" id="Path" stroke="#391F7E" fill="#FFFFFF" fill-rule="nonzero"></line>
            <path d="M65.5233581,402.347124 C67.8966086,402.671803 71.6613414,400.283091 71.9860206,397.909841 C72.3106998,395.53659 69.0716381,394.044612 66.6983876,393.758585 C64.3728441,393.520743 62.277264,395.168913 61.96039,397.485012 C61.6435161,399.80111 63.2193896,401.951585 65.5233581,402.347124 L65.5233581,402.347124 Z" id="Path" stroke="#391F7E" fill="#FFFFFF" fill-rule="nonzero"></path>
            <line x1="72.0246729" y1="397.2141" x2="64.9435738" y2="397.88665" id="Path" stroke="#391F7E" fill="#FFFFFF" fill-rule="nonzero"></line>
            <line x1="67.9507218" y1="397.647005" x2="66.365978" y2="399.826994" id="Path" stroke="#391F7E" fill="#FFFFFF" fill-rule="nonzero"></line>
            <line x1="70.3162418" y1="397.399631" x2="67.8734172" y2="395.637086" id="Path" stroke="#391F7E" fill="#FFFFFF" fill-rule="nonzero"></line>
            <line x1="78.8661278" y1="396.224601" x2="82.8859657" y2="387.782942" id="Path" stroke="#391F7E" fill="#FFFFFF" fill-rule="nonzero"></line>
            <path d="M88.6992698,384.814446 C88.3668601,387.179966 85.0504938,390.156192 82.6772434,389.823782 C80.3039929,389.491373 79.7860523,385.958554 80.1184619,383.639416 C80.2763143,382.055248 81.289457,380.68492 82.7577623,380.069626 C84.2260675,379.454332 85.9134604,379.692999 87.1535267,380.691369 C88.393593,381.689739 88.9869541,383.287293 88.6992698,384.853098 L88.6992698,384.814446 Z" id="Path" stroke="#391F7E" fill="#FFFFFF" fill-rule="nonzero"></path>
            <line x1="82.0046936" y1="389.669173" x2="84.5789359" y2="383.036441" id="Path" stroke="#391F7E" fill="#FFFFFF" fill-rule="nonzero"></line>
            <line x1="83.5198632" y1="385.865788" x2="86.0477229" y2="384.938133" id="Path" stroke="#391F7E" fill="#FFFFFF" fill-rule="nonzero"></line>
            <line x1="82.6385911" y1="388.076699" x2="81.6104402" y2="385.247351" id="Path" stroke="#391F7E" fill="#FFFFFF" fill-rule="nonzero"></line>
            <line x1="79.9097396" y1="408.516029" x2="70.5636164" y2="408.809786" id="Path" stroke="#391F7E" fill="#FFFFFF" fill-rule="nonzero"></line>
            <path d="M65.5001667,412.93012 C67.819304,413.579478 71.8623333,411.739629 72.5116917,409.435953 C73.1610501,407.132277 70.1539022,405.238315 67.8734172,404.588956 C66.349112,404.063514 64.6591378,404.427079 63.485762,405.532875 C62.3123861,406.638671 61.8493285,408.304135 62.2835322,409.856895 C62.717736,411.409655 63.9775158,412.593355 65.5542799,412.93012 L65.5001667,412.93012 Z" id="Path" stroke="#391F7E" fill="#FFFFFF" fill-rule="nonzero"></path>
            <line x1="72.6431095" y1="408.755673" x2="65.538819" y2="408.438724" id="Path" stroke="#391F7E" fill="#FFFFFF" fill-rule="nonzero"></line>
            <line x1="68.5536975" y1="408.608794" x2="66.6829267" y2="410.556869" id="Path" stroke="#391F7E" fill="#FFFFFF" fill-rule="nonzero"></line>
            <line x1="70.9346784" y1="408.70156" x2="68.7546893" y2="406.614336" id="Path" stroke="#391F7E" fill="#FFFFFF" fill-rule="nonzero"></line>
            <line x1="79.5541385" y1="408.717021" x2="84.7103537" y2="400.916989" id="Path" stroke="#391F7E" fill="#FFFFFF" fill-rule="nonzero"></line>
            <path d="M90.8792588,398.775652 C90.2221699,401.094789 86.5192808,403.560805 84.2233349,402.903716 C81.927389,402.246628 81.9041976,398.690617 82.5458256,396.386941 C82.9324981,394.852022 84.1247134,393.649689 85.6563093,393.250059 C87.1879051,392.850429 88.815574,393.316987 89.9028893,394.467307 C90.9902046,395.617627 91.3644366,397.26897 90.8792588,398.775652 L90.8792588,398.775652 Z" id="Path" stroke="#391F7E" fill="#FFFFFF" fill-rule="nonzero"></path>
            <line x1="83.5739765" y1="402.656342" x2="87.0372214" y2="396.441054" id="Path" stroke="#391F7E" fill="#FFFFFF" fill-rule="nonzero"></line>
            <line x1="85.5993563" y1="399.100331" x2="88.2354423" y2="398.528277" id="Path" stroke="#391F7E" fill="#FFFFFF" fill-rule="nonzero"></line>
            <line x1="84.4243268" y1="401.172094" x2="83.7981597" y2="398.219059" id="Path" stroke="#391F7E" fill="#FFFFFF" fill-rule="nonzero"></line>
            <path d="M94.6749135,393.920925 C94.6749135,393.920925 104.523516,307.888663 135.777756,323.697449 C165.354487,338.655884 99.8079373,408.083123 99.8079373,408.083123 L94.6749135,393.920925 Z" id="Path" stroke="#391F7E" fill="#FFC542" fill-rule="nonzero"></path>
            <path d="M96.3833446,398.489625 C96.3833446,398.489625 125.844118,345.280886 127.90042,339.09652" id="Path" stroke="#391F7E" fill="#FFFFFF" fill-rule="nonzero"></path>
            <line x1="122.759666" y1="349.9037" x2="120.533294" y2="341.338353" id="Path" stroke="#391F7E" fill="#FFFFFF" fill-rule="nonzero"></line>
            <line x1="116.714448" y1="361.259742" x2="128.928571" y2="358.639117" id="Path" stroke="#391F7E" fill="#FFFFFF" fill-rule="nonzero"></line>
            <line x1="106.889036" y1="379.186673" x2="105.976842" y2="366.284539" id="Path" stroke="#391F7E" fill="#FFFFFF" fill-rule="nonzero"></line>
            <line x1="126.191989" y1="369.028852" x2="116.714448" y2="382.271125" id="Path" stroke="#391F7E" fill="#FFFFFF" fill-rule="nonzero"></line>
            <path d="M131.417778,326.665944 C131.417778,326.665944 121.600097,325.297653 117.502955,335.571431" id="Path" stroke="#391F7E" fill="#FFC542" fill-rule="nonzero"></path>
            <path d="M125.395752,417.738464 C125.395752,417.738464 130.536506,404.101937 120.262728,402.130671 C109.98895,400.159404 106.626201,404.697183 106.626201,404.697183 C106.626201,404.697183 121.839741,388.09989 106.030956,380.191632 C90.2221699,372.283374 84.0996476,394.222413 84.0996476,394.222413 C84.0996476,394.222413 76.9489743,381.467158 64.4101722,391.787319 C56.2390786,398.505086 62.5625929,405.617107 62.5625929,405.617107 C62.5625929,405.617107 55.7134075,402.061097 51.3688903,407.201851 C43.1282226,416.942227 51.6935696,418.132718 51.6935696,418.132718 L125.395752,417.738464 Z" id="Path" stroke="#391F7E" fill="#7E39F2" fill-rule="nonzero"></path>
        </g>
    </g>
</svg>