<?xml version="1.0" encoding="UTF-8"?>
<svg width="1050px" height="700px" viewBox="0 0 1050 700" version="1.1" xmlns="http://www.w3.org/2000/svg" xmlns:xlink="http://www.w3.org/1999/xlink">
    <title>Artboard Copy 2</title>
    <defs>
        <polygon id="path-1" points="0 0 160.761108 0 160.761108 70.9277755 0 70.9277755"></polygon>
        <polygon id="path-3" points="0 0 160.761108 0 160.761108 70.9277755 0 70.9277755"></polygon>
        <polygon id="path-5" points="0 2.27625236e-23 125.004412 2.27625236e-23 125.004412 35.2021814 0 35.2021814"></polygon>
        <polygon id="path-7" points="0 2.27625236e-23 125.004412 2.27625236e-23 125.004412 35.2021814 0 35.2021814"></polygon>
        <polygon id="path-9" points="0 -2.27625236e-23 13.9332808 -2.27625236e-23 13.9332808 3.62422116 0 3.62422116"></polygon>
        <polygon id="path-11" points="0 0 205.646252 0 205.646252 70.9323057 0 70.9323057"></polygon>
        <polygon id="path-13" points="0 0 205.646252 0 205.646252 70.9323057 0 70.9323057"></polygon>
        <polygon id="path-15" points="1.76585074e-23 2.27625236e-23 137.259369 2.27625236e-23 137.259369 35.2021814 1.76585074e-23 35.2021814"></polygon>
        <polygon id="path-17" points="1.76585074e-23 2.27625236e-23 137.259369 2.27625236e-23 137.259369 35.2021814 1.76585074e-23 35.2021814"></polygon>
        <polygon id="path-19" points="0 0 13.9332808 0 13.9332808 3.61841321 0 3.61841321"></polygon>
        <polygon id="path-21" points="0 0 48.252479 0 48.252479 40.5743643 0 40.5743643"></polygon>
        <polygon id="path-23" points="0 0 48.252479 0 48.252479 40.5743643 0 40.5743643"></polygon>
        <polygon id="path-25" points="0 0 35.4517491 0 35.4517491 34.1739993 0 34.1739993"></polygon>
        <polygon id="path-27" points="0 0 35.4517491 0 35.4517491 34.1739993 0 34.1739993"></polygon>
        <polygon id="path-29" points="0 -2.27625236e-23 48.252479 -2.27625236e-23 48.252479 21.5300261 0 21.5300261"></polygon>
        <polygon id="path-31" points="0 -2.27625236e-23 48.252479 -2.27625236e-23 48.252479 21.5300261 0 21.5300261"></polygon>
        <polygon id="path-33" points="0 -2.27625236e-23 35.4517491 -2.27625236e-23 35.4517491 15.1296612 0 15.1296612"></polygon>
        <polygon id="path-35" points="0 -2.27625236e-23 35.4517491 -2.27625236e-23 35.4517491 15.1296612 0 15.1296612"></polygon>
        <polygon id="path-37" points="0 -2.27625236e-23 20.3550484 -2.27625236e-23 20.3550484 10.4060087 0 10.4060087"></polygon>
        <polygon id="path-39" points="0 0 47.5671405 0 47.5671405 31.6009597 0 31.6009597"></polygon>
        <polygon id="path-41" points="0 0 47.5671405 0 47.5671405 31.6009597 0 31.6009597"></polygon>
        <polygon id="path-43" points="1.76585074e-23 -2.27625236e-23 34.9522651 -2.27625236e-23 34.9522651 25.2935801 1.76585074e-23 25.2935801"></polygon>
        <polygon id="path-45" points="1.76585074e-23 -2.27625236e-23 34.9522651 -2.27625236e-23 34.9522651 25.2935801 1.76585074e-23 25.2935801"></polygon>
        <polygon id="path-47" points="0 -2.27625236e-23 24.8878986 -2.27625236e-23 24.8878986 20.6832508 0 20.6832508"></polygon>
        <polygon id="path-49" points="-8.8292537e-24 0 47.5671405 0 47.5671405 36.4971808 -8.8292537e-24 36.4971808"></polygon>
        <polygon id="path-51" points="-8.8292537e-24 0 47.5671405 0 47.5671405 36.4971808 -8.8292537e-24 36.4971808"></polygon>
        <polygon id="path-53" points="0 0 34.9522651 0 34.9522651 30.1898012 0 30.1898012"></polygon>
        <polygon id="path-55" points="0 0 34.9522651 0 34.9522651 30.1898012 0 30.1898012"></polygon>
    </defs>
    <g id="Artboard-Copy-2" stroke="none" stroke-width="1" fill="none" fill-rule="evenodd">
        <rect id="Rectangle" fill="#E6F2FB" x="0" y="0" width="1050" height="700"></rect>
        <g id="Group" transform="translate(100.000000, 176.000000)">
            <g id="Group-147" transform="translate(29.324532, 12.876407)">
                <path d="M616.334118,328.55013 C591.476076,328.55013 541.615375,314.78528 526.310836,289.753 L534.738177,284.607153 C544.820785,301.101741 576.503172,313.646921 602.586692,317.544058 C615.36419,319.443259 622.583476,318.572066 625.109936,317.601557 C620.463573,311.027534 611.496093,306.15408 605.57198,302.936474 C603.515964,301.821347 601.750346,300.857807 600.426133,299.980806 C597.272414,297.889943 596.041128,295.456411 596.755506,292.755712 C597.980984,288.161621 603.49854,287.929303 607.930009,287.743448 C612.361478,287.557594 618.912849,287.586633 630.052505,287.835795 C683.619842,289.027006 711.590366,273.142253 711.86334,272.979049 L716.85818,281.499898 C715.644318,282.214276 686.459351,298.964415 629.831802,297.704089 C627.282691,297.646009 623.019073,297.553082 618.674723,297.517653 C618.283267,297.508941 617.959183,297.818505 617.94931,298.209381 C617.943502,298.466092 618.075923,298.705961 618.297206,298.83664 C623.617292,302.141365 629.256815,306.386979 633.142336,311.858072 C636.400598,316.446355 635.465517,320.058902 634.617556,321.801288 C632.61962,325.866856 627.5667,328.079105 619.156784,328.480435 C618.262359,328.526899 617.315662,328.55013 616.334118,328.55013" id="Fill-1" fill="#FFFFFF" fill-rule="nonzero"></path>
                <path d="M616.334118,328.55013 C591.476076,328.55013 541.615375,314.78528 526.310836,289.753 L534.738177,284.607153 C544.820785,301.101741 576.503172,313.646921 602.586692,317.544058 C615.36419,319.443259 622.583476,318.572066 625.109936,317.601557 C620.463573,311.027534 611.496093,306.15408 605.57198,302.936474 C603.515964,301.821347 601.750346,300.857807 600.426133,299.980806 C597.272414,297.889943 596.041128,295.456411 596.755506,292.755712 C597.980984,288.161621 603.49854,287.929303 607.930009,287.743448 C612.361478,287.557594 618.912849,287.586633 630.052505,287.835795 C683.619842,289.027006 711.590366,273.142253 711.86334,272.979049 L716.85818,281.499898 C715.644318,282.214276 686.459351,298.964415 629.831802,297.704089 C627.282691,297.646009 623.019073,297.553082 618.674723,297.517653 C618.283267,297.508941 617.959183,297.818505 617.94931,298.209381 C617.943502,298.466092 618.075923,298.705961 618.297206,298.83664 C623.617292,302.141365 629.256815,306.386979 633.142336,311.858072 C636.400598,316.446355 635.465517,320.058902 634.617556,321.801288 C632.61962,325.866856 627.5667,328.079105 619.156784,328.480435 C618.262359,328.526899 617.315662,328.55013 616.334118,328.55013 Z" id="Stroke-3" stroke="#00C486" stroke-width="3"></path>
                <polygon id="Fill-5" fill="#BEFFDD" fill-rule="nonzero" points="552.157392 280.68783 515.884398 303.903382 506.80192 289.711647 543.074333 266.496095"></polygon>
                <polygon id="Stroke-7" stroke="#00C486" stroke-width="3" points="552.157392 280.68783 515.884398 303.903382 506.80192 289.711647 543.074333 266.496095"></polygon>
                <polygon id="Fill-9" fill="#F0FFF7" fill-rule="nonzero" points="547.799742 263.354166 501.953498 292.696529 486.227302 268.1254 532.073546 238.782457"></polygon>
                <polygon id="Stroke-11" stroke="#00C486" stroke-width="3" points="547.799742 263.354166 501.953498 292.696529 486.227302 268.1254 532.073546 238.782457"></polygon>
                <polygon id="Fill-13" fill="#BEFFDD" fill-rule="nonzero" points="540.049202 251.236858 494.202958 280.579221 486.232123 268.124645 532.077786 238.782283"></polygon>
                <polygon id="Stroke-15" stroke="#00C486" stroke-width="3" points="540.049202 251.236858 494.202958 280.579221 486.232123 268.124645 532.077786 238.782283"></polygon>
                <path d="M527.96651,254.098321 L524.062984,256.596903 C523.303885,257.083028 522.294462,256.861165 521.808336,256.102065 L520.36506,253.846837 C519.878934,253.087737 520.100798,252.078315 520.860478,251.59277 L524.763423,249.094188 C525.523104,248.608643 526.531945,248.829926 527.018071,249.589026 L528.461928,251.844254 C528.946892,252.603354 528.725609,253.612776 527.96651,254.098321" id="Fill-17" fill="#71E5B5" fill-rule="nonzero"></path>
                <path d="M527.96651,254.098321 L524.062984,256.596903 C523.303885,257.083028 522.294462,256.861165 521.808336,256.102065 L520.36506,253.846837 C519.878934,253.087737 520.100798,252.078315 520.860478,251.59277 L524.763423,249.094188 C525.523104,248.608643 526.531945,248.829926 527.018071,249.589026 L528.461928,251.844254 C528.946892,252.603354 528.725609,253.612776 527.96651,254.098321 Z" id="Stroke-19" stroke="#00C486" stroke-width="3"></path>
                <path d="M505.039787,268.550717 L501.13568,271.049298 C500.377162,271.535424 499.367159,271.31356 498.881614,270.554461 L497.438337,268.299232 C496.952211,267.540133 497.174075,266.53071 497.933756,266.045166 L501.8367,263.546584 C502.5958,263.060458 503.605222,263.282322 504.091348,264.040841 L505.534625,266.296069 C506.020169,267.055749 505.798886,268.065172 505.039787,268.550717" id="Fill-21" fill="#71E5B5" fill-rule="nonzero"></path>
                <path d="M505.039787,268.550717 L501.13568,271.049298 C500.377162,271.535424 499.367159,271.31356 498.881614,270.554461 L497.438337,268.299232 C496.952211,267.540133 497.174075,266.53071 497.933756,266.045166 L501.8367,263.546584 C502.5958,263.060458 503.605222,263.282322 504.091348,264.040841 L505.534625,266.296069 C506.020169,267.055749 505.798886,268.065172 505.039787,268.550717 Z" id="Stroke-23" stroke="#00C486" stroke-width="3"></path>
                <path d="M400.794976,194.036472 L401.399584,194.425605 C403.43411,195.733556 404.023036,198.442966 402.715666,200.476912 L391.032386,218.649999 C389.725016,220.684525 387.015606,221.273451 384.981079,219.9655 L384.376471,219.576948 C382.341945,218.268997 381.753019,215.559586 383.06097,213.525641 L394.743669,195.352554 C396.05162,193.318028 398.760449,192.729101 400.794976,194.036472" id="Fill-25" fill="#97CEFF" fill-rule="nonzero"></path>
                <path d="M400.794976,194.036472 L401.399584,194.425605 C403.43411,195.733556 404.023036,198.442966 402.715666,200.476912 L391.032386,218.649999 C389.725016,220.684525 387.015606,221.273451 384.981079,219.9655 L384.376471,219.576948 C382.341945,218.268997 381.753019,215.559586 383.06097,213.525641 L394.743669,195.352554 C396.05162,193.318028 398.760449,192.729101 400.794976,194.036472 Z" id="Stroke-27" stroke="#0097FF" stroke-width="3"></path>
                <path d="M424.407385,207.858124 L425.014317,208.246676 C427.05407,209.552304 427.649385,212.264037 426.343757,214.303791 L414.681386,232.525664 C413.375758,234.565418 410.664025,235.160733 408.624271,233.855686 L408.01734,233.467134 C405.978168,232.161506 405.382272,229.449772 406.6879,227.410019 L418.350271,209.187564 C419.655899,207.147811 422.367632,206.553077 424.407385,207.858124" id="Fill-29" fill="#97CEFF" fill-rule="nonzero"></path>
                <path d="M424.407385,207.858124 L425.014317,208.246676 C427.05407,209.552304 427.649385,212.264037 426.343757,214.303791 L414.681386,232.525664 C413.375758,234.565418 410.664025,235.160733 408.624271,233.855686 L408.01734,233.467134 C405.978168,232.161506 405.382272,229.449772 406.6879,227.410019 L418.350271,209.187564 C419.655899,207.147811 422.367632,206.553077 424.407385,207.858124 Z" id="Stroke-31" stroke="#0097FF" stroke-width="3"></path>
                <path d="M317.700989,293.969574 C317.189889,293.969574 316.696213,293.969574 316.214153,293.934146 C309.140065,293.597865 306.265128,290.682273 305.109346,288.294623 C304.000027,286.024294 303.454079,282.237508 307.118898,277.080045 C307.502223,276.533517 307.815852,276.057845 308.071402,275.645481 C308.294427,275.289453 308.185819,274.81959 307.829791,274.597145 C307.727571,274.532677 307.610831,274.494344 307.490607,274.48389 C302.617734,274.147029 292.628053,275.233116 283.608301,276.226276 C270.250008,277.678264 253.627644,279.484538 234.240695,279.914327 C212.03108,280.408003 197.778362,275.639092 191.842633,265.737112 C185.053136,254.38837 192.243382,241.41921 192.551204,240.873262 L201.146975,245.734519 L196.849089,243.306795 L201.152783,245.717095 C201.10632,245.804215 196.47738,254.318675 200.33967,260.713232 C203.081024,265.249244 211.148271,270.546097 234.025801,270.040805 C252.965538,269.622633 269.355583,267.839591 282.528022,266.410834 C304.284616,264.046997 314.216217,262.966718 317.985579,269.390315 C321.023139,274.559393 316.771717,280.547393 315.168721,282.80088 C314.925949,283.143549 315.006679,283.618639 315.349349,283.861993 C315.455634,283.936915 315.579344,283.98396 315.708861,283.997318 C317.688792,284.212212 321.092834,284.142517 326.290953,283.02739 C343.134018,279.42065 366.046395,267.746664 376.494323,250.648048 L384.922245,255.799703 C378.103707,266.956782 366.087051,277.17878 351.084526,284.578113 C339.202034,290.444147 326.604582,293.969574 317.700989,293.969574" id="Fill-33" fill="#FFFFFF" fill-rule="nonzero"></path>
                <path d="M317.700989,293.969574 C317.189889,293.969574 316.696213,293.969574 316.214153,293.934146 C309.140065,293.597865 306.265128,290.682273 305.109346,288.294623 C304.000027,286.024294 303.454079,282.237508 307.118898,277.080045 C307.502223,276.533517 307.815852,276.057845 308.071402,275.645481 C308.294427,275.289453 308.185819,274.81959 307.829791,274.597145 C307.727571,274.532677 307.610831,274.494344 307.490607,274.48389 C302.617734,274.147029 292.628053,275.233116 283.608301,276.226276 C270.250008,277.678264 253.627644,279.484538 234.240695,279.914327 C212.03108,280.408003 197.778362,275.639092 191.842633,265.737112 C185.053136,254.38837 192.243382,241.41921 192.551204,240.873262 L201.146975,245.734519 L196.849089,243.306795 L201.152783,245.717095 C201.10632,245.804215 196.47738,254.318675 200.33967,260.713232 C203.081024,265.249244 211.148271,270.546097 234.025801,270.040805 C252.965538,269.622633 269.355583,267.839591 282.528022,266.410834 C304.284616,264.046997 314.216217,262.966718 317.985579,269.390315 C321.023139,274.559393 316.771717,280.547393 315.168721,282.80088 C314.925949,283.143549 315.006679,283.618639 315.349349,283.861993 C315.455634,283.936915 315.579344,283.98396 315.708861,283.997318 C317.688792,284.212212 321.092834,284.142517 326.290953,283.02739 C343.134018,279.42065 366.046395,267.746664 376.494323,250.648048 L384.922245,255.799703 C378.103707,266.956782 366.087051,277.17878 351.084526,284.578113 C339.202034,290.444147 326.604582,293.969574 317.700989,293.969574 Z" id="Stroke-35" stroke="#0097FF" stroke-width="3"></path>
                <polygon id="Fill-37" fill="#FFFFFF" fill-rule="nonzero" points="715.313206 56.9934492 715.313206 18.9978164 682.41173 0 649.509091 18.9978164 649.509091 56.9934492 682.41173 75.9854577"></polygon>
                <polygon id="Stroke-39" stroke="#00C486" stroke-width="3" points="715.313206 56.9934492 715.313206 18.9978164 682.41173 0 649.509091 18.9978164 649.509091 56.9934492 682.41173 75.9854577"></polygon>
                <polygon id="Fill-41" fill="#F0FFF7" fill-rule="nonzero" points="715.313206 56.9934492 682.41173 75.9854577 682.41173 37.9956328 715.313206 18.9978164"></polygon>
                <polygon id="Stroke-43" stroke="#00C486" stroke-width="3" stroke-linejoin="bevel" points="715.313206 56.9934492 682.41173 75.9854577 682.41173 37.9956328 715.313206 18.9978164"></polygon>
                <polygon id="Fill-45" fill="#BEFFDD" fill-rule="nonzero" points="682.411497 37.9956328 649.50944 18.9978164 649.50944 56.9934492 682.411497 75.9854577"></polygon>
                <polygon id="Stroke-47" stroke="#00C486" stroke-width="3" stroke-linejoin="bevel" points="682.411497 37.9956328 649.50944 18.9978164 649.50944 56.9934492 682.411497 75.9854577"></polygon>
                <line x1="664.952498" y1="46.2081374" x2="579.726586" y2="90.877109" id="Stroke-49" stroke="#00C486" stroke-width="8" stroke-linecap="round"></line>
                <polygon id="Fill-51" fill="#FFFFFF" fill-rule="nonzero" points="590.041802 106.279628 590.041802 68.283995 557.133937 49.2919865 524.231879 68.283995 524.231879 106.279628 557.133937 125.277444"></polygon>
                <polygon id="Stroke-53" stroke="#00C486" stroke-width="3" points="590.041802 106.279628 590.041802 68.283995 557.133937 49.2919865 524.231879 68.283995 524.231879 106.279628 557.133937 125.277444"></polygon>
                <polygon id="Fill-55" fill="#F0FFF7" fill-rule="nonzero" points="590.041802 106.279628 557.133937 125.277444 557.133937 87.2818114 590.041802 68.283995"></polygon>
                <polygon id="Stroke-57" stroke="#00C486" stroke-width="3" stroke-linejoin="bevel" points="590.041802 106.279628 557.133937 125.277444 557.133937 87.2818114 590.041802 68.283995"></polygon>
                <polygon id="Fill-59" fill="#BEFFDD" fill-rule="nonzero" points="557.133879 87.2818695 524.231821 68.2840531 524.231821 106.279686 557.133879 125.277502"></polygon>
                <polygon id="Stroke-61" stroke="#00C486" stroke-width="3" stroke-linejoin="bevel" points="557.133879 87.2818695 524.231821 68.2840531 524.231821 106.279686 557.133879 125.277502"></polygon>
                <line x1="699.184809" y1="46.5507486" x2="761.73647" y2="85.6150449" id="Stroke-63" stroke="#00C486" stroke-width="8" stroke-linecap="round"></line>
                <polygon id="Fill-65" fill="#FFFFFF" fill-rule="nonzero" points="810.464969 110.386025 810.464969 72.3962004 777.563492 53.398384 744.660854 72.3962004 744.660854 110.386025 777.563492 129.383842"></polygon>
                <polygon id="Stroke-67" stroke="#00C486" stroke-width="3" points="810.464969 110.386025 810.464969 72.3962004 777.563492 53.398384 744.660854 72.3962004 744.660854 110.386025 777.563492 129.383842"></polygon>
                <polygon id="Fill-69" fill="#F0FFF7" fill-rule="nonzero" points="810.464969 110.386025 777.563492 129.383842 777.563492 91.3882089 810.464969 72.3962004"></polygon>
                <polygon id="Stroke-71" stroke="#00C486" stroke-width="3" stroke-linejoin="bevel" points="810.464969 110.386025 777.563492 129.383842 777.563492 91.3882089 810.464969 72.3962004"></polygon>
                <polygon id="Fill-73" fill="#BEFFDD" fill-rule="nonzero" points="777.56326 91.3879766 744.661203 72.3959681 744.661203 110.385793 777.56326 129.383609"></polygon>
                <polygon id="Stroke-75" stroke="#00C486" stroke-width="3" stroke-linejoin="bevel" points="777.56326 91.3879766 744.661203 72.3959681 744.661203 110.385793 777.56326 129.383609"></polygon>
                <line x1="573.221968" y1="94.8149015" x2="628.670502" y2="119.11538" id="Stroke-77" stroke="#00C486" stroke-width="8" stroke-linecap="round"></line>
                <polygon id="Fill-79" fill="#FFFFFF" fill-rule="nonzero" points="690.670233 145.297286 690.670233 107.307461 657.768176 88.309645 624.866118 107.307461 624.866118 145.297286 657.768176 164.295103"></polygon>
                <polygon id="Stroke-81" stroke="#00C486" stroke-width="3" points="690.670233 145.297286 690.670233 107.307461 657.768176 88.309645 624.866118 107.307461 624.866118 145.297286 657.768176 164.295103"></polygon>
                <polygon id="Fill-83" fill="#F0FFF7" fill-rule="nonzero" points="690.670233 145.297286 657.768176 164.295103 657.768176 126.305278 690.670233 107.307461"></polygon>
                <polygon id="Stroke-85" stroke="#00C486" stroke-width="3" stroke-linejoin="bevel" points="690.670233 145.297286 657.768176 164.295103 657.768176 126.305278 690.670233 107.307461"></polygon>
                <polygon id="Fill-87" fill="#BEFFDD" fill-rule="nonzero" points="657.768001 126.305452 624.866525 107.307636 624.866525 145.29746 657.768001 164.295277"></polygon>
                <polygon id="Stroke-89" stroke="#00C486" stroke-width="3" stroke-linejoin="bevel" points="657.768001 126.305452 624.866525 107.307636 624.866525 145.29746 657.768001 164.295277"></polygon>
                <line x1="639.966914" y1="138.966965" x2="627.648244" y2="202.976423" id="Stroke-91" stroke="#00C486" stroke-width="8" stroke-linecap="round"></line>
                <polygon id="Fill-93" fill="#FFFFFF" fill-rule="nonzero" points="657.593821 225.32508 657.593821 187.335836 624.691763 168.337438 591.789706 187.335836 591.789706 225.32508 624.691763 244.322896"></polygon>
                <polygon id="Stroke-95" stroke="#00C486" stroke-width="3" points="657.593821 225.32508 657.593821 187.335836 624.691763 168.337438 591.789706 187.335836 591.789706 225.32508 624.691763 244.322896"></polygon>
                <polygon id="Fill-97" fill="#F0FFF7" fill-rule="nonzero" points="657.593821 225.32508 624.691763 244.322896 624.691763 206.327263 657.593821 187.335836"></polygon>
                <polygon id="Stroke-99" stroke="#00C486" stroke-width="3" stroke-linejoin="bevel" points="657.593821 225.32508 624.691763 244.322896 624.691763 206.327263 657.593821 187.335836"></polygon>
                <polygon id="Fill-101" fill="#BEFFDD" fill-rule="nonzero" points="624.691589 206.327321 591.790112 187.335894 591.790112 225.325138 624.691589 244.322954"></polygon>
                <polygon id="Stroke-103" stroke="#00C486" stroke-width="3" stroke-linejoin="bevel" points="624.691589 206.327321 591.790112 187.335894 591.790112 225.325138 624.691589 244.322954"></polygon>
                <polygon id="Fill-105" fill="#FFFFFF" fill-rule="nonzero" points="804.761965 198.765656 804.761965 160.775831 771.8541 141.778015 738.951461 160.775831 738.951461 198.765656 771.8541 217.763473"></polygon>
                <polygon id="Stroke-107" stroke="#00C486" stroke-width="3" points="804.761965 198.765656 804.761965 160.775831 771.8541 141.778015 738.951461 160.775831 738.951461 198.765656 771.8541 217.763473"></polygon>
                <polygon id="Fill-109" fill="#F0FFF7" fill-rule="nonzero" points="804.761965 198.765656 771.8541 217.763473 771.8541 179.773648 804.761965 160.775831"></polygon>
                <polygon id="Stroke-111" stroke="#00C486" stroke-width="3" stroke-linejoin="bevel" points="804.761965 198.765656 771.8541 217.763473 771.8541 179.773648 804.761965 160.775831"></polygon>
                <polygon id="Fill-113" fill="#BEFFDD" fill-rule="nonzero" points="771.853984 179.773531 738.951926 160.775715 738.951926 198.76554 771.853984 217.763356"></polygon>
                <polygon id="Stroke-115" stroke="#00C486" stroke-width="3" stroke-linejoin="bevel" points="771.853984 179.773531 738.951926 160.775715 738.951926 198.76554 771.853984 217.763356"></polygon>
                <line x1="720.209718" y1="236.198034" x2="754.987744" y2="191.482598" id="Stroke-117" stroke="#00C486" stroke-width="8" stroke-linecap="round"></line>
                <line x1="634.629172" y1="217.763414" x2="699.614366" y2="251.368234" id="Stroke-119" stroke="#00C486" stroke-width="8" stroke-linecap="round"></line>
                <polygon id="Fill-121" fill="#FFFFFF" fill-rule="nonzero" points="748.035159 274.396654 748.035159 236.40683 715.133682 217.409013 682.231044 236.40683 682.231044 274.396654 715.133682 293.394471"></polygon>
                <polygon id="Stroke-123" stroke="#00C486" stroke-width="3" points="748.035159 274.396654 748.035159 236.40683 715.133682 217.409013 682.231044 236.40683 682.231044 274.396654 715.133682 293.394471"></polygon>
                <polygon id="Fill-125" fill="#F0FFF7" fill-rule="nonzero" points="748.035159 274.396654 715.133682 293.394471 715.133682 255.398838 748.035159 236.40683"></polygon>
                <polygon id="Stroke-127" stroke="#00C486" stroke-width="3" stroke-linejoin="bevel" points="748.035159 274.396654 715.133682 293.394471 715.133682 255.398838 748.035159 236.40683"></polygon>
                <polygon id="Fill-129" fill="#BEFFDD" fill-rule="nonzero" points="715.13345 255.398838 682.231393 236.40683 682.231393 274.396654 715.13345 293.394471"></polygon>
                <polygon id="Stroke-131" stroke="#00C486" stroke-width="3" stroke-linejoin="bevel" points="715.13345 255.398838 682.231393 236.40683 682.231393 274.396654 715.13345 293.394471"></polygon>
                <path d="M12.4232129,61.1750016 L238.480385,61.1750016 C245.341321,61.1750016 250.903598,66.7372789 250.903598,73.5982145 L250.903598,233.822232 C250.903598,240.683168 245.341321,246.245445 238.480385,246.245445 L12.4232129,246.245445 C5.56227722,246.245445 0,240.683168 0,233.822232 L0,73.5982145 C0,66.7372789 5.56227722,61.1750016 12.4232129,61.1750016" id="Fill-133" fill="#F0F9FF" fill-rule="nonzero"></path>
                <path d="M12.4232129,61.1750016 L238.480385,61.1750016 C245.341321,61.1750016 250.903598,66.7372789 250.903598,73.5982145 L250.903598,233.822232 C250.903598,240.683168 245.341321,246.245445 238.480385,246.245445 L12.4232129,246.245445 C5.56227722,246.245445 0,240.683168 0,233.822232 L0,73.5982145 C0,66.7372789 5.56227722,61.1750016 12.4232129,61.1750016 Z" id="Stroke-135" stroke="#0097FF" stroke-width="3"></path>
                <path d="M28.7726024,72.3553124 L228.746255,72.3553124 C232.633518,72.3553124 235.785495,75.5072889 235.785495,79.3945523 L235.785495,230.099915 C235.785495,233.987178 232.633518,237.139154 228.746255,237.139154 L28.7726024,237.139154 C24.8847582,237.139154 21.7333626,233.987178 21.7333626,230.099915 L21.7333626,79.3945523 C21.7333626,75.5072889 24.8847582,72.3553124 28.7726024,72.3553124" id="Fill-137" fill="#F0F9FF" fill-rule="nonzero"></path>
                <path d="M28.7726024,72.3553124 L228.746255,72.3553124 C232.633518,72.3553124 235.785495,75.5072889 235.785495,79.3945523 L235.785495,230.099915 C235.785495,233.987178 232.633518,237.139154 228.746255,237.139154 L28.7726024,237.139154 C24.8847582,237.139154 21.7333626,233.987178 21.7333626,230.099915 L21.7333626,79.3945523 C21.7333626,75.5072889 24.8847582,72.3553124 28.7726024,72.3553124 Z" id="Stroke-139" stroke="#0097FF" stroke-width="3"></path>
                <line x1="59.6185281" y1="128.872509" x2="226.405533" y2="128.872509" id="Stroke-141" stroke="#0097FF" stroke-width="3" stroke-linecap="round"></line>
                <path d="M29.0164784,72.3496206 L227.921464,72.3496206 C232.036983,72.3496206 235.373072,75.6857092 235.373072,79.8012252 C235.373072,83.9167411 232.036983,87.2528297 227.921464,87.2528297 L21.7391069,87.2528297 L21.7391069,79.6327945 C21.7356277,75.6136906 24.9915665,72.3525246 29.0106704,72.3496206 L29.0164784,72.3496206 Z" id="Fill-143" fill="#F0F9FF" fill-rule="nonzero"></path>
                <path d="M29.0164784,72.3496206 L227.921464,72.3496206 C232.036983,72.3496206 235.373072,75.6857092 235.373072,79.8012252 C235.373072,83.9167411 232.036983,87.2528297 227.921464,87.2528297 L21.7391069,87.2528297 L21.7391069,79.6327945 C21.7356277,75.6136906 24.9915665,72.3525246 29.0106704,72.3496206 L29.0164784,72.3496206 Z" id="Stroke-145" stroke="#0097FF" stroke-width="3"></path>
            </g>
            <g id="Group-198" transform="translate(46.504575, 28.378010)">
                <g id="Fill-148-Clipped" transform="translate(0.000000, 0.004530)">
                    <mask id="mask-2" fill="white">
                        <use xlink:href="#path-1"></use>
                    </mask>
                    <g id="path-1"></g>
                    <path d="M95.3413345,2.18233859 L158.578334,65.419338 C161.488699,68.3297036 161.488699,73.0475043 158.578334,75.9578699 L28.0056621,206.530542 C25.0958774,209.440907 20.3774958,209.440907 17.4671302,206.530542 L-45.7698692,143.293542 C-48.679654,140.383177 -48.679654,135.665376 -45.7698692,132.75501 L84.8033833,2.18233859 C87.7131681,-0.727446196 92.4315497,-0.727446196 95.3413345,2.18233859" id="Fill-148" fill="#5B8626" fill-rule="nonzero" mask="url(#mask-2)"></path>
                </g>
                <g id="Stroke-151-Clipped" transform="translate(0.000000, 0.004530)">
                    <mask id="mask-4" fill="white">
                        <use xlink:href="#path-3"></use>
                    </mask>
                    <g id="path-3"></g>
                    <path d="M95.3413345,2.18233859 L158.578334,65.419338 C161.488699,68.3297036 161.488699,73.0475043 158.578334,75.9578699 L28.0056621,206.530542 C25.0958774,209.440907 20.3774958,209.440907 17.4671302,206.530542 L-45.7698692,143.293542 C-48.679654,140.383177 -48.679654,135.665376 -45.7698692,132.75501 L84.8033833,2.18233859 C87.7131681,-0.727446196 92.4315497,-0.727446196 95.3413345,2.18233859 Z" id="Stroke-151" stroke="#00542C" stroke-width="3" stroke-linecap="round" mask="url(#mask-4)"></path>
                </g>
                <g id="Fill-154-Clipped" transform="translate(0.000000, 35.730124)">
                    <mask id="mask-6" fill="white">
                        <use xlink:href="#path-5"></use>
                    </mask>
                    <g id="path-5"></g>
                    <path d="M44.4945587,137.236137 L44.4945587,137.236137 L125.004412,56.7495152 L125.004412,56.7204754 C115.075135,46.7946826 115.072812,30.6985199 124.998604,20.7692423 C125.000347,20.7674999 125.00267,20.7657575 125.004412,20.7634343 L104.240978,2.27625236e-23 C94.3151852,9.92927757 78.2190224,9.93218155 68.2897449,0.00580795366 C68.2880025,0.00406556756 68.2856793,0.00232318146 68.2839369,2.27625236e-23 L-12.2317246,80.5098536 C-2.30070468,90.4391312 -2.2989623,106.538779 -12.2282399,116.469218 L-12.2317246,116.472703 L8.53170968,137.236137 C18.4609873,127.305117 34.5606348,127.303955 44.491074,137.232652 L44.4945587,137.236137 Z" id="Fill-154" fill="#87B353" fill-rule="nonzero" mask="url(#mask-6)"></path>
                </g>
                <g id="Stroke-157-Clipped" transform="translate(0.000000, 35.730124)">
                    <mask id="mask-8" fill="white">
                        <use xlink:href="#path-7"></use>
                    </mask>
                    <g id="path-7"></g>
                    <path d="M44.4945587,137.236137 L44.4945587,137.236137 L125.004412,56.7495152 L125.004412,56.7204754 C115.075135,46.7946826 115.072812,30.6985199 124.998604,20.7692423 C125.000347,20.7674999 125.00267,20.7657575 125.004412,20.7634343 L104.240978,2.27625236e-23 C94.3151852,9.92927757 78.2190224,9.93218155 68.2897449,0.00580795366 C68.2880025,0.00406556756 68.2856793,0.00232318146 68.2839369,2.27625236e-23 L-12.2317246,80.5098536 C-2.30070468,90.4391312 -2.2989623,106.538779 -12.2282399,116.469218 L-12.2317246,116.472703 L8.53170968,137.236137 C18.4609873,127.305117 34.5606348,127.303955 44.491074,137.232652 L44.4945587,137.236137 Z" id="Stroke-157" stroke="#00542C" stroke-width="3" stroke-linecap="round" mask="url(#mask-8)"></path>
                </g>
                <path d="M91.6435846,36.8511175 L90.0405894,35.2481223 C89.1804315,36.1100226 88.0960865,36.713469 86.9101024,36.9905084 L86.2247638,35.5443279 C87.3486029,35.3050402 88.3806762,34.7492191 89.1984361,33.9413327 C90.3251791,32.779742 90.4355302,31.397449 89.5294895,30.4914082 C88.6234487,29.5853675 87.4967057,29.6957186 85.8472469,30.392673 C83.5879529,31.3800251 81.8571827,31.652999 80.4748897,30.270706 C79.0925968,28.888413 79.0925968,27.012444 80.312267,25.3107136 L78.7092718,23.7019104 L79.6966239,22.7203662 L81.2357317,24.259474 C81.9686954,23.5421917 82.8718322,23.0223798 83.8609267,22.749406 L84.5114175,24.1955865 C83.5461356,24.4430053 82.6662306,24.9488781 81.9675338,25.6591908 C80.7420556,26.884669 81.0150294,28.0752995 81.6480964,28.7083665 C82.4786337,29.5389038 83.4776018,29.3646652 85.4290742,28.5515517 C87.7522557,27.5816234 89.3900986,27.5816234 90.8014313,28.9987641 C92.0559493,30.2532821 92.3579629,32.3034898 90.9930938,34.2259224 L92.6483606,35.8811892 L91.6435846,36.8511175 Z" id="Fill-164" fill="#9ACC5F" fill-rule="nonzero"></path>
                <g id="Fill-166-Clipped" transform="translate(123.296990, 67.308085)">
                    <mask id="mask-10" fill="white">
                        <use xlink:href="#path-9"></use>
                    </mask>
                    <g id="path-9"></g>
                    <path d="M12.9459287,14.1423672 L11.3429335,12.533564 C10.4798716,13.3919795 9.39668822,13.9948451 8.21244647,14.2759501 L7.51549203,12.8239617 C8.64049266,12.5852548 9.67314682,12.0265296 10.4891643,11.2151585 C11.6159073,10.0884155 11.7262584,8.67708276 10.8202177,7.77104199 C9.91417689,6.86500122 8.78743388,6.97535234 7.13216709,7.67230678 C4.87868107,8.6596589 3.14791088,8.92682477 1.76561791,7.5445318 C0.383324941,6.16223883 0.383324941,4.2862698 1.60299521,2.59034733 L0,0.981544168 L0.981544168,-2.27625236e-23 L2.52645984,1.53910772 C3.25593882,0.820083056 4.15791402,0.300271204 5.14584694,0.0290397683 L5.8021457,1.47522023 C4.83628301,1.72147746 3.95637803,2.22735023 3.258262,2.93882455 C2.03278378,4.15849482 2.3057576,5.35493327 2.93882455,5.98800022 C3.76355397,6.81272964 4.76832995,6.63849103 6.71980238,5.83118547 C9.04298385,4.86125721 10.6808268,4.86125721 12.0921595,6.27258995 C13.3466775,7.53291589 13.6486911,9.58312354 12.283822,11.4997482 L13.9332808,13.1492071 L12.9459287,14.1423672 Z" id="Fill-166" fill="#000000" fill-rule="nonzero" mask="url(#mask-10)"></path>
                </g>
                <g id="Fill-173-Clipped">
                    <mask id="mask-12" fill="white">
                        <use xlink:href="#path-11"></use>
                    </mask>
                    <g id="path-11"></g>
                    <path d="M140.226478,2.18233859 L203.463478,65.419338 C206.373843,68.3297036 206.373843,73.0475043 203.463478,75.9578699 L72.8908058,206.531122 C69.981021,209.440907 65.2626394,209.440907 62.3522738,206.531122 L-0.884144785,143.293542 C-3.79451036,140.383177 -3.79451036,135.665376 -0.884144785,132.75501 L129.688527,2.18233859 C132.598312,-0.727446196 137.316693,-0.727446196 140.226478,2.18233859" id="Fill-173" fill="#5B8626" fill-rule="nonzero" mask="url(#mask-12)"></path>
                </g>
                <g id="Stroke-176-Clipped">
                    <mask id="mask-14" fill="white">
                        <use xlink:href="#path-13"></use>
                    </mask>
                    <g id="path-13"></g>
                    <path d="M140.226478,2.18233859 L203.463478,65.419338 C206.373843,68.3297036 206.373843,73.0475043 203.463478,75.9578699 L72.8908058,206.531122 C69.981021,209.440907 65.2626394,209.440907 62.3522738,206.531122 L-0.884144785,143.293542 C-3.79451036,140.383177 -3.79451036,135.665376 -0.884144785,132.75501 L129.688527,2.18233859 C132.598312,-0.727446196 137.316693,-0.727446196 140.226478,2.18233859 Z" id="Stroke-176" stroke="#00542C" stroke-width="3" stroke-linecap="round" mask="url(#mask-14)"></path>
                </g>
                <g id="Fill-179-Clipped" transform="translate(32.657949, 35.730124)">
                    <mask id="mask-16" fill="white">
                        <use xlink:href="#path-15"></use>
                    </mask>
                    <g id="path-15"></g>
                    <path d="M56.7262834,137.236137 L56.7262834,137.236137 L137.259369,56.7495152 L137.259369,56.7204754 C127.330091,46.7946826 127.327768,30.6985199 137.253561,20.7692423 C137.255303,20.7674999 137.257626,20.7657575 137.259369,20.7634343 L116.495934,2.27625236e-23 C106.566657,9.93101996 90.4675901,9.93276235 80.5365702,0.00348477219 L80.5330854,2.27625236e-23 L1.76585074e-23,80.5098536 C9.93101996,90.4391312 9.93218155,106.538779 0.00348477219,116.469218 L1.76585074e-23,116.472703 L20.7634343,137.236137 C30.6927119,127.305117 46.7923594,127.303955 56.7227986,137.232652 L56.7262834,137.236137 Z" id="Fill-179" fill="#87B353" fill-rule="nonzero" mask="url(#mask-16)"></path>
                </g>
                <g id="Stroke-182-Clipped" transform="translate(32.657949, 35.730124)">
                    <mask id="mask-18" fill="white">
                        <use xlink:href="#path-17"></use>
                    </mask>
                    <g id="path-17"></g>
                    <path d="M56.7262834,137.236137 L56.7262834,137.236137 L137.259369,56.7495152 L137.259369,56.7204754 C127.330091,46.7946826 127.327768,30.6985199 137.253561,20.7692423 C137.255303,20.7674999 137.257626,20.7657575 137.259369,20.7634343 L116.495934,2.27625236e-23 C106.566657,9.93101996 90.4675901,9.93276235 80.5365702,0.00348477219 L80.5330854,2.27625236e-23 L1.76585074e-23,80.5098536 C9.93101996,90.4391312 9.93218155,106.538779 0.00348477219,116.469218 L1.76585074e-23,116.472703 L20.7634343,137.236137 C30.6927119,127.305117 46.7923594,127.303955 56.7227986,137.232652 L56.7262834,137.236137 Z" id="Stroke-182" stroke="#00542C" stroke-width="3" stroke-linecap="round" mask="url(#mask-18)"></path>
                </g>
                <path d="M136.533317,36.8511175 L134.930321,35.2481223 C134.070163,36.1100226 132.985818,36.713469 131.799834,36.9905084 L131.114496,35.5443279 C132.238335,35.3050402 133.270408,34.7492191 134.088168,33.9413327 C135.214911,32.779742 135.325262,31.397449 134.419221,30.4914082 C133.513181,29.5853675 132.386438,29.6957186 130.736979,30.392673 C128.477685,31.3800251 126.746915,31.652999 125.364622,30.270706 C123.982329,28.888413 123.982329,27.012444 125.201999,25.3107136 L123.599004,23.7019104 L124.586356,22.7203662 L126.125464,24.259474 C126.858427,23.5421917 127.761564,23.0223798 128.750659,22.749406 L129.401149,24.1955865 C128.435287,24.4418437 127.555382,24.9477165 126.857266,25.6591908 C125.631787,26.884669 125.904761,28.0752995 126.537828,28.7083665 C127.368366,29.5389038 128.367334,29.3646652 130.318806,28.5515517 C132.641988,27.5816234 134.27983,27.5816234 135.691163,28.9987641 C136.945681,30.2532821 137.247695,32.3034898 135.882826,34.2259224 L137.538092,35.8811892 L136.533317,36.8511175 Z" id="Fill-189" fill="#9ACC5F" fill-rule="nonzero"></path>
                <g id="Fill-191-Clipped" transform="translate(168.198280, 67.313892)">
                    <mask id="mask-20" fill="white">
                        <use xlink:href="#path-19"></use>
                    </mask>
                    <g id="path-19"></g>
                    <path d="M12.9343128,14.1365592 L11.3313176,12.527756 C10.4682557,13.3861716 9.38507232,13.9890372 8.20083056,14.2701421 L7.51549203,12.8239617 C8.64049266,12.5840932 9.67256602,12.025368 10.4891643,11.2151585 C11.6159073,10.0884155 11.7262584,8.67708276 10.8202177,7.77104199 C9.91417689,6.86500122 8.78743388,6.97535234 7.13216709,7.67230678 C4.87868107,8.6596589 3.14791088,8.92682477 1.76561791,7.5445318 C0.383324941,6.16223883 0.377516988,4.2862698 1.60299521,2.59034733 L0,0.981544168 L0.981544168,0 L2.52645984,1.53910772 C3.25593882,0.820083056 4.15791402,0.300271204 5.14584694,0.0290397683 L5.8021457,1.47522023 C4.83628301,1.72147746 3.95637803,2.22735023 3.258262,2.93882455 C2.03278378,4.15849482 2.3057576,5.35493327 2.93882455,5.98800022 C3.76355397,6.81272964 4.76832995,6.63849103 6.71980238,5.83118547 C9.04298385,4.86125721 10.6808268,4.86125721 12.0921595,6.27258995 C13.3466775,7.53291589 13.6486911,9.58312354 12.283822,11.4997482 L13.9332808,13.1492071 L12.9343128,14.1365592 Z" id="Fill-191" fill="#000000" fill-rule="nonzero" mask="url(#mask-20)"></path>
                </g>
            </g>
            <g id="Group-271" transform="translate(71.948988, 71.914256)">
                <g id="Fill-199-Clipped" transform="translate(128.152614, 7.660633)">
                    <mask id="mask-22" fill="white">
                        <use xlink:href="#path-21"></use>
                    </mask>
                    <g id="path-21"></g>
                    <path d="M24.1262395,0 C37.4508468,0 48.252479,10.8016322 48.252479,24.1262395 C48.252479,37.4508468 37.4508468,48.252479 24.1262395,48.252479 C10.8016322,48.252479 0,37.4508468 0,24.1262395 C0,10.8016322 10.8016322,0 24.1262395,0" id="Fill-199" fill="#FFBB29" fill-rule="nonzero" mask="url(#mask-22)"></path>
                </g>
                <g id="Stroke-202-Clipped" transform="translate(128.152614, 7.660633)">
                    <mask id="mask-24" fill="white">
                        <use xlink:href="#path-23"></use>
                    </mask>
                    <g id="path-23"></g>
                    <path d="M24.1262395,0 C37.4508468,0 48.252479,10.8016322 48.252479,24.1262395 C48.252479,37.4508468 37.4508468,48.252479 24.1262395,48.252479 C10.8016322,48.252479 0,37.4508468 0,24.1262395 C0,10.8016322 10.8016322,0 24.1262395,0 Z" id="Stroke-202" stroke="#FF8900" stroke-width="3" mask="url(#mask-24)"></path>
                </g>
                <g id="Fill-205-Clipped" transform="translate(134.552979, 14.060998)">
                    <mask id="mask-26" fill="white">
                        <use xlink:href="#path-25"></use>
                    </mask>
                    <g id="path-25"></g>
                    <path d="M17.7258746,0 C27.5157612,0 35.4517491,7.93598788 35.4517491,17.7258746 C35.4517491,27.5151805 27.5157612,35.4517491 17.7258746,35.4517491 C7.93598788,35.4517491 0,27.5151805 0,17.7258746 C0,7.93598788 7.93598788,0 17.7258746,0" id="Fill-205" fill="#FFBB29" fill-rule="nonzero" mask="url(#mask-26)"></path>
                </g>
                <g id="Stroke-208-Clipped" transform="translate(134.552979, 14.060998)">
                    <mask id="mask-28" fill="white">
                        <use xlink:href="#path-27"></use>
                    </mask>
                    <g id="path-27"></g>
                    <path d="M17.7258746,0 C27.5157612,0 35.4517491,7.93598788 35.4517491,17.7258746 C35.4517491,27.5151805 27.5157612,35.4517491 17.7258746,35.4517491 C7.93598788,35.4517491 0,27.5151805 0,17.7258746 C0,7.93598788 7.93598788,0 17.7258746,0 Z" id="Stroke-208" stroke="#FF8900" stroke-width="3" mask="url(#mask-28)"></path>
                </g>
                <path d="M154.241883,30.689111 C154.676318,30.6263851 155.097395,30.4951253 155.490593,30.2999781 C156.540671,29.7400913 156.937935,28.4350442 156.378049,27.3849661 C156.264213,27.1718142 156.115529,26.9789902 155.937806,26.8152059 C155.454584,26.4086491 154.881339,26.1240594 154.265115,25.9846685 C153.220264,25.7430576 152.154505,25.6048283 151.082357,25.5723038 C150.890694,25.5723038 150.93135,25.6826549 150.919734,25.7813901 L150.518985,30.2418985 C150.484137,30.5903758 150.484137,30.5961837 150.838423,30.6310314 C151.965746,30.7953965 153.109332,30.8168859 154.241883,30.6949189 L154.241883,30.689111 Z M154.294155,38.8202461 C154.807578,38.7470659 155.307643,38.6024478 155.780991,38.3904575 C156.918188,37.8468331 157.399668,36.4842871 156.856043,35.3470898 C156.696325,35.0119709 156.456456,34.7204116 156.158508,34.4991286 C155.700261,34.1738832 155.192065,33.924722 154.654248,33.7615185 C153.262662,33.4118796 151.83681,33.2173132 150.402826,33.1807231 C150.280859,33.1807231 150.240203,33.2155708 150.234395,33.3433458 C150.234395,33.6627832 150.176316,33.9880286 150.147276,34.3132741 C150.019501,35.7187988 149.889984,37.1225812 149.758143,38.5240405 C149.758143,38.6808552 149.758143,38.7331268 149.93819,38.7447427 C150.257627,38.7447427 150.571257,38.8086302 150.884886,38.83767 C152.018018,38.962541 153.162185,38.956733 154.294155,38.8202461 L154.294155,38.8202461 Z M141.812863,40.9808048 C141.992909,40.2954663 142.167148,39.6159357 142.347194,38.9422131 C142.405274,38.704087 142.480777,38.4717689 142.527241,38.2336428 C142.573704,37.9955167 142.625976,38.0187485 142.800215,38.0419803 C143.305507,38.1000598 143.810799,38.1581394 144.321899,38.1871791 C145.076932,38.2278348 145.39637,37.9432451 145.483489,37.1882111 L146.476649,26.2866821 C146.562607,25.6466456 146.134561,25.0507496 145.500913,24.9276209 C144.957289,24.8172698 144.405533,24.7533823 143.851454,24.7359585 C143.270659,24.6894948 143.270659,24.6953028 143.346162,24.1551631 C143.421666,23.6150234 143.468129,22.8890292 143.514593,22.2559623 C143.514593,22.0468759 143.60752,22.0236441 143.787567,22.041068 L147.736975,22.412777 C147.957678,22.412777 148.17838,22.412777 148.399082,22.4650486 C148.619784,22.5173202 148.637208,22.418585 148.648824,22.2501543 C148.753367,21.0188681 148.875334,19.787582 148.974069,18.5621037 C148.974069,18.3704413 149.049573,18.3355935 149.223811,18.3530174 C149.90915,18.4227128 150.594488,18.4866003 151.279827,18.5388719 C151.459874,18.5388719 151.529569,18.5911435 151.506337,18.8002298 C151.38437,19.9966683 151.279827,21.1989147 151.163668,22.4011611 C151.163668,22.5753997 151.163668,22.6392872 151.372754,22.6509031 C151.89547,22.6509031 152.418186,22.7147906 152.940902,22.7670622 C153.120948,22.7670622 153.179028,22.7670622 153.190644,22.5637838 C153.289379,21.3731533 153.405538,20.1883308 153.504273,19.0035082 C153.504273,18.7886139 153.591393,18.7421503 153.794671,18.7653821 C154.468394,18.8408855 155.147924,18.898965 155.827455,18.9512366 C156.007501,18.9512366 156.059773,19.0209321 156.042349,19.2067866 C155.920382,20.4264569 155.815839,21.6519351 155.69968,22.8716053 C155.69968,23.0632678 155.69968,23.1387712 155.914574,23.1736189 C157.012277,23.3490191 158.076294,23.6940116 159.068293,24.1958188 C160.032413,24.6360617 160.777574,25.4462712 161.135924,26.4434968 C161.726012,27.9692463 161.446069,29.6953701 160.404122,30.9562768 C160.034156,31.3750303 159.573004,31.7025989 159.056677,31.9145892 C159.010213,31.9145892 158.952134,31.9145892 158.93471,32.0017085 C159.01544,32.0621112 159.108368,32.1039285 159.207684,32.1236755 C160.239176,32.4587944 161.111531,33.1615568 161.65864,34.0983798 C162.077394,34.9306595 162.233047,35.8703864 162.105853,36.7932703 C162.035576,37.9217557 161.664448,39.010747 161.031381,39.9469891 C160.351851,40.8483835 159.380761,41.4860968 158.284219,41.7532627 C156.957102,42.0918664 155.585844,42.2231261 154.218652,42.1423956 C154.015373,42.1423956 153.957294,42.1888592 153.93987,42.3863296 C153.835327,43.6350397 153.71336,44.8779418 153.608816,46.1208438 C153.608816,46.2892745 153.550737,46.3241222 153.382306,46.3066984 C152.685352,46.231195 151.982589,46.1731154 151.285635,46.1208438 C151.093972,46.1208438 151.064933,46.0337245 151.082357,45.8652939 C151.198516,44.6398157 151.303059,43.4085295 151.425026,42.1772433 C151.425026,41.9971967 151.390178,41.9565411 151.221747,41.9449252 C150.699032,41.9042695 150.176316,41.8519979 149.659408,41.7823025 C149.467745,41.7823025 149.421282,41.7823025 149.403858,41.9913888 C149.299315,43.222675 149.183156,44.4481532 149.078613,45.6794394 C149.078613,45.853678 149.026341,45.9117575 148.828871,45.8943336 C148.137724,45.8130223 147.446578,45.7607507 146.755431,45.7026712 C146.592808,45.7026712 146.528921,45.6562075 146.552153,45.470353 C146.67412,44.2100271 146.778663,42.9555091 146.90063,41.6951831 C146.90063,41.5209445 146.87159,41.4860968 146.708967,41.468673 L142.062605,41.0330764 L141.812863,40.9808048 Z" id="Fill-211" fill="#FF8900" fill-rule="nonzero"></path>
                <g id="Fill-213-Clipped" transform="translate(96.690987, 26.704971)">
                    <mask id="mask-30" fill="white">
                        <use xlink:href="#path-29"></use>
                    </mask>
                    <g id="path-29"></g>
                    <path d="M24.1262395,-2.27625236e-23 C37.4508468,-2.27625236e-23 48.252479,10.8016322 48.252479,24.1262395 C48.252479,37.4508468 37.4508468,48.252479 24.1262395,48.252479 C10.8016322,48.252479 0,37.4508468 0,24.1262395 C0,10.8016322 10.8016322,-2.27625236e-23 24.1262395,-2.27625236e-23" id="Fill-213" fill="#FFBB29" fill-rule="nonzero" mask="url(#mask-30)"></path>
                </g>
                <g id="Stroke-216-Clipped" transform="translate(96.690987, 26.704971)">
                    <mask id="mask-32" fill="white">
                        <use xlink:href="#path-31"></use>
                    </mask>
                    <g id="path-31"></g>
                    <path d="M24.1262395,-2.27625236e-23 C37.4508468,-2.27625236e-23 48.252479,10.8016322 48.252479,24.1262395 C48.252479,37.4508468 37.4508468,48.252479 24.1262395,48.252479 C10.8016322,48.252479 0,37.4508468 0,24.1262395 C0,10.8016322 10.8016322,-2.27625236e-23 24.1262395,-2.27625236e-23 Z" id="Stroke-216" stroke="#FF8900" stroke-width="3" mask="url(#mask-32)"></path>
                </g>
                <g id="Fill-219-Clipped" transform="translate(103.091352, 33.105336)">
                    <mask id="mask-34" fill="white">
                        <use xlink:href="#path-33"></use>
                    </mask>
                    <g id="path-33"></g>
                    <path d="M17.7258746,-2.27625236e-23 C27.5151805,-2.27625236e-23 35.4517491,7.93598788 35.4517491,17.7258746 C35.4517491,27.5151805 27.5151805,35.4517491 17.7258746,35.4517491 C7.93598788,35.4517491 0,27.5151805 0,17.7258746 C0,7.93598788 7.93598788,-2.27625236e-23 17.7258746,-2.27625236e-23" id="Fill-219" fill="#FFBB29" fill-rule="nonzero" mask="url(#mask-34)"></path>
                </g>
                <g id="Stroke-222-Clipped" transform="translate(103.091352, 33.105336)">
                    <mask id="mask-36" fill="white">
                        <use xlink:href="#path-35"></use>
                    </mask>
                    <g id="path-35"></g>
                    <path d="M17.7258746,-2.27625236e-23 C27.5151805,-2.27625236e-23 35.4517491,7.93598788 35.4517491,17.7258746 C35.4517491,27.5151805 27.5151805,35.4517491 17.7258746,35.4517491 C7.93598788,35.4517491 0,27.5151805 0,17.7258746 C0,7.93598788 7.93598788,-2.27625236e-23 17.7258746,-2.27625236e-23 Z" id="Stroke-222" stroke="#FF8900" stroke-width="3" mask="url(#mask-36)"></path>
                </g>
                <g id="Fill-225-Clipped" transform="translate(110.629959, 37.828988)">
                    <mask id="mask-38" fill="white">
                        <use xlink:href="#path-37"></use>
                    </mask>
                    <g id="path-37"></g>
                    <path d="M12.4290208,12.3400573 C12.8634558,12.2750082 13.2851132,12.1414252 13.6777309,11.9451164 C14.7289705,11.3869721 15.1285577,10.0825057 14.5709941,9.03184686 C14.4571582,8.81811417 14.3084746,8.62470931 14.1307512,8.46034422 C13.6469487,8.05494906 13.0737037,7.77035933 12.4580606,7.62980685 C11.4132097,7.38877677 10.3474502,7.24996668 9.27530199,7.21744214 C9.08363952,7.21744214 9.11848724,7.32779326 9.11267929,7.42652847 C8.9732884,8.91336461 8.83796308,10.4002007 8.70612253,11.8870369 C8.70612253,12.2355141 8.67127481,12.2413221 9.03136794,12.2761698 C10.1563686,12.4416965 11.2976315,12.4666707 12.4290208,12.3516732 L12.4290208,12.3400573 Z M12.4812924,20.4711924 C12.9947155,20.3991738 13.4953611,20.2545557 13.9681285,20.0414038 C15.1064875,19.5001025 15.59029,18.1381374 15.0484079,16.9997785 C14.8886892,16.6640788 14.6494015,16.3719387 14.3514535,16.1500749 C13.8908828,15.8254103 13.3809444,15.576249 12.8413855,15.4124647 C11.452123,15.0622451 10.0280128,14.8682595 8.59577141,14.8316694 C8.47380439,14.8316694 8.43314871,14.8665171 8.4215328,14.9942921 C8.4215328,15.3195375 8.36345327,15.6389749 8.3344135,15.9642203 C8.20663852,17.3697451 8.07712115,18.7752699 7.9452806,20.1807947 C7.9452806,20.3318015 7.9452806,20.3840731 8.12532717,20.395689 C8.44476462,20.395689 8.75839412,20.4595765 9.07783157,20.4886162 C10.2092209,20.6134873 11.3516454,20.6076793 12.4812924,20.4711924 L12.4812924,20.4711924 Z M0,22.6375591 C0.180046563,21.9464126 0.360093127,21.266882 0.534331737,20.5931594 C0.598219227,20.3550333 0.667914671,20.1227152 0.720186254,19.8845891 C0.772457836,19.646463 0.818921466,19.6755027 0.987352122,19.6929266 C1.49264409,19.7568141 2.00374401,19.8090857 2.50903598,19.8381254 C3.26406996,19.8845891 3.58350741,19.5999993 3.67062671,18.8449654 L4.66378679,7.93762839 C4.75090609,7.30514224 4.33563741,6.71273097 3.71128239,6.57856724 C3.16765792,6.47112009 2.61590233,6.4072326 2.06182355,6.38690477 C1.48102818,6.34044114 1.48102818,6.34624909 1.55072363,5.80610939 C1.62041907,5.2659697 1.67849861,4.53997549 1.71915428,3.90690854 C1.71915428,3.69782221 1.81788949,3.6745904 1.9921281,3.69201426 L5.94153659,4.06372329 C6.16223883,4.06372329 6.38874902,4.06372329 6.60945126,4.12180283 C6.8301535,4.17988236 6.84176941,4.0753392 6.85919327,3.90110059 C6.96373644,2.66981441 7.07989551,1.43852824 7.18443867,0.213050018 C7.18443867,0.0213875476 7.25413412,-0.0134601744 7.43418068,0.00396368656 C8.11371126,0.0736591307 8.79904979,0.137546621 9.48438832,0.189818204 C9.67024284,0.189818204 9.73413033,0.242089787 9.71089852,0.451176118 C9.58893149,1.65342252 9.49019628,2.84986098 9.3740372,4.05210738 C9.3740372,4.22634599 9.3740372,4.29023348 9.57731558,4.30184939 C10.1000314,4.30184939 10.6227472,4.36573688 11.1454631,4.41800846 C11.3313176,4.41800846 11.3835892,4.41800846 11.401013,4.21473009 C11.4997482,3.02409959 11.6159073,1.84508499 11.7088346,0.654454494 C11.7088346,0.439560211 11.7959539,0.398904535 12.0050402,0.416328396 C12.6787628,0.491831794 13.3582934,0.549911331 14.032016,0.602182911 C14.2120626,0.602182911 14.2643342,0.671878355 14.2469103,0.857732872 C14.1249433,2.07740314 14.0262081,3.30288136 13.9042411,4.52255163 C13.9042411,4.7142141 13.9042411,4.7897175 14.1249433,4.82456522 C15.2214849,4.99996542 16.2837597,5.34670025 17.2728542,5.85257303 C18.2369745,6.29165433 18.9838773,7.09954068 19.3462936,8.09444314 C19.932897,9.62367734 19.6512112,11.3498012 18.6086835,12.6130311 C18.2369745,13.0282998 17.7764038,13.3535452 17.2612383,13.5655355 C17.2205826,13.5655355 17.1566951,13.5655355 17.1392712,13.6526548 C17.222325,13.7130575 17.3175754,13.7548748 17.418053,13.7746218 C18.448384,14.1120639 19.3201578,14.8142455 19.8690095,15.7493261 C20.2860205,16.5821866 20.4399313,17.5219135 20.3104139,18.4442166 C20.2430417,19.5732828 19.8719134,20.6628549 19.2359425,21.5979354 C18.5581543,22.498749 17.5893877,23.1370431 16.4945884,23.404209 C15.167471,23.7422319 13.7962131,23.8734916 12.4290208,23.7933419 C12.2257424,23.7933419 12.1734709,23.8398055 12.156047,24.0372759 C12.0515038,25.285986 11.9295368,26.5288881 11.8191857,27.7717901 C11.8191857,27.9402208 11.7611062,27.9750685 11.5926755,27.9576447 C10.8957211,27.8821413 10.1987666,27.8240617 9.49600423,27.7717901 C9.31014971,27.7717901 9.27530199,27.6904788 9.29272585,27.5162402 C9.41469288,26.290762 9.51923605,25.0594758 9.64120307,23.8339976 C9.64120307,23.648143 9.60635535,23.6074874 9.43792469,23.5958715 C8.90765852,23.5569582 8.3849427,23.5052674 7.86977721,23.4390567 C7.68392269,23.4390567 7.63165111,23.4390567 7.6200352,23.6423351 C7.50968408,24.8736213 7.39352501,26.0990995 7.28898184,27.3303857 C7.28898184,27.5104322 7.23671026,27.5627038 7.03923983,27.5452799 C6.3539013,27.4639686 5.65694686,27.411697 4.96580038,27.3536175 C4.80317767,27.3536175 4.74509814,27.3071538 4.762522,27.1212993 C4.88448903,25.8667813 4.98903219,24.6064554 5.11099922,23.3461294 C5.11099922,23.1776988 5.11099922,23.1370431 4.91933675,23.1196193 L0.272973822,22.6840227 L0,22.6375591 Z" id="Fill-225" fill="#FF8900" fill-rule="nonzero" mask="url(#mask-38)"></path>
                </g>
                <path d="M93.76372,0 C106.898988,0 117.54729,10.6483022 117.54729,23.7835702 C117.54729,36.9188382 106.898988,47.5671405 93.76372,47.5671405 C80.628452,47.5671405 69.9801498,36.9188382 69.9801498,23.7835702 C69.9801498,10.6483022 80.628452,0 93.76372,0" id="Fill-228" fill="#FFBB29" fill-rule="nonzero"></path>
                <path d="M93.76372,0 C106.898988,0 117.54729,10.6483022 117.54729,23.7835702 C117.54729,36.9188382 106.898988,47.5671405 93.76372,47.5671405 C80.628452,47.5671405 69.9801498,36.9188382 69.9801498,23.7835702 C69.9801498,10.6483022 80.628452,0 93.76372,0 Z" id="Stroke-230" stroke="#FF8900" stroke-width="3"></path>
                <path d="M93.76372,6.30732151 C103.415377,6.30732151 111.239853,14.1317967 111.239853,23.7834541 C111.239853,33.4351115 103.415377,41.2595866 93.76372,41.2595866 C84.1120626,41.2595866 76.2875875,33.4351115 76.2875875,23.7834541 C76.2875875,14.1317967 84.1120626,6.30732151 93.76372,6.30732151" id="Fill-232" fill="#FFBB29" fill-rule="nonzero"></path>
                <path d="M93.76372,6.30732151 C103.415377,6.30732151 111.239853,14.1317967 111.239853,23.7834541 C111.239853,33.4351115 103.415377,41.2595866 93.76372,41.2595866 C84.1120626,41.2595866 76.2875875,33.4351115 76.2875875,23.7834541 C76.2875875,14.1317967 84.1120626,6.30732151 93.76372,6.30732151 Z" id="Stroke-234" stroke="#FF8900" stroke-width="3"></path>
                <path d="M86.1495508,26.7571263 C87.1949825,21.7042067 88.2404142,16.6629029 89.2916538,11.5751355 L101.25023,21.4486567 L100.187375,22.7264065 C98.59193,24.623865 96.9970659,26.5207426 95.401621,28.4182011 C95.3365719,28.5221635 95.2122817,28.5715311 95.0937995,28.5401681 L86.2889417,26.797782 L86.1495508,26.7571263 Z" id="Fill-236" fill="#FF8900" fill-rule="nonzero"></path>
                <path d="M86.7825597,28.2383288 L90.0117819,28.8713957 L95.5525697,29.9749069 C95.7041573,30.0231129 95.8691032,29.9667758 95.9591265,29.835516 C97.856585,27.5704141 99.7615938,25.3053122 101.674153,23.0402102 C104.543282,19.6425573 101.674153,23.0053625 101.755464,23.0053625 C100.500946,27.3845596 99.2406203,31.7695646 97.9686785,36.1952253 L86.7709438,28.2731765 L86.7825597,28.2383288 Z" id="Fill-238" fill="#FF8900" fill-rule="nonzero"></path>
                <g id="Fill-240-Clipped" transform="translate(40.783567, 16.634037)">
                    <mask id="mask-40" fill="white">
                        <use xlink:href="#path-39"></use>
                    </mask>
                    <g id="path-39"></g>
                    <path d="M23.7835702,0 C36.9188382,0 47.5671405,10.6477214 47.5671405,23.7835702 C47.5671405,36.9188382 36.9188382,47.5671405 23.7835702,47.5671405 C10.6483022,47.5671405 0,36.9188382 0,23.7835702 C0,10.6477214 10.6483022,0 23.7835702,0" id="Fill-240" fill="#FFBB29" fill-rule="nonzero" mask="url(#mask-40)"></path>
                </g>
                <g id="Stroke-243-Clipped" transform="translate(40.783567, 16.634037)">
                    <mask id="mask-42" fill="white">
                        <use xlink:href="#path-41"></use>
                    </mask>
                    <g id="path-41"></g>
                    <path d="M23.7835702,0 C36.9188382,0 47.5671405,10.6477214 47.5671405,23.7835702 C47.5671405,36.9188382 36.9188382,47.5671405 23.7835702,47.5671405 C10.6483022,47.5671405 0,36.9188382 0,23.7835702 C0,10.6477214 10.6483022,0 23.7835702,0 Z" id="Stroke-243" stroke="#FF8900" stroke-width="3" mask="url(#mask-42)"></path>
                </g>
                <g id="Fill-246-Clipped" transform="translate(47.091004, 22.941417)">
                    <mask id="mask-44" fill="white">
                        <use xlink:href="#path-43"></use>
                    </mask>
                    <g id="path-43"></g>
                    <path d="M17.4761326,-2.27625236e-23 C27.1277899,-2.27625236e-23 34.9522651,7.82447517 34.9522651,17.4761326 C34.9522651,27.1277899 27.1277899,34.9522651 17.4761326,34.9522651 C7.82447517,34.9522651 1.76585074e-23,27.1277899 1.76585074e-23,17.4761326 C1.76585074e-23,7.82447517 7.82447517,-2.27625236e-23 17.4761326,-2.27625236e-23" id="Fill-246" fill="#FFBB29" fill-rule="nonzero" mask="url(#mask-44)"></path>
                </g>
                <g id="Stroke-249-Clipped" transform="translate(47.091004, 22.941417)">
                    <mask id="mask-46" fill="white">
                        <use xlink:href="#path-45"></use>
                    </mask>
                    <g id="path-45"></g>
                    <path d="M17.4761326,-2.27625236e-23 C27.1277899,-2.27625236e-23 34.9522651,7.82447517 34.9522651,17.4761326 C34.9522651,27.1277899 27.1277899,34.9522651 17.4761326,34.9522651 C7.82447517,34.9522651 1.76585074e-23,27.1277899 1.76585074e-23,17.4761326 C1.76585074e-23,7.82447517 7.82447517,-2.27625236e-23 17.4761326,-2.27625236e-23 Z" id="Stroke-249" stroke="#FF8900" stroke-width="3" mask="url(#mask-46)"></path>
                </g>
                <g id="Fill-252-Clipped" transform="translate(51.577737, 27.551746)">
                    <mask id="mask-48" fill="white">
                        <use xlink:href="#path-47"></use>
                    </mask>
                    <g id="path-47"></g>
                    <path d="M13.7153942,10.0025401 C14.0057919,9.67439076 14.241014,9.30152014 14.4123487,8.89902895 C14.8462028,7.79087139 14.3002552,6.54099977 13.1920976,6.10656483 C12.969653,6.01944553 12.7344309,5.97007792 12.495724,5.9602044 C11.8638186,5.96136599 11.2417868,6.11701915 10.6836424,6.41322479 C9.7334612,6.90632005 8.83264758,7.4894386 7.99455987,8.15561088 C7.83774512,8.27176996 7.94809624,8.3414654 7.99455987,8.42277675 C8.85413701,9.64244702 9.73694597,10.8563093 10.5849072,12.0759796 C10.7881856,12.3663773 10.7881856,12.3663773 11.0843912,12.1630989 C12.0485115,11.555587 12.9324821,10.8301735 13.7153942,10.0025401 L13.7153942,10.0025401 Z M19.0354798,16.1473551 C19.3816338,15.761707 19.6691275,15.3272721 19.889249,14.8579894 C20.4020913,13.7062722 19.8840218,12.3570846 18.7323046,11.8442423 C18.3937009,11.6932355 18.0231535,11.6270248 17.6531868,11.651999 C17.0938809,11.7025282 16.5467716,11.8436615 16.0327677,12.0701716 C14.7422404,12.6956883 13.5260549,13.4652421 12.4086047,14.3643133 C12.3040615,14.4398167 12.3040615,14.4978963 12.3795649,14.5966315 C12.5770353,14.8579894 12.7570819,15.1309632 12.9603602,15.3923211 C13.7734738,16.5539119 14.5923952,17.7155026 15.3997008,18.8770933 C15.4868201,19.0048683 15.5507076,19.0222922 15.6784826,18.923557 C15.9340325,18.7318945 16.2011984,18.5634638 16.4625563,18.3776093 C17.4063488,17.739896 18.2699915,16.99067 19.0354798,16.1473551 L19.0354798,16.1473551 Z M10.9508083,25.8931014 C10.6371788,25.2542265 10.3351652,24.6269675 10.0273437,23.9939005 C9.92280049,23.7731983 9.82406527,23.552496 9.7079062,23.3376017 C9.59174713,23.1227075 9.64401871,23.1110916 9.78921755,23.0181643 C10.2131982,22.7335746 10.6371788,22.4373689 11.0437355,22.1411633 C11.5008215,21.9076836 11.6826104,21.3477968 11.4491307,20.8907109 C11.4020863,20.7983644 11.3393604,20.7141491 11.2644378,20.6427112 L4.93957626,11.6984626 C4.5963262,11.1612269 3.89646778,10.9817611 3.33658105,11.2860979 C2.85161692,11.5567485 2.3898846,11.8651509 1.95428808,12.2095625 C1.50126769,12.5406159 1.50126769,12.5406159 1.17602229,12.0817876 C0.850776883,11.6229592 0.450028083,11.0363559 0.0725110951,10.525256 C-0.0552638851,10.3568253 -0.00299230217,10.2871299 0.142206539,10.1883947 L3.38885263,7.90586888 C3.5688992,7.7780939 3.74313781,7.63289505 3.92899232,7.51673598 C4.11484684,7.40057691 4.07419116,7.33088146 3.97545595,7.18568262 C3.2552697,6.18090664 2.55250731,5.17032271 1.83232105,4.17135469 C1.71616198,4.01453994 1.73939379,3.95065245 1.88459263,3.85191723 C2.465388,3.46278434 3.01133564,3.06203554 3.5688992,2.6903265 C3.71409804,2.57997538 3.78960143,2.56835948 3.91156846,2.74259809 C4.59690699,3.72995021 5.29966939,4.71149438 5.98500791,5.6988465 C6.08955107,5.84404533 6.15343856,5.8730851 6.30444536,5.75692603 C6.72261802,5.43748858 7.14659864,5.12385909 7.57638721,4.82765345 C7.727394,4.72311028 7.73900991,4.65341484 7.63446674,4.508216 C6.94332026,3.53828774 6.25798173,2.56255152 5.56683525,1.60423917 C5.43906027,1.43000056 5.46229209,1.34868921 5.63072274,1.23253013 C6.2115181,0.849205193 6.74584983,0.454264343 7.29760543,0.0709394013 C7.44280427,-0.0336037644 7.51830767,-0.0277958107 7.62285084,0.123210984 C8.32561323,1.12798697 9.03999153,2.126955 9.74275392,3.13173098 C9.85310504,3.28854573 9.92860844,3.32339345 10.102847,3.21885029 C11.0536091,2.64212049 12.0880056,2.21697828 13.1694466,1.95852434 C14.1870001,1.66580348 15.2800569,1.79590164 16.2011984,2.31861747 C17.6375053,3.10211042 18.5429653,4.59707769 18.5708435,6.23317822 C18.5574852,6.79132257 18.4186751,7.3390126 18.1642867,7.83617343 C18.1642867,7.87682911 18.0945913,7.91748478 18.129439,7.98137227 C18.2310782,7.97207955 18.3298134,7.94245898 18.4198367,7.89425297 C19.4205471,7.48072667 20.5385782,7.44762133 21.5619396,7.80132571 C22.4186128,8.15735327 23.147511,8.76486522 23.6528029,9.54371181 C24.3323335,10.4462678 24.7563141,11.5155121 24.8782812,12.6393511 C24.9491382,13.7660941 24.6267968,14.8829636 23.9664324,15.7988779 C23.1678388,16.9227169 22.2019761,17.9170386 21.1031113,18.7493184 C20.9462965,18.8770933 20.9404886,18.9467888 21.0566476,19.1094115 C21.7826419,20.1258034 22.4970202,21.1538112 23.2230144,22.1702031 C23.3217496,22.303786 23.3101337,22.3618655 23.1707428,22.4547928 C22.5899474,22.8555416 22.009152,23.2620983 21.4573964,23.6744631 C21.3063897,23.7906221 21.2366942,23.7557744 21.137959,23.6163835 C20.4293887,22.6057996 19.7092024,21.6010236 19.00644,20.5846317 C18.9018968,20.4336249 18.8380093,20.4394329 18.6986185,20.5381681 C18.2746378,20.8459896 17.8448493,21.1480032 17.4034448,21.4325929 C17.24663,21.5371361 17.2408221,21.6126395 17.3453653,21.7578383 C18.0655515,22.7568064 18.7741219,23.7731983 19.4885002,24.7721663 C19.5930433,24.9173651 19.6046592,24.9870606 19.4420365,25.0974117 C18.8612412,25.4865446 18.2804458,25.8931014 17.7403061,26.2996581 C17.6067232,26.3983933 17.5370277,26.4100092 17.4324846,26.2531945 C16.7064904,25.2193787 15.9688802,24.1913709 15.248694,23.1575552 C15.1499588,23.0181643 15.0918792,23.0123563 14.9582963,23.1110916 L11.1482787,25.7885582 L10.9508083,25.8931014 Z" id="Fill-252" fill="#FF8900" fill-rule="nonzero" mask="url(#mask-48)"></path>
                </g>
                <g id="Fill-255-Clipped" transform="translate(0.000000, 11.737816)">
                    <mask id="mask-50" fill="white">
                        <use xlink:href="#path-49"></use>
                    </mask>
                    <g id="path-49"></g>
                    <path d="M23.7835702,0 C36.9188382,0 47.5671405,10.6483022 47.5671405,23.7835702 C47.5671405,36.9188382 36.9188382,47.5671405 23.7835702,47.5671405 C10.6483022,47.5671405 -8.8292537e-24,36.9188382 -8.8292537e-24,23.7835702 C-8.8292537e-24,10.6483022 10.6483022,0 23.7835702,0" id="Fill-255" fill="#FFBB29" fill-rule="nonzero" mask="url(#mask-50)"></path>
                </g>
                <g id="Stroke-258-Clipped" transform="translate(0.000000, 11.737816)">
                    <mask id="mask-52" fill="white">
                        <use xlink:href="#path-51"></use>
                    </mask>
                    <g id="path-51"></g>
                    <path d="M23.7835702,0 C36.9188382,0 47.5671405,10.6483022 47.5671405,23.7835702 C47.5671405,36.9188382 36.9188382,47.5671405 23.7835702,47.5671405 C10.6483022,47.5671405 -8.8292537e-24,36.9188382 -8.8292537e-24,23.7835702 C-8.8292537e-24,10.6483022 10.6483022,0 23.7835702,0 Z" id="Stroke-258" stroke="#FF8900" stroke-width="3" mask="url(#mask-52)"></path>
                </g>
                <g id="Fill-261-Clipped" transform="translate(6.307438, 18.045196)">
                    <mask id="mask-54" fill="white">
                        <use xlink:href="#path-53"></use>
                    </mask>
                    <g id="path-53"></g>
                    <path d="M17.4761326,0 C27.1283707,0 34.9522651,7.82447517 34.9522651,17.4761326 C34.9522651,27.1277899 27.1283707,34.9522651 17.4761326,34.9522651 C7.82447517,34.9522651 0,27.1277899 0,17.4761326 C0,7.82447517 7.82447517,0 17.4761326,0" id="Fill-261" fill="#FFBB29" fill-rule="nonzero" mask="url(#mask-54)"></path>
                </g>
                <g id="Stroke-264-Clipped" transform="translate(6.307438, 18.045196)">
                    <mask id="mask-56" fill="white">
                        <use xlink:href="#path-55"></use>
                    </mask>
                    <g id="path-55"></g>
                    <path d="M17.4761326,0 C27.1283707,0 34.9522651,7.82447517 34.9522651,17.4761326 C34.9522651,27.1277899 27.1283707,34.9522651 17.4761326,34.9522651 C7.82447517,34.9522651 0,27.1277899 0,17.4761326 C0,7.82447517 7.82447517,0 17.4761326,0 Z" id="Stroke-264" stroke="#FF8900" stroke-width="3" mask="url(#mask-56)"></path>
                </g>
                <path d="M15.6467433,39.4940849 C15.9836046,34.3482379 16.3204659,29.2081989 16.6631352,24.0275043 L29.8762298,32.1586394 L28.9934208,33.5699721 C27.6767577,35.6724514 26.3606754,37.7749306 25.0440123,39.8774098 C24.9905792,39.9860185 24.8738393,40.0493252 24.7536146,40.0342246 L15.7977501,39.5231246 L15.6467433,39.4940849 Z" id="Fill-267" fill="#FF8900" fill-rule="nonzero"></path>
                <path d="M16.4597987,40.8763198 L19.7471005,41.0621743 C21.6230695,41.1667174 23.5048465,41.2712606 25.3866235,41.3874197 C25.5538926,41.4286562 25.7263888,41.3461832 25.7989882,41.1899493 C27.3671357,38.6809133 28.9393488,36.1736197 30.5150466,33.6686493 C30.5318897,33.6419327 30.559187,33.6250896 30.59055,33.6221856 L28.6681173,47.2127972 L16.4714147,40.9169754 L16.4597987,40.8763198 Z" id="Fill-269" fill="#FF8900" fill-rule="nonzero"></path>
            </g>
            <g id="Group-378">
                <line x1="88.9430604" y1="120.631314" x2="255.730066" y2="120.631314" id="Stroke-272" stroke="#0097FF" stroke-width="3" stroke-linecap="round"></line>
                <g id="Group-277" transform="translate(29.324532, 85.254952)">
                    <path d="M28.2266548,0 C24.5635784,0.288074501 21.7374282,3.34189653 21.7333626,7.01600802 C21.7356858,11.5223993 24.4619392,15.5798357 28.6332115,17.2844701 L154.085011,68.4873895 C158.516479,70.7815312 162.111602,78.198288 162.111602,85.0632893 L162.111602,245.293115 C162.111602,252.152308 158.516479,255.852555 154.085011,253.563641 L8.020784,178.019588 C3.58931536,175.731254 4.12679928e-15,168.308689 4.12679928e-15,161.449496 L4.12679928e-15,1.21967027" id="Fill-274" fill="#F0F9FF" fill-rule="nonzero"></path>
                    <path d="M28.2266548,0 C24.5635784,0.288074501 21.7374282,3.34189653 21.7333626,7.01600802 C21.7356858,11.5223993 24.4619392,15.5798357 28.6332115,17.2844701 L154.085011,68.4873895 C158.516479,70.7815312 162.111602,78.198288 162.111602,85.0632893 L162.111602,245.293115 C162.111602,252.152308 158.516479,255.852555 154.085011,253.563641 L8.020784,178.019588 C3.58931536,175.731254 4.12679928e-15,168.308689 4.12679928e-15,161.449496 L4.12679928e-15,1.21967027" id="Stroke-276" stroke="#0097FF" stroke-width="3"></path>
                </g>
                <line x1="49.1994078" y1="133.054585" x2="49.1994078" y2="221.242553" id="Stroke-278" stroke="#0097FF" stroke-width="3" stroke-linecap="round"></line>
                <path d="M194.665415,266.306582 L154.71831,248.179958 C152.736636,247.279145 151.464694,245.303279 151.465854,243.127038 L151.465854,217.432651 C151.464113,214.368956 153.946433,211.884894 157.009548,211.883149 C157.801752,211.882571 158.585245,212.051582 159.306592,212.379151 L196.733047,229.35638 C206.606568,233.838378 212.947692,243.678794 212.948853,254.522244 C212.948853,261.668931 207.154258,267.461783 200.007571,267.461203 C198.164707,267.460622 196.343914,267.067423 194.665415,266.306582" id="Fill-280" fill="#F0F9FF" fill-rule="nonzero"></path>
                <path d="M194.665415,266.306582 L154.71831,248.179958 C152.736636,247.279145 151.464694,245.303279 151.465854,243.127038 L151.465854,217.432651 C151.464113,214.368956 153.946433,211.884894 157.009548,211.883149 C157.801752,211.882571 158.585245,212.051582 159.306592,212.379151 L196.733047,229.35638 C206.606568,233.838378 212.947692,243.678794 212.948853,254.522244 C212.948853,261.668931 207.154258,267.461783 200.007571,267.461203 C198.164707,267.460622 196.343914,267.067423 194.665415,266.306582 Z" id="Stroke-282" stroke="#0097FF" stroke-width="3"></path>
                <path d="M184.053413,238.548629 C187.30122,235.802047 193.048771,237.258682 196.891313,241.802244 C200.733275,246.345806 201.214754,252.255399 197.967527,255.0014 C194.719719,257.747981 188.972168,256.291346 185.130207,251.748365 C181.287665,247.204222 180.805605,241.29521 184.053413,238.548629" id="Fill-284" fill="#FFFFFF" fill-rule="nonzero"></path>
                <path d="M184.053413,238.548629 C187.30122,235.802047 193.048771,237.258682 196.891313,241.802244 C200.733275,246.345806 201.214754,252.255399 197.967527,255.0014 C194.719719,257.747981 188.972168,256.291346 185.130207,251.748365 C181.287665,247.204222 180.805605,241.29521 184.053413,238.548629 Z" id="Stroke-286" stroke="#0097FF" stroke-width="3"></path>
                <polygon id="Fill-288" fill="#97CEFF" fill-rule="nonzero" points="395.049167 247.956468 432.857784 272.155307 423.34029 287.026572 385.531093 262.827733"></polygon>
                <polygon id="Stroke-290" stroke="#0097FF" stroke-width="3" points="395.049167 247.956468 432.857784 272.155307 423.34029 287.026572 385.531093 262.827733"></polygon>
                <polygon id="Fill-292" fill="#FFFFFF" fill-rule="nonzero" points="406.461157 219.151515 454.244353 249.733876 437.854889 275.342305 390.071112 244.760525"></polygon>
                <polygon id="Stroke-294" stroke="#0097FF" stroke-width="3" points="406.461157 219.151515 454.244353 249.733876 437.854889 275.342305 390.071112 244.760525"></polygon>
                <path d="M473.435284,0 C481.441548,0 487.931937,6.49038821 487.931937,14.4966523 C487.931937,22.5029164 481.441548,28.9933047 473.435284,28.9933047 C465.42902,28.9933047 458.938632,22.5029164 458.938632,14.4966523 C458.938632,6.49038821 465.42902,0 473.435284,0" id="Fill-296" fill="#FFBB29" fill-rule="nonzero"></path>
                <path d="M473.435284,0 C481.441548,0 487.931937,6.49038821 487.931937,14.4966523 C487.931937,22.5029164 481.441548,28.9933047 473.435284,28.9933047 C465.42902,28.9933047 458.938632,22.5029164 458.938632,14.4966523 C458.938632,6.49038821 465.42902,0 473.435284,0 Z" id="Stroke-298" stroke="#FF8900" stroke-width="3"></path>
                <path d="M473.435284,3.8449234 C479.318161,3.8449234 484.087071,8.61383415 484.087071,14.4967104 C484.087071,20.3795867 479.318161,25.1484974 473.435284,25.1484974 C467.552408,25.1484974 462.783497,20.3795867 462.783497,14.4967104 C462.783497,8.61383415 467.552408,3.8449234 473.435284,3.8449234" id="Fill-300" fill="#FFBB29" fill-rule="nonzero"></path>
                <path d="M473.435284,3.8449234 C479.318161,3.8449234 484.087071,8.61383415 484.087071,14.4967104 C484.087071,20.3795867 479.318161,25.1484974 473.435284,25.1484974 C467.552408,25.1484974 462.783497,20.3795867 462.783497,14.4967104 C462.783497,8.61383415 467.552408,3.8449234 473.435284,3.8449234 Z" id="Stroke-302" stroke="#FF8900" stroke-width="3"></path>
                <path d="M473.144887,13.184171 C473.185542,12.9245554 473.185542,12.6597127 473.144887,12.4000972 C473.000849,11.699658 472.316092,11.24838 471.615652,11.3924173 C471.4751,11.421457 471.340355,11.4731478 471.217227,11.546328 C470.899532,11.753672 470.636431,12.0347769 470.449996,12.3652495 C470.136947,12.9210707 469.874428,13.5041892 469.666503,14.1076356 C469.625267,14.2179867 469.706578,14.2179867 469.75943,14.2354106 L472.262078,15.2343786 C472.454321,15.31569 472.459548,15.31569 472.54144,15.1182195 C472.81848,14.5078036 473.021177,13.8666055 473.144887,13.2074028 L473.144887,13.184171 Z M477.826678,14.5490401 C477.873142,14.2412185 477.873142,13.927589 477.826678,13.6197675 C477.706453,12.8693799 477.000206,12.35828 476.249819,12.4785046 C476.03202,12.5133523 475.825257,12.5998908 475.648695,12.7311506 C475.382691,12.9396561 475.152696,13.1911405 474.969165,13.4745686 C474.521372,14.2052092 474.158955,14.9846366 473.888305,15.7977501 C473.888305,15.8674456 473.888305,15.8964853 473.952773,15.9255251 C474.138047,15.9894126 474.318674,16.0707239 474.49814,16.1404194 L476.85675,17.0871158 C476.943288,17.1219635 476.978717,17.0871158 477.012984,17.0232283 C477.077452,16.8431818 477.158183,16.6689432 477.227878,16.4888966 C477.504337,15.8668648 477.705292,15.21347 477.826678,14.5432321 L477.826678,14.5490401 Z M476.932253,22.0993798 L475.851393,21.4430811 C475.723618,21.3675777 475.601651,21.2862663 475.474457,21.2165709 C475.346101,21.1468754 475.369333,21.1236436 475.409989,21.0249084 C475.531956,20.7461266 475.648695,20.444113 475.752658,20.1769472 C475.90018,19.8917766 475.788667,19.541557 475.503497,19.3946158 C475.46226,19.3737072 475.419862,19.3574449 475.375141,19.3464098 L469.265174,16.9070693 C468.918439,16.7444466 468.504912,16.8826759 468.324285,17.2206988 C468.168051,17.515162 468.03563,17.821822 467.929925,18.1383554 C467.807958,18.4519849 467.807958,18.4519849 467.494329,18.3300179 C467.180118,18.2080509 466.785758,18.0396202 466.430892,17.9060373 C466.314733,17.8595737 466.314733,17.8073021 466.35597,17.7085669 L467.244006,15.5015445 C467.296277,15.3737695 467.336933,15.2459945 467.389205,15.1298354 C467.441476,15.0136764 467.389205,14.9846366 467.307893,14.9439809 C466.616747,14.6768151 465.931408,14.3922253 465.240843,14.1250595 C465.129911,14.0844038 465.124103,14.0437481 465.164758,13.9450129 C465.321573,13.5674959 465.47258,13.178363 465.623587,12.7834222 C465.664242,12.6846869 465.693282,12.6498392 465.809441,12.6963029 C466.483164,12.9750846 467.156886,13.2364425 467.824801,13.5094164 C467.923536,13.550072 467.964192,13.5442641 468.004848,13.433913 C468.109391,13.1377073 468.220323,12.8531176 468.341709,12.551104 C468.382365,12.4523688 468.341709,12.4117131 468.266786,12.3710575 L466.274077,11.5811758 C466.15211,11.5347121 466.135267,11.4882485 466.187539,11.3720894 C466.343773,11.0003804 466.49478,10.6170554 466.639979,10.2395385 C466.680634,10.1349953 466.72129,10.1175714 466.825833,10.1582271 L468.876041,10.9829565 C468.980584,11.0294202 469.027048,11.0178042 469.085127,10.9074531 C469.385398,10.3045875 469.776854,9.75225115 470.246718,9.2696102 C470.66489,8.79219641 471.256721,8.50121793 471.890369,8.46230464 C472.871332,8.38796283 473.816867,8.84737197 474.365138,9.66455105 C474.542861,9.94681759 474.652631,10.2674166 474.683994,10.5996316 L474.683994,10.6867509 C474.683994,10.7099827 474.765306,10.5938236 474.805961,10.54736 C475.17709,10.0124475 475.730588,9.63028412 476.362493,9.47288857 C476.913087,9.37531495 477.480524,9.44849517 477.98872,9.68197491 C478.626433,9.91661623 479.190386,10.317365 479.620755,10.8435656 C480.024989,11.3877709 480.229429,12.0539432 480.20155,12.7311506 C480.167283,13.558784 480.004661,14.3753823 479.71949,15.1530673 C479.685223,15.2692263 479.71949,15.309882 479.818225,15.3563456 L481.90967,16.186883 C482.002016,16.2217307 482.014213,16.2565784 481.979365,16.3495057 C481.816742,16.7386386 481.659347,17.1335794 481.50834,17.5110964 C481.467684,17.6214476 481.421221,17.6272555 481.328293,17.5865998 L479.26647,16.7560625 C479.161927,16.7154068 479.133468,16.7560625 479.092231,16.8315659 C478.982461,17.1277715 478.859913,17.4123612 478.732138,17.7085669 C478.685674,17.81311 478.732138,17.8479577 478.807641,17.8886134 L480.875854,18.7075349 C480.974008,18.7481906 481.003048,18.7772303 480.956584,18.8875815 C480.793962,19.2709064 480.642955,19.6600393 480.491948,20.0491722 C480.4571,20.1420994 480.428061,20.1711392 480.323517,20.1304835 C479.620755,19.8400859 478.912185,19.5496882 478.210003,19.2825223 C478.117076,19.2418666 478.081647,19.2825223 478.0468,19.3522177 C477.704711,20.2176028 477.349845,21.0946038 477.001949,21.9425651 L476.932253,22.0993798 Z" id="Fill-304" fill="#FF8900" fill-rule="nonzero"></path>
                <path d="M21.7857503,29.2779525 C31.4345037,29.2779525 39.2560749,37.0995237 39.2560749,46.7482771 C39.2560749,56.3970305 31.4345037,64.2186017 21.7857503,64.2186017 C12.1369969,64.2186017 4.31542573,56.3970305 4.31542573,46.7482771 C4.31542573,37.0995237 12.1369969,29.2779525 21.7857503,29.2779525" id="Fill-306" fill="#FFBB29" fill-rule="nonzero"></path>
                <path d="M21.7857503,29.2779525 C31.4345037,29.2779525 39.2560749,37.0995237 39.2560749,46.7482771 C39.2560749,56.3970305 31.4345037,64.2186017 21.7857503,64.2186017 C12.1369969,64.2186017 4.31542573,56.3970305 4.31542573,46.7482771 C4.31542573,37.0995237 12.1369969,29.2779525 21.7857503,29.2779525 Z" id="Stroke-308" stroke="#FF8900" stroke-width="3"></path>
                <path d="M21.7857503,33.9126995 C28.8749386,33.9126995 34.6213279,39.6596696 34.6213279,46.7482771 C34.6213279,53.8374653 28.8749386,59.5838547 21.7857503,59.5838547 C14.6965621,59.5838547 8.95017275,53.8374653 8.95017275,46.7482771 C8.95017275,39.6596696 14.6965621,33.9126995 21.7857503,33.9126995" id="Fill-310" fill="#FFBB29" fill-rule="nonzero"></path>
                <path d="M21.7857503,33.9126995 C28.8749386,33.9126995 34.6213279,39.6596696 34.6213279,46.7482771 C34.6213279,53.8374653 28.8749386,59.5838547 21.7857503,59.5838547 C14.6965621,59.5838547 8.95017275,53.8374653 8.95017275,46.7482771 C8.95017275,39.6596696 14.6965621,33.9126995 21.7857503,33.9126995 Z" id="Stroke-312" stroke="#FF8900" stroke-width="3"></path>
                <path d="M18.8469258,51.9871093 L13.5326482,41.8986938 L24.9278533,41.9335416 L24.9278533,43.1532118 C24.9046214,44.9769093 24.8837128,46.7988643 24.8639658,48.6184962 C24.8755817,48.7079387 24.8285373,48.7938964 24.7478067,48.8333905 L18.939853,51.9406457 L18.8469258,51.9871093 Z" id="Fill-314" fill="#FF8900" fill-rule="nonzero"></path>
                <path d="M19.8808577,52.5389811 L22.0123767,51.3773904 L25.6713875,49.42011 C25.7811578,49.3788735 25.8496917,49.269684 25.8398181,49.1529441 C25.8398181,46.9807695 25.8862818,44.8085948 25.9153215,42.6306122 C25.9159023,42.6079611 25.9263567,42.5864717 25.9443613,42.5725326 L29.9460414,51.8246028 L19.9215134,52.5680209 L19.8808577,52.5389811 Z" id="Fill-316" fill="#FF8900" fill-rule="nonzero"></path>
                <path d="M831.629443,246.983229 C841.775357,246.983229 850,255.207872 850,265.353787 C850,275.499701 841.775357,283.724344 831.629443,283.724344 C821.483528,283.724344 813.258885,275.499701 813.258885,265.353787 C813.258885,255.207872 821.483528,246.983229 831.629443,246.983229" id="Fill-318" fill="#FFBB29" fill-rule="nonzero"></path>
                <path d="M831.629443,246.983229 C841.775357,246.983229 850,255.207872 850,265.353787 C850,275.499701 841.775357,283.724344 831.629443,283.724344 C821.483528,283.724344 813.258885,275.499701 813.258885,265.353787 C813.258885,255.207872 821.483528,246.983229 831.629443,246.983229 Z" id="Stroke-320" stroke="#FF8900" stroke-width="3"></path>
                <path d="M831.629443,251.856451 C839.083951,251.856451 845.127127,257.899046 845.127127,265.353554 C845.127127,272.808063 839.083951,278.851239 831.629443,278.851239 C824.174934,278.851239 818.131758,272.808063 818.131758,265.353554 C818.131758,257.899046 824.174934,251.856451 831.629443,251.856451" id="Fill-322" fill="#FFBB29" fill-rule="nonzero"></path>
                <path d="M831.629443,251.856451 C839.083951,251.856451 845.127127,257.899046 845.127127,265.353554 C845.127127,272.808063 839.083951,278.851239 831.629443,278.851239 C824.174934,278.851239 818.131758,272.808063 818.131758,265.353554 C818.131758,257.899046 824.174934,251.856451 831.629443,251.856451 Z" id="Stroke-324" stroke="#FF8900" stroke-width="3"></path>
                <path d="M825.571921,263.564821 L834.672985,255.787971 C835.555213,259.697304 836.415371,263.577018 837.303407,267.473574 L836.04947,267.752355 L830.432598,268.966799 C830.343736,268.995838 830.246162,268.965637 830.188664,268.891295 L825.641036,263.664137 L825.571921,263.564821 Z" id="Fill-326" fill="#FF8900" fill-rule="nonzero"></path>
                <path d="M825.252019,264.76155 L826.918902,266.678174 C827.871987,267.775297 828.829719,268.867773 829.782804,269.971284 C829.850176,270.074085 829.980274,270.117645 830.096433,270.075246 L836.798812,268.629647 C836.81914,268.620935 836.841791,268.620935 836.862118,268.629647 L828.313391,274.896429 L825.222979,264.76155 L825.252019,264.76155 Z" id="Fill-328" fill="#FF8900" fill-rule="nonzero"></path>
                <path d="M280.431409,303.204627 C292.770987,303.204627 302.774606,313.207666 302.774606,325.547825 C302.774606,337.887403 292.770987,347.890442 280.431409,347.890442 C268.09125,347.890442 258.088211,337.887403 258.088211,325.547825 C258.088211,313.207666 268.09125,303.204627 280.431409,303.204627" id="Fill-330" fill="#FFBB29" fill-rule="nonzero"></path>
                <path d="M280.431409,303.204627 C292.770987,303.204627 302.774606,313.207666 302.774606,325.547825 C302.774606,337.887403 292.770987,347.890442 280.431409,347.890442 C268.09125,347.890442 258.088211,337.887403 258.088211,325.547825 C258.088211,313.207666 268.09125,303.204627 280.431409,303.204627 Z" id="Stroke-332" stroke="#FF8900" stroke-width="3"></path>
                <path d="M280.431409,309.133967 C289.495882,309.133967 296.844686,316.482771 296.844686,325.547825 C296.844686,334.612298 289.495882,341.961102 280.431409,341.961102 C271.366935,341.961102 264.018132,334.612298 264.018132,325.547825 C264.018132,316.482771 271.366935,309.133967 280.431409,309.133967" id="Fill-334" fill="#FFBB29" fill-rule="nonzero"></path>
                <path d="M280.431409,309.133967 C289.495882,309.133967 296.844686,316.482771 296.844686,325.547825 C296.844686,334.612298 289.495882,341.961102 280.431409,341.961102 C271.366935,341.961102 264.018132,334.612298 264.018132,325.547825 C264.018132,316.482771 271.366935,309.133967 280.431409,309.133967 Z" id="Stroke-336" stroke="#FF8900" stroke-width="3"></path>
                <path d="M273.275836,322.771333 L285.100829,314.274297 C285.762936,319.100706 286.425043,323.892268 287.092957,328.712869 L285.542234,328.916148 L278.613345,329.810573 C278.502994,329.841355 278.385092,329.796633 278.322947,329.700221 C276.670004,327.431054 275.010671,325.161886 273.345531,322.8933 C273.322299,322.846836 273.304875,322.811988 273.275836,322.771333" id="Fill-338" fill="#FF8900" fill-rule="nonzero"></path>
                <path d="M272.759102,324.176799 L274.582799,326.668412 C275.628231,328.097168 276.679471,329.520117 277.719094,330.954681 C277.790532,331.08536 277.940377,331.151571 278.084995,331.117304 C280.843773,330.751403 283.602551,330.402926 286.355521,330.048641 L286.436833,330.048641 L275.401721,336.768443 L272.695214,324.170991 L272.759102,324.176799 Z" id="Fill-340" fill="#FF8900" fill-rule="nonzero"></path>
                <polygon id="Fill-342" fill="#FFFFFF" fill-rule="nonzero" points="358.391571 111.675449 367.376475 95.3550993 357.735272 79.4122665 339.109164 79.7897835 330.12426 96.1101333 339.765463 112.052966"></polygon>
                <polygon id="Stroke-344" stroke="#00C486" stroke-width="3" points="358.391571 111.675449 367.376475 95.3550993 357.735272 79.4122665 339.109164 79.7897835 330.12426 96.1101333 339.765463 112.052966"></polygon>
                <polygon id="Fill-346" fill="#F0FFF7" fill-rule="nonzero" points="358.391571 111.675449 339.765463 112.052966 348.750368 95.7326163 367.376475 95.3550993"></polygon>
                <polygon id="Stroke-348" stroke="#00C486" stroke-width="3" stroke-linejoin="bevel" points="358.391571 111.675449 339.765463 112.052966 348.750368 95.7326163 367.376475 95.3550993"></polygon>
                <polygon id="Fill-350" fill="#BEFFDD" fill-rule="nonzero" points="348.750309 95.7325001 339.109106 79.7896673 330.124202 96.1100171 339.765405 112.05285"></polygon>
                <polygon id="Stroke-352" stroke="#00C486" stroke-width="3" stroke-linejoin="bevel" points="348.750309 95.7325001 339.109106 79.7896673 330.124202 96.1100171 339.765405 112.05285"></polygon>
                <polygon id="Fill-354" fill="#FFFFFF" fill-rule="nonzero" points="46.6436758 316.359352 39.9529132 293.29016 16.6339793 287.546094 -3.30143942e-14 304.87122 6.68495466 327.940411 30.0096965 333.684478"></polygon>
                <polygon id="Stroke-356" stroke="#00C486" stroke-width="3" points="46.6436758 316.359352 39.9529132 293.29016 16.6339793 287.546094 -3.30143942e-14 304.87122 6.68495466 327.940411 30.0096965 333.684478"></polygon>
                <polygon id="Fill-358" fill="#F0FFF7" fill-rule="nonzero" points="46.6436758 316.359352 30.0096965 333.684478 23.3189339 310.615286 39.9529132 293.29016"></polygon>
                <polygon id="Stroke-360" stroke="#00C486" stroke-width="3" stroke-linejoin="bevel" points="46.6436758 316.359352 30.0096965 333.684478 23.3189339 310.615286 39.9529132 293.29016"></polygon>
                <polygon id="Fill-362" fill="#BEFFDD" fill-rule="nonzero" points="23.3191663 310.61546 0.000232318146 304.870813 6.68518698 327.940586 30.0099289 333.684652"></polygon>
                <polygon id="Stroke-364" stroke="#00C486" stroke-width="3" stroke-linejoin="bevel" points="23.3191663 310.61546 0.000232318146 304.870813 6.68518698 327.940586 30.0099289 333.684652"></polygon>
                <polygon id="Fill-366" fill="#FFFFFF" fill-rule="nonzero" points="519.120764 183.491028 524.713823 173.332917 518.714788 163.412933 507.121532 163.651059 501.528472 173.802781 507.528088 183.728574"></polygon>
                <polygon id="Stroke-368" stroke="#00C486" stroke-width="3" points="519.120764 183.491028 524.713823 173.332917 518.714788 163.412933 507.121532 163.651059 501.528472 173.802781 507.528088 183.728574"></polygon>
                <polygon id="Fill-370" fill="#F0FFF7" fill-rule="nonzero" points="519.120764 183.491028 507.528088 183.728574 513.121148 173.571044 524.713823 173.332917"></polygon>
                <polygon id="Stroke-372" stroke="#00C486" stroke-width="3" stroke-linejoin="bevel" points="519.120764 183.491028 507.528088 183.728574 513.121148 173.571044 524.713823 173.332917"></polygon>
                <polygon id="Fill-374" fill="#BEFFDD" fill-rule="nonzero" points="513.12109 173.571044 507.121474 163.651059 501.528414 173.802781 507.52803 183.728574"></polygon>
                <polygon id="Stroke-376" stroke="#00C486" stroke-width="3" stroke-linejoin="bevel" points="513.12109 173.571044 507.121474 163.651059 501.528414 173.802781 507.52803 183.728574"></polygon>
            </g>
        </g>
    </g>
</svg>