<?xml version="1.0" encoding="UTF-8"?>
<svg width="720px" height="544px" viewBox="0 0 720 544" version="1.1" xmlns="http://www.w3.org/2000/svg" xmlns:xlink="http://www.w3.org/1999/xlink">
    <title>Artboard Copy 2</title>
    <defs>
        <polygon id="path-1" points="0 0 116.414729 0 116.414729 116.414868 0 116.414868"></polygon>
        <polygon id="path-3" points="0 0 116.414729 0 116.414729 116.414868 0 116.414868"></polygon>
    </defs>
    <g id="Artboard-Copy-2" stroke="none" stroke-width="1" fill="none" fill-rule="evenodd">
        <rect fill="#1A1720" x="0" y="0" width="720" height="544"></rect>
        <g id="Group-40" transform="translate(68.000000, 59.000000)">
            <g id="Group-39" transform="translate(0.000000, 16.272302)">
                <g id="Group-4">
                    <mask id="mask-2" fill="white">
                        <use xlink:href="#path-1"></use>
                    </mask>
                    <g id="Clip-3"></g>
                </g>
                <path d="M116.414729,58.2074342 C116.414729,90.3423083 90.3552088,116.402294 58.2203348,116.402294 C55.4287922,116.402294 52.6768361,116.204827 49.993807,115.82014 C80.4129582,114.202219 104.578383,89.0308328 104.578383,58.2074342 C104.578383,27.3840356 80.4129582,2.21264908 49.993807,0.594728031 C52.6768361,0.210506711 55.4287922,0.0130402387 58.2203348,0.0130402387 C90.3552088,0.0130402387 116.414729,26.0725602 116.414729,58.2074342" id="Fill-5" fill="#EFB857"></path>
                <path d="M181.505826,41.9917111 C181.505826,36.4617184 180.491016,32.3470574 178.462327,29.6477279 C176.433173,26.9483985 173.446027,25.5991995 169.50182,25.5991995 L166.188668,25.5991995 L166.188668,59.8568381 L169.445002,59.8568381 C171.426652,59.8568381 173.172182,59.4460706 174.682986,58.625467 C176.19286,57.8043977 177.45264,56.6200646 178.462327,55.072002 C179.472014,53.5248708 180.232074,51.6512679 180.741574,49.4525905 C181.251075,47.2534474 181.505826,44.7664876 181.505826,41.9917111 M191.301839,41.9917111 C191.301839,45.1628177 190.867786,48.0647365 189.999678,50.6979333 C189.131105,53.3311301 187.834067,55.5912829 186.106701,57.4788575 C184.379801,59.3659663 182.23701,60.8339246 179.679726,61.8813352 C177.121977,62.9287458 174.153925,63.452684 170.775572,63.452684 L151.636227,63.452684 L151.636227,60.3663389 L154.071492,60.3663389 C154.50508,60.3663389 154.901876,60.3239581 155.260482,60.2387309 C155.618623,60.1539693 155.930192,59.979789 156.194722,59.7152584 C156.458787,59.4511936 156.666499,59.0734924 156.817394,58.5830863 C156.968288,58.0922144 157.044201,57.4318195 157.044201,56.60097 L157.044201,28.6566698 C157.044201,27.8831042 156.968288,27.26509 156.817394,26.8026273 C156.666499,26.3401645 156.45413,25.9862152 156.180751,25.7403135 C155.906905,25.4953433 155.590214,25.3300117 155.232073,25.2452502 C154.873001,25.1600229 154.485985,25.1181079 154.071492,25.1181079 L151.636227,25.1181079 L151.636227,22.0597062 L170.775572,22.0597062 C173.984402,22.0597062 176.857912,22.4797881 179.397033,23.3199521 C181.935222,24.160116 184.086861,25.4147733 185.851951,27.085321 C187.616575,28.7558688 188.966705,30.8367183 189.900479,33.3278696 C190.834719,35.8199524 191.301839,38.7074338 191.301839,41.9917111" id="Fill-7" fill="#EFB857"></path>
                <path d="M221.647127,36.7823686 C221.439414,36.1219736 221.227045,35.4285123 221.010018,34.701519 C220.792991,33.9749914 220.575499,33.2340265 220.358472,32.4790898 C220.141911,31.7246188 219.934198,30.9738736 219.7358,30.2282514 C219.537868,29.4826292 219.363222,28.7700733 219.211862,28.0905837 C219.042339,28.6759973 218.843941,29.3177633 218.6176,30.0158818 C218.391259,30.714466 218.15048,31.4316792 217.895264,32.1675212 C217.640513,32.903829 217.386229,33.639671 217.131478,34.3759788 C216.876262,35.1118208 216.635484,35.8201852 216.409142,36.4996748 L212.983285,46.2952227 L224.704597,46.2952227 L221.647127,36.7823686 Z M211.765886,49.8342504 L210.095338,54.8174845 C209.944444,55.2892617 209.788427,55.8416089 209.628218,56.4735948 C209.46801,57.1065121 209.387905,57.6583936 209.387905,58.1301708 C209.387905,58.5074063 209.462887,58.8376038 209.614246,59.1202975 C209.765141,59.4039227 209.963073,59.635387 210.208509,59.8142245 C210.453945,59.9935278 210.732447,60.1304503 211.044016,60.2245263 C211.355118,60.3195338 211.681124,60.366106 212.020636,60.366106 L214.455901,60.366106 L214.455901,63.4524511 L199.365085,63.4524511 L199.365085,60.366106 L200.072983,60.366106 C200.58295,60.366106 201.049604,60.3097536 201.474809,60.1965829 C201.899082,60.0834123 202.295412,59.8710427 202.663334,59.5594741 C203.03172,59.2479056 203.380547,58.8189749 203.71121,58.2717506 C204.040942,57.7245263 204.376262,57.0161619 204.71624,56.1480545 L217.28703,22.059939 L225.242973,22.059939 L237.360149,56.204407 C237.643774,57.0161619 237.940439,57.6914599 238.252008,58.2289041 C238.563576,58.7668139 238.903554,59.1915531 239.271475,59.5031217 C239.639396,59.8142245 240.031069,60.0363743 240.446494,60.1681738 C240.861453,60.3004391 241.295507,60.366106 241.748655,60.366106 L242.796065,60.366106 L242.796065,63.4524511 L223.657186,63.4524511 L223.657186,60.366106 L225.922462,60.366106 C226.205156,60.366106 226.49763,60.3237253 226.799418,60.2389637 C227.101672,60.1537364 227.370394,60.0224026 227.606982,59.8426336 C227.842637,59.6633303 228.035912,59.4318661 228.187272,59.1491723 C228.337701,58.8660129 228.413614,58.5260352 228.413614,58.1301708 C228.413614,57.6583936 228.356795,57.205711 228.243625,56.7707259 C228.130454,56.3366723 228.017283,55.9599025 227.904113,55.6380881 L225.865644,49.8342504 L211.765886,49.8342504 Z" id="Fill-9" fill="#EFB857"></path>
                <path d="M264.761044,42.1049749 L268.016912,42.1049749 C269.357262,42.1049749 270.475928,41.9256716 271.371979,41.5675307 C272.268495,41.2089242 272.985708,40.6756716 273.523618,39.9673072 C274.061994,39.2598742 274.448544,38.3726722 274.685131,37.306167 C274.920321,36.2401275 275.038615,34.9985105 275.038615,33.5831788 C275.038615,32.111029 274.906349,30.8652205 274.642284,29.846219 C274.377288,28.826286 273.962795,27.991245 273.396476,27.3401645 C272.830157,26.6890841 272.094315,26.2177726 271.188018,25.9248329 C270.281722,25.632359 269.187273,25.4856563 267.903741,25.4856563 L264.761044,25.4856563 L264.761044,42.1049749 Z M250.208603,60.3659663 L252.643402,60.3659663 C253.039732,60.3659663 253.417433,60.3287085 253.77604,60.2527957 C254.134646,60.1778143 254.450406,60.0222629 254.724251,59.7856757 C254.998096,59.55002 255.215123,59.2007279 255.375797,58.7387308 C255.53554,58.2762681 255.61611,57.6675684 255.61611,56.9126317 L255.61611,28.6567629 C255.61611,27.8831973 255.53554,27.2651832 255.375797,26.8027204 C255.215123,26.3397919 254.998096,25.9863083 254.724251,25.7404067 C254.450406,25.4954365 254.134646,25.3296392 253.77604,25.2453433 C253.417433,25.1601161 253.039732,25.1177353 252.643402,25.1177353 L250.208603,25.1177353 L250.208603,22.0597993 L268.894799,22.0597993 C274.368439,22.0597993 278.383902,22.9758761 280.941651,24.8061667 C283.498935,26.6373888 284.77781,29.298529 284.77781,32.7905186 C284.77781,34.3190209 284.551469,35.6780001 284.09832,36.8674561 C283.645638,38.0564465 283.046253,39.0945426 282.30063,39.9812788 C281.555008,40.8694122 280.710187,41.619226 279.767098,42.2321172 C278.822612,42.8464056 277.859963,43.3507834 276.879151,43.7471135 L283.787218,55.6384141 C284.277624,56.4692636 284.754524,57.1813537 285.216987,57.775616 C285.678984,58.3708098 286.141446,58.8612159 286.603909,59.2477659 C287.066838,59.6352472 287.542806,59.9184067 288.034144,60.0972443 C288.52455,60.2770133 289.043831,60.3659663 289.591055,60.3659663 L289.817862,60.3659663 L289.817862,63.4523114 L287.920973,63.4523114 C286.183827,63.4523114 284.669297,63.3866445 283.376916,63.2543792 C282.083604,63.1221139 280.950966,62.8627063 279.979468,62.4756907 C279.007039,62.0891407 278.166875,61.5554224 277.459442,60.8759328 C276.751543,60.1964432 276.09534,59.3185557 275.491763,58.2432017 L268.612105,45.4740137 L264.761044,45.4740137 L264.761044,56.9126317 C264.761044,57.6675684 264.841614,58.2762681 265.002288,58.7387308 C265.162031,59.2007279 265.379058,59.55002 265.652903,59.7856757 C265.926282,60.0222629 266.242974,60.1778143 266.60158,60.2527957 C266.960187,60.3287085 267.337422,60.3659663 267.734218,60.3659663 L270.225369,60.3659663 L270.225369,63.4523114 L250.208603,63.4523114 L250.208603,60.3659663 Z" id="Fill-11" fill="#EFB857"></path>
                <path d="M320.559107,32.5922138 C321.182245,31.9318189 321.706183,31.3324336 322.130456,30.7945238 C322.555195,30.2561482 322.895173,29.7564276 323.149458,29.2939649 C323.404674,28.8315021 323.588634,28.3923255 323.701805,27.9773665 C323.814976,27.5624075 323.871794,27.1562972 323.871794,26.7599671 C323.871794,26.1186668 323.626358,25.6743672 323.135486,25.4289313 C322.64508,25.1839611 321.804916,25.0610102 320.615926,25.0610102 L320.615926,22.0598924 L336.328948,22.0598924 L336.328948,25.0610102 C335.536287,25.0610102 334.786474,25.1839611 334.078109,25.4289313 C333.370676,25.6743672 332.677215,26.0236593 331.997725,26.4768076 C331.318236,26.9299559 330.647595,27.4674 329.9872,28.0905371 C329.326339,28.7132085 328.65663,29.4024783 327.97714,30.1569493 L320.332766,38.5660404 L331.119838,55.6948597 C331.686157,56.6011563 332.228724,57.3514357 332.748005,57.945698 C333.266354,58.540426 333.790292,59.0173262 334.318888,59.3754671 C334.847483,59.7340736 335.385393,59.9892897 335.933083,60.1397182 C336.480307,60.2910781 337.07457,60.3660595 337.716802,60.3660595 L337.943143,60.3660595 L337.943143,63.4524045 L334.828854,63.4524045 C333.356705,63.4524045 332.063392,63.4058323 330.950315,63.3103591 C329.83584,63.2162831 328.859219,63.0751691 328.019987,62.8860856 C327.179357,62.6974679 326.457487,62.4566892 325.853444,62.1642152 C325.249402,61.8717413 324.721272,61.5271064 324.268124,61.1307763 C323.814976,60.7344462 323.404674,60.2859551 323.036287,59.7857688 C322.668366,59.2860483 322.305102,58.7341667 321.946496,58.1301243 L314.132133,44.7946172 L311.555754,46.8051426 L311.555754,56.6011563 C311.555754,57.4320058 311.636324,58.0924007 311.796998,58.5832725 C311.956741,59.0736787 312.169111,59.4509141 312.433641,59.7154447 C312.697706,59.9795095 313.018589,60.1536899 313.396291,60.2389171 C313.773526,60.3236787 314.169856,60.3660595 314.585281,60.3660595 L317.02008,60.3660595 L317.02008,63.4524045 L297.003313,63.4524045 L297.003313,60.3660595 L299.438112,60.3660595 C299.853071,60.3660595 300.240087,60.3288016 300.599159,60.2528888 C300.9573,60.1779075 301.273991,60.022356 301.547836,59.7857688 C301.821216,59.5501131 302.033585,59.200821 302.18448,58.738824 C302.335374,58.2758955 302.410821,57.6676615 302.410821,56.9127248 L302.410821,28.6568561 C302.410821,27.8832905 302.335374,27.2652763 302.18448,26.8023478 C302.033585,26.3398851 301.821216,25.9859358 301.547836,25.7404998 C301.273991,25.4955296 300.9573,25.3297323 300.599159,25.2454365 C300.240087,25.1602092 299.853071,25.1178284 299.438112,25.1178284 L297.003313,25.1178284 L297.003313,22.0598924 L317.02008,22.0598924 L317.02008,25.1178284 L314.585281,25.1178284 C314.169856,25.1178284 313.773526,25.1602092 313.396291,25.2454365 C313.018589,25.3297323 312.697706,25.5048441 312.433641,25.7689089 C312.169111,26.0334395 311.956741,26.4111407 311.796998,26.9010811 C311.636324,27.3924186 311.555754,28.0528136 311.555754,28.8831974 L311.555754,42.4166366 L320.559107,32.5922138 Z" id="Fill-13" fill="#EFB857"></path>
                <path d="M378.763561,63.4524977 L378.763561,60.3661526 L379.32988,60.3661526 C379.933922,60.3661526 380.466709,60.3288948 380.929172,60.252982 C381.391635,60.1780006 381.773993,60.0266407 382.075782,59.7998337 C382.378036,59.5734924 382.604377,59.2479521 382.755271,58.8236787 C382.906631,58.3989395 382.982078,57.8377435 382.982078,57.1391593 L382.982078,27.7790617 L371.28871,63.4524977 L367.353818,63.4524977 L355.094596,27.7790617 L355.094596,56.6012494 C355.094596,57.4320989 355.193795,58.0924938 355.391262,58.5829 C355.58966,59.0737718 355.873285,59.4510073 356.241206,59.7155378 C356.609127,59.9796027 357.057618,60.153783 357.585748,60.2390103 C358.113877,60.3237718 358.718385,60.3661526 359.397875,60.3661526 L359.737387,60.3661526 L359.737387,63.4524977 L345.354935,63.4524977 L345.354935,60.3661526 L347.789734,60.3661526 C348.204693,60.3661526 348.591709,60.3288948 348.950315,60.252982 C349.308922,60.1780006 349.625613,60.0224492 349.898993,59.785862 C350.172372,59.5502062 350.384741,59.2009141 350.536101,58.7384514 C350.686996,58.2759886 350.762443,57.6677546 350.762443,56.912818 L350.762443,28.6569492 C350.762443,27.8829179 350.686996,27.2649037 350.536101,26.802441 C350.384741,26.3399782 350.172372,25.9860289 349.898993,25.740593 C349.625613,25.4956228 349.308922,25.3298255 348.950315,25.2450639 C348.591709,25.1603024 348.204693,25.1179216 347.789734,25.1179216 L345.354935,25.1179216 L345.354935,22.0599856 L362.059481,22.0599856 L371.685506,50.061104 L380.9152,22.0599856 L397.307712,22.0599856 L397.307712,25.1179216 L394.873379,25.1179216 C394.457488,25.1179216 394.070473,25.1603024 393.712332,25.2450639 C393.353725,25.3298255 393.042157,25.5049372 392.778092,25.7685363 C392.513096,26.0335326 392.305849,26.4107681 392.15542,26.9011742 C392.004061,27.3925118 391.929079,28.0529067 391.929079,28.8832905 L391.929079,56.6012494 C391.929079,57.4320989 392.004061,58.0924938 392.15542,58.5829 C392.305849,59.0737718 392.513096,59.4510073 392.778092,59.7155378 C393.042157,59.9796027 393.353725,60.153783 393.712332,60.2390103 C394.070473,60.3237718 394.457488,60.3661526 394.873379,60.3661526 L397.307712,60.3661526 L397.307712,63.4524977 L378.763561,63.4524977 Z" id="Fill-15" fill="#EFB857"></path>
                <path d="M417.687323,42.6998426 C417.687323,45.4741534 417.866626,47.9471415 418.225233,50.1174098 C418.583374,52.2881439 419.159473,54.1235575 419.952133,55.6241164 C420.744793,57.125141 421.768918,58.2717506 423.024041,59.0639451 C424.279164,59.8566053 425.803474,60.2529354 427.596507,60.2529354 C429.408635,60.2529354 430.941794,59.8566053 432.197383,59.0639451 C433.452506,58.2717506 434.466385,57.125141 435.240882,55.6241164 C436.014913,54.1235575 436.576109,52.2881439 436.925867,50.1174098 C437.274693,47.9471415 437.449339,45.4741534 437.449339,42.6998426 C437.449339,39.9250661 437.274693,37.4525437 436.925867,35.2818097 C436.576109,33.1115414 436.014913,31.275662 435.240882,29.7751031 C434.466385,28.2745442 433.457163,27.1325919 432.21182,26.3492461 C430.966012,25.5663661 429.446358,25.1742275 427.65286,25.1742275 C425.841198,25.1742275 424.30245,25.5663661 423.038012,26.3492461 C421.773109,27.1325919 420.744793,28.2745442 419.952133,29.7751031 C419.159473,31.275662 418.583374,33.1115414 418.225233,35.2818097 C417.866626,37.4525437 417.687323,39.9250661 417.687323,42.6998426 M447.189,42.6998426 C447.189,45.8900439 446.759138,48.7966199 445.900345,51.4200365 C445.041087,54.0434531 443.777115,56.2896343 442.107033,58.1581142 C440.436485,60.0265941 438.387771,61.4703348 435.962752,62.4898021 C433.537268,63.5088036 430.748519,64.0187701 427.596507,64.0187701 C424.293601,64.0187701 421.410311,63.5088036 418.947103,62.4898021 C416.483895,61.4703348 414.440304,60.0265941 412.817725,58.1581142 C411.194216,56.2896343 409.97635,54.0387959 409.165061,51.4055991 C408.353306,48.7724024 407.947662,45.8523203 407.947662,42.6430244 C407.947662,39.4341942 408.353306,36.522961 409.165061,33.9088585 C409.97635,31.2947567 411.198873,29.0630129 412.831697,27.2126962 C414.464055,25.3628452 416.512304,23.9335419 418.975512,22.9233891 C421.43872,21.9137021 424.330859,21.4088585 427.65286,21.4088585 C430.786243,21.4088585 433.565677,21.9137021 435.991161,22.9233891 C438.41618,23.9335419 440.459306,25.3679682 442.121005,27.2266679 C443.781306,29.0862991 445.041087,31.3227 445.900345,33.9372679 C446.759138,36.55137 447.189,39.4719178 447.189,42.6998426" id="Fill-17" fill="#EFB857"></path>
                <path d="M469.12515,42.6998426 C469.12515,45.4741534 469.304453,47.9471415 469.66306,50.1174098 C470.021201,52.2881439 470.5973,54.1235575 471.38996,55.6241164 C472.18262,57.125141 473.206745,58.2717506 474.461868,59.0639451 C475.716991,59.8566053 477.241302,60.2529354 479.034334,60.2529354 C480.846462,60.2529354 482.379621,59.8566053 483.63521,59.0639451 C484.890333,58.2717506 485.904212,57.125141 486.678709,55.6241164 C487.45274,54.1235575 488.013936,52.2881439 488.363694,50.1174098 C488.71252,47.9471415 488.887166,45.4741534 488.887166,42.6998426 C488.887166,39.9250661 488.71252,37.4525437 488.363694,35.2818097 C488.013936,33.1115414 487.45274,31.275662 486.678709,29.7751031 C485.904212,28.2745442 484.89499,27.1325919 483.649648,26.3492461 C482.403839,25.5663661 480.884185,25.1742275 479.090687,25.1742275 C477.279025,25.1742275 475.740277,25.5663661 474.47584,26.3492461 C473.210936,27.1325919 472.18262,28.2745442 471.38996,29.7751031 C470.5973,31.275662 470.021201,33.1115414 469.66306,35.2818097 C469.304453,37.4525437 469.12515,39.9250661 469.12515,42.6998426 M498.626827,42.6998426 C498.626827,45.8900439 498.196965,48.7966199 497.338172,51.4200365 C496.478914,54.0434531 495.214942,56.2896343 493.54486,58.1581142 C491.874312,60.0265941 489.825598,61.4703348 487.400579,62.4898021 C484.975095,63.5088036 482.186346,64.0187701 479.034334,64.0187701 C475.731428,64.0187701 472.848138,63.5088036 470.38493,62.4898021 C467.921722,61.4703348 465.878131,60.0265941 464.255552,58.1581142 C462.632043,56.2896343 461.414178,54.0387959 460.602888,51.4055991 C459.791134,48.7724024 459.385489,45.8523203 459.385489,42.6430244 C459.385489,39.4341942 459.791134,36.522961 460.602888,33.9088585 C461.414178,31.2947567 462.6367,29.0630129 464.269524,27.2126962 C465.901883,25.3628452 467.950132,23.9335419 470.41334,22.9233891 C472.876547,21.9137021 475.768686,21.4088585 479.090687,21.4088585 C482.22407,21.4088585 485.003504,21.9137021 487.428988,22.9233891 C489.854007,23.9335419 491.897599,25.3679682 493.558832,27.2266679 C495.219134,29.0862991 496.478914,31.3227 497.338172,33.9372679 C498.196965,36.55137 498.626827,39.4719178 498.626827,42.6998426" id="Fill-19" fill="#EFB857"></path>
                <path d="M541.599211,63.4524977 L518.978123,31.5160216 L518.978123,56.6012494 C518.978123,57.4320989 519.058227,58.0924938 519.218436,58.5829 C519.378644,59.0737718 519.591014,59.4510073 519.855544,59.7155378 C520.119609,59.9796027 520.436301,60.153783 520.804222,60.2390103 C521.172143,60.3237718 521.554501,60.3661526 521.950831,60.3661526 L524.38563,60.3661526 L524.38563,63.4524977 L509.238461,63.4524977 L509.238461,60.3661526 L511.67326,60.3661526 C512.088219,60.3661526 512.475235,60.3237718 512.833842,60.2390103 C513.192448,60.153783 513.50914,59.9796027 513.782519,59.7155378 C514.055898,59.4510073 514.268268,59.0737718 514.419628,58.5829 C514.570522,58.0924938 514.645969,57.4320989 514.645969,56.6012494 L514.645969,28.6569492 C514.645969,27.8829179 514.565399,27.2649037 514.40519,26.802441 C514.244982,26.3399782 514.027955,25.9860289 513.75411,25.740593 C513.480265,25.4956228 513.164039,25.3298255 512.805898,25.2450639 C512.446826,25.1603024 512.06959,25.1179216 511.67326,25.1179216 L509.238461,25.1179216 L509.238461,22.0599856 L522.12082,22.0599856 L542.590269,50.9948782 L542.590269,28.6569492 C542.590269,27.8829179 542.509699,27.2649037 542.349491,26.802441 C542.189282,26.3399782 541.971789,25.9860289 541.69841,25.740593 C541.424565,25.4956228 541.108339,25.3298255 540.750198,25.2450639 C540.391126,25.1603024 540.013891,25.1179216 539.61756,25.1179216 L537.182762,25.1179216 L537.182762,22.0599856 L552.32993,22.0599856 L552.32993,25.1179216 L549.894666,25.1179216 C549.498801,25.1179216 549.120634,25.1603024 548.762494,25.2450639 C548.403421,25.3298255 548.087661,25.5049372 547.814282,25.7685363 C547.540437,26.0335326 547.328067,26.4107681 547.177173,26.9011742 C547.025348,27.3925118 546.950366,28.0529067 546.950366,28.8832905 L546.950366,63.4524977 L541.599211,63.4524977 Z" id="Fill-21" fill="#EFB857"></path>
                <path d="M373.942119,102.880218 C374.605774,102.880218 375.196776,102.802443 375.714194,102.647823 C376.232078,102.492737 376.694541,102.291545 377.101583,102.043315 C377.508624,101.796016 377.864902,101.517048 378.170416,101.206876 C378.475931,100.897636 378.743255,100.592122 378.973788,100.2908 C379.114902,100.39745 379.228073,100.561385 379.312369,100.782137 C379.396199,101.003821 379.438114,101.229231 379.438114,101.459298 C379.438114,101.840259 379.336586,102.240781 379.133065,102.660863 C378.929079,103.081411 378.588636,103.468892 378.110804,103.822376 C377.632972,104.176791 376.999589,104.468799 376.212518,104.698866 C375.424515,104.928467 374.450688,105.043967 373.291504,105.043967 C371.715964,105.043967 370.339753,104.805051 369.162406,104.326753 C367.985524,103.848922 367.007506,103.172227 366.228818,102.295736 C365.449664,101.419712 364.865647,100.366712 364.476303,99.1362727 C364.086493,97.905833 363.891821,96.5431281 363.891821,95.0472264 C363.891821,93.5778709 364.09115,92.2328635 364.489343,91.0112725 C364.888002,89.7901473 365.478538,88.7413395 366.261884,87.8648492 C367.04523,86.9883589 368.023248,86.3070064 369.195938,85.8203261 C370.368628,85.3336457 371.724813,85.0900727 373.264958,85.0900727 C374.309109,85.0900727 375.218665,85.1720399 375.993162,85.3355086 C376.767659,85.4999088 377.411288,85.72299 377.924981,86.0061495 C378.438207,86.2893089 378.822894,86.6236979 379.079973,87.008385 C379.336586,87.3935377 379.46466,87.8075653 379.46466,88.250002 C379.46466,88.5862538 379.392007,88.8982881 379.24577,89.1856391 C379.099999,89.4734558 378.882507,89.723549 378.595156,89.9359186 C378.307805,90.1482882 377.951527,90.3145512 377.526322,90.4333105 C377.101583,90.5530013 376.614902,90.6126138 376.066281,90.6126138 C376.066281,90.1613284 376.01738,89.7123716 375.920044,89.2657434 C375.822708,88.8186495 375.65691,88.4139364 375.422186,88.0506726 C375.187462,87.6878745 374.880085,87.3935377 374.499589,87.1676622 C374.119094,86.9417866 373.645454,86.8290817 373.079135,86.8290817 C372.220342,86.8290817 371.494746,87.0107136 370.90188,87.3735116 C370.30855,87.7363097 369.833047,88.2676994 369.47444,88.9667494 C369.116299,89.6657993 368.857357,90.5269208 368.69808,91.5487167 C368.538337,92.5709782 368.459164,93.7371481 368.459164,95.0472264 C368.459164,96.356839 368.5565,97.5029828 368.751173,98.4851922 C368.945379,99.4683331 369.259742,100.284745 369.693796,100.934894 C370.127383,101.585509 370.691374,102.072655 371.386232,102.395401 C372.081091,102.718613 372.932898,102.880218 373.942119,102.880218" id="Fill-23" fill="#EFB857"></path>
                <path d="M401.983755,92.2722636 C401.886419,91.9625579 401.786755,91.6374834 401.684761,91.2965743 C401.583234,90.9561309 401.48124,90.6087017 401.379713,90.2542867 C401.277719,89.9003373 401.180383,89.5487166 401.087705,89.1989588 C400.99456,88.8492009 400.912593,88.5152777 400.841803,88.1967233 C400.762164,88.471034 400.669485,88.771891 400.563301,89.0997598 C400.457116,89.427163 400.343945,89.7629491 400.22472,90.1085154 C400.105029,90.453616 399.985804,90.7987166 399.866114,91.1438172 C399.746889,91.4889178 399.634184,91.8209782 399.527533,92.1395326 L397.921255,96.7329567 L403.417716,96.7329567 L401.983755,92.2722636 Z M397.350279,98.3927928 L396.566933,100.729324 C396.496143,100.950542 396.423025,101.209484 396.348044,101.505684 C396.272596,101.802815 396.235339,102.061757 396.235339,102.28251 C396.235339,102.459484 396.270268,102.61457 396.341523,102.747301 C396.412313,102.880032 396.504992,102.988546 396.620026,103.072376 C396.735059,103.156671 396.865927,103.220941 397.011699,103.265185 C397.157935,103.309429 397.310693,103.331318 397.46997,103.331318 L398.611456,103.331318 L398.611456,104.778784 L391.535264,104.778784 L391.535264,103.331318 L391.867324,103.331318 C392.10624,103.331318 392.325596,103.304771 392.524459,103.251679 C392.723789,103.198587 392.909612,103.098922 393.081929,102.953151 C393.254713,102.806914 393.418181,102.605721 393.573267,102.349108 C393.727887,102.092495 393.885301,101.760434 394.044578,101.353393 L399.939232,85.3688544 L403.669672,85.3688544 L409.351956,101.379939 C409.484687,101.760434 409.623938,102.07666 409.770175,102.329082 C409.916412,102.581504 410.075689,102.780367 410.248007,102.926604 C410.42079,103.072376 410.604285,103.176698 410.798957,103.238639 C410.993629,103.30058 411.19715,103.331318 411.409985,103.331318 L411.900857,103.331318 L411.900857,104.778784 L402.926378,104.778784 L402.926378,103.331318 L403.988692,103.331318 C404.120957,103.331318 404.258345,103.311291 404.399925,103.271705 C404.541505,103.231653 404.667716,103.169712 404.778092,103.085882 C404.888934,103.001586 404.97975,102.893538 405.05054,102.760807 C405.12133,102.62761 405.156725,102.468799 405.156725,102.28251 C405.156725,102.061757 405.130179,101.848922 405.077086,101.645401 C405.023994,101.441414 404.970901,101.264905 404.917809,101.114011 L403.962146,98.3927928 L397.350279,98.3927928 Z" id="Fill-25" fill="#EFB857"></path>
                <path d="M430.357592,95.7774798 L431.021247,95.7774798 C431.69375,95.7774798 432.264727,95.693184 432.734175,95.525058 C433.202692,95.3569321 433.585516,95.0914701 433.882182,94.728672 C434.178847,94.3658739 434.395408,93.8968911 434.532797,93.3212577 C434.669719,92.74609 434.738646,92.0512316 434.738646,91.2366824 C434.738646,90.5110862 434.679034,89.8804975 434.559343,89.3449163 C434.440118,88.8098008 434.249171,88.3673641 433.988367,88.0176063 C433.727096,87.6678485 433.386653,87.406578 432.966105,87.2337948 C432.545557,87.0614774 432.030468,86.9753186 431.41944,86.9753186 L430.357592,86.9753186 L430.357592,95.7774798 Z M439.305524,91.1304976 C439.305524,91.9450468 439.163944,92.7283925 438.880785,93.4805349 C438.59716,94.2331429 438.137491,94.8963322 437.499917,95.4719656 C436.862808,96.0471333 436.035218,96.5049388 435.017148,96.8458479 C433.999544,97.186757 432.756064,97.3572116 431.286709,97.3572116 L430.357592,97.3572116 L430.357592,101.71172 C430.357592,102.065669 430.397178,102.351157 430.476817,102.568184 C430.556455,102.785211 430.66264,102.948214 430.795371,103.059522 C430.928568,103.169898 431.083188,103.243016 431.260162,103.277946 C431.437137,103.313806 431.618769,103.331504 431.804592,103.331504 L433.463963,103.331504 L433.463963,104.778505 L423.533821,104.778505 L423.533821,103.331504 L424.675308,103.331504 C424.878828,103.331504 425.064652,103.311478 425.233243,103.271891 C425.400904,103.231839 425.547141,103.149872 425.671023,103.02599 C425.794905,102.902107 425.892241,102.725133 425.963031,102.495066 C426.033821,102.264999 426.069216,101.955293 426.069216,101.565949 L426.069216,88.4623716 C426.069216,88.0995735 426.033821,87.8098939 425.963031,87.5928671 C425.892241,87.3758403 425.792577,87.2100429 425.664503,87.0945437 C425.535963,86.9795101 425.387863,86.9022002 425.219738,86.862148 C425.051146,86.8225616 424.86998,86.8025355 424.675308,86.8025355 L423.533821,86.8025355 L423.533821,85.3685749 L431.884231,85.3685749 C433.141217,85.3685749 434.234268,85.5017717 435.163385,85.7672337 C436.092502,86.0326957 436.864671,86.4155198 437.479891,86.9157061 C438.09511,87.4158924 438.553382,88.0199349 438.854239,88.7273679 C439.155096,89.436198 439.305524,90.2372412 439.305524,91.1304976 L439.305524,91.1304976 Z" id="Fill-27" fill="#EFB857"></path>
                <path d="M451.761048,104.778551 L451.761048,103.33155 L452.902534,103.33155 C453.106055,103.33155 453.292344,103.311524 453.46047,103.271938 C453.62813,103.231886 453.774367,103.149918 453.89825,103.026036 C454.022132,102.902154 454.119468,102.725179 454.190258,102.495112 C454.261514,102.265045 454.296908,101.955339 454.296908,101.565995 L454.296908,88.5816432 C454.296908,88.1922989 454.261514,87.8825932 454.190258,87.6525262 C454.119468,87.4219934 454.022132,87.2454844 453.89825,87.1211364 C453.774367,86.9972542 453.62813,86.9157527 453.46047,86.8757005 C453.292344,86.8361141 453.106055,86.816088 452.902534,86.816088 L451.761048,86.816088 L451.761048,85.3686215 L461.147225,85.3686215 L461.147225,86.816088 L460.005273,86.816088 C459.810601,86.816088 459.627106,86.8361141 459.454789,86.8757005 C459.282005,86.9157527 459.13344,86.9972542 459.009558,87.1211364 C458.885675,87.2454844 458.788339,87.4219934 458.717549,87.6525262 C458.64676,87.8825932 458.611365,88.1922989 458.611365,88.5816432 L458.611365,101.565995 C458.611365,101.955339 458.64676,102.265045 458.717549,102.495112 C458.788339,102.725179 458.885675,102.902154 459.009558,103.026036 C459.13344,103.149918 459.282005,103.231886 459.454789,103.271938 C459.627106,103.311524 459.810601,103.33155 460.005273,103.33155 L461.147225,103.33155 L461.147225,104.778551 L451.761048,104.778551 Z" id="Fill-29" fill="#EFB857"></path>
                <path d="M483.812278,101.565809 C483.812278,101.955153 483.847673,102.264859 483.918928,102.494926 C483.989253,102.724993 484.088917,102.901968 484.217457,103.026316 C484.345996,103.149732 484.494096,103.231699 484.662222,103.271752 C484.830348,103.311338 485.011514,103.331364 485.206186,103.331364 L486.348139,103.331364 L486.348139,104.778365 L476.961961,104.778365 L476.961961,103.331364 L478.103448,103.331364 C478.307434,103.331364 478.493258,103.311338 478.660918,103.271752 C478.82951,103.231699 478.975281,103.149732 479.099629,103.026316 C479.223045,102.901968 479.320381,102.724993 479.391637,102.494926 C479.461961,102.264859 479.497356,101.955153 479.497356,101.565809 L479.497356,87.0282713 L477.320568,87.0282713 C476.913526,87.0282713 476.572151,87.0729807 476.29784,87.1610023 C476.02353,87.2499554 475.800448,87.3757005 475.627665,87.539635 C475.455348,87.7031037 475.326808,87.9047617 475.242978,88.1436775 C475.158682,88.3821275 475.098604,88.6522468 475.063675,88.9535694 L474.877386,90.639486 L473.045698,90.639486 L473.191469,85.3689009 L490.131671,85.3689009 L490.264402,90.639486 L488.445754,90.639486 L488.246425,88.9535694 C488.21103,88.6522468 488.151417,88.3821275 488.067587,88.1436775 C487.983291,87.9047617 487.855218,87.7031037 487.682435,87.539635 C487.509651,87.3757005 487.286104,87.2499554 487.011794,87.1610023 C486.737483,87.0729807 486.396574,87.0282713 485.989998,87.0282713 L483.812278,87.0282713 L483.812278,101.565809 Z" id="Fill-31" fill="#EFB857"></path>
                <path d="M510.327089,92.2722636 C510.229752,91.9625579 510.130088,91.6374834 510.02856,91.2965743 C509.927033,90.9561309 509.825039,90.6087017 509.723046,90.2542867 C509.621053,89.9003373 509.523717,89.5487166 509.431038,89.1989588 C509.338359,88.8492009 509.256392,88.5152777 509.185602,88.1967233 C509.105963,88.471034 509.013284,88.771891 508.906634,89.0997598 C508.800915,89.427163 508.687279,89.7629491 508.568519,90.1085154 C508.448828,90.453616 508.329138,90.7987166 508.209913,91.1438172 C508.090222,91.4889178 507.977517,91.8209782 507.871332,92.1395326 L506.264588,96.7329567 L511.761049,96.7329567 L510.327089,92.2722636 Z M505.694078,98.3927928 L504.910732,100.729324 C504.839942,100.950542 504.766824,101.209484 504.691377,101.505684 C504.616395,101.802815 504.578672,102.061757 504.578672,102.28251 C504.578672,102.459484 504.614067,102.61457 504.685322,102.747301 C504.755647,102.880032 504.848325,102.988546 504.963825,103.072376 C505.078392,103.156671 505.209726,103.220941 505.355498,103.265185 C505.501734,103.309429 505.654026,103.331318 505.813769,103.331318 L506.955255,103.331318 L506.955255,104.778784 L499.879063,104.778784 L499.879063,103.331318 L500.210658,103.331318 C500.450039,103.331318 500.668929,103.304771 500.867792,103.251679 C501.067122,103.198587 501.253411,103.098922 501.425728,102.953151 C501.598512,102.806914 501.76198,102.605721 501.9166,102.349108 C502.071686,102.092495 502.228635,101.760434 502.388377,101.353393 L508.282565,85.3688544 L512.013471,85.3688544 L517.695289,101.379939 C517.82802,101.760434 517.967737,102.07666 518.113974,102.329082 C518.259745,102.581504 518.419022,102.780367 518.591806,102.926604 C518.764123,103.072376 518.948084,103.176698 519.142756,103.238639 C519.337428,103.30058 519.540949,103.331318 519.753318,103.331318 L520.244656,103.331318 L520.244656,104.778784 L511.269712,104.778784 L511.269712,103.331318 L512.332025,103.331318 C512.464756,103.331318 512.602144,103.311291 512.743258,103.271705 C512.884838,103.231653 513.011515,103.169712 513.121891,103.085882 C513.232267,103.001586 513.323549,102.893538 513.394339,102.760807 C513.464663,102.62761 513.500058,102.468799 513.500058,102.28251 C513.500058,102.061757 513.473978,101.848922 513.420885,101.645401 C513.367327,101.441414 513.314235,101.264905 513.261608,101.114011 L512.305479,98.3927928 L505.694078,98.3927928 Z" id="Fill-33" fill="#EFB857"></path>
                <path d="M531.877247,104.778551 L531.877247,103.33155 L533.018734,103.33155 C533.222721,103.33155 533.408078,103.311524 533.576204,103.271938 C533.744796,103.231886 533.890567,103.149918 534.014915,103.026036 C534.138332,102.902154 534.235668,102.725179 534.306923,102.495112 C534.377247,102.265045 534.412642,101.955339 534.412642,101.565995 L534.412642,88.5681372 C534.412642,88.178793 534.377247,87.8690873 534.306923,87.6390202 C534.235668,87.4089531 534.138332,87.2319785 534.014915,87.1080962 C533.890567,86.9842139 533.744796,86.9022467 533.576204,86.8621946 C533.408078,86.8226081 533.222721,86.802582 533.018734,86.802582 L531.877247,86.802582 L531.877247,85.3686215 L541.263425,85.3686215 L541.263425,86.802582 L540.121473,86.802582 C539.936115,86.802582 539.756346,86.8226081 539.584028,86.8621946 C539.411245,86.9022467 539.26268,86.9795567 539.139263,87.0945902 C539.014915,87.2096238 538.91525,87.3758868 538.840269,87.5929137 C538.765288,87.8094748 538.727564,88.0996201 538.727564,88.4624181 L538.727564,103.119181 L543.78578,103.119181 C544.422888,103.119181 544.918883,102.917989 545.272833,102.515138 C545.626316,102.111822 545.883395,101.525943 546.042672,100.755637 L546.480452,98.7115801 L548.007557,98.7115801 L547.808693,104.778551 L531.877247,104.778551 Z" id="Fill-35" fill="#EFB857"></path>
                <polygon id="Fill-37" fill="#EFB857" points="345.894848 97.6526195 152.278971 95.9215279 345.894848 94.1904362"></polygon>
            </g>
        </g>
        <rect id="Rectangle" fill="#FFFFFF" x="0" y="272" width="720" height="272"></rect>
        <g id="Group-40-Copy" transform="translate(68.000000, 333.000000)">
            <g id="Group-39" transform="translate(0.000000, 16.272302)">
                <g id="Group-4">
                    <mask id="mask-4" fill="white">
                        <use xlink:href="#path-3"></use>
                    </mask>
                    <g id="Clip-3"></g>
                </g>
                <path d="M116.414729,58.2074342 C116.414729,90.3423083 90.3552088,116.402294 58.2203348,116.402294 C55.4287922,116.402294 52.6768361,116.204827 49.993807,115.82014 C80.4129582,114.202219 104.578383,89.0308328 104.578383,58.2074342 C104.578383,27.3840356 80.4129582,2.21264908 49.993807,0.594728031 C52.6768361,0.210506711 55.4287922,0.0130402387 58.2203348,0.0130402387 C90.3552088,0.0130402387 116.414729,26.0725602 116.414729,58.2074342" id="Fill-5" fill="#EFB857"></path>
                <path d="M181.505826,41.9917111 C181.505826,36.4617184 180.491016,32.3470574 178.462327,29.6477279 C176.433173,26.9483985 173.446027,25.5991995 169.50182,25.5991995 L166.188668,25.5991995 L166.188668,59.8568381 L169.445002,59.8568381 C171.426652,59.8568381 173.172182,59.4460706 174.682986,58.625467 C176.19286,57.8043977 177.45264,56.6200646 178.462327,55.072002 C179.472014,53.5248708 180.232074,51.6512679 180.741574,49.4525905 C181.251075,47.2534474 181.505826,44.7664876 181.505826,41.9917111 M191.301839,41.9917111 C191.301839,45.1628177 190.867786,48.0647365 189.999678,50.6979333 C189.131105,53.3311301 187.834067,55.5912829 186.106701,57.4788575 C184.379801,59.3659663 182.23701,60.8339246 179.679726,61.8813352 C177.121977,62.9287458 174.153925,63.452684 170.775572,63.452684 L151.636227,63.452684 L151.636227,60.3663389 L154.071492,60.3663389 C154.50508,60.3663389 154.901876,60.3239581 155.260482,60.2387309 C155.618623,60.1539693 155.930192,59.979789 156.194722,59.7152584 C156.458787,59.4511936 156.666499,59.0734924 156.817394,58.5830863 C156.968288,58.0922144 157.044201,57.4318195 157.044201,56.60097 L157.044201,28.6566698 C157.044201,27.8831042 156.968288,27.26509 156.817394,26.8026273 C156.666499,26.3401645 156.45413,25.9862152 156.180751,25.7403135 C155.906905,25.4953433 155.590214,25.3300117 155.232073,25.2452502 C154.873001,25.1600229 154.485985,25.1181079 154.071492,25.1181079 L151.636227,25.1181079 L151.636227,22.0597062 L170.775572,22.0597062 C173.984402,22.0597062 176.857912,22.4797881 179.397033,23.3199521 C181.935222,24.160116 184.086861,25.4147733 185.851951,27.085321 C187.616575,28.7558688 188.966705,30.8367183 189.900479,33.3278696 C190.834719,35.8199524 191.301839,38.7074338 191.301839,41.9917111" id="Fill-7" fill="#EFB857"></path>
                <path d="M221.647127,36.7823686 C221.439414,36.1219736 221.227045,35.4285123 221.010018,34.701519 C220.792991,33.9749914 220.575499,33.2340265 220.358472,32.4790898 C220.141911,31.7246188 219.934198,30.9738736 219.7358,30.2282514 C219.537868,29.4826292 219.363222,28.7700733 219.211862,28.0905837 C219.042339,28.6759973 218.843941,29.3177633 218.6176,30.0158818 C218.391259,30.714466 218.15048,31.4316792 217.895264,32.1675212 C217.640513,32.903829 217.386229,33.639671 217.131478,34.3759788 C216.876262,35.1118208 216.635484,35.8201852 216.409142,36.4996748 L212.983285,46.2952227 L224.704597,46.2952227 L221.647127,36.7823686 Z M211.765886,49.8342504 L210.095338,54.8174845 C209.944444,55.2892617 209.788427,55.8416089 209.628218,56.4735948 C209.46801,57.1065121 209.387905,57.6583936 209.387905,58.1301708 C209.387905,58.5074063 209.462887,58.8376038 209.614246,59.1202975 C209.765141,59.4039227 209.963073,59.635387 210.208509,59.8142245 C210.453945,59.9935278 210.732447,60.1304503 211.044016,60.2245263 C211.355118,60.3195338 211.681124,60.366106 212.020636,60.366106 L214.455901,60.366106 L214.455901,63.4524511 L199.365085,63.4524511 L199.365085,60.366106 L200.072983,60.366106 C200.58295,60.366106 201.049604,60.3097536 201.474809,60.1965829 C201.899082,60.0834123 202.295412,59.8710427 202.663334,59.5594741 C203.03172,59.2479056 203.380547,58.8189749 203.71121,58.2717506 C204.040942,57.7245263 204.376262,57.0161619 204.71624,56.1480545 L217.28703,22.059939 L225.242973,22.059939 L237.360149,56.204407 C237.643774,57.0161619 237.940439,57.6914599 238.252008,58.2289041 C238.563576,58.7668139 238.903554,59.1915531 239.271475,59.5031217 C239.639396,59.8142245 240.031069,60.0363743 240.446494,60.1681738 C240.861453,60.3004391 241.295507,60.366106 241.748655,60.366106 L242.796065,60.366106 L242.796065,63.4524511 L223.657186,63.4524511 L223.657186,60.366106 L225.922462,60.366106 C226.205156,60.366106 226.49763,60.3237253 226.799418,60.2389637 C227.101672,60.1537364 227.370394,60.0224026 227.606982,59.8426336 C227.842637,59.6633303 228.035912,59.4318661 228.187272,59.1491723 C228.337701,58.8660129 228.413614,58.5260352 228.413614,58.1301708 C228.413614,57.6583936 228.356795,57.205711 228.243625,56.7707259 C228.130454,56.3366723 228.017283,55.9599025 227.904113,55.6380881 L225.865644,49.8342504 L211.765886,49.8342504 Z" id="Fill-9" fill="#EFB857"></path>
                <path d="M264.761044,42.1049749 L268.016912,42.1049749 C269.357262,42.1049749 270.475928,41.9256716 271.371979,41.5675307 C272.268495,41.2089242 272.985708,40.6756716 273.523618,39.9673072 C274.061994,39.2598742 274.448544,38.3726722 274.685131,37.306167 C274.920321,36.2401275 275.038615,34.9985105 275.038615,33.5831788 C275.038615,32.111029 274.906349,30.8652205 274.642284,29.846219 C274.377288,28.826286 273.962795,27.991245 273.396476,27.3401645 C272.830157,26.6890841 272.094315,26.2177726 271.188018,25.9248329 C270.281722,25.632359 269.187273,25.4856563 267.903741,25.4856563 L264.761044,25.4856563 L264.761044,42.1049749 Z M250.208603,60.3659663 L252.643402,60.3659663 C253.039732,60.3659663 253.417433,60.3287085 253.77604,60.2527957 C254.134646,60.1778143 254.450406,60.0222629 254.724251,59.7856757 C254.998096,59.55002 255.215123,59.2007279 255.375797,58.7387308 C255.53554,58.2762681 255.61611,57.6675684 255.61611,56.9126317 L255.61611,28.6567629 C255.61611,27.8831973 255.53554,27.2651832 255.375797,26.8027204 C255.215123,26.3397919 254.998096,25.9863083 254.724251,25.7404067 C254.450406,25.4954365 254.134646,25.3296392 253.77604,25.2453433 C253.417433,25.1601161 253.039732,25.1177353 252.643402,25.1177353 L250.208603,25.1177353 L250.208603,22.0597993 L268.894799,22.0597993 C274.368439,22.0597993 278.383902,22.9758761 280.941651,24.8061667 C283.498935,26.6373888 284.77781,29.298529 284.77781,32.7905186 C284.77781,34.3190209 284.551469,35.6780001 284.09832,36.8674561 C283.645638,38.0564465 283.046253,39.0945426 282.30063,39.9812788 C281.555008,40.8694122 280.710187,41.619226 279.767098,42.2321172 C278.822612,42.8464056 277.859963,43.3507834 276.879151,43.7471135 L283.787218,55.6384141 C284.277624,56.4692636 284.754524,57.1813537 285.216987,57.775616 C285.678984,58.3708098 286.141446,58.8612159 286.603909,59.2477659 C287.066838,59.6352472 287.542806,59.9184067 288.034144,60.0972443 C288.52455,60.2770133 289.043831,60.3659663 289.591055,60.3659663 L289.817862,60.3659663 L289.817862,63.4523114 L287.920973,63.4523114 C286.183827,63.4523114 284.669297,63.3866445 283.376916,63.2543792 C282.083604,63.1221139 280.950966,62.8627063 279.979468,62.4756907 C279.007039,62.0891407 278.166875,61.5554224 277.459442,60.8759328 C276.751543,60.1964432 276.09534,59.3185557 275.491763,58.2432017 L268.612105,45.4740137 L264.761044,45.4740137 L264.761044,56.9126317 C264.761044,57.6675684 264.841614,58.2762681 265.002288,58.7387308 C265.162031,59.2007279 265.379058,59.55002 265.652903,59.7856757 C265.926282,60.0222629 266.242974,60.1778143 266.60158,60.2527957 C266.960187,60.3287085 267.337422,60.3659663 267.734218,60.3659663 L270.225369,60.3659663 L270.225369,63.4523114 L250.208603,63.4523114 L250.208603,60.3659663 Z" id="Fill-11" fill="#EFB857"></path>
                <path d="M320.559107,32.5922138 C321.182245,31.9318189 321.706183,31.3324336 322.130456,30.7945238 C322.555195,30.2561482 322.895173,29.7564276 323.149458,29.2939649 C323.404674,28.8315021 323.588634,28.3923255 323.701805,27.9773665 C323.814976,27.5624075 323.871794,27.1562972 323.871794,26.7599671 C323.871794,26.1186668 323.626358,25.6743672 323.135486,25.4289313 C322.64508,25.1839611 321.804916,25.0610102 320.615926,25.0610102 L320.615926,22.0598924 L336.328948,22.0598924 L336.328948,25.0610102 C335.536287,25.0610102 334.786474,25.1839611 334.078109,25.4289313 C333.370676,25.6743672 332.677215,26.0236593 331.997725,26.4768076 C331.318236,26.9299559 330.647595,27.4674 329.9872,28.0905371 C329.326339,28.7132085 328.65663,29.4024783 327.97714,30.1569493 L320.332766,38.5660404 L331.119838,55.6948597 C331.686157,56.6011563 332.228724,57.3514357 332.748005,57.945698 C333.266354,58.540426 333.790292,59.0173262 334.318888,59.3754671 C334.847483,59.7340736 335.385393,59.9892897 335.933083,60.1397182 C336.480307,60.2910781 337.07457,60.3660595 337.716802,60.3660595 L337.943143,60.3660595 L337.943143,63.4524045 L334.828854,63.4524045 C333.356705,63.4524045 332.063392,63.4058323 330.950315,63.3103591 C329.83584,63.2162831 328.859219,63.0751691 328.019987,62.8860856 C327.179357,62.6974679 326.457487,62.4566892 325.853444,62.1642152 C325.249402,61.8717413 324.721272,61.5271064 324.268124,61.1307763 C323.814976,60.7344462 323.404674,60.2859551 323.036287,59.7857688 C322.668366,59.2860483 322.305102,58.7341667 321.946496,58.1301243 L314.132133,44.7946172 L311.555754,46.8051426 L311.555754,56.6011563 C311.555754,57.4320058 311.636324,58.0924007 311.796998,58.5832725 C311.956741,59.0736787 312.169111,59.4509141 312.433641,59.7154447 C312.697706,59.9795095 313.018589,60.1536899 313.396291,60.2389171 C313.773526,60.3236787 314.169856,60.3660595 314.585281,60.3660595 L317.02008,60.3660595 L317.02008,63.4524045 L297.003313,63.4524045 L297.003313,60.3660595 L299.438112,60.3660595 C299.853071,60.3660595 300.240087,60.3288016 300.599159,60.2528888 C300.9573,60.1779075 301.273991,60.022356 301.547836,59.7857688 C301.821216,59.5501131 302.033585,59.200821 302.18448,58.738824 C302.335374,58.2758955 302.410821,57.6676615 302.410821,56.9127248 L302.410821,28.6568561 C302.410821,27.8832905 302.335374,27.2652763 302.18448,26.8023478 C302.033585,26.3398851 301.821216,25.9859358 301.547836,25.7404998 C301.273991,25.4955296 300.9573,25.3297323 300.599159,25.2454365 C300.240087,25.1602092 299.853071,25.1178284 299.438112,25.1178284 L297.003313,25.1178284 L297.003313,22.0598924 L317.02008,22.0598924 L317.02008,25.1178284 L314.585281,25.1178284 C314.169856,25.1178284 313.773526,25.1602092 313.396291,25.2454365 C313.018589,25.3297323 312.697706,25.5048441 312.433641,25.7689089 C312.169111,26.0334395 311.956741,26.4111407 311.796998,26.9010811 C311.636324,27.3924186 311.555754,28.0528136 311.555754,28.8831974 L311.555754,42.4166366 L320.559107,32.5922138 Z" id="Fill-13" fill="#EFB857"></path>
                <path d="M378.763561,63.4524977 L378.763561,60.3661526 L379.32988,60.3661526 C379.933922,60.3661526 380.466709,60.3288948 380.929172,60.252982 C381.391635,60.1780006 381.773993,60.0266407 382.075782,59.7998337 C382.378036,59.5734924 382.604377,59.2479521 382.755271,58.8236787 C382.906631,58.3989395 382.982078,57.8377435 382.982078,57.1391593 L382.982078,27.7790617 L371.28871,63.4524977 L367.353818,63.4524977 L355.094596,27.7790617 L355.094596,56.6012494 C355.094596,57.4320989 355.193795,58.0924938 355.391262,58.5829 C355.58966,59.0737718 355.873285,59.4510073 356.241206,59.7155378 C356.609127,59.9796027 357.057618,60.153783 357.585748,60.2390103 C358.113877,60.3237718 358.718385,60.3661526 359.397875,60.3661526 L359.737387,60.3661526 L359.737387,63.4524977 L345.354935,63.4524977 L345.354935,60.3661526 L347.789734,60.3661526 C348.204693,60.3661526 348.591709,60.3288948 348.950315,60.252982 C349.308922,60.1780006 349.625613,60.0224492 349.898993,59.785862 C350.172372,59.5502062 350.384741,59.2009141 350.536101,58.7384514 C350.686996,58.2759886 350.762443,57.6677546 350.762443,56.912818 L350.762443,28.6569492 C350.762443,27.8829179 350.686996,27.2649037 350.536101,26.802441 C350.384741,26.3399782 350.172372,25.9860289 349.898993,25.740593 C349.625613,25.4956228 349.308922,25.3298255 348.950315,25.2450639 C348.591709,25.1603024 348.204693,25.1179216 347.789734,25.1179216 L345.354935,25.1179216 L345.354935,22.0599856 L362.059481,22.0599856 L371.685506,50.061104 L380.9152,22.0599856 L397.307712,22.0599856 L397.307712,25.1179216 L394.873379,25.1179216 C394.457488,25.1179216 394.070473,25.1603024 393.712332,25.2450639 C393.353725,25.3298255 393.042157,25.5049372 392.778092,25.7685363 C392.513096,26.0335326 392.305849,26.4107681 392.15542,26.9011742 C392.004061,27.3925118 391.929079,28.0529067 391.929079,28.8832905 L391.929079,56.6012494 C391.929079,57.4320989 392.004061,58.0924938 392.15542,58.5829 C392.305849,59.0737718 392.513096,59.4510073 392.778092,59.7155378 C393.042157,59.9796027 393.353725,60.153783 393.712332,60.2390103 C394.070473,60.3237718 394.457488,60.3661526 394.873379,60.3661526 L397.307712,60.3661526 L397.307712,63.4524977 L378.763561,63.4524977 Z" id="Fill-15" fill="#EFB857"></path>
                <path d="M417.687323,42.6998426 C417.687323,45.4741534 417.866626,47.9471415 418.225233,50.1174098 C418.583374,52.2881439 419.159473,54.1235575 419.952133,55.6241164 C420.744793,57.125141 421.768918,58.2717506 423.024041,59.0639451 C424.279164,59.8566053 425.803474,60.2529354 427.596507,60.2529354 C429.408635,60.2529354 430.941794,59.8566053 432.197383,59.0639451 C433.452506,58.2717506 434.466385,57.125141 435.240882,55.6241164 C436.014913,54.1235575 436.576109,52.2881439 436.925867,50.1174098 C437.274693,47.9471415 437.449339,45.4741534 437.449339,42.6998426 C437.449339,39.9250661 437.274693,37.4525437 436.925867,35.2818097 C436.576109,33.1115414 436.014913,31.275662 435.240882,29.7751031 C434.466385,28.2745442 433.457163,27.1325919 432.21182,26.3492461 C430.966012,25.5663661 429.446358,25.1742275 427.65286,25.1742275 C425.841198,25.1742275 424.30245,25.5663661 423.038012,26.3492461 C421.773109,27.1325919 420.744793,28.2745442 419.952133,29.7751031 C419.159473,31.275662 418.583374,33.1115414 418.225233,35.2818097 C417.866626,37.4525437 417.687323,39.9250661 417.687323,42.6998426 M447.189,42.6998426 C447.189,45.8900439 446.759138,48.7966199 445.900345,51.4200365 C445.041087,54.0434531 443.777115,56.2896343 442.107033,58.1581142 C440.436485,60.0265941 438.387771,61.4703348 435.962752,62.4898021 C433.537268,63.5088036 430.748519,64.0187701 427.596507,64.0187701 C424.293601,64.0187701 421.410311,63.5088036 418.947103,62.4898021 C416.483895,61.4703348 414.440304,60.0265941 412.817725,58.1581142 C411.194216,56.2896343 409.97635,54.0387959 409.165061,51.4055991 C408.353306,48.7724024 407.947662,45.8523203 407.947662,42.6430244 C407.947662,39.4341942 408.353306,36.522961 409.165061,33.9088585 C409.97635,31.2947567 411.198873,29.0630129 412.831697,27.2126962 C414.464055,25.3628452 416.512304,23.9335419 418.975512,22.9233891 C421.43872,21.9137021 424.330859,21.4088585 427.65286,21.4088585 C430.786243,21.4088585 433.565677,21.9137021 435.991161,22.9233891 C438.41618,23.9335419 440.459306,25.3679682 442.121005,27.2266679 C443.781306,29.0862991 445.041087,31.3227 445.900345,33.9372679 C446.759138,36.55137 447.189,39.4719178 447.189,42.6998426" id="Fill-17" fill="#EFB857"></path>
                <path d="M469.12515,42.6998426 C469.12515,45.4741534 469.304453,47.9471415 469.66306,50.1174098 C470.021201,52.2881439 470.5973,54.1235575 471.38996,55.6241164 C472.18262,57.125141 473.206745,58.2717506 474.461868,59.0639451 C475.716991,59.8566053 477.241302,60.2529354 479.034334,60.2529354 C480.846462,60.2529354 482.379621,59.8566053 483.63521,59.0639451 C484.890333,58.2717506 485.904212,57.125141 486.678709,55.6241164 C487.45274,54.1235575 488.013936,52.2881439 488.363694,50.1174098 C488.71252,47.9471415 488.887166,45.4741534 488.887166,42.6998426 C488.887166,39.9250661 488.71252,37.4525437 488.363694,35.2818097 C488.013936,33.1115414 487.45274,31.275662 486.678709,29.7751031 C485.904212,28.2745442 484.89499,27.1325919 483.649648,26.3492461 C482.403839,25.5663661 480.884185,25.1742275 479.090687,25.1742275 C477.279025,25.1742275 475.740277,25.5663661 474.47584,26.3492461 C473.210936,27.1325919 472.18262,28.2745442 471.38996,29.7751031 C470.5973,31.275662 470.021201,33.1115414 469.66306,35.2818097 C469.304453,37.4525437 469.12515,39.9250661 469.12515,42.6998426 M498.626827,42.6998426 C498.626827,45.8900439 498.196965,48.7966199 497.338172,51.4200365 C496.478914,54.0434531 495.214942,56.2896343 493.54486,58.1581142 C491.874312,60.0265941 489.825598,61.4703348 487.400579,62.4898021 C484.975095,63.5088036 482.186346,64.0187701 479.034334,64.0187701 C475.731428,64.0187701 472.848138,63.5088036 470.38493,62.4898021 C467.921722,61.4703348 465.878131,60.0265941 464.255552,58.1581142 C462.632043,56.2896343 461.414178,54.0387959 460.602888,51.4055991 C459.791134,48.7724024 459.385489,45.8523203 459.385489,42.6430244 C459.385489,39.4341942 459.791134,36.522961 460.602888,33.9088585 C461.414178,31.2947567 462.6367,29.0630129 464.269524,27.2126962 C465.901883,25.3628452 467.950132,23.9335419 470.41334,22.9233891 C472.876547,21.9137021 475.768686,21.4088585 479.090687,21.4088585 C482.22407,21.4088585 485.003504,21.9137021 487.428988,22.9233891 C489.854007,23.9335419 491.897599,25.3679682 493.558832,27.2266679 C495.219134,29.0862991 496.478914,31.3227 497.338172,33.9372679 C498.196965,36.55137 498.626827,39.4719178 498.626827,42.6998426" id="Fill-19" fill="#EFB857"></path>
                <path d="M541.599211,63.4524977 L518.978123,31.5160216 L518.978123,56.6012494 C518.978123,57.4320989 519.058227,58.0924938 519.218436,58.5829 C519.378644,59.0737718 519.591014,59.4510073 519.855544,59.7155378 C520.119609,59.9796027 520.436301,60.153783 520.804222,60.2390103 C521.172143,60.3237718 521.554501,60.3661526 521.950831,60.3661526 L524.38563,60.3661526 L524.38563,63.4524977 L509.238461,63.4524977 L509.238461,60.3661526 L511.67326,60.3661526 C512.088219,60.3661526 512.475235,60.3237718 512.833842,60.2390103 C513.192448,60.153783 513.50914,59.9796027 513.782519,59.7155378 C514.055898,59.4510073 514.268268,59.0737718 514.419628,58.5829 C514.570522,58.0924938 514.645969,57.4320989 514.645969,56.6012494 L514.645969,28.6569492 C514.645969,27.8829179 514.565399,27.2649037 514.40519,26.802441 C514.244982,26.3399782 514.027955,25.9860289 513.75411,25.740593 C513.480265,25.4956228 513.164039,25.3298255 512.805898,25.2450639 C512.446826,25.1603024 512.06959,25.1179216 511.67326,25.1179216 L509.238461,25.1179216 L509.238461,22.0599856 L522.12082,22.0599856 L542.590269,50.9948782 L542.590269,28.6569492 C542.590269,27.8829179 542.509699,27.2649037 542.349491,26.802441 C542.189282,26.3399782 541.971789,25.9860289 541.69841,25.740593 C541.424565,25.4956228 541.108339,25.3298255 540.750198,25.2450639 C540.391126,25.1603024 540.013891,25.1179216 539.61756,25.1179216 L537.182762,25.1179216 L537.182762,22.0599856 L552.32993,22.0599856 L552.32993,25.1179216 L549.894666,25.1179216 C549.498801,25.1179216 549.120634,25.1603024 548.762494,25.2450639 C548.403421,25.3298255 548.087661,25.5049372 547.814282,25.7685363 C547.540437,26.0335326 547.328067,26.4107681 547.177173,26.9011742 C547.025348,27.3925118 546.950366,28.0529067 546.950366,28.8832905 L546.950366,63.4524977 L541.599211,63.4524977 Z" id="Fill-21" fill="#EFB857"></path>
                <path d="M373.942119,102.880218 C374.605774,102.880218 375.196776,102.802443 375.714194,102.647823 C376.232078,102.492737 376.694541,102.291545 377.101583,102.043315 C377.508624,101.796016 377.864902,101.517048 378.170416,101.206876 C378.475931,100.897636 378.743255,100.592122 378.973788,100.2908 C379.114902,100.39745 379.228073,100.561385 379.312369,100.782137 C379.396199,101.003821 379.438114,101.229231 379.438114,101.459298 C379.438114,101.840259 379.336586,102.240781 379.133065,102.660863 C378.929079,103.081411 378.588636,103.468892 378.110804,103.822376 C377.632972,104.176791 376.999589,104.468799 376.212518,104.698866 C375.424515,104.928467 374.450688,105.043967 373.291504,105.043967 C371.715964,105.043967 370.339753,104.805051 369.162406,104.326753 C367.985524,103.848922 367.007506,103.172227 366.228818,102.295736 C365.449664,101.419712 364.865647,100.366712 364.476303,99.1362727 C364.086493,97.905833 363.891821,96.5431281 363.891821,95.0472264 C363.891821,93.5778709 364.09115,92.2328635 364.489343,91.0112725 C364.888002,89.7901473 365.478538,88.7413395 366.261884,87.8648492 C367.04523,86.9883589 368.023248,86.3070064 369.195938,85.8203261 C370.368628,85.3336457 371.724813,85.0900727 373.264958,85.0900727 C374.309109,85.0900727 375.218665,85.1720399 375.993162,85.3355086 C376.767659,85.4999088 377.411288,85.72299 377.924981,86.0061495 C378.438207,86.2893089 378.822894,86.6236979 379.079973,87.008385 C379.336586,87.3935377 379.46466,87.8075653 379.46466,88.250002 C379.46466,88.5862538 379.392007,88.8982881 379.24577,89.1856391 C379.099999,89.4734558 378.882507,89.723549 378.595156,89.9359186 C378.307805,90.1482882 377.951527,90.3145512 377.526322,90.4333105 C377.101583,90.5530013 376.614902,90.6126138 376.066281,90.6126138 C376.066281,90.1613284 376.01738,89.7123716 375.920044,89.2657434 C375.822708,88.8186495 375.65691,88.4139364 375.422186,88.0506726 C375.187462,87.6878745 374.880085,87.3935377 374.499589,87.1676622 C374.119094,86.9417866 373.645454,86.8290817 373.079135,86.8290817 C372.220342,86.8290817 371.494746,87.0107136 370.90188,87.3735116 C370.30855,87.7363097 369.833047,88.2676994 369.47444,88.9667494 C369.116299,89.6657993 368.857357,90.5269208 368.69808,91.5487167 C368.538337,92.5709782 368.459164,93.7371481 368.459164,95.0472264 C368.459164,96.356839 368.5565,97.5029828 368.751173,98.4851922 C368.945379,99.4683331 369.259742,100.284745 369.693796,100.934894 C370.127383,101.585509 370.691374,102.072655 371.386232,102.395401 C372.081091,102.718613 372.932898,102.880218 373.942119,102.880218" id="Fill-23" fill="#EFB857"></path>
                <path d="M401.983755,92.2722636 C401.886419,91.9625579 401.786755,91.6374834 401.684761,91.2965743 C401.583234,90.9561309 401.48124,90.6087017 401.379713,90.2542867 C401.277719,89.9003373 401.180383,89.5487166 401.087705,89.1989588 C400.99456,88.8492009 400.912593,88.5152777 400.841803,88.1967233 C400.762164,88.471034 400.669485,88.771891 400.563301,89.0997598 C400.457116,89.427163 400.343945,89.7629491 400.22472,90.1085154 C400.105029,90.453616 399.985804,90.7987166 399.866114,91.1438172 C399.746889,91.4889178 399.634184,91.8209782 399.527533,92.1395326 L397.921255,96.7329567 L403.417716,96.7329567 L401.983755,92.2722636 Z M397.350279,98.3927928 L396.566933,100.729324 C396.496143,100.950542 396.423025,101.209484 396.348044,101.505684 C396.272596,101.802815 396.235339,102.061757 396.235339,102.28251 C396.235339,102.459484 396.270268,102.61457 396.341523,102.747301 C396.412313,102.880032 396.504992,102.988546 396.620026,103.072376 C396.735059,103.156671 396.865927,103.220941 397.011699,103.265185 C397.157935,103.309429 397.310693,103.331318 397.46997,103.331318 L398.611456,103.331318 L398.611456,104.778784 L391.535264,104.778784 L391.535264,103.331318 L391.867324,103.331318 C392.10624,103.331318 392.325596,103.304771 392.524459,103.251679 C392.723789,103.198587 392.909612,103.098922 393.081929,102.953151 C393.254713,102.806914 393.418181,102.605721 393.573267,102.349108 C393.727887,102.092495 393.885301,101.760434 394.044578,101.353393 L399.939232,85.3688544 L403.669672,85.3688544 L409.351956,101.379939 C409.484687,101.760434 409.623938,102.07666 409.770175,102.329082 C409.916412,102.581504 410.075689,102.780367 410.248007,102.926604 C410.42079,103.072376 410.604285,103.176698 410.798957,103.238639 C410.993629,103.30058 411.19715,103.331318 411.409985,103.331318 L411.900857,103.331318 L411.900857,104.778784 L402.926378,104.778784 L402.926378,103.331318 L403.988692,103.331318 C404.120957,103.331318 404.258345,103.311291 404.399925,103.271705 C404.541505,103.231653 404.667716,103.169712 404.778092,103.085882 C404.888934,103.001586 404.97975,102.893538 405.05054,102.760807 C405.12133,102.62761 405.156725,102.468799 405.156725,102.28251 C405.156725,102.061757 405.130179,101.848922 405.077086,101.645401 C405.023994,101.441414 404.970901,101.264905 404.917809,101.114011 L403.962146,98.3927928 L397.350279,98.3927928 Z" id="Fill-25" fill="#EFB857"></path>
                <path d="M430.357592,95.7774798 L431.021247,95.7774798 C431.69375,95.7774798 432.264727,95.693184 432.734175,95.525058 C433.202692,95.3569321 433.585516,95.0914701 433.882182,94.728672 C434.178847,94.3658739 434.395408,93.8968911 434.532797,93.3212577 C434.669719,92.74609 434.738646,92.0512316 434.738646,91.2366824 C434.738646,90.5110862 434.679034,89.8804975 434.559343,89.3449163 C434.440118,88.8098008 434.249171,88.3673641 433.988367,88.0176063 C433.727096,87.6678485 433.386653,87.406578 432.966105,87.2337948 C432.545557,87.0614774 432.030468,86.9753186 431.41944,86.9753186 L430.357592,86.9753186 L430.357592,95.7774798 Z M439.305524,91.1304976 C439.305524,91.9450468 439.163944,92.7283925 438.880785,93.4805349 C438.59716,94.2331429 438.137491,94.8963322 437.499917,95.4719656 C436.862808,96.0471333 436.035218,96.5049388 435.017148,96.8458479 C433.999544,97.186757 432.756064,97.3572116 431.286709,97.3572116 L430.357592,97.3572116 L430.357592,101.71172 C430.357592,102.065669 430.397178,102.351157 430.476817,102.568184 C430.556455,102.785211 430.66264,102.948214 430.795371,103.059522 C430.928568,103.169898 431.083188,103.243016 431.260162,103.277946 C431.437137,103.313806 431.618769,103.331504 431.804592,103.331504 L433.463963,103.331504 L433.463963,104.778505 L423.533821,104.778505 L423.533821,103.331504 L424.675308,103.331504 C424.878828,103.331504 425.064652,103.311478 425.233243,103.271891 C425.400904,103.231839 425.547141,103.149872 425.671023,103.02599 C425.794905,102.902107 425.892241,102.725133 425.963031,102.495066 C426.033821,102.264999 426.069216,101.955293 426.069216,101.565949 L426.069216,88.4623716 C426.069216,88.0995735 426.033821,87.8098939 425.963031,87.5928671 C425.892241,87.3758403 425.792577,87.2100429 425.664503,87.0945437 C425.535963,86.9795101 425.387863,86.9022002 425.219738,86.862148 C425.051146,86.8225616 424.86998,86.8025355 424.675308,86.8025355 L423.533821,86.8025355 L423.533821,85.3685749 L431.884231,85.3685749 C433.141217,85.3685749 434.234268,85.5017717 435.163385,85.7672337 C436.092502,86.0326957 436.864671,86.4155198 437.479891,86.9157061 C438.09511,87.4158924 438.553382,88.0199349 438.854239,88.7273679 C439.155096,89.436198 439.305524,90.2372412 439.305524,91.1304976 L439.305524,91.1304976 Z" id="Fill-27" fill="#EFB857"></path>
                <path d="M451.761048,104.778551 L451.761048,103.33155 L452.902534,103.33155 C453.106055,103.33155 453.292344,103.311524 453.46047,103.271938 C453.62813,103.231886 453.774367,103.149918 453.89825,103.026036 C454.022132,102.902154 454.119468,102.725179 454.190258,102.495112 C454.261514,102.265045 454.296908,101.955339 454.296908,101.565995 L454.296908,88.5816432 C454.296908,88.1922989 454.261514,87.8825932 454.190258,87.6525262 C454.119468,87.4219934 454.022132,87.2454844 453.89825,87.1211364 C453.774367,86.9972542 453.62813,86.9157527 453.46047,86.8757005 C453.292344,86.8361141 453.106055,86.816088 452.902534,86.816088 L451.761048,86.816088 L451.761048,85.3686215 L461.147225,85.3686215 L461.147225,86.816088 L460.005273,86.816088 C459.810601,86.816088 459.627106,86.8361141 459.454789,86.8757005 C459.282005,86.9157527 459.13344,86.9972542 459.009558,87.1211364 C458.885675,87.2454844 458.788339,87.4219934 458.717549,87.6525262 C458.64676,87.8825932 458.611365,88.1922989 458.611365,88.5816432 L458.611365,101.565995 C458.611365,101.955339 458.64676,102.265045 458.717549,102.495112 C458.788339,102.725179 458.885675,102.902154 459.009558,103.026036 C459.13344,103.149918 459.282005,103.231886 459.454789,103.271938 C459.627106,103.311524 459.810601,103.33155 460.005273,103.33155 L461.147225,103.33155 L461.147225,104.778551 L451.761048,104.778551 Z" id="Fill-29" fill="#EFB857"></path>
                <path d="M483.812278,101.565809 C483.812278,101.955153 483.847673,102.264859 483.918928,102.494926 C483.989253,102.724993 484.088917,102.901968 484.217457,103.026316 C484.345996,103.149732 484.494096,103.231699 484.662222,103.271752 C484.830348,103.311338 485.011514,103.331364 485.206186,103.331364 L486.348139,103.331364 L486.348139,104.778365 L476.961961,104.778365 L476.961961,103.331364 L478.103448,103.331364 C478.307434,103.331364 478.493258,103.311338 478.660918,103.271752 C478.82951,103.231699 478.975281,103.149732 479.099629,103.026316 C479.223045,102.901968 479.320381,102.724993 479.391637,102.494926 C479.461961,102.264859 479.497356,101.955153 479.497356,101.565809 L479.497356,87.0282713 L477.320568,87.0282713 C476.913526,87.0282713 476.572151,87.0729807 476.29784,87.1610023 C476.02353,87.2499554 475.800448,87.3757005 475.627665,87.539635 C475.455348,87.7031037 475.326808,87.9047617 475.242978,88.1436775 C475.158682,88.3821275 475.098604,88.6522468 475.063675,88.9535694 L474.877386,90.639486 L473.045698,90.639486 L473.191469,85.3689009 L490.131671,85.3689009 L490.264402,90.639486 L488.445754,90.639486 L488.246425,88.9535694 C488.21103,88.6522468 488.151417,88.3821275 488.067587,88.1436775 C487.983291,87.9047617 487.855218,87.7031037 487.682435,87.539635 C487.509651,87.3757005 487.286104,87.2499554 487.011794,87.1610023 C486.737483,87.0729807 486.396574,87.0282713 485.989998,87.0282713 L483.812278,87.0282713 L483.812278,101.565809 Z" id="Fill-31" fill="#EFB857"></path>
                <path d="M510.327089,92.2722636 C510.229752,91.9625579 510.130088,91.6374834 510.02856,91.2965743 C509.927033,90.9561309 509.825039,90.6087017 509.723046,90.2542867 C509.621053,89.9003373 509.523717,89.5487166 509.431038,89.1989588 C509.338359,88.8492009 509.256392,88.5152777 509.185602,88.1967233 C509.105963,88.471034 509.013284,88.771891 508.906634,89.0997598 C508.800915,89.427163 508.687279,89.7629491 508.568519,90.1085154 C508.448828,90.453616 508.329138,90.7987166 508.209913,91.1438172 C508.090222,91.4889178 507.977517,91.8209782 507.871332,92.1395326 L506.264588,96.7329567 L511.761049,96.7329567 L510.327089,92.2722636 Z M505.694078,98.3927928 L504.910732,100.729324 C504.839942,100.950542 504.766824,101.209484 504.691377,101.505684 C504.616395,101.802815 504.578672,102.061757 504.578672,102.28251 C504.578672,102.459484 504.614067,102.61457 504.685322,102.747301 C504.755647,102.880032 504.848325,102.988546 504.963825,103.072376 C505.078392,103.156671 505.209726,103.220941 505.355498,103.265185 C505.501734,103.309429 505.654026,103.331318 505.813769,103.331318 L506.955255,103.331318 L506.955255,104.778784 L499.879063,104.778784 L499.879063,103.331318 L500.210658,103.331318 C500.450039,103.331318 500.668929,103.304771 500.867792,103.251679 C501.067122,103.198587 501.253411,103.098922 501.425728,102.953151 C501.598512,102.806914 501.76198,102.605721 501.9166,102.349108 C502.071686,102.092495 502.228635,101.760434 502.388377,101.353393 L508.282565,85.3688544 L512.013471,85.3688544 L517.695289,101.379939 C517.82802,101.760434 517.967737,102.07666 518.113974,102.329082 C518.259745,102.581504 518.419022,102.780367 518.591806,102.926604 C518.764123,103.072376 518.948084,103.176698 519.142756,103.238639 C519.337428,103.30058 519.540949,103.331318 519.753318,103.331318 L520.244656,103.331318 L520.244656,104.778784 L511.269712,104.778784 L511.269712,103.331318 L512.332025,103.331318 C512.464756,103.331318 512.602144,103.311291 512.743258,103.271705 C512.884838,103.231653 513.011515,103.169712 513.121891,103.085882 C513.232267,103.001586 513.323549,102.893538 513.394339,102.760807 C513.464663,102.62761 513.500058,102.468799 513.500058,102.28251 C513.500058,102.061757 513.473978,101.848922 513.420885,101.645401 C513.367327,101.441414 513.314235,101.264905 513.261608,101.114011 L512.305479,98.3927928 L505.694078,98.3927928 Z" id="Fill-33" fill="#EFB857"></path>
                <path d="M531.877247,104.778551 L531.877247,103.33155 L533.018734,103.33155 C533.222721,103.33155 533.408078,103.311524 533.576204,103.271938 C533.744796,103.231886 533.890567,103.149918 534.014915,103.026036 C534.138332,102.902154 534.235668,102.725179 534.306923,102.495112 C534.377247,102.265045 534.412642,101.955339 534.412642,101.565995 L534.412642,88.5681372 C534.412642,88.178793 534.377247,87.8690873 534.306923,87.6390202 C534.235668,87.4089531 534.138332,87.2319785 534.014915,87.1080962 C533.890567,86.9842139 533.744796,86.9022467 533.576204,86.8621946 C533.408078,86.8226081 533.222721,86.802582 533.018734,86.802582 L531.877247,86.802582 L531.877247,85.3686215 L541.263425,85.3686215 L541.263425,86.802582 L540.121473,86.802582 C539.936115,86.802582 539.756346,86.8226081 539.584028,86.8621946 C539.411245,86.9022467 539.26268,86.9795567 539.139263,87.0945902 C539.014915,87.2096238 538.91525,87.3758868 538.840269,87.5929137 C538.765288,87.8094748 538.727564,88.0996201 538.727564,88.4624181 L538.727564,103.119181 L543.78578,103.119181 C544.422888,103.119181 544.918883,102.917989 545.272833,102.515138 C545.626316,102.111822 545.883395,101.525943 546.042672,100.755637 L546.480452,98.7115801 L548.007557,98.7115801 L547.808693,104.778551 L531.877247,104.778551 Z" id="Fill-35" fill="#EFB857"></path>
                <polygon id="Fill-37" fill="#EFB857" points="345.894848 97.6526195 152.278971 95.9215279 345.894848 94.1904362"></polygon>
            </g>
        </g>
    </g>
</svg>