<?xml version="1.0" encoding="UTF-8"?>
<svg width="720px" height="544px" viewBox="0 0 720 544" version="1.1" xmlns="http://www.w3.org/2000/svg" xmlns:xlink="http://www.w3.org/1999/xlink">
    <title>Artboard Copy 3</title>
    <defs>
        <linearGradient x1="1.20215471%" y1="46.1562247%" x2="62.937562%" y2="51.7677527%" id="linearGradient-1">
            <stop stop-color="#302D39" offset="0%"></stop>
            <stop stop-color="#1D1A24" offset="100%"></stop>
        </linearGradient>
        <linearGradient x1="93.4519256%" y1="37.3871359%" x2="8.79253438%" y2="62.5866906%" id="linearGradient-2">
            <stop stop-color="#793100" offset="1%"></stop>
            <stop stop-color="#FFB310" offset="100%"></stop>
        </linearGradient>
        <linearGradient x1="93.1755222%" y1="26.5807527%" x2="8.24659958%" y2="72.6569571%" id="linearGradient-3">
            <stop stop-color="#FF9A00" offset="1%"></stop>
            <stop stop-color="#F0CD2E" offset="100%"></stop>
        </linearGradient>
        <linearGradient x1="93.0161501%" y1="30.0990315%" x2="6.8060076%" y2="70.0005722%" id="linearGradient-4">
            <stop stop-color="#FFE000" offset="0%"></stop>
            <stop stop-color="#CC7200" offset="99%"></stop>
        </linearGradient>
        <linearGradient x1="109.067454%" y1="28.6365699%" x2="33.6555251%" y2="70.3813413%" id="linearGradient-5">
            <stop stop-color="#FFE000" offset="0%"></stop>
            <stop stop-color="#CC7200" offset="99%"></stop>
        </linearGradient>
        <linearGradient x1="80.5504381%" y1="61.4282018%" x2="-45.9159363%" y2="14.1041527%" id="linearGradient-6">
            <stop stop-color="#FFFF9C" offset="0%"></stop>
            <stop stop-color="#F0CD2E" offset="100%"></stop>
        </linearGradient>
        <linearGradient x1="29.0464775%" y1="21.3462581%" x2="72.7813759%" y2="81.158063%" id="linearGradient-7">
            <stop stop-color="#FFD63B" offset="0%"></stop>
            <stop stop-color="#F0AB00" offset="99%"></stop>
        </linearGradient>
        <rect id="path-8" x="0" y="0" width="207" height="61" rx="30.5"></rect>
    </defs>
    <g id="Artboard-Copy-3" stroke="none" stroke-width="1" fill="none" fill-rule="evenodd">
        <rect fill="#1A1720" x="0" y="0" width="720" height="544"></rect>
        <path d="M119.833333,447.333333 C120.845855,447.333333 121.666667,448.154145 121.666667,449.166667 C121.666667,450.179189 120.845855,451 119.833333,451 C118.820811,451 118,450.179189 118,449.166667 C118,448.154145 118.820811,447.333333 119.833333,447.333333 Z M134.5,447.333333 C135.512522,447.333333 136.333333,448.154145 136.333333,449.166667 C136.333333,450.179189 135.512522,451 134.5,451 C133.487478,451 132.666667,450.179189 132.666667,449.166667 C132.666667,448.154145 133.487478,447.333333 134.5,447.333333 Z M149.166667,447.333333 C150.179189,447.333333 151,448.154145 151,449.166667 C151,450.179189 150.179189,451 149.166667,451 C148.154145,451 147.333333,450.179189 147.333333,449.166667 C147.333333,448.154145 148.154145,447.333333 149.166667,447.333333 Z M163.833333,447.333333 C164.845855,447.333333 165.666667,448.154145 165.666667,449.166667 C165.666667,450.179189 164.845855,451 163.833333,451 C162.820811,451 162,450.179189 162,449.166667 C162,448.154145 162.820811,447.333333 163.833333,447.333333 Z M178.5,447.333333 C179.512522,447.333333 180.333333,448.154145 180.333333,449.166667 C180.333333,450.179189 179.512522,451 178.5,451 C177.487478,451 176.666667,450.179189 176.666667,449.166667 C176.666667,448.154145 177.487478,447.333333 178.5,447.333333 Z M193.166667,447.333333 C194.179189,447.333333 195,448.154145 195,449.166667 C195,450.179189 194.179189,451 193.166667,451 C192.154145,451 191.333333,450.179189 191.333333,449.166667 C191.333333,448.154145 192.154145,447.333333 193.166667,447.333333 Z M222.5,447.333333 C223.512522,447.333333 224.333333,448.154145 224.333333,449.166667 C224.333333,450.179189 223.512522,451 222.5,451 C221.487478,451 220.666667,450.179189 220.666667,449.166667 C220.666667,448.154145 221.487478,447.333333 222.5,447.333333 Z M237.166667,447.333333 C238.179189,447.333333 239,448.154145 239,449.166667 C239,450.179189 238.179189,451 237.166667,451 C236.154145,451 235.333333,450.179189 235.333333,449.166667 C235.333333,448.154145 236.154145,447.333333 237.166667,447.333333 Z M251.833333,447.333333 C252.845855,447.333333 253.666667,448.154145 253.666667,449.166667 C253.666667,450.179189 252.845855,451 251.833333,451 C250.820811,451 250,450.179189 250,449.166667 C250,448.154145 250.820811,447.333333 251.833333,447.333333 Z M266.5,447.333333 C267.512522,447.333333 268.333333,448.154145 268.333333,449.166667 C268.333333,450.179189 267.512522,451 266.5,451 C265.487478,451 264.666667,450.179189 264.666667,449.166667 C264.666667,448.154145 265.487478,447.333333 266.5,447.333333 Z M281.166667,447.333333 C282.179189,447.333333 283,448.154145 283,449.166667 C283,450.179189 282.179189,451 281.166667,451 C280.154145,451 279.333333,450.179189 279.333333,449.166667 C279.333333,448.154145 280.154145,447.333333 281.166667,447.333333 Z M207.833333,447.333333 C208.845855,447.333333 209.666667,448.154145 209.666667,449.166667 C209.666667,450.179189 208.845855,451 207.833333,451 C206.820811,451 206,450.179189 206,449.166667 C206,448.154145 206.820811,447.333333 207.833333,447.333333 Z M119.833333,432.666667 C120.845855,432.666667 121.666667,433.487478 121.666667,434.5 C121.666667,435.512522 120.845855,436.333333 119.833333,436.333333 C118.820811,436.333333 118,435.512522 118,434.5 C118,433.487478 118.820811,432.666667 119.833333,432.666667 Z M134.5,432.666667 C135.512522,432.666667 136.333333,433.487478 136.333333,434.5 C136.333333,435.512522 135.512522,436.333333 134.5,436.333333 C133.487478,436.333333 132.666667,435.512522 132.666667,434.5 C132.666667,433.487478 133.487478,432.666667 134.5,432.666667 Z M149.166667,432.666667 C150.179189,432.666667 151,433.487478 151,434.5 C151,435.512522 150.179189,436.333333 149.166667,436.333333 C148.154145,436.333333 147.333333,435.512522 147.333333,434.5 C147.333333,433.487478 148.154145,432.666667 149.166667,432.666667 Z M163.833333,432.666667 C164.845855,432.666667 165.666667,433.487478 165.666667,434.5 C165.666667,435.512522 164.845855,436.333333 163.833333,436.333333 C162.820811,436.333333 162,435.512522 162,434.5 C162,433.487478 162.820811,432.666667 163.833333,432.666667 Z M178.5,432.666667 C179.512522,432.666667 180.333333,433.487478 180.333333,434.5 C180.333333,435.512522 179.512522,436.333333 178.5,436.333333 C177.487478,436.333333 176.666667,435.512522 176.666667,434.5 C176.666667,433.487478 177.487478,432.666667 178.5,432.666667 Z M207.833333,432.666667 C208.845855,432.666667 209.666667,433.487478 209.666667,434.5 C209.666667,435.512522 208.845855,436.333333 207.833333,436.333333 C206.820811,436.333333 206,435.512522 206,434.5 C206,433.487478 206.820811,432.666667 207.833333,432.666667 Z M222.5,432.666667 C223.512522,432.666667 224.333333,433.487478 224.333333,434.5 C224.333333,435.512522 223.512522,436.333333 222.5,436.333333 C221.487478,436.333333 220.666667,435.512522 220.666667,434.5 C220.666667,433.487478 221.487478,432.666667 222.5,432.666667 Z M237.166667,432.666667 C238.179189,432.666667 239,433.487478 239,434.5 C239,435.512522 238.179189,436.333333 237.166667,436.333333 C236.154145,436.333333 235.333333,435.512522 235.333333,434.5 C235.333333,433.487478 236.154145,432.666667 237.166667,432.666667 Z M251.833333,432.666667 C252.845855,432.666667 253.666667,433.487478 253.666667,434.5 C253.666667,435.512522 252.845855,436.333333 251.833333,436.333333 C250.820811,436.333333 250,435.512522 250,434.5 C250,433.487478 250.820811,432.666667 251.833333,432.666667 Z M266.5,432.666667 C267.512522,432.666667 268.333333,433.487478 268.333333,434.5 C268.333333,435.512522 267.512522,436.333333 266.5,436.333333 C265.487478,436.333333 264.666667,435.512522 264.666667,434.5 C264.666667,433.487478 265.487478,432.666667 266.5,432.666667 Z M281.166667,432.666667 C282.179189,432.666667 283,433.487478 283,434.5 C283,435.512522 282.179189,436.333333 281.166667,436.333333 C280.154145,436.333333 279.333333,435.512522 279.333333,434.5 C279.333333,433.487478 280.154145,432.666667 281.166667,432.666667 Z M193.166667,432.666667 C194.179189,432.666667 195,433.487478 195,434.5 C195,435.512522 194.179189,436.333333 193.166667,436.333333 C192.154145,436.333333 191.333333,435.512522 191.333333,434.5 C191.333333,433.487478 192.154145,432.666667 193.166667,432.666667 Z M193.166667,418 C194.179189,418 195,418.820811 195,419.833333 C195,420.845855 194.179189,421.666667 193.166667,421.666667 C192.154145,421.666667 191.333333,420.845855 191.333333,419.833333 C191.333333,418.820811 192.154145,418 193.166667,418 Z M178.5,418 C179.512522,418 180.333333,418.820811 180.333333,419.833333 C180.333333,420.845855 179.512522,421.666667 178.5,421.666667 C177.487478,421.666667 176.666667,420.845855 176.666667,419.833333 C176.666667,418.820811 177.487478,418 178.5,418 Z M163.833333,418 C164.845855,418 165.666667,418.820811 165.666667,419.833333 C165.666667,420.845855 164.845855,421.666667 163.833333,421.666667 C162.820811,421.666667 162,420.845855 162,419.833333 C162,418.820811 162.820811,418 163.833333,418 Z M149.166667,418 C150.179189,418 151,418.820811 151,419.833333 C151,420.845855 150.179189,421.666667 149.166667,421.666667 C148.154145,421.666667 147.333333,420.845855 147.333333,419.833333 C147.333333,418.820811 148.154145,418 149.166667,418 Z M134.5,418 C135.512522,418 136.333333,418.820811 136.333333,419.833333 C136.333333,420.845855 135.512522,421.666667 134.5,421.666667 C133.487478,421.666667 132.666667,420.845855 132.666667,419.833333 C132.666667,418.820811 133.487478,418 134.5,418 Z M119.833333,418 C120.845855,418 121.666667,418.820811 121.666667,419.833333 C121.666667,420.845855 120.845855,421.666667 119.833333,421.666667 C118.820811,421.666667 118,420.845855 118,419.833333 C118,418.820811 118.820811,418 119.833333,418 Z M207.833333,418 C208.845855,418 209.666667,418.820811 209.666667,419.833333 C209.666667,420.845855 208.845855,421.666667 207.833333,421.666667 C206.820811,421.666667 206,420.845855 206,419.833333 C206,418.820811 206.820811,418 207.833333,418 Z M222.5,418 C223.512522,418 224.333333,418.820811 224.333333,419.833333 C224.333333,420.845855 223.512522,421.666667 222.5,421.666667 C221.487478,421.666667 220.666667,420.845855 220.666667,419.833333 C220.666667,418.820811 221.487478,418 222.5,418 Z M237.166667,418 C238.179189,418 239,418.820811 239,419.833333 C239,420.845855 238.179189,421.666667 237.166667,421.666667 C236.154145,421.666667 235.333333,420.845855 235.333333,419.833333 C235.333333,418.820811 236.154145,418 237.166667,418 Z M251.833333,418 C252.845855,418 253.666667,418.820811 253.666667,419.833333 C253.666667,420.845855 252.845855,421.666667 251.833333,421.666667 C250.820811,421.666667 250,420.845855 250,419.833333 C250,418.820811 250.820811,418 251.833333,418 Z M266.5,418 C267.512522,418 268.333333,418.820811 268.333333,419.833333 C268.333333,420.845855 267.512522,421.666667 266.5,421.666667 C265.487478,421.666667 264.666667,420.845855 264.666667,419.833333 C264.666667,418.820811 265.487478,418 266.5,418 Z M281.166667,418 C282.179189,418 283,418.820811 283,419.833333 C283,420.845855 282.179189,421.666667 281.166667,421.666667 C280.154145,421.666667 279.333333,420.845855 279.333333,419.833333 C279.333333,418.820811 280.154145,418 281.166667,418 Z M251.833333,403.333333 C252.845855,403.333333 253.666667,404.154145 253.666667,405.166667 C253.666667,406.179189 252.845855,407 251.833333,407 C250.820811,407 250,406.179189 250,405.166667 C250,404.154145 250.820811,403.333333 251.833333,403.333333 Z M222.5,403.333333 C223.512522,403.333333 224.333333,404.154145 224.333333,405.166667 C224.333333,406.179189 223.512522,407 222.5,407 C221.487478,407 220.666667,406.179189 220.666667,405.166667 C220.666667,404.154145 221.487478,403.333333 222.5,403.333333 Z M281.166667,403.333333 C282.179189,403.333333 283,404.154145 283,405.166667 C283,406.179189 282.179189,407 281.166667,407 C280.154145,407 279.333333,406.179189 279.333333,405.166667 C279.333333,404.154145 280.154145,403.333333 281.166667,403.333333 Z M237.166667,403.333333 C238.179189,403.333333 239,404.154145 239,405.166667 C239,406.179189 238.179189,407 237.166667,407 C236.154145,407 235.333333,406.179189 235.333333,405.166667 C235.333333,404.154145 236.154145,403.333333 237.166667,403.333333 Z M266.5,403.333333 C267.512522,403.333333 268.333333,404.154145 268.333333,405.166667 C268.333333,406.179189 267.512522,407 266.5,407 C265.487478,407 264.666667,406.179189 264.666667,405.166667 C264.666667,404.154145 265.487478,403.333333 266.5,403.333333 Z M207.833333,403.333333 C208.845855,403.333333 209.666667,404.154145 209.666667,405.166667 C209.666667,406.179189 208.845855,407 207.833333,407 C206.820811,407 206,406.179189 206,405.166667 C206,404.154145 206.820811,403.333333 207.833333,403.333333 Z M163.833333,403.333333 C164.845855,403.333333 165.666667,404.154145 165.666667,405.166667 C165.666667,406.179189 164.845855,407 163.833333,407 C162.820811,407 162,406.179189 162,405.166667 C162,404.154145 162.820811,403.333333 163.833333,403.333333 Z M119.833333,403.333333 C120.845855,403.333333 121.666667,404.154145 121.666667,405.166667 C121.666667,406.179189 120.845855,407 119.833333,407 C118.820811,407 118,406.179189 118,405.166667 C118,404.154145 118.820811,403.333333 119.833333,403.333333 Z M178.5,403.333333 C179.512522,403.333333 180.333333,404.154145 180.333333,405.166667 C180.333333,406.179189 179.512522,407 178.5,407 C177.487478,407 176.666667,406.179189 176.666667,405.166667 C176.666667,404.154145 177.487478,403.333333 178.5,403.333333 Z M149.166667,403.333333 C150.179189,403.333333 151,404.154145 151,405.166667 C151,406.179189 150.179189,407 149.166667,407 C148.154145,407 147.333333,406.179189 147.333333,405.166667 C147.333333,404.154145 148.154145,403.333333 149.166667,403.333333 Z M193.166667,403.333333 C194.179189,403.333333 195,404.154145 195,405.166667 C195,406.179189 194.179189,407 193.166667,407 C192.154145,407 191.333333,406.179189 191.333333,405.166667 C191.333333,404.154145 192.154145,403.333333 193.166667,403.333333 Z M134.5,403.333333 C135.512522,403.333333 136.333333,404.154145 136.333333,405.166667 C136.333333,406.179189 135.512522,407 134.5,407 C133.487478,407 132.666667,406.179189 132.666667,405.166667 C132.666667,404.154145 133.487478,403.333333 134.5,403.333333 Z M207.833333,388.666667 C208.845855,388.666667 209.666667,389.487478 209.666667,390.5 C209.666667,391.512522 208.845855,392.333333 207.833333,392.333333 C206.820811,392.333333 206,391.512522 206,390.5 C206,389.487478 206.820811,388.666667 207.833333,388.666667 Z M222.5,388.666667 C223.512522,388.666667 224.333333,389.487478 224.333333,390.5 C224.333333,391.512522 223.512522,392.333333 222.5,392.333333 C221.487478,392.333333 220.666667,391.512522 220.666667,390.5 C220.666667,389.487478 221.487478,388.666667 222.5,388.666667 Z M237.166667,388.666667 C238.179189,388.666667 239,389.487478 239,390.5 C239,391.512522 238.179189,392.333333 237.166667,392.333333 C236.154145,392.333333 235.333333,391.512522 235.333333,390.5 C235.333333,389.487478 236.154145,388.666667 237.166667,388.666667 Z M251.833333,388.666667 C252.845855,388.666667 253.666667,389.487478 253.666667,390.5 C253.666667,391.512522 252.845855,392.333333 251.833333,392.333333 C250.820811,392.333333 250,391.512522 250,390.5 C250,389.487478 250.820811,388.666667 251.833333,388.666667 Z M266.5,388.666667 C267.512522,388.666667 268.333333,389.487478 268.333333,390.5 C268.333333,391.512522 267.512522,392.333333 266.5,392.333333 C265.487478,392.333333 264.666667,391.512522 264.666667,390.5 C264.666667,389.487478 265.487478,388.666667 266.5,388.666667 Z M193.166667,388.666667 C194.179189,388.666667 195,389.487478 195,390.5 C195,391.512522 194.179189,392.333333 193.166667,392.333333 C192.154145,392.333333 191.333333,391.512522 191.333333,390.5 C191.333333,389.487478 192.154145,388.666667 193.166667,388.666667 Z M178.5,388.666667 C179.512522,388.666667 180.333333,389.487478 180.333333,390.5 C180.333333,391.512522 179.512522,392.333333 178.5,392.333333 C177.487478,392.333333 176.666667,391.512522 176.666667,390.5 C176.666667,389.487478 177.487478,388.666667 178.5,388.666667 Z M163.833333,388.666667 C164.845855,388.666667 165.666667,389.487478 165.666667,390.5 C165.666667,391.512522 164.845855,392.333333 163.833333,392.333333 C162.820811,392.333333 162,391.512522 162,390.5 C162,389.487478 162.820811,388.666667 163.833333,388.666667 Z M149.166667,388.666667 C150.179189,388.666667 151,389.487478 151,390.5 C151,391.512522 150.179189,392.333333 149.166667,392.333333 C148.154145,392.333333 147.333333,391.512522 147.333333,390.5 C147.333333,389.487478 148.154145,388.666667 149.166667,388.666667 Z M134.5,388.666667 C135.512522,388.666667 136.333333,389.487478 136.333333,390.5 C136.333333,391.512522 135.512522,392.333333 134.5,392.333333 C133.487478,392.333333 132.666667,391.512522 132.666667,390.5 C132.666667,389.487478 133.487478,388.666667 134.5,388.666667 Z M119.833333,388.666667 C120.845855,388.666667 121.666667,389.487478 121.666667,390.5 C121.666667,391.512522 120.845855,392.333333 119.833333,392.333333 C118.820811,392.333333 118,391.512522 118,390.5 C118,389.487478 118.820811,388.666667 119.833333,388.666667 Z M281.166667,388.666667 C282.179189,388.666667 283,389.487478 283,390.5 C283,391.512522 282.179189,392.333333 281.166667,392.333333 C280.154145,392.333333 279.333333,391.512522 279.333333,390.5 C279.333333,389.487478 280.154145,388.666667 281.166667,388.666667 Z M281.166667,374 C282.179189,374 283,374.820811 283,375.833333 C283,376.845855 282.179189,377.666667 281.166667,377.666667 C280.154145,377.666667 279.333333,376.845855 279.333333,375.833333 C279.333333,374.820811 280.154145,374 281.166667,374 Z M266.5,374 C267.512522,374 268.333333,374.820811 268.333333,375.833333 C268.333333,376.845855 267.512522,377.666667 266.5,377.666667 C265.487478,377.666667 264.666667,376.845855 264.666667,375.833333 C264.666667,374.820811 265.487478,374 266.5,374 Z M251.833333,374 C252.845855,374 253.666667,374.820811 253.666667,375.833333 C253.666667,376.845855 252.845855,377.666667 251.833333,377.666667 C250.820811,377.666667 250,376.845855 250,375.833333 C250,374.820811 250.820811,374 251.833333,374 Z M237.166667,374 C238.179189,374 239,374.820811 239,375.833333 C239,376.845855 238.179189,377.666667 237.166667,377.666667 C236.154145,377.666667 235.333333,376.845855 235.333333,375.833333 C235.333333,374.820811 236.154145,374 237.166667,374 Z M222.5,374 C223.512522,374 224.333333,374.820811 224.333333,375.833333 C224.333333,376.845855 223.512522,377.666667 222.5,377.666667 C221.487478,377.666667 220.666667,376.845855 220.666667,375.833333 C220.666667,374.820811 221.487478,374 222.5,374 Z M207.833333,374 C208.845855,374 209.666667,374.820811 209.666667,375.833333 C209.666667,376.845855 208.845855,377.666667 207.833333,377.666667 C206.820811,377.666667 206,376.845855 206,375.833333 C206,374.820811 206.820811,374 207.833333,374 Z M119.833333,374 C120.845855,374 121.666667,374.820811 121.666667,375.833333 C121.666667,376.845855 120.845855,377.666667 119.833333,377.666667 C118.820811,377.666667 118,376.845855 118,375.833333 C118,374.820811 118.820811,374 119.833333,374 Z M134.5,374 C135.512522,374 136.333333,374.820811 136.333333,375.833333 C136.333333,376.845855 135.512522,377.666667 134.5,377.666667 C133.487478,377.666667 132.666667,376.845855 132.666667,375.833333 C132.666667,374.820811 133.487478,374 134.5,374 Z M149.166667,374 C150.179189,374 151,374.820811 151,375.833333 C151,376.845855 150.179189,377.666667 149.166667,377.666667 C148.154145,377.666667 147.333333,376.845855 147.333333,375.833333 C147.333333,374.820811 148.154145,374 149.166667,374 Z M163.833333,374 C164.845855,374 165.666667,374.820811 165.666667,375.833333 C165.666667,376.845855 164.845855,377.666667 163.833333,377.666667 C162.820811,377.666667 162,376.845855 162,375.833333 C162,374.820811 162.820811,374 163.833333,374 Z M178.5,374 C179.512522,374 180.333333,374.820811 180.333333,375.833333 C180.333333,376.845855 179.512522,377.666667 178.5,377.666667 C177.487478,377.666667 176.666667,376.845855 176.666667,375.833333 C176.666667,374.820811 177.487478,374 178.5,374 Z M193.166667,374 C194.179189,374 195,374.820811 195,375.833333 C195,376.845855 194.179189,377.666667 193.166667,377.666667 C192.154145,377.666667 191.333333,376.845855 191.333333,375.833333 C191.333333,374.820811 192.154145,374 193.166667,374 Z M119.833333,359.333333 C120.845855,359.333333 121.666667,360.154145 121.666667,361.166667 C121.666667,362.179189 120.845855,363 119.833333,363 C118.820811,363 118,362.179189 118,361.166667 C118,360.154145 118.820811,359.333333 119.833333,359.333333 Z M207.833333,359.333333 C208.845855,359.333333 209.666667,360.154145 209.666667,361.166667 C209.666667,362.179189 208.845855,363 207.833333,363 C206.820811,363 206,362.179189 206,361.166667 C206,360.154145 206.820811,359.333333 207.833333,359.333333 Z M222.5,359.333333 C223.512522,359.333333 224.333333,360.154145 224.333333,361.166667 C224.333333,362.179189 223.512522,363 222.5,363 C221.487478,363 220.666667,362.179189 220.666667,361.166667 C220.666667,360.154145 221.487478,359.333333 222.5,359.333333 Z M237.166667,359.333333 C238.179189,359.333333 239,360.154145 239,361.166667 C239,362.179189 238.179189,363 237.166667,363 C236.154145,363 235.333333,362.179189 235.333333,361.166667 C235.333333,360.154145 236.154145,359.333333 237.166667,359.333333 Z M251.833333,359.333333 C252.845855,359.333333 253.666667,360.154145 253.666667,361.166667 C253.666667,362.179189 252.845855,363 251.833333,363 C250.820811,363 250,362.179189 250,361.166667 C250,360.154145 250.820811,359.333333 251.833333,359.333333 Z M266.5,359.333333 C267.512522,359.333333 268.333333,360.154145 268.333333,361.166667 C268.333333,362.179189 267.512522,363 266.5,363 C265.487478,363 264.666667,362.179189 264.666667,361.166667 C264.666667,360.154145 265.487478,359.333333 266.5,359.333333 Z M281.166667,359.333333 C282.179189,359.333333 283,360.154145 283,361.166667 C283,362.179189 282.179189,363 281.166667,363 C280.154145,363 279.333333,362.179189 279.333333,361.166667 C279.333333,360.154145 280.154145,359.333333 281.166667,359.333333 Z M193.166667,359.333333 C194.179189,359.333333 195,360.154145 195,361.166667 C195,362.179189 194.179189,363 193.166667,363 C192.154145,363 191.333333,362.179189 191.333333,361.166667 C191.333333,360.154145 192.154145,359.333333 193.166667,359.333333 Z M178.5,359.333333 C179.512522,359.333333 180.333333,360.154145 180.333333,361.166667 C180.333333,362.179189 179.512522,363 178.5,363 C177.487478,363 176.666667,362.179189 176.666667,361.166667 C176.666667,360.154145 177.487478,359.333333 178.5,359.333333 Z M163.833333,359.333333 C164.845855,359.333333 165.666667,360.154145 165.666667,361.166667 C165.666667,362.179189 164.845855,363 163.833333,363 C162.820811,363 162,362.179189 162,361.166667 C162,360.154145 162.820811,359.333333 163.833333,359.333333 Z M149.166667,359.333333 C150.179189,359.333333 151,360.154145 151,361.166667 C151,362.179189 150.179189,363 149.166667,363 C148.154145,363 147.333333,362.179189 147.333333,361.166667 C147.333333,360.154145 148.154145,359.333333 149.166667,359.333333 Z M134.5,359.333333 C135.512522,359.333333 136.333333,360.154145 136.333333,361.166667 C136.333333,362.179189 135.512522,363 134.5,363 C133.487478,363 132.666667,362.179189 132.666667,361.166667 C132.666667,360.154145 133.487478,359.333333 134.5,359.333333 Z M178.5,344.666667 C179.512522,344.666667 180.333333,345.487478 180.333333,346.5 C180.333333,347.512522 179.512522,348.333333 178.5,348.333333 C177.487478,348.333333 176.666667,347.512522 176.666667,346.5 C176.666667,345.487478 177.487478,344.666667 178.5,344.666667 Z M222.5,344.666667 C223.512522,344.666667 224.333333,345.487478 224.333333,346.5 C224.333333,347.512522 223.512522,348.333333 222.5,348.333333 C221.487478,348.333333 220.666667,347.512522 220.666667,346.5 C220.666667,345.487478 221.487478,344.666667 222.5,344.666667 Z M207.833333,344.666667 C208.845855,344.666667 209.666667,345.487478 209.666667,346.5 C209.666667,347.512522 208.845855,348.333333 207.833333,348.333333 C206.820811,348.333333 206,347.512522 206,346.5 C206,345.487478 206.820811,344.666667 207.833333,344.666667 Z M281.166667,344.666667 C282.179189,344.666667 283,345.487478 283,346.5 C283,347.512522 282.179189,348.333333 281.166667,348.333333 C280.154145,348.333333 279.333333,347.512522 279.333333,346.5 C279.333333,345.487478 280.154145,344.666667 281.166667,344.666667 Z M266.5,344.666667 C267.512522,344.666667 268.333333,345.487478 268.333333,346.5 C268.333333,347.512522 267.512522,348.333333 266.5,348.333333 C265.487478,348.333333 264.666667,347.512522 264.666667,346.5 C264.666667,345.487478 265.487478,344.666667 266.5,344.666667 Z M251.833333,344.666667 C252.845855,344.666667 253.666667,345.487478 253.666667,346.5 C253.666667,347.512522 252.845855,348.333333 251.833333,348.333333 C250.820811,348.333333 250,347.512522 250,346.5 C250,345.487478 250.820811,344.666667 251.833333,344.666667 Z M237.166667,344.666667 C238.179189,344.666667 239,345.487478 239,346.5 C239,347.512522 238.179189,348.333333 237.166667,348.333333 C236.154145,348.333333 235.333333,347.512522 235.333333,346.5 C235.333333,345.487478 236.154145,344.666667 237.166667,344.666667 Z M193.166667,344.666667 C194.179189,344.666667 195,345.487478 195,346.5 C195,347.512522 194.179189,348.333333 193.166667,348.333333 C192.154145,348.333333 191.333333,347.512522 191.333333,346.5 C191.333333,345.487478 192.154145,344.666667 193.166667,344.666667 Z M119.833333,344.666667 C120.845855,344.666667 121.666667,345.487478 121.666667,346.5 C121.666667,347.512522 120.845855,348.333333 119.833333,348.333333 C118.820811,348.333333 118,347.512522 118,346.5 C118,345.487478 118.820811,344.666667 119.833333,344.666667 Z M134.5,344.666667 C135.512522,344.666667 136.333333,345.487478 136.333333,346.5 C136.333333,347.512522 135.512522,348.333333 134.5,348.333333 C133.487478,348.333333 132.666667,347.512522 132.666667,346.5 C132.666667,345.487478 133.487478,344.666667 134.5,344.666667 Z M149.166667,344.666667 C150.179189,344.666667 151,345.487478 151,346.5 C151,347.512522 150.179189,348.333333 149.166667,348.333333 C148.154145,348.333333 147.333333,347.512522 147.333333,346.5 C147.333333,345.487478 148.154145,344.666667 149.166667,344.666667 Z M163.833333,344.666667 C164.845855,344.666667 165.666667,345.487478 165.666667,346.5 C165.666667,347.512522 164.845855,348.333333 163.833333,348.333333 C162.820811,348.333333 162,347.512522 162,346.5 C162,345.487478 162.820811,344.666667 163.833333,344.666667 Z M134.5,330 C135.512522,330 136.333333,330.820811 136.333333,331.833333 C136.333333,332.845855 135.512522,333.666667 134.5,333.666667 C133.487478,333.666667 132.666667,332.845855 132.666667,331.833333 C132.666667,330.820811 133.487478,330 134.5,330 Z M149.166667,330 C150.179189,330 151,330.820811 151,331.833333 C151,332.845855 150.179189,333.666667 149.166667,333.666667 C148.154145,333.666667 147.333333,332.845855 147.333333,331.833333 C147.333333,330.820811 148.154145,330 149.166667,330 Z M163.833333,330 C164.845855,330 165.666667,330.820811 165.666667,331.833333 C165.666667,332.845855 164.845855,333.666667 163.833333,333.666667 C162.820811,333.666667 162,332.845855 162,331.833333 C162,330.820811 162.820811,330 163.833333,330 Z M178.5,330 C179.512522,330 180.333333,330.820811 180.333333,331.833333 C180.333333,332.845855 179.512522,333.666667 178.5,333.666667 C177.487478,333.666667 176.666667,332.845855 176.666667,331.833333 C176.666667,330.820811 177.487478,330 178.5,330 Z M193.166667,330 C194.179189,330 195,330.820811 195,331.833333 C195,332.845855 194.179189,333.666667 193.166667,333.666667 C192.154145,333.666667 191.333333,332.845855 191.333333,331.833333 C191.333333,330.820811 192.154145,330 193.166667,330 Z M222.5,330 C223.512522,330 224.333333,330.820811 224.333333,331.833333 C224.333333,332.845855 223.512522,333.666667 222.5,333.666667 C221.487478,333.666667 220.666667,332.845855 220.666667,331.833333 C220.666667,330.820811 221.487478,330 222.5,330 Z M237.166667,330 C238.179189,330 239,330.820811 239,331.833333 C239,332.845855 238.179189,333.666667 237.166667,333.666667 C236.154145,333.666667 235.333333,332.845855 235.333333,331.833333 C235.333333,330.820811 236.154145,330 237.166667,330 Z M251.833333,330 C252.845855,330 253.666667,330.820811 253.666667,331.833333 C253.666667,332.845855 252.845855,333.666667 251.833333,333.666667 C250.820811,333.666667 250,332.845855 250,331.833333 C250,330.820811 250.820811,330 251.833333,330 Z M266.5,330 C267.512522,330 268.333333,330.820811 268.333333,331.833333 C268.333333,332.845855 267.512522,333.666667 266.5,333.666667 C265.487478,333.666667 264.666667,332.845855 264.666667,331.833333 C264.666667,330.820811 265.487478,330 266.5,330 Z M281.166667,330 C282.179189,330 283,330.820811 283,331.833333 C283,332.845855 282.179189,333.666667 281.166667,333.666667 C280.154145,333.666667 279.333333,332.845855 279.333333,331.833333 C279.333333,330.820811 280.154145,330 281.166667,330 Z M207.833333,330 C208.845855,330 209.666667,330.820811 209.666667,331.833333 C209.666667,332.845855 208.845855,333.666667 207.833333,333.666667 C206.820811,333.666667 206,332.845855 206,331.833333 C206,330.820811 206.820811,330 207.833333,330 Z M119.833333,330 C120.845855,330 121.666667,330.820811 121.666667,331.833333 C121.666667,332.845855 120.845855,333.666667 119.833333,333.666667 C118.820811,333.666667 118,332.845855 118,331.833333 C118,330.820811 118.820811,330 119.833333,330 Z M222.5,315.333333 C223.512522,315.333333 224.333333,316.154145 224.333333,317.166667 C224.333333,318.179189 223.512522,319 222.5,319 C221.487478,319 220.666667,318.179189 220.666667,317.166667 C220.666667,316.154145 221.487478,315.333333 222.5,315.333333 Z M251.833333,315.333333 C252.845855,315.333333 253.666667,316.154145 253.666667,317.166667 C253.666667,318.179189 252.845855,319 251.833333,319 C250.820811,319 250,318.179189 250,317.166667 C250,316.154145 250.820811,315.333333 251.833333,315.333333 Z M281.166667,315.333333 C282.179189,315.333333 283,316.154145 283,317.166667 C283,318.179189 282.179189,319 281.166667,319 C280.154145,319 279.333333,318.179189 279.333333,317.166667 C279.333333,316.154145 280.154145,315.333333 281.166667,315.333333 Z M237.166667,315.333333 C238.179189,315.333333 239,316.154145 239,317.166667 C239,318.179189 238.179189,319 237.166667,319 C236.154145,319 235.333333,318.179189 235.333333,317.166667 C235.333333,316.154145 236.154145,315.333333 237.166667,315.333333 Z M266.5,315.333333 C267.512522,315.333333 268.333333,316.154145 268.333333,317.166667 C268.333333,318.179189 267.512522,319 266.5,319 C265.487478,319 264.666667,318.179189 264.666667,317.166667 C264.666667,316.154145 265.487478,315.333333 266.5,315.333333 Z M207.833333,315.333333 C208.845855,315.333333 209.666667,316.154145 209.666667,317.166667 C209.666667,318.179189 208.845855,319 207.833333,319 C206.820811,319 206,318.179189 206,317.166667 C206,316.154145 206.820811,315.333333 207.833333,315.333333 Z M163.833333,315.333333 C164.845855,315.333333 165.666667,316.154145 165.666667,317.166667 C165.666667,318.179189 164.845855,319 163.833333,319 C162.820811,319 162,318.179189 162,317.166667 C162,316.154145 162.820811,315.333333 163.833333,315.333333 Z M134.5,315.333333 C135.512522,315.333333 136.333333,316.154145 136.333333,317.166667 C136.333333,318.179189 135.512522,319 134.5,319 C133.487478,319 132.666667,318.179189 132.666667,317.166667 C132.666667,316.154145 133.487478,315.333333 134.5,315.333333 Z M193.166667,315.333333 C194.179189,315.333333 195,316.154145 195,317.166667 C195,318.179189 194.179189,319 193.166667,319 C192.154145,319 191.333333,318.179189 191.333333,317.166667 C191.333333,316.154145 192.154145,315.333333 193.166667,315.333333 Z M149.166667,315.333333 C150.179189,315.333333 151,316.154145 151,317.166667 C151,318.179189 150.179189,319 149.166667,319 C148.154145,319 147.333333,318.179189 147.333333,317.166667 C147.333333,316.154145 148.154145,315.333333 149.166667,315.333333 Z M178.5,315.333333 C179.512522,315.333333 180.333333,316.154145 180.333333,317.166667 C180.333333,318.179189 179.512522,319 178.5,319 C177.487478,319 176.666667,318.179189 176.666667,317.166667 C176.666667,316.154145 177.487478,315.333333 178.5,315.333333 Z M119.833333,315.333333 C120.845855,315.333333 121.666667,316.154145 121.666667,317.166667 C121.666667,318.179189 120.845855,319 119.833333,319 C118.820811,319 118,318.179189 118,317.166667 C118,316.154145 118.820811,315.333333 119.833333,315.333333 Z M222.5,300.666667 C223.512522,300.666667 224.333333,301.487478 224.333333,302.5 C224.333333,303.512522 223.512522,304.333333 222.5,304.333333 C221.487478,304.333333 220.666667,303.512522 220.666667,302.5 C220.666667,301.487478 221.487478,300.666667 222.5,300.666667 Z M134.5,300.666667 C135.512522,300.666667 136.333333,301.487478 136.333333,302.5 C136.333333,303.512522 135.512522,304.333333 134.5,304.333333 C133.487478,304.333333 132.666667,303.512522 132.666667,302.5 C132.666667,301.487478 133.487478,300.666667 134.5,300.666667 Z M119.833333,300.666667 C120.845855,300.666667 121.666667,301.487478 121.666667,302.5 C121.666667,303.512522 120.845855,304.333333 119.833333,304.333333 C118.820811,304.333333 118,303.512522 118,302.5 C118,301.487478 118.820811,300.666667 119.833333,300.666667 Z M193.166667,300.666667 C194.179189,300.666667 195,301.487478 195,302.5 C195,303.512522 194.179189,304.333333 193.166667,304.333333 C192.154145,304.333333 191.333333,303.512522 191.333333,302.5 C191.333333,301.487478 192.154145,300.666667 193.166667,300.666667 Z M178.5,300.666667 C179.512522,300.666667 180.333333,301.487478 180.333333,302.5 C180.333333,303.512522 179.512522,304.333333 178.5,304.333333 C177.487478,304.333333 176.666667,303.512522 176.666667,302.5 C176.666667,301.487478 177.487478,300.666667 178.5,300.666667 Z M163.833333,300.666667 C164.845855,300.666667 165.666667,301.487478 165.666667,302.5 C165.666667,303.512522 164.845855,304.333333 163.833333,304.333333 C162.820811,304.333333 162,303.512522 162,302.5 C162,301.487478 162.820811,300.666667 163.833333,300.666667 Z M149.166667,300.666667 C150.179189,300.666667 151,301.487478 151,302.5 C151,303.512522 150.179189,304.333333 149.166667,304.333333 C148.154145,304.333333 147.333333,303.512522 147.333333,302.5 C147.333333,301.487478 148.154145,300.666667 149.166667,300.666667 Z M237.166667,300.666667 C238.179189,300.666667 239,301.487478 239,302.5 C239,303.512522 238.179189,304.333333 237.166667,304.333333 C236.154145,304.333333 235.333333,303.512522 235.333333,302.5 C235.333333,301.487478 236.154145,300.666667 237.166667,300.666667 Z M251.833333,300.666667 C252.845855,300.666667 253.666667,301.487478 253.666667,302.5 C253.666667,303.512522 252.845855,304.333333 251.833333,304.333333 C250.820811,304.333333 250,303.512522 250,302.5 C250,301.487478 250.820811,300.666667 251.833333,300.666667 Z M266.5,300.666667 C267.512522,300.666667 268.333333,301.487478 268.333333,302.5 C268.333333,303.512522 267.512522,304.333333 266.5,304.333333 C265.487478,304.333333 264.666667,303.512522 264.666667,302.5 C264.666667,301.487478 265.487478,300.666667 266.5,300.666667 Z M281.166667,300.666667 C282.179189,300.666667 283,301.487478 283,302.5 C283,303.512522 282.179189,304.333333 281.166667,304.333333 C280.154145,304.333333 279.333333,303.512522 279.333333,302.5 C279.333333,301.487478 280.154145,300.666667 281.166667,300.666667 Z M207.833333,300.666667 C208.845855,300.666667 209.666667,301.487478 209.666667,302.5 C209.666667,303.512522 208.845855,304.333333 207.833333,304.333333 C206.820811,304.333333 206,303.512522 206,302.5 C206,301.487478 206.820811,300.666667 207.833333,300.666667 Z M266.5,286 C267.512522,286 268.333333,286.820811 268.333333,287.833333 C268.333333,288.845855 267.512522,289.666667 266.5,289.666667 C265.487478,289.666667 264.666667,288.845855 264.666667,287.833333 C264.666667,286.820811 265.487478,286 266.5,286 Z M193.166667,286 C194.179189,286 195,286.820811 195,287.833333 C195,288.845855 194.179189,289.666667 193.166667,289.666667 C192.154145,289.666667 191.333333,288.845855 191.333333,287.833333 C191.333333,286.820811 192.154145,286 193.166667,286 Z M178.5,286 C179.512522,286 180.333333,286.820811 180.333333,287.833333 C180.333333,288.845855 179.512522,289.666667 178.5,289.666667 C177.487478,289.666667 176.666667,288.845855 176.666667,287.833333 C176.666667,286.820811 177.487478,286 178.5,286 Z M163.833333,286 C164.845855,286 165.666667,286.820811 165.666667,287.833333 C165.666667,288.845855 164.845855,289.666667 163.833333,289.666667 C162.820811,289.666667 162,288.845855 162,287.833333 C162,286.820811 162.820811,286 163.833333,286 Z M149.166667,286 C150.179189,286 151,286.820811 151,287.833333 C151,288.845855 150.179189,289.666667 149.166667,289.666667 C148.154145,289.666667 147.333333,288.845855 147.333333,287.833333 C147.333333,286.820811 148.154145,286 149.166667,286 Z M134.5,286 C135.512522,286 136.333333,286.820811 136.333333,287.833333 C136.333333,288.845855 135.512522,289.666667 134.5,289.666667 C133.487478,289.666667 132.666667,288.845855 132.666667,287.833333 C132.666667,286.820811 133.487478,286 134.5,286 Z M119.833333,286 C120.845855,286 121.666667,286.820811 121.666667,287.833333 C121.666667,288.845855 120.845855,289.666667 119.833333,289.666667 C118.820811,289.666667 118,288.845855 118,287.833333 C118,286.820811 118.820811,286 119.833333,286 Z M281.166667,286 C282.179189,286 283,286.820811 283,287.833333 C283,288.845855 282.179189,289.666667 281.166667,289.666667 C280.154145,289.666667 279.333333,288.845855 279.333333,287.833333 C279.333333,286.820811 280.154145,286 281.166667,286 Z M222.5,286 C223.512522,286 224.333333,286.820811 224.333333,287.833333 C224.333333,288.845855 223.512522,289.666667 222.5,289.666667 C221.487478,289.666667 220.666667,288.845855 220.666667,287.833333 C220.666667,286.820811 221.487478,286 222.5,286 Z M237.166667,286 C238.179189,286 239,286.820811 239,287.833333 C239,288.845855 238.179189,289.666667 237.166667,289.666667 C236.154145,289.666667 235.333333,288.845855 235.333333,287.833333 C235.333333,286.820811 236.154145,286 237.166667,286 Z M251.833333,286 C252.845855,286 253.666667,286.820811 253.666667,287.833333 C253.666667,288.845855 252.845855,289.666667 251.833333,289.666667 C250.820811,289.666667 250,288.845855 250,287.833333 C250,286.820811 250.820811,286 251.833333,286 Z M207.833333,286 C208.845855,286 209.666667,286.820811 209.666667,287.833333 C209.666667,288.845855 208.845855,289.666667 207.833333,289.666667 C206.820811,289.666667 206,288.845855 206,287.833333 C206,286.820811 206.820811,286 207.833333,286 Z" id="Combined-Shape" fill="#F6A21B" opacity="0.308820858"></path>
        <rect id="Rectangle-5-Copy-2" fill="url(#linearGradient-1)" x="177" y="106" width="1082" height="300" rx="15"></rect>
        <g id="Combined-Shape-2-Copy" opacity="0.415629542" transform="translate(125.000000, 285.000000)"></g>
        <rect id="Rectangle" fill="#18161E" x="103" y="165" width="145" height="187" rx="15"></rect>
        <g id="Untitled-1-07-Copy-4" transform="translate(63.000000, 203.000000)" fill-rule="nonzero">
            <path d="M145.425352,36.6506881 L145.425352,36.6506881 L141.925603,28.2257067 L142.855536,32.7031105 C134.30615,21.2608564 118.607277,14 98.5712146,14 C78.7376381,14 58.7490728,21.1066347 43.1801903,32.354868 L43.1801903,32.354868 C37.1872363,36.6393957 31.7892716,41.6928155 27.1263425,47.3840199 C22.0967035,53.6026362 18.2844772,60.3834155 16.0821352,67.5 C14.3947563,72.9524828 13.772301,78.2134322 14.107277,83.1709131 C12.7798722,82.3326437 11,81.3501023 11,81.3501023 L16.8345812,94.7673889 L16.8345812,94.7673889 C23.4591057,110.463176 41.2978254,121 65.4560914,121 C81.9849051,121 98.621211,116.062419 112.717699,107.908569 C114.800883,106.702986 116.826571,105.427756 118.794763,104.082876 C119.339724,103.712247 119.877185,103.336642 120.412147,102.953575 C133.636198,93.5012786 143.735473,81.0963827 147.945171,67.4975126 C151.489916,56.0204343 150.32,45.3667008 145.425352,36.6506881 Z" id="Path" fill="url(#linearGradient-2)"></path>
            <path d="M141.950351,54.5 C137.773668,68.0957506 127.747643,80.5100191 114.619507,89.9419778 C114.088425,90.3225394 113.552381,90.703101 113.013854,91.0737133 C111.063246,92.4135556 109.052251,93.6878981 106.980867,94.8967409 C92.9816579,103.062648 76.470979,108 60.0595677,108 C23.9112814,108 1.9706663,84.0470036 11.0486858,54.5 C13.2375357,47.3837463 17.0221119,40.593333 22.0152708,34.3849551 C26.6434446,28.694021 32.0014378,23.6408224 37.9501977,19.3565019 L37.9501977,19.3565019 C53.4086404,8.10879167 73.252228,1 92.9394692,1 C129.090237,1 151.030852,24.9505091 141.950351,54.5 Z" id="Path" fill="url(#linearGradient-3)"></path>
            <path d="M125.623185,16.1703496 C117.431856,9.80023793 105.89201,6 92.0933422,6 C66.8839044,6.01736401 41.4014221,18.6682866 26.9524129,36.5879464 C22.3677504,42.2759005 18.8901586,48.4946971 16.8820417,55.0111626 C11.8654728,71.2911636 17.1600505,85.715696 29.4023652,94.6259144 C29.4171523,94.6335855 29.4305711,94.643643 29.4420807,94.6556813 C37.5366038,100.527198 48.6817767,104 61.8896754,104 C79.1957212,104 96.625878,98.0466246 110.54121,88.5088212 C123.322166,79.7474372 133.129422,67.959754 137.123316,55.0037209 C141.988469,39.1950287 137.12828,25.13266 125.623185,16.1703496 Z" id="Path" fill="url(#linearGradient-4)"></path>
            <path d="M134.209023,54.501256 C130.167229,67.8631039 119.862877,79.9412698 106.558024,88.5703255 C106.153351,88.8215353 105.746211,89.0878176 105.339071,89.3440516 C92.7547325,97.1968691 77.6411892,102 62.6288141,102 C31.044593,102 11.8547111,80.7350927 19.7902467,54.501256 C21.4632234,48.974641 24.2095701,43.6615543 27.7948727,38.7252823 C32.2783516,32.5505461 38.0770172,26.9611286 44.7491839,22.2559695 C58.0342969,12.8757966 74.764064,7 91.3704553,7 C122.967014,7 142.144558,28.2674194 134.209023,54.501256 Z" id="Path" fill="url(#linearGradient-5)"></path>
            <path d="M134.208184,54.4999336 C130.166329,67.8639214 119.861819,79.9392391 106.556763,88.5680545 C106.152084,88.8192573 105.744937,89.0855323 105.337791,89.3417591 C92.7532605,97.194358 77.6394863,102 62.6268819,102 C59.4364732,102.00634 56.2498364,101.776299 53.0922495,101.311572 C27.2964298,97.4731931 12.6959071,77.9848814 19.7876601,54.4999336 C21.4606623,48.9734724 24.207051,43.6605336 27.7924084,38.724399 C32.2759557,32.5498347 38.0747099,26.9605729 44.7469786,22.2555448 C55.3747378,14.7496057 68.2084912,9.49193157 81.4173129,7.68578359 C84.715806,7.23162948 88.0404387,7.00252389 91.3689621,7 C122.966003,7 142.146308,28.2668273 134.208184,54.4999336 Z" id="Path" fill="url(#linearGradient-6)"></path>
            <path d="M114.201354,54.001234 C112.428287,59.7270167 109.45747,65.2109344 105.566642,70.2900985 L105.522006,70.3443947 C102.906876,73.7177563 99.9821509,76.8417263 96.7856216,79.6759396 C93.5466043,82.5529268 90.0783634,85.1635982 86.4150402,87.4822545 L85.1875323,88.2424015 C75.3377118,94.2446012 63.9504068,98.4377498 52.2680038,100 C26.3440301,96.2214771 11.6709717,77.0746573 18.7954769,54.001234 C20.4817503,48.5716125 23.2393032,43.3493039 26.8399929,38.5021327 C31.0135196,32.8972825 36.3203211,27.7662902 42.4057843,23.3707648 C42.901747,23.0129034 43.3853107,22.664914 43.8812735,22.3243287 C44.1292549,22.141696 44.4020344,21.9639992 44.6648947,21.7863025 L45.1459785,21.4654613 C45.7436137,21.0705797 46.3511681,20.6781662 46.9612023,20.2931566 C47.1099911,20.2043083 47.2538203,20.1105239 47.4026091,20.0216756 L47.5042815,19.9550393 L47.8564151,19.7427905 C48.030002,19.634198 48.203589,19.5280736 48.3821356,19.4219492 C48.776426,19.1874883 49.175676,18.9505593 49.5774058,18.7210344 L50.001454,18.4742334 L50.4651792,18.2126244 C50.6610845,18.104032 50.85451,17.9929715 51.0553749,17.8843791 C51.8613144,17.4401374 52.6746933,17.0057676 53.4979915,16.588674 C53.6418207,16.5121657 53.7856499,16.4405934 53.9319589,16.3690211 L54.023712,16.3221289 C54.410563,16.1271562 54.7974139,15.9371194 55.1867447,15.7470827 L55.7967789,15.4558575 C56.2927417,15.2090565 56.7887044,14.9869356 57.3045057,14.7598787 L58.0162123,14.4415055 C58.1997185,14.3625292 58.3757853,14.2810849 58.5642511,14.1947045 C58.71304,14.1256002 58.8568692,14.0639 59.0081378,13.9997317 C59.3949888,13.8343751 59.7843195,13.6739544 60.1711705,13.5061298 L61.6268212,12.9286155 L62.3558865,12.6497304 L63.0998306,12.3757813 C63.347812,12.2819969 63.6205915,12.1906806 63.880972,12.0919602 L64.5802795,11.8451592 L65.3242236,11.5983582 C65.3242236,11.5983582 65.3242236,11.5983582 65.3242236,11.5983582 L66.0681678,11.3515573 L66.8121119,11.1047563 C67.0402548,11.030716 67.2659178,10.9640797 67.4940607,10.8925074 L67.6478092,10.8456153 C67.8734722,10.778979 68.0941757,10.7098747 68.3148791,10.6481745 C68.5355825,10.5864742 68.8108419,10.4951579 69.0588232,10.4235856 L70.0309103,10.1545725 L70.5739895,10.0089599 C70.7649352,9.95959975 70.9583606,9.90530354 71.1542659,9.85841135 C71.913089,9.65767989 72.6735652,9.47175649 73.4356946,9.30064115 L73.9316574,9.19204872 C74.1350021,9.14515653 74.3383469,9.09826435 74.5416916,9.05630818 C74.9533407,8.96745983 75.366643,8.88519284 75.7815985,8.8095072 C76.0295799,8.76261502 76.2775613,8.71325482 76.5057042,8.67129866 L76.9719091,8.5824503 L77.0884604,8.56023822 L77.6340194,8.46398584 C78.0506282,8.39323622 78.4697167,8.32413195 78.891285,8.25667302 L79.4467633,8.17276068 L79.5137183,8.17276068 L80.036959,8.09625238 L80.7362665,8 C106.647841,11.785927 121.335778,30.9376828 114.201354,54.001234 Z" id="Path" fill="url(#linearGradient-7)"></path>
            <path d="M142.931986,54.5349013 C138.717881,68.1395212 128.602024,80.5618882 115.35626,90 L109.739956,88.8077913 C110.072978,88.5912523 110.400992,88.3672465 110.741526,88.1432407 C123.634236,79.3522568 133.527244,67.5247497 137.556059,54.5249455 C145.956728,27.3779294 125.622353,5.37558029 92.1298514,5.37558029 C73.8637183,5.37558029 55.4573654,11.921528 41.1299063,22.2780637 L38,19.3759438 L38,19.3759438 C53.5969491,8.11342916 73.6183336,1 93.481971,1 C129.956647,1 152.093848,24.9661335 142.931986,54.5349013 Z" id="Path" fill="#FFFFFF" opacity="0.2"></path>
            <path d="M115.191437,54.4849768 C113.408593,60.2709711 110.421396,65.8125569 106.509115,70.9451328 L106.464232,71 L43,23.5324017 C43.4986974,23.1707771 43.9849274,22.8191283 44.4836248,22.4749614 C44.7329735,22.2904081 45.0072571,22.1108428 45.2715667,21.9312775 L45.7553032,21.6070623 C46.3562336,21.2080282 46.9671379,20.8114881 47.5805357,20.4224298 C47.7301449,20.3326472 47.8747672,20.2378766 48.0243764,20.1480939 L48.1266093,20.0807569 L48.4806845,19.8662761 C48.6552286,19.7565417 48.8297727,19.6493013 49.0093038,19.5420609 C49.4057682,19.3051344 49.8072196,19.0657139 50.2111645,18.8337754 L50.6375508,18.5843791 L51.1038329,18.320019 C51.3008183,18.2102846 51.4953103,18.0980563 51.6972828,17.9883219 C52.5076661,17.5394086 53.3255298,17.1004711 54.1533675,16.6789913 C54.2979898,16.6016785 54.442612,16.5293535 54.5897277,16.4570286 L54.6819868,16.4096433 C55.0709707,16.2126202 55.4599547,16.0205851 55.8514322,15.8285499 L56.46483,15.5342623 C56.9635274,15.284866 57.4622248,15.0604093 57.9808701,14.8309647 L58.6965009,14.5092435 C58.8810189,14.4294367 59.0580565,14.3471359 59.2475615,14.2598472 C59.3971708,14.1900162 59.541793,14.1276672 59.6938957,14.0628241 C60.0828797,13.8957286 60.4743572,13.733621 60.8633411,13.5640315 L62.327018,12.9804442 L63.0601032,12.6986263 L63.8081493,12.4217964 C64.057498,12.3270259 64.3317816,12.2347492 64.5935977,12.1349907 L65.2967611,11.8855944 L66.0448072,11.6361981 C66.0448072,11.6361981 66.0448072,11.6361981 66.0448072,11.6361981 L66.7928533,11.3868018 L67.5408994,11.1374055 C67.7703002,11.0625866 67.9972075,10.9952496 68.2266084,10.9229247 L68.3812045,10.8755394 C68.6081119,10.8082024 68.8300322,10.7383714 69.0519526,10.6760223 C69.2738729,10.6136733 69.55065,10.5213966 69.7999987,10.4490717 L70.7774456,10.1772297 L71.3235193,10.0300859 C71.5155178,9.98020664 71.7100097,9.92533946 71.9069952,9.87795416 C72.6700023,9.67511183 73.4346716,9.48723328 74.2010033,9.31431851 L74.6997007,9.20458414 C74.9041666,9.15719884 75.1086326,9.10981355 75.3130985,9.06741618 C75.7270174,8.97763351 76.1425985,8.89450141 76.559842,8.81801987 C76.8091907,8.77063458 77.0585394,8.72075531 77.2879402,8.67835794 L77.7567158,8.58857527 L77.8739097,8.56612961 L78.4224768,8.46886505 C78.8413827,8.39737144 79.262782,8.32754048 79.6866748,8.25937215 L80.2452159,8.17457741 L80.31254,8.17457741 L80.8386658,8.09726456 L81.5418291,8 C107.596275,11.8257393 122.365199,31.1788924 115.191437,54.4849768 Z" id="Path" fill="#FFFFFF" opacity="0.2"></path>
        </g>
        <text id="Looking-for-funding?" font-family="PTSerif-Regular, PT Serif" font-size="30" font-weight="normal" fill="#FFFFFF">
            <tspan x="298" y="207">Looking for funding? Send us </tspan>
            <tspan x="298" y="246">your whitepaper</tspan>
        </text>
        <g id="Master-Button" transform="translate(298.000000, 285.000000)">
            <g id="Circle-+-Color">
                <mask id="mask-9" fill="white">
                    <use xlink:href="#path-8"></use>
                </mask>
                <use id="Mask" fill="#D8D8D8" xlink:href="#path-8"></use>
                <g id="Group" mask="url(#mask-9)" fill="#EFB857">
                    <g id="Color/Blue">
                        <rect id="Blue" x="0" y="0" width="207" height="61"></rect>
                    </g>
                </g>
            </g>
            <text id="Bold-Text" font-family="OpenSans-Semibold, Open Sans" font-size="20" font-weight="500" letter-spacing="-0.4823529" fill="#FFFFFF">
                <tspan x="29.40625" y="36.25"> Contact us</tspan>
            </text>
            <g id="icons8-circled_right-copy-2" transform="translate(154.000000, 11.000000)" fill-rule="nonzero">
                <path d="M40,20 C40,31.044 31.044,40 20,40 C8.956,40 0,31.044 0,20 C0,8.956 8.956,0 20,0 C31.044,0 40,8.956 40,20 Z" id="Path" fill="#FFFFFF"></path>
                <polygon id="Path" fill="#392506" points="31 20 21 12 21 28"></polygon>
                <polygon id="Path" fill="#392506" points="9 18 24 18 24 22 9 22"></polygon>
            </g>
        </g>
    </g>
</svg>